<svg width="800" height="352" version="1.1" viewBox="0 0 800 352" xmlns="http://www.w3.org/2000/svg">
<g transform="translate(0 -239.17)">
<g transform="matrix(2.5896 0 0 2.5896 -738.23 -330.69)">
<path d="m440.21 244.79s-36-13.625-45.875-18.125c-8.1122-4.0178-17.476-8.0003-17.224-3.1494" fill="none" stroke="#000" stroke-width="2"/>
<path d="m478.49 229.19c-1.632 0-3.264.31408-4.352.94224l-145.26 80.34c-.0537.0312-.10151.0649-.15111.0982l-.0362-1.008-.88826-.0638.0141 3.0004h.005c-.0281.58675.29513 1.1692.96284 1.5547l69.195 39.951c1.3056.75379 3.9169.75379 5.2225 0l147.1-84.927c.58303-.3366.91128-.94661.90298-1.5586h.005l.0703-2.9013-1.2661.16393c.0811-.1187.18352-.19433.18352-.19433l-67.355-34.456c-1.088-.62816-2.72-.94224-4.352-.94224zm71.519 35.594.054.59966c-.22393-.22749-.15689-.44815-.054-.59966z" fill="#1e1e1e" stroke="#1e1e1e" stroke-width=".488"/>
<path d="m328.78 311.04c-1.3056-.75379-1.3056-2.2614 0-3.0152l147.1-84.927c1.3056-.75379 3.9168-.75379 5.2224 0l69.197 39.951c1.3056.75379 1.3056 2.2614 0 3.0152l-147.1 84.927c-1.3056.75379-3.9168.75379-5.2224 0z" fill="#272c2d" stroke="#272c2d" stroke-width=".48792"/>
<path d="m356.63 309.53-10.205 5.8919 10.205 5.8909 10.204-5.8909z" color="#000000" color-rendering="auto" dominant-baseline="auto" image-rendering="auto" shape-rendering="auto" solid-color="#000000" style="font-feature-settings:normal;font-variant-alternates:normal;font-variant-caps:normal;font-variant-ligatures:normal;font-variant-numeric:normal;font-variant-position:normal;isolation:auto;mix-blend-mode:normal;shape-padding:0;text-decoration-color:#000000;text-decoration-line:none;text-decoration-style:solid;text-indent:0;text-orientation:mixed;text-transform:none;white-space:normal"/>
<path d="m347.93 314.56 8.704 5.0253 8.704-5.0253-8.704-5.0253z" fill="#252727"/>
<path d="m350.1 305.76-10.205 5.8919 5.8527 3.3783 10.204-5.891z" color="#000000" color-rendering="auto" dominant-baseline="auto" image-rendering="auto" shape-rendering="auto" solid-color="#000000" style="font-feature-settings:normal;font-variant-alternates:normal;font-variant-caps:normal;font-variant-ligatures:normal;font-variant-numeric:normal;font-variant-position:normal;isolation:auto;mix-blend-mode:normal;shape-padding:0;text-decoration-color:#000000;text-decoration-line:none;text-decoration-style:solid;text-indent:0;text-orientation:mixed;text-transform:none;white-space:normal"/>
<path d="m341.4 310.79 4.352 2.5126 8.704-5.0253-4.352-2.5126z" fill="#252727"/>
<path d="m360.98 299.48-10.204 5.891 5.8517 3.3793 10.204-5.8919z" color="#000000" color-rendering="auto" dominant-baseline="auto" image-rendering="auto" shape-rendering="auto" solid-color="#000000" style="font-feature-settings:normal;font-variant-alternates:normal;font-variant-caps:normal;font-variant-ligatures:normal;font-variant-numeric:normal;font-variant-position:normal;isolation:auto;mix-blend-mode:normal;shape-padding:0;text-decoration-color:#000000;text-decoration-line:none;text-decoration-style:solid;text-indent:0;text-orientation:mixed;text-transform:none;white-space:normal"/>
<path d="m352.28 304.51 4.3519 2.5126 8.704-5.0253-4.3519-2.5126z" fill="#252727"/>
<path d="m371.86 294.07-8.704 5.0253 4.3519 2.5126 8.704-5.0253z" stroke="#000" stroke-width="1.5"/>
<path d="m363.16 298.22 4.3519 2.5126 8.704-5.0253-4.3519-2.5126z" fill="#252727"/>
<path d="m382.74 287.78-8.704 5.0253 4.3519 2.5126 8.704-5.0252z" stroke="#000" stroke-width="1.5"/>
<path d="m374.04 291.94 4.3519 2.5126 8.704-5.0253-4.3519-2.5126z" fill="#252727"/>
<path d="m393.62 281.5-8.704 5.0253 4.3519 2.5126 8.704-5.0253z" stroke="#000" stroke-width="1.5"/>
<path d="m384.92 285.66 4.3519 2.5126 8.704-5.0253-4.3519-2.5126z" fill="#252727"/>
<path d="m404.5 275.22-8.704 5.0253 4.3519 2.5126 8.704-5.0252z" stroke="#000" stroke-width="1.5"/>
<path d="m415.38 268.94-8.704 5.0253 4.3519 2.5126 8.704-5.0253z" stroke="#000" stroke-width="1.5"/>
<path d="m395.8 279.38 4.352 2.5126 8.704-5.0253-4.352-2.5126z" fill="#252727"/>
<path d="m426.26 262.66-8.704 5.0253 4.3519 2.5126 8.704-5.0252z" stroke="#000" stroke-width="1.5"/>
<path d="m406.68 273.1 4.352 2.5126 8.704-5.0253-4.352-2.5126z" fill="#252727"/>
<path d="m417.56 266.82 4.352 2.5126 8.704-5.0253-4.352-2.5126z" fill="#252727"/>
<path d="m437.14 256.38-8.704 5.0253 4.3519 2.5126 8.704-5.0253z" stroke="#000" stroke-width="1.5"/>
<path d="m448.02 250.09-8.704 5.0253 4.3519 2.5126 8.704-5.0253z" stroke="#000" stroke-width="1.5"/>
<path d="m428.44 260.54 4.352 2.5126 8.704-5.0253-4.352-2.5126z" fill="#252727"/>
<path d="m439.32 254.25 4.352 2.5126 8.704-5.0253-4.352-2.5126z" fill="#252727"/>
<path d="m458.9 243.81-8.704 5.0253 4.3519 2.5126 8.704-5.0253z" stroke="#000" stroke-width="1.5"/>
<path d="m450.2 247.97 4.3519 2.5126 8.704-5.0253-4.3519-2.5126z" fill="#252727"/>
<path d="m469.78 237.53-8.704 5.0253 4.3519 2.5126 8.704-5.0253z" stroke="#000" stroke-width="1.5"/>
<path d="m461.08 241.69 4.352 2.5126 8.704-5.0253-4.352-2.5126z" fill="#252727"/>
<path d="m480.66 231.25-8.704 5.0253 4.3519 2.5126 8.704-5.0253z" stroke="#000" stroke-width="1.5"/>
<path d="m471.96 235.41 4.352 2.5126 8.704-5.0253-4.352-2.5126z" fill="#252727"/>
<path d="m369.69 327.99 8.704 5.0253 17.408-10.051-8.704-5.0253z" stroke="#000" stroke-width="1.5"/>
<path d="m369.69 327.12 8.704 5.0253 17.408-10.051-8.704-5.0253z" fill="#252727"/>
<path d="m371.86 313.3-14.556 8.4046 10.204 5.891 14.556-8.4036z" color="#000000" color-rendering="auto" dominant-baseline="auto" image-rendering="auto" shape-rendering="auto" solid-color="#000000" style="font-feature-settings:normal;font-variant-alternates:normal;font-variant-caps:normal;font-variant-ligatures:normal;font-variant-numeric:normal;font-variant-position:normal;isolation:auto;mix-blend-mode:normal;shape-padding:0;text-decoration-color:#000000;text-decoration-line:none;text-decoration-style:solid;text-indent:0;text-orientation:mixed;text-transform:none;white-space:normal"/>
<path d="m380.57 334.27 8.704 5.0252 21.76-12.563-8.704-5.0252z" stroke="#000" stroke-width="1.5"/>
<path d="m397.97 336.78-6.528 3.769 8.704 5.0253 6.528-3.769z" stroke="#000" stroke-width="1.5"/>
<path d="m380.57 333.4 8.704 5.0253 21.76-12.563-8.704-5.0253z" fill="#252727"/>
<path d="m367.51 303.25-10.204 5.8919 10.204 5.891 10.204-5.891z" color="#000000" color-rendering="auto" dominant-baseline="auto" image-rendering="auto" shape-rendering="auto" solid-color="#000000" style="font-feature-settings:normal;font-variant-alternates:normal;font-variant-caps:normal;font-variant-ligatures:normal;font-variant-numeric:normal;font-variant-position:normal;isolation:auto;mix-blend-mode:normal;shape-padding:0;text-decoration-color:#000000;text-decoration-line:none;text-decoration-style:solid;text-indent:0;text-orientation:mixed;text-transform:none;white-space:normal"/>
<path d="m358.81 308.28 8.704 5.0253 8.704-5.0253-8.704-5.0253z" fill="#252727"/>
<path d="m378.39 297.83-8.704 5.0253 8.704 5.0253 8.704-5.0253z" stroke="#000" stroke-width="1.5"/>
<path d="m369.69 301.99 8.704 5.0253 8.704-5.0253-8.704-5.0253z" fill="#252727"/>
<path d="m389.27 291.55-8.704 5.0253 8.704 5.0253 8.704-5.0253z" stroke="#000" stroke-width="1.5"/>
<path d="m380.57 295.71 8.704 5.0253 8.704-5.0253-8.704-5.0253z" fill="#252727"/>
<path d="m400.15 285.27-8.704 5.0253 8.704 5.0253 8.704-5.0253z" stroke="#000" stroke-width="1.5"/>
<path d="m391.45 289.43 8.704 5.0253 8.704-5.0253-8.704-5.0253z" fill="#252727"/>
<path d="m411.03 278.99-8.704 5.0253 8.704 5.0253 8.704-5.0253z" stroke="#000" stroke-width="1.5"/>
<path d="m402.33 283.15 8.704 5.0253 8.704-5.0253-8.704-5.0253z" fill="#252727"/>
<path d="m421.91 272.71-8.704 5.0253 8.704 5.0253 8.704-5.0253z" stroke="#000" stroke-width="1.5"/>
<path d="m413.21 276.87 8.704 5.0253 8.704-5.0253-8.704-5.0253z" fill="#252727"/>
<path d="m432.79 266.43-8.704 5.0253 8.704 5.0253 8.704-5.0253z" stroke="#000" stroke-width="1.5"/>
<path d="m424.09 270.59 8.704 5.0253 8.704-5.0253-8.704-5.0253z" fill="#252727"/>
<path d="m443.67 260.15-8.704 5.0253 8.704 5.0253 8.704-5.0253z" stroke="#000" stroke-width="1.5"/>
<path d="m434.97 264.3 8.704 5.0253 8.704-5.0253-8.704-5.0253z" fill="#252727"/>
<path d="m454.55 253.86-8.704 5.0253 8.704 5.0253 8.704-5.0253z" stroke="#000" stroke-width="1.5"/>
<path d="m445.85 258.02 8.704 5.0253 8.704-5.0253-8.704-5.0253z" fill="#252727"/>
<path d="m465.43 247.58-8.704 5.0253 8.704 5.0253 8.704-5.0253z" stroke="#000" stroke-width="1.5"/>
<path d="m456.73 251.74 8.704 5.0253 8.704-5.0253-8.704-5.0253z" fill="#252727"/>
<path d="m487.19 235.15-19.584 11.307 8.704 5.0253 19.584-11.307z" stroke="#000" stroke-width="1.5"/>
<path d="m467.61 245.46 8.704 5.0253 19.584-11.307-8.704-5.0253z" fill="#252727"/>
<path d="m358.81 320.84 8.704 5.0253 13.056-7.5379-8.704-5.0253z" fill="#252727"/>
<path d="m374.04 312.91 8.704 5.0253 8.704-5.0253-8.704-5.0253z" stroke="#000" stroke-width="1.5"/>
<path d="m374.04 312.04 8.704 5.0253 8.704-5.0253-8.704-5.0253z" fill="#252727"/>
<path d="m393.62 301.6-8.704 5.0253 8.704 5.0253 8.704-5.0253z" stroke="#000" stroke-width="1.5"/>
<path d="m384.92 305.76 8.704 5.0253 8.704-5.0253-8.704-5.0253z" fill="#252727"/>
<path d="m404.5 295.32-8.704 5.0253 8.704 5.0253 8.704-5.0253z" stroke="#000" stroke-width="1.5"/>
<path d="m395.8 299.48 8.704 5.0253 8.704-5.0253-8.704-5.0253z" fill="#252727"/>
<path d="m415.38 289.04-8.704 5.0253 8.704 5.0253 8.704-5.0253z" stroke="#000" stroke-width="1.5"/>
<path d="m406.68 293.2 8.704 5.0253 8.704-5.0253-8.704-5.0253z" fill="#252727"/>
<path d="m426.26 282.76-8.704 5.0253 8.704 5.0253 8.704-5.0253z" stroke="#000" stroke-width="1.5"/>
<path d="m417.56 286.92 8.704 5.0253 8.704-5.0253-8.704-5.0253z" fill="#252727"/>
<path d="m437.14 276.48-8.704 5.0253 8.704 5.0253 8.704-5.0253z" stroke="#000" stroke-width="1.5"/>
<path d="m428.44 280.64 8.704 5.0253 8.704-5.0253-8.704-5.0253z" fill="#252727"/>
<path d="m448.02 270.2-8.704 5.0253 8.704 5.0253 8.704-5.0253z" stroke="#000" stroke-width="1.5"/>
<path d="m439.32 274.35 8.704 5.0253 8.704-5.0253-8.704-5.0253z" fill="#252727"/>
<path d="m458.9 263.91-8.704 5.0253 8.704 5.0253 8.704-5.0253z" stroke="#000" stroke-width="1.5"/>
<path d="m450.2 268.07 8.704 5.0253 8.704-5.0253-8.704-5.0253z" fill="#252727"/>
<path d="m469.78 257.63-8.704 5.0253 8.704 5.0253 8.704-5.0253z" stroke="#000" stroke-width="1.5"/>
<path d="m461.08 261.79 8.704 5.0253 8.704-5.0253-8.704-5.0253z" fill="#252727"/>
<path d="m480.66 251.35-8.704 5.0253 8.704 5.0253 8.704-5.0253z" stroke="#000" stroke-width="1.5"/>
<path d="m471.96 255.51 8.704 5.0253 8.704-5.0253-8.704-5.0253z" fill="#252727"/>
<path d="m489.37 246.33-6.528 3.769 8.704 5.0253 6.528-3.769z" stroke="#000" stroke-width="1.5"/>
<path d="m482.84 249.23 8.704 5.0253 6.528-3.769-8.704-5.0253z" fill="#252727"/>
<path d="m397.97 311.65-8.704 5.0253 8.704 5.0253 8.704-5.0253z" stroke="#000" stroke-width="1.5"/>
<path d="m389.27 315.81 8.704 5.0253 8.704-5.0253-8.704-5.0253z" fill="#252727"/>
<path d="m408.85 305.37-8.704 5.0253 8.704 5.0253 8.704-5.0253z" stroke="#000" stroke-width="1.5"/>
<path d="m400.15 309.53 8.704 5.0253 8.704-5.0253-8.704-5.0253z" fill="#252727"/>
<path d="m419.73 299.09-8.704 5.0253 8.704 5.0253 8.704-5.0253z" stroke="#000" stroke-width="1.5"/>
<path d="m411.03 303.25 8.704 5.0253 8.704-5.0253-8.704-5.0253z" fill="#252727"/>
<path d="m430.61 292.81-8.704 5.0253 8.704 5.0253 8.704-5.0253z" stroke="#000" stroke-width="1.5"/>
<path d="m421.91 296.97 8.704 5.0253 8.704-5.0253-8.704-5.0253z" fill="#252727"/>
<path d="m441.49 286.53-8.704 5.0253 8.704 5.0253 8.704-5.0253z" stroke="#000" stroke-width="1.5"/>
<path d="m432.79 290.69 8.704 5.0253 8.704-5.0253-8.704-5.0253z" fill="#252727"/>
<path d="m452.37 280.25-8.704 5.0253 8.704 5.0253 8.704-5.0253z" stroke="#000" stroke-width="1.5"/>
<path d="m443.67 284.41 8.704 5.0253 8.704-5.0253-8.704-5.0253z" fill="#252727"/>
<path d="m463.25 273.96-8.704 5.0253 8.704 5.0253 8.704-5.0253z" stroke="#000" stroke-width="1.5"/>
<path d="m454.55 278.12 8.704 5.0253 8.704-5.0253-8.704-5.0253z" fill="#252727"/>
<path d="m474.13 267.68-8.704 5.0253 8.704 5.0253 8.704-5.0253z" stroke="#000" stroke-width="1.5"/>
<path d="m465.43 271.84 8.704 5.0253 8.704-5.0253-8.704-5.0253z" fill="#252727"/>
<path d="m485.01 261.4-8.704 5.0253 8.704 5.0253 8.704-5.0253z" stroke="#000" stroke-width="1.5"/>
<path d="m476.31 265.56 8.704 5.0253 8.704-5.0253-8.704-5.0253z" fill="#252727"/>
<path d="m495.89 255.12-8.704 5.0253 8.704 5.0253 8.704-5.0253z" stroke="#000" stroke-width="1.5"/>
<path d="m487.19 259.28 8.704 5.0253 8.704-5.0253-8.704-5.0253z" fill="#252727"/>
<path d="m498.07 241.3-6.528 3.769 8.704 5.0253 6.528-3.769z" stroke="#000" stroke-width="1.5"/>
<path d="m508.95 247.58-10.88 6.2816 8.704 5.0253 10.88-6.2816z" stroke="#000" stroke-width="1.5"/>
<path d="m498.07 253 8.704 5.0253 10.88-6.2816-8.704-5.0253z" fill="#252727"/>
<path d="m491.54 244.2 8.704 5.0253 6.528-3.769-8.704-5.0253z" fill="#252727"/>
<path d="m413.21 315.42-8.704 5.0253 8.704 5.0253 8.704-5.0253z" stroke="#000" stroke-width="1.5"/>
<path d="m404.5 319.58 8.704 5.0253 8.704-5.0253-8.704-5.0253z" fill="#252727"/>
<path d="m434.97 302.86-8.704 5.0253 8.704 5.0253 8.704-5.0253z" stroke="#000" stroke-width="1.5"/>
<path d="m424.09 309.14-8.704 5.0253 8.704 5.0253 8.704-5.0253z" stroke="#000" stroke-width="1.5"/>
<path d="m415.38 313.3 8.704 5.0253 8.704-5.0253-8.704-5.0253z" fill="#252727"/>
<path d="m426.26 307.02 8.704 5.0253 8.704-5.0253-8.704-5.0253z" fill="#252727"/>
<path d="m445.85 296.58-8.704 5.0253 8.704 5.0253 8.704-5.0253z" stroke="#000" stroke-width="1.5"/>
<path d="m437.14 300.74 8.704 5.0253 8.704-5.0253-8.704-5.0253z" fill="#252727"/>
<path d="m456.73 290.3-8.704 5.0253 8.704 5.0253 8.704-5.0253z" stroke="#000" stroke-width="1.5"/>
<path d="m448.02 294.46 8.704 5.0253 8.704-5.0253-8.704-5.0253z" fill="#252727"/>
<path d="m467.61 284.02-8.704 5.0253 8.704 5.0253 8.704-5.0253z" stroke="#000" stroke-width="1.5"/>
<path d="m458.9 288.17 8.704 5.0253 8.704-5.0253-8.704-5.0253z" fill="#252727"/>
<path d="m478.49 277.73-8.704 5.0253 8.704 5.0253 8.704-5.0253z" stroke="#000" stroke-width="1.5"/>
<path d="m469.78 281.89 8.704 5.0253 8.704-5.0253-8.704-5.0253z" fill="#252727"/>
<path d="m489.37 271.45-8.704 5.0253 8.704 5.0253 8.704-5.0253z" stroke="#000" stroke-width="1.5"/>
<path d="m480.66 275.61 8.704 5.0253 8.704-5.0253-8.704-5.0253z" fill="#252727"/>
<path d="m500.25 265.17-8.704 5.0253 8.704 5.0253 8.704-5.0253z" stroke="#000" stroke-width="1.5"/>
<path d="m491.54 269.33 8.704 5.0253 8.704-5.0253-8.704-5.0253z" fill="#252727"/>
<path d="m511.13 268.94 17.408-10.051-8.704-5.0253-17.408 10.051z" stroke="#000" stroke-width="1.5"/>
<path d="m502.42 263.05 8.704 5.0253 17.408-10.051-8.704-5.0253z" fill="#252727"/>
<path d="m391.45 339.68 8.704 5.0253 6.528-3.769-8.704-5.0253z" fill="#252727"/>
<path d="m408.85 330.5-8.704 5.0253 8.704 5.0253 8.704-5.0253z" stroke="#000" stroke-width="1.5"/>
<path d="m400.15 334.66 8.704 5.0253 8.704-5.0253-8.704-5.0253z" fill="#252727"/>
<path d="m419.73 324.22-8.704 5.0253 8.704 5.0253 8.704-5.0253z" stroke="#000" stroke-width="1.5"/>
<path d="m411.03 328.38 8.704 5.0253 8.704-5.0253-8.704-5.0253z" fill="#252727"/>
<path d="m421.91 322.96 8.704 5.0253 15.232-8.7942-8.704-5.0253z" stroke="#000" stroke-width="1.5"/>
<path d="m421.91 322.09 8.704 5.0253 15.232-8.7942-8.704-5.0253z" fill="#252727"/>
<path d="m439.32 312.91 8.704 5.0253 43.52-25.126-8.704-5.0253z" stroke="#000" stroke-width="1.5"/>
<path d="m439.32 312.04 8.704 5.0253 43.52-25.126-8.704-5.0253z" fill="#252727"/>
<path d="m515.48 268.94-13.056 7.5379 8.704 5.0253 13.056-7.5379z" stroke="#000" stroke-width="1.5"/>
<path d="m530.71 260.15-13.056 7.5379 8.704 5.0253 13.056-7.5379z" stroke="#000" stroke-width="1.5"/>
<path d="m502.42 275.61 8.704 5.0253 13.056-7.5379-8.704-5.0253z" fill="#252727"/>
<path d="m517.65 266.82 8.704 5.0253 13.056-7.5379-8.704-5.0253z" fill="#252727"/>
<path d="m500.25 277.73-15.232 8.7942 8.704 5.0253 15.232-8.7942z" stroke="#000" stroke-width="1.5"/>
<path d="m485.01 285.66 8.704 5.0253 15.232-8.7942-8.704-5.0253z" fill="#252727"/>
<g transform="matrix(.50252 -.29013 .4352 .25126 -335.34 205.33)" fill="#fff" aria-label="F1">
<path d="m519.76 994.19h-.41503v-3.5693h1.9897v.36865h-1.5747v1.3062h1.4795v.36866h-1.4795z"/>
<path d="m523.18 994.19h-.3955v-2.544q0-.31738.0195-.60059-.0513.0513-.11475.10743-.0635.0562-.58105.47607l-.21485-.27832.94483-.72998h.34179z"/>
</g>
<g transform="matrix(.50252 -.29013 .4352 .25126 -335.34 205.33)" fill="#fff" aria-label="F2">
<path d="m541.42 994.2h-.41504v-3.5693h1.9898v.36865h-1.5747v1.3062h1.4795v.36865h-1.4795z"/>
<path d="m545.68 994.2h-2.3462v-.34912l.93994-.94483q.42969-.43457.56641-.62012.13672-.18554.20508-.36132.0684-.17579.0684-.37842 0-.28565-.17334-.45166-.17334-.16846-.48096-.16846-.22217 0-.42236.0732-.19776.0733-.4419.26612l-.21484-.27588q.49316-.41016 1.0742-.41016.50293 0 .78857.25879.28565.25635.28565.69092 0 .33935-.19043.67138-.19043.33204-.71289.83985l-.78125.76416v.0195h1.8359z"/>
</g>
<g transform="matrix(.50252 -.29013 .4352 .25126 -335.34 205.33)" fill="#fff" aria-label="F3">
<path d="m563 994.18h-.41504v-3.5693h1.9898v.36865h-1.5747v1.3062h1.4795v.36865h-1.4795z"/>
<path d="m567.13 991.46q0 .3418-.19287.55909-.19043.21728-.54199.29052v.0195q.42969.0537.63721.27344.20751.21973.20751.57617 0 .51026-.354.78614-.354.27343-1.0059.27343-.2832 0-.52002-.0439-.23437-.0415-.45654-.14893v-.38574q.23193.11475.49316.17578.26367.0586.49805.0586.92529 0 .92529-.7251 0-.64942-1.0205-.64942h-.35157v-.34912h.35645q.41748 0 .66162-.1831.24414-.18555.24414-.5127 0-.26123-.18066-.41015-.17823-.14893-.48584-.14893-.23438 0-.4419.0635t-.47363.23437l-.20508-.27344q.21973-.17334.50537-.27099.28809-.1001.60547-.1001.52002 0 .80811.23926.28808.23682.28808.65185z"/>
</g>
<g transform="matrix(.50252 -.29013 .4352 .25126 -335.34 205.33)" fill="#fff" aria-label="F4">
<path d="m584.62 994.19h-.41504v-3.5693h1.9897v.36865h-1.5747v1.3062h1.4795v.36865h-1.4795z"/>
<path d="m589.05 993.37h-.52979v.82031h-.38818v-.82031h-1.7358v-.35401l1.6943-2.4146h.42968v2.3999h.52979zm-.91797-.36866v-1.1865q0-.34912.0244-.78857h-.0195q-.11718.23437-.21972.38818l-1.1157 1.5869z"/>
</g>
<g transform="matrix(.50252 -.29013 .4352 .25126 -335.34 205.33)" fill="#fff" aria-label="F5">
<path d="m606.33 994.17h-.41504v-3.5693h1.9897v.36866h-1.5747v1.3062h1.4795v.36865h-1.4795z"/>
<path d="m609.37 991.99q.56397 0 .88623.28077.32471.27832.32471.76416 0 .55419-.354.86914-.35157.31494-.97168.31494-.60303 0-.92041-.19287v-.39063q.17089.10986.4248.17334.25391.061.50049.061.42969 0 .6665-.20264.23926-.20264.23926-.58594 0-.74707-.91553-.74707-.23193 0-.62011.0708l-.20996-.13427.13427-1.6699h1.7749v.37354h-1.4282l-.0903 1.0718q.28076-.0562.55908-.0562z"/>
</g>
<g transform="matrix(.50252 -.29013 .4352 .25126 -335.34 205.33)" fill="#fff" aria-label="F6">
<path d="m627.91 994.19h-.41504v-3.5693h1.9898v.36865h-1.5747v1.3062h1.4795v.36865h-1.4795z"/>
<path d="m629.87 992.66q0-1.0522.40772-1.5723.41015-.52246 1.2109-.52246.27588 0 .43457.0464v.34912q-.18798-.061-.42968-.061-.57373 0-.87647.35888-.30273.35645-.33203 1.123h.0293q.26855-.41992.84961-.41992.48095 0 .75683.29052.27832.29053.27832.78858 0 .55664-.30517.87646-.30274.31739-.82032.31739-.55419 0-.8789-.41504-.32471-.41748-.32471-1.1597zm1.1987 1.2305q.34668 0 .53711-.21729.19287-.21972.19287-.63232 0-.354-.17822-.55664t-.53223-.20264q-.21972 0-.40283.0903-.1831.0903-.29297.24903-.10742.15869-.10742.32959 0 .25146.0977.46875.0977.21728.27588.34424.18066.12695.41015.12695z"/>
</g>
<g transform="matrix(.50252 -.29013 .4352 .25126 -335.34 205.33)" fill="#fff" aria-label="F7">
<path d="m649.65 994.19h-.41504v-3.5693h1.9898v.36865h-1.5747v1.3062h1.4795v.36865h-1.4795z"/>
<path d="m652.01 994.19 1.4795-3.1958h-1.9458v-.37353h2.3755v.3247l-1.46 3.2446z"/>
</g>
<g transform="matrix(.50252 -.29013 .4352 .25126 -335.34 205.33)" fill="#fff" aria-label="F8">
<path d="m671.22 994.19h-.41504v-3.5693h1.9898v.36866h-1.5747v1.3062h1.4795v.36865h-1.4795z"/>
<path d="m674.32 990.56q.48829 0 .77393.22705.28565.22705.28565.62744 0 .26367-.16358.48095-.16357.21729-.52246.39551.43457.20752.61768.43701.1831.22705.1831.52735 0 .44433-.31006.71045-.31006.26367-.84961.26367-.57129 0-.8789-.24902-.30762-.25147-.30762-.71045 0-.6128.74707-.95459-.33691-.19043-.4834-.41016-.14648-.22217-.14648-.49561 0-.38818.28564-.61767.28809-.23193.76904-.23193zm-.77148 2.7197q0 .29297.20264.45654.20508.16358.57373.16358.36377 0 .5664-.1709.20264-.1709.20264-.46875 0-.23682-.19043-.41992-.19043-.18555-.66406-.35889-.36377.15625-.52735.34668-.16357.18799-.16357.45166zm.7666-2.3901q-.30517 0-.47851.14648t-.17334.39062q0 .22461.14404.38575.14404.16113.53223.32226.34912-.14648.49316-.31494.14648-.16846.14648-.39307 0-.24658-.17822-.39062-.17578-.14648-.48584-.14648z"/>
</g>
<g transform="matrix(.50252 -.29013 .4352 .25126 -335.34 205.33)" fill="#fff" aria-label="F9">
<path d="m692.88 994.19h-.41504v-3.5693h1.9898v.36865h-1.5747v1.3062h1.4795v.36865h-1.4795z"/>
<path d="m697.14 992.14q0 2.0947-1.6211 2.0947-.2832 0-.44922-.0488v-.34912q.19531.0635.44434.0635.58593 0 .88379-.36133.30029-.36377.32714-1.1133h-.0293q-.13428.20263-.35645.31006-.22217.10498-.50049.10498-.47363 0-.75195-.28321-.27832-.2832-.27832-.79101 0-.55664.31006-.87891.3125-.32226.82031-.32226.36377 0 .63477.18798.27343.18555.41992.54444.14648.35644.14648.84228zm-1.2012-1.228q-.34912 0-.53955.22461-.19043.2246-.19043.625 0 .35156.17578.55419.17578.2002.53467.2002.22217 0 .40772-.0903.18798-.0903.29541-.24658.10742-.15625.10742-.32715 0-.25635-.1001-.47364-.1001-.21728-.28076-.34179-.17822-.12451-.41016-.12451z"/>
</g>
<g transform="matrix(.50252 -.29013 .4352 .25126 -335.34 205.33)" fill="#fff" aria-label="F10">
<path d="m712.93 994.19h-.41504v-3.5693h1.9898v.36865h-1.5747v1.3062h1.4795v.36865h-1.4795z"/>
<path d="m716.35 994.19h-.39551v-2.5439q0-.31738.0195-.60059-.0513.0513-.11474.10742-.0635.0562-.58106.47608l-.21484-.27832.94482-.72998h.3418z"/>
<path d="m720.07 992.4q0 .9253-.29296 1.3818-.29053.45654-.89112.45654-.57617 0-.87646-.46631-.30029-.46875-.30029-1.3721 0-.93261.29052-1.3843.29053-.45166.88623-.45166.58106 0 .88135.47119.30273.47119.30273 1.3647zm-1.9507 0q0 .77881.18311 1.1353.1831.354.58349.354.40528 0 .58594-.35889.18311-.36132.18311-1.1304 0-.76904-.18311-1.1255-.18066-.35888-.58594-.35888-.40039 0-.58349.354-.18311.35156-.18311 1.1304z"/>
</g>
<g transform="matrix(.50252 -.29013 .4352 .25126 -335.34 205.33)" fill="#fff" aria-label="F11">
<path d="m734.67 994.19h-.41504v-3.5693h1.9897v.36865h-1.5747v1.3062h1.4795v.36866h-1.4795z"/>
<path d="m738.09 994.19h-.3955v-2.544q0-.31738.0195-.60059-.0513.0513-.11475.10743-.0635.0562-.58105.47607l-.21485-.27832.94483-.72998h.34179z"/>
<path d="m740.95 994.19h-.39551v-2.544q0-.31738.0195-.60059-.0513.0513-.11475.10743-.0635.0562-.58106.47607l-.21484-.27832.94483-.72998h.34179z"/>
</g>
<g transform="matrix(.50252 -.29013 .4352 .25126 -335.34 205.33)" fill="#fff" aria-label="F12">
<path d="m756.33 994.2h-.41504v-3.5693h1.9898v.36865h-1.5747v1.3062h1.4795v.36865h-1.4795z"/>
<path d="m759.75 994.2h-.39551v-2.544q0-.31738.0195-.60058-.0513.0513-.11474.10742-.0635.0562-.58106.47607l-.21484-.27832.94482-.72998h.3418z"/>
<path d="m763.45 994.2h-2.3462v-.34912l.93994-.94483q.42969-.43457.56641-.62012.13672-.18554.20508-.36132.0684-.17578.0684-.37842 0-.28565-.17334-.45166-.17334-.16846-.48096-.16846-.22217 0-.42236.0732-.19776.0733-.4419.26612l-.21484-.27588q.49316-.41016 1.0742-.41016.50293 0 .78857.25879.28565.25635.28565.69092 0 .33935-.19043.67139-.19043.33203-.71289.83984l-.78125.76416v.0195h1.8359z"/>
</g>
<g transform="matrix(.50252 -.29013 .4352 .25126 -335.34 205.33)" fill="#fff" aria-label="esc">
<path d="m497.61 993.78q-.59326 0-.9375-.36133-.3418-.36133-.3418-1.0034 0-.64697.31739-1.0278.31982-.38086.85693-.38086.50293 0 .7959.33203.29297.32959.29297.87158v.25635h-1.8433q.0122.47119.23681.71533.22705.24414.63721.24414.43213 0 .85449-.18066v.36133q-.21484.0928-.40771.13183-.19043.0415-.46143.0415zm-.10986-2.4341q-.32227 0-.51514.20996-.19043.20996-.22461.58105h1.3989q0-.3833-.1709-.58594-.1709-.20507-.48828-.20507z"/>
<path d="m501.01 993q0 .37354-.27832.57617-.27832.20264-.78125.20264-.53223 0-.83008-.16846v-.37598q.19287.0977.4126.15381.22217.0562.42724.0562.31739 0 .48828-.1001.1709-.10254.1709-.31006 0-.15625-.13672-.26611-.13427-.11231-.52734-.26368-.37353-.13916-.53223-.24169-.15625-.10499-.23437-.23682-.0757-.13184-.0757-.31494 0-.32715.26611-.51514.26611-.19043.72998-.19043.43213 0 .84473.17578l-.14405.32959q-.40283-.16601-.72998-.16601-.28808 0-.43457.0903-.14648.0903-.14648.24902 0 .10742.0537.18311.0562.0757.17822.14404.12207.0684.46875.19775.47608.17334.64209.34913.16846.17578.16846.44189z"/>
<path d="m502.73 993.78q-.58105 0-.90088-.35645-.31738-.35888-.31738-1.0132 0-.67139.32227-1.0376.3247-.36621.92285-.36621.19287 0 .38574.0415t.30273.0977l-.12451.34424q-.13427-.0537-.29297-.0879-.15869-.0366-.28076-.0366-.81543 0-.81543 1.04 0 .49316.19776.75683.20019.26367.59082.26367.33447 0 .68603-.14404v.35889q-.26855.13916-.67627.13916z"/>
</g>
<g transform="matrix(.50252 -.29013 .4352 .25126 -335.34 205.33)" fill="#fff" aria-label="! 1">
<path d="m521.06 1008.9h-.41016l-.19922-4.1368h.8086zm-.67969 1.1601q0-.5312.46875-.5312.22656 0 .34766.1367.125.1367.125.3945 0 .25-.125.3906-.125.1368-.34766.1368-.20312 0-.33594-.1211-.13281-.125-.13281-.4063z"/>
<path d="m522.58 1018.5h-.63281v-4.0703q0-.5078.0312-.961-.082.082-.1836.1719-.10156.09-.92968.7617l-.34375-.4453 1.5117-1.168h.54687z"/>
</g>
<g transform="matrix(.50252 -.29013 .4352 .25126 -335.34 205.33)" fill="#fff" aria-label="~ `">
<path d="m499.09 1010.5q-.20703 0-.45703.1328-.2461.1289-.45703.3399v-.5899q.39062-.4258.95312-.4258.26563 0 .48438.055.22265.055.57031.2032.25781.1093.44922.164.1914.051.375.051.21094 0 .46094-.125t.46093-.3477v.586q-.39843.4297-.95312.4297-.28125 0-.52735-.062-.24609-.066-.52734-.1914-.29297-.125-.46875-.1719-.17578-.047-.36328-.047z"/>
<path d="m500.84 1016.5h-.42969q-.2539-.2031-.60156-.5781t-.50391-.6211v-.082h.79297q.125.2695.34766.625.22265.3515.39453.5586z"/>
</g>
<g transform="matrix(.50252 -.29013 .4352 .25126 -335.34 205.33)" fill="#fff" aria-label="@ 2">
<path d="m547.06 1009.3q0 .5547-.17187 1.0156-.17188.461-.48438.7149t-.71875.2539q-.33593 0-.5664-.2031-.23047-.2032-.27344-.5196h-.0312q-.15625.3399-.44922.5313-.28906.1914-.6875.1914-.58594 0-.91797-.3984-.32812-.4024-.32812-1.0899 0-.7969.46094-1.293.46093-.5 1.2109-.5.26563 0 .60157.051.33593.047.60546.1328l-.0977 1.836v.086q0 .6953.51953.6953.35547 0 .57812-.4179.22266-.4219.22266-1.0938 0-.707-.28906-1.2383-.28906-.5312-.82422-.8164-.53125-.289-1.2227-.289-.87109 0-1.5156.3632-.64453.3594-.98438 1.0313-.33984.668-.33984 1.5469 0 1.1914.62891 1.832.6289.6406 1.8125.6406.82031 0 1.7031-.3359v.5195q-.75.3281-1.7031.3281-1.418 0-2.2031-.7773-.78125-.7813-.78125-2.1797 0-1.0156.41797-1.8086t1.1914-1.2266q.77343-.4375 1.7734-.4375.83985 0 1.4922.3555.65625.3516 1.0117 1.0039.35937.6485.35937 1.4961zm-4.0391.5117q0 .9922.76172.9922.80859 0 .87891-1.2226l.0547-1.0196q-.28125-.078-.61328-.078-.50781 0-.79687.3516-.28516.3515-.28516.9765z"/>
<path d="m544.48 1020.1h-3.7539v-.5586l1.5039-1.5117q.6875-.6954.90625-.9922.21875-.2969.32812-.5782.10938-.2812.10938-.6054 0-.4571-.27735-.7227-.27734-.2695-.76953-.2695-.35547 0-.67578.1172-.31641.1172-.70703.4258l-.34375-.4414q.78906-.6563 1.7188-.6563.80469 0 1.2617.4141.45703.4101.45703 1.1054 0 .543-.30469 1.0743-.30469.5312-1.1406 1.3437l-1.25 1.2227v.031h2.9375z"/>
</g>
<g transform="matrix(.50252 -.29013 .4352 .25126 -335.34 205.33)" fill="#fff" aria-label="# 3">
<path d="m566.09 1008.1-.25781 1.3281h1.1055v.5039h-1.1992l-.32813 1.6797h-.53515l.32812-1.6797h-1.1836l-.32031 1.6797h-.53125l.3125-1.6797h-1.0234v-.5039h1.1211l.26563-1.3281h-1.082v-.4961h1.168l.32031-1.7032h.54297l-.32032 1.7032h1.1914l.32813-1.7032h.52343l-.32812 1.7032h1.0312v.4961zm-1.9766 1.3281h1.1836l.25782-1.3281h-1.1836z"/>
<path d="m566.19 1015.3q0 .5469-.3086.8945-.30468.3477-.86718.4649v.031q.6875.086 1.0195.4375.33203.3516.33203.9219 0 .8164-.56641 1.2578-.5664.4375-1.6094.4375-.45313 0-.83203-.07-.375-.066-.73047-.2383v-.6172q.37109.1836.78906.2813.42188.094.79688.094 1.4805 0 1.4805-1.1601 0-1.0391-1.6328-1.0391h-.5625v-.5586h.57031q.66797 0 1.0586-.293.39062-.2968.39062-.8203 0-.4179-.28906-.6562-.28516-.2383-.77734-.2383-.375 0-.70703.1016-.33204.1015-.75782.375l-.32812-.4375q.35156-.2774.80859-.4336.46094-.1602.96875-.1602.83203 0 1.293.3828.46094.3789.46094 1.043z"/>
</g>
<g transform="matrix(.50252 -.29013 .4352 .25126 -335.34 205.33)" fill="#fff" aria-label="$ 4">
<path d="m588.37 1009.5q0 .5312-.39843.8789-.39844.3437-1.1133.4336v.9062h-.5039v-.8711q-.4375 0-.84766-.066-.41015-.07-.67187-.1914v-.6094q.32422.1446.74609.2383.42578.09.77344.09v-1.7188q-.80078-.2539-1.125-.5898-.32031-.336-.32031-.8672 0-.5117.39453-.8399.39843-.3281 1.0508-.3984v-.7109h.5039v.7031q.71875.019 1.3867.2891l-.20312.5117q-.58203-.2305-1.1836-.2735v1.6953q.61329.1954.91797.3829.30469.1836.44922.4257.14453.2383.14453.5821zm-.66406.051q0-.2813-.17578-.4532-.17188-.1758-.67188-.3476v1.5195q.84766-.1172.84766-.7187zm-2.1367-2.4258q0 .2968.17578.4765t.60938.3399v-1.5117q-.38672.062-.58594.2461-.19922.1796-.19922.4492z"/>
<path d="m588.74 1017.9h-.84766v1.3125h-.62109v-1.3125h-2.7773v-.5664l2.7109-3.8633h.6875v3.8398h.84766zm-1.4688-.5899v-1.8984q0-.5586.0391-1.2617h-.0312q-.1875.375-.35156.6211l-1.7852 2.539z"/>
</g>
<g transform="matrix(.50252 -.29013 .4352 .25126 -335.34 205.33)" fill="#fff" aria-label="% 5">
<path d="m606.3 1008.1q0 .6641.14454.9961.14453.332.46875.332.64062 0 .64062-1.3281 0-1.3203-.64062-1.3203-.32422 0-.46875.3281-.14454.3281-.14454.9922zm1.7891 0q0 .8906-.30078 1.3477-.29688.4531-.875.4531-.54688 0-.85157-.4649-.30078-.4648-.30078-1.3359 0-.8867.28906-1.3359.29297-.4492.86329-.4492.5664 0 .87109.4648t.30469 1.3203zm1.6484 2.2891q0 .6679.14454 1 .14453.3281.47265.3281.32813 0 .48438-.3242.15625-.3281.15625-1.0039 0-.668-.15625-.9883-.15625-.3242-.48438-.3242-.32812 0-.47265.3242-.14454.3203-.14454.9883zm1.793 0q0 .8867-.30078 1.3437-.29687.4531-.875.4531-.55469 0-.85547-.4648-.29687-.4648-.29687-1.332 0-.8867.28906-1.336.29297-.4492.86328-.4492.55469 0 .86328.461.3125.457.3125 1.3242zm-1.0078-3.9922-3.168 5.7109h-.57422l3.168-5.7109z"/>
<path d="m607.53 1016.6q.90235 0 1.418.4493.51953.4453.51953 1.2226 0 .8867-.5664 1.3906-.5625.5039-1.5547.5039-.96484 0-1.4727-.3085v-.625q.27344.1757.67969.2773.40625.098.80078.098.6875 0 1.0664-.3243.38281-.3242.38281-.9375 0-1.1953-1.4648-1.1953-.3711 0-.99219.1133l-.33594-.2148.21485-2.6719h2.8398v.5976h-2.2852l-.14453 1.7149q.44922-.09.89453-.09z"/>
</g>
<g transform="matrix(.50252 -.29013 .4352 .25126 -335.34 205.33)" fill="#fff" aria-label="^ 6">
<path d="m627.38 1009.4 1.6953-3.6016h.38671l1.8633 3.6016h-.59375l-1.4531-2.9102-1.3047 2.9102z"/>
<path d="m627.65 1017.1q0-1.6836.65234-2.5156.65625-.8359 1.9375-.8359.44141 0 .69531.074v.5586q-.30078-.098-.6875-.098-.91796 0-1.4023.5742-.48437.5703-.53125 1.7969h.0469q.42968-.6719 1.3594-.6719.76953 0 1.2109.4649.44531.4648.44531 1.2617 0 .8906-.48828 1.4023-.48438.5079-1.3125.5079-.88672 0-1.4062-.6641-.51953-.668-.51953-1.8555zm1.918 1.9688q.55468 0 .85937-.3477.3086-.3515.3086-1.0117 0-.5664-.28516-.8906t-.85156-.3242q-.35157 0-.64453.1445-.29297.1445-.46875.3984-.17188.2539-.17188.5274 0 .4023.15625.75.15625.3476.44141.5507.28906.2032.65625.2032z"/>
</g>
<g transform="matrix(.50252 -.29013 .4352 .25126 -335.34 205.33)" fill="#fff" aria-label="&amp; 7">
<path d="m650.53 1007.3q0 .2695.14063.5156.14062.2422.48047.586.5039-.293.69922-.5391.19921-.25.19921-.5742 0-.3008-.20312-.4883-.19922-.1914-.53516-.1914-.34765 0-.5664.1875-.21485.1875-.21485.5039zm.60547 4.0703q.94141 0 1.5625-.6016l-1.707-1.6562q-.43359.2656-.61328.4414-.17969.1719-.26563.3711-.0859.1992-.0859.4531 0 .457.30078.7266.30469.2656.80859.2656zm-1.7812-.9766q0-.5078.26953-.8984.27344-.3906.97657-.7891-.33204-.3711-.45313-.5625-.11719-.1914-.1875-.3984-.0703-.207-.0703-.4297 0-.5859.38281-.914.38281-.3282 1.0664-.3282.63281 0 .99609.3282.36328.3242.36328.9062 0 .418-.26562.7734-.26563.3516-.87891.7149l1.5898 1.5273q.21875-.2422.34766-.5664.13281-.3281.22266-.7148h.65625q-.26563 1.1172-.80078 1.6953l1.168 1.1367h-.89453l-.72265-.6953q-.46094.4141-.9375.5937-.47657.1797-1.0625.1797-.83985 0-1.3047-.414-.46094-.4141-.46094-1.1446z"/>
<path d="m650.03 1019.8 2.3672-5.1133h-3.1133v-.5976h3.8008v.5195l-2.3359 5.1914z"/>
</g>
<g transform="matrix(.50252 -.29013 .4352 .25126 -335.34 205.33)" fill="#fff" aria-label="* 8">
<path d="m673.75 1005.1-.16797 1.5429 1.5547-.4336.10156.711-1.4883.1211.96875 1.2734-.67187.3672-.6875-1.4141-.625 1.4141-.6875-.3672.94531-1.2734-1.4727-.1211.11328-.711 1.5274.4336-.16797-1.5429z"/>
<path d="m673.46 1013.3q.78125 0 1.2383.3633t.45703 1.0039q0 .4219-.26172.7695-.26172.3477-.83594.6329.69531.332.98828.6992.29297.3633.29297.8437 0 .711-.49609 1.1367-.4961.4219-1.3594.4219-.91406 0-1.4062-.3984-.49218-.4024-.49218-1.1367 0-.9805 1.1953-1.5274-.53906-.3047-.77344-.6562-.23437-.3555-.23437-.793 0-.6211.45703-.9883.46093-.3711 1.2305-.3711zm-1.2344 4.3516q0 .4687.32422.7305.32812.2617.91797.2617.58203 0 .90625-.2735.32422-.2734.32422-.75 0-.3789-.30469-.6718-.30469-.2969-1.0625-.5743-.58203.25-.84375.5547-.26172.3008-.26172.7227zm1.2266-3.8242q-.48828 0-.76562.2343-.27735.2344-.27735.625 0 .3594.23047.6172t.85157.5157q.55859-.2344.78906-.504.23437-.2695.23437-.6289 0-.3945-.28515-.625-.28125-.2343-.77735-.2343z"/>
</g>
<g transform="matrix(.50252 -.29013 .4352 .25126 -335.34 205.33)" fill="#fff" aria-label="( 9">
<path d="m693.38 1008.5q0-1.0352.30078-1.9375.30469-.9023.875-1.582h.63282q-.5625.7539-.84766 1.6562-.28125.9024-.28125 1.8555 0 .9375.28906 1.832.28907.8946.83203 1.6328h-.625q-.57421-.664-.875-1.5507-.30078-.8868-.30078-1.9063z"/>
<path d="m697.2 1015.4q0 3.3515-2.5938 3.3515-.45312 0-.71875-.078v-.5586q.3125.1016.71094.1016.9375 0 1.4141-.5781.48047-.5821.52344-1.7813h-.0469q-.21484.3242-.57031.4961-.35547.168-.80078.168-.75781 0-1.2031-.4532-.44532-.4531-.44532-1.2656 0-.8906.4961-1.4062.5-.5157 1.3125-.5157.58203 0 1.0156.3008.4375.2969.67188.8711.23437.5703.23437 1.3477zm-1.9219-1.9649q-.5586 0-.86328.3594-.30469.3594-.30469 1 0 .5625.28125.8867.28125.3203.85547.3203.35547 0 .65234-.1445.30078-.1445.47266-.3945.17187-.25.17187-.5235 0-.4101-.16015-.7578-.16016-.3476-.44922-.5469-.28516-.1992-.65625-.1992z"/>
</g>
<g transform="matrix(.50252 -.29013 .4352 .25126 -335.34 205.33)" fill="#fff" aria-label=") 0">
<path d="m716.76 1008.5q0 1.0273-.30469 1.9141-.30078.8867-.8711 1.5429h-.625q.54297-.7343.83204-1.6289.28906-.8984.28906-1.8359 0-.9531-.28516-1.8555-.28125-.9023-.84375-1.6562h.63281q.57422.6836.875 1.5898.30079.9024.30079 1.9297z"/>
<path d="m718.89 1015.8q0 1.4805-.46875 2.211-.46484.7304-1.4258.7304-.92187 0-1.4023-.7461-.48047-.75-.48047-2.1953 0-1.4922.46484-2.2148.46485-.7227 1.418-.7227.92969 0 1.4102.7539.48437.7539.48437 2.1836zm-3.1211 0q0 1.2461.29297 1.8164.29297.5664.93359.5664.64844 0 .9375-.5742.29297-.5781.29297-1.8086 0-1.2304-.29297-1.8008-.28906-.5742-.9375-.5742-.64062 0-.93359.5664-.29297.5625-.29297 1.8086z"/>
</g>
<g transform="matrix(.50252 -.29013 .4352 .25126 -335.34 205.33)" fill="#fff" aria-label="delete">
<path d="m752.21 1017.7h-.022q-.28077.4077-.83985.4077-.5249 0-.81787-.3589-.29053-.3589-.29053-1.0205t.29297-1.0278.81543-.3662q.54444 0 .83496.3955h.0317l-.0171-.1929-.01-.188v-1.0888h.40527v3.7988h-.32959zm-.81055.068q.41504 0 .60059-.2246.18799-.2271.18799-.73v-.086q0-.5688-.19043-.8105-.18799-.2442-.60303-.2442-.35645 0-.54688.2784-.18798.2758-.18798.7812 0 .5127.18798.7739.18799.2613.55176.2613z"/>
<path d="m754.58 1018.2q-.59326 0-.9375-.3613-.3418-.3613-.3418-1.0034 0-.647.31738-1.0279.31983-.3808.85694-.3808.50293 0 .7959.332.29296.3296.29296.8716v.2563h-1.8433q.0122.4712.23682.7154.22705.2441.63721.2441.43212 0 .85449-.1806v.3613q-.21485.093-.40772.1318-.19043.042-.46142.042zm-.10987-2.4341q-.32226 0-.51513.21-.19043.21-.22461.5811h1.3989q0-.3833-.17089-.586-.1709-.2051-.48829-.2051z"/>
<path d="m756.66 1018.1h-.40527v-3.7988h.40527z"/>
<path d="m758.66 1018.2q-.59326 0-.9375-.3613-.34179-.3613-.34179-1.0034 0-.647.31738-1.0279.31982-.3808.85693-.3808.50293 0 .7959.332.29297.3296.29297.8716v.2563h-1.8433q.0122.4712.23681.7154.22705.2441.63721.2441.43213 0 .85449-.1806v.3613q-.21484.093-.40771.1318-.19043.042-.46143.042zm-.10986-2.4341q-.32227 0-.51514.21-.19043.21-.22461.5811h1.3989q0-.3833-.1709-.586-.1709-.2051-.48828-.2051z"/>
<path d="m761.19 1017.8q.10743 0 .20752-.015.1001-.017.15869-.034v.3101q-.0659.032-.19531.051-.12695.022-.22949.022-.77637 0-.77637-.8178v-1.5918h-.3833v-.1954l.3833-.1684.1709-.5713h.23438v.6201h.77636v.315h-.77636v1.5747q0 .2417.11474.3711.11475.1294.31494.1294z"/>
<path d="m763.23 1018.2q-.59327 0-.9375-.3613-.3418-.3613-.3418-1.0034 0-.647.31738-1.0279.31983-.3808.85693-.3808.50293 0 .7959.332.29297.3296.29297.8716v.2563h-1.8433q.0122.4712.23682.7154.22705.2441.6372.2441.43213 0 .8545-.1806v.3613q-.21485.093-.40772.1318-.19043.042-.46142.042zm-.10987-2.4341q-.32226 0-.51513.21-.19043.21-.22461.5811h1.3989q0-.3833-.1709-.586-.1709-.2051-.48828-.2051z"/>
</g>
<g transform="matrix(.50252 -.29013 .4352 .25126 -335.34 205.33)" aria-label="Q">
<path d="m533.8 1036.9q0 1.372-.55176 2.2802-.55175.9083-1.5576 1.2305l1.6992 1.7676h-1.206l-1.3916-1.6113-.26856.01q-1.5771 0-2.4365-.9619-.85449-.9668-.85449-2.7246 0-1.7432.85937-2.7002.85938-.9619 2.4414-.9619 1.5381 0 2.4023.9766.86426.9765.86426 2.6953zm-5.6885 0q0 1.4502.61524 2.2021.62012.7471 1.7969.7471 1.1865 0 1.792-.7471.60546-.747.60546-2.2021 0-1.4405-.60546-2.1826-.60059-.7471-1.7822-.7471-1.1865 0-1.8066.7519-.61524.7471-.61524 2.1778z" fill="#fff"/>
</g>
<g transform="matrix(.50252 -.29013 .4352 .25126 -335.34 205.33)" aria-label="W">
<path d="m554.48 1041h-.82031l-1.4404-4.7802q-.10254-.3174-.22949-.8008t-.13184-.5811q-.10742.6446-.34179 1.4112l-1.3965 4.7509h-.82031l-1.8994-7.1386h.8789l1.1279 4.4092q.23438.9277.3418 1.6796.13183-.8935.39062-1.748l1.2793-4.3408h.87891l1.3428 4.3799q.23437.7568.39551 1.7089.0928-.6933.35156-1.6894l1.123-4.3994h.8789z" fill="#fff"/>
</g>
<g transform="matrix(.50252 -.29013 .4352 .25126 -335.34 205.33)" aria-label="E">
<path d="m575.49 1041h-3.9795v-7.1387h3.9795v.7373h-3.1494v2.2998h2.959v.7324h-2.959v2.627h3.1494z" fill="#fff"/>
</g>
<g transform="matrix(.50252 -.29013 .4352 .25126 -335.34 205.33)" aria-label="R">
<path d="m593.5 1038v2.9688h-.83008v-7.1387h1.958q1.3135 0 1.9385.5029.62988.503.62988 1.5137 0 1.416-1.4356 1.9141l1.9385 3.208h-.98144l-1.7285-2.9688zm0-.7129h1.1377q.8789 0 1.2891-.3466.41016-.3516.41016-1.0498 0-.708-.41993-1.0205-.41503-.3125-1.3379-.3125h-1.0791z" fill="#fff"/>
</g>
<g transform="matrix(.50252 -.29013 .4352 .25126 -335.34 205.33)" aria-label="T">
<path d="m617.29 1041h-.83007v-6.4014h-2.2608v-.7373h5.3516v.7373h-2.2608z" fill="#fff"/>
</g>
<g transform="matrix(.50252 -.29013 .4352 .25126 -335.34 205.33)" aria-label="Y">
<path d="m638.56 1037.4 1.9043-3.5694h.89843l-2.3828 4.3701v2.7686h-.83984v-2.7295l-2.3779-4.4092h.9082z" fill="#fff"/>
</g>
<g transform="matrix(.50252 -.29013 .4352 .25126 -335.34 205.33)" aria-label="U">
<path d="m663.18 1033.8v4.6192q0 1.2207-.73731 1.9189-.7373.6982-2.0264.6982-1.2891 0-1.9971-.7031-.70312-.7031-.70312-1.9336v-4.5996h.83008v4.6582q0 .8936.48828 1.3721t1.4356.4785q.90332 0 1.3916-.4785.48828-.4834.48828-1.3818v-4.6485z" fill="#fff"/>
</g>
<g transform="matrix(.50252 -.29013 .4352 .25126 -335.34 205.33)" aria-label="I">
<path d="m681.62 1041v-7.1387h.83008v7.1387z" fill="#fff"/>
</g>
<g transform="matrix(.50252 -.29013 .4352 .25126 -335.34 205.33)" aria-label="O">
<path d="m707.01 1037.4q0 1.7139-.86914 2.6954-.86426.9814-2.4072.9814-1.5771 0-2.4365-.9619-.85449-.9668-.85449-2.7246 0-1.7432.85937-2.7002.85938-.9619 2.4414-.9619 1.5381 0 2.4023.9765.86426.9766.86426 2.6953zm-5.6885 0q0 1.4502.61524 2.2022.62012.7471 1.7969.7471 1.1865 0 1.792-.7471.60546-.7471.60546-2.2022 0-1.4404-.60546-2.1826-.60059-.747-1.7822-.747-1.1865 0-1.8066.7519-.61524.7471-.61524 2.1777z" fill="#fff"/>
</g>
<g transform="matrix(.50252 -.29013 .4352 .25126 -335.34 205.33)" aria-label="P">
<path d="m727.59 1036q0 1.084-.74219 1.6699-.7373.5811-2.1143.5811h-.83984v2.8076h-.83008v-7.1387h1.8506q2.6758 0 2.6758 2.0801zm-3.6963 1.5381h.74707q1.1035 0 1.5967-.3565.49316-.3564.49316-1.1426 0-.708-.46386-1.0546-.46387-.3467-1.4453-.3467h-.92774z" fill="#fff"/>
</g>
<g transform="matrix(.50252 -.29013 .4352 .25126 -335.34 205.33)" fill="#fff" aria-label="{ [">
<path d="m744.73 1036.2q0 .3984.22656.5781.23047.1797.67187.1875v.5469q-.74218-.01-1.1484-.3398-.40625-.3321-.40625-.9336v-1.1836q0-.4063-.2461-.5782-.24609-.1757-.71484-.1757v-.5508q.50781-.01.73437-.1875.22657-.1797.22657-.5547v-1.1953q0-.6055.42187-.9414.42188-.336 1.1328-.336v.543q-.89843.023-.89843.7773v1.1524q0 .8398-.8711.9922v.047q.8711.1523.8711.9921z"/>
<path d="m745.3 1045.6h-1.7852v-6.9766h1.7852v.5508h-1.1289v5.8711h1.1289z"/>
</g>
<g transform="matrix(.50252 -.29013 .4352 .25126 -335.34 205.33)" fill="#fff" aria-label="} ]">
<path d="m762.19 1034q-.8711-.1524-.8711-.9922v-1.1524q0-.7539-.88672-.7773v-.543q.71875 0 1.1289.3399.41406.3398.41406.9375v1.1953q0 .3789.23047.5586.23047.1758.73828.1836v.5508q-.47656 0-.72265.1757-.2461.1719-.2461.5782v1.1836q0 .5976-.40234.9296-.39844.336-1.1406.3438v-.5469q.4336-.01.66016-.1875.22656-.1797.22656-.5781v-1.1602q0-.4453.21485-.6796.21484-.2344.65625-.3125z"/>
<path d="m760.35 1045h1.1289v-5.8711h-1.1289v-.5508h1.7852v6.9766h-1.7852z"/>
</g>
<g transform="matrix(.50252 -.29013 .4352 .25126 -335.34 205.33)" fill="#fff" aria-label="tab">
<path d="m496.36 1043.1q.10742 0 .20752-.015.1001-.017.15869-.034v.3101q-.0659.032-.19531.051-.12695.022-.22949.022-.77637 0-.77637-.8178v-1.5918h-.3833v-.1953l.3833-.1685.1709-.5713h.23437v.6201h.77637v.315h-.77637v1.5747q0 .2417.11475.3711t.31494.1294z"/>
<path d="m498.91 1043.4-.0806-.3808h-.0195q-.20019.2514-.40039.3418-.19775.088-.49561.088-.39794 0-.625-.205-.2246-.2051-.2246-.5835 0-.8106 1.2964-.8496l.4541-.015v-.166q0-.3149-.13672-.4639-.13427-.1513-.43212-.1513-.33448 0-.75684.205l-.12451-.31q.19775-.1074.43213-.1685.23681-.061.47363-.061.47852 0 .70801.2124.23193.2124.23193.6811v1.8262zm-.91553-.2856q.37842 0 .59326-.2075.21729-.2076.21729-.5811v-.2417l-.40528.017q-.48339.017-.69824.1514-.2124.1318-.2124.4126 0 .2197.13184.3344.13427.1148.37353.1148z"/>
<path d="m501.29 1040.7q.52734 0 .81787.3613.29297.3589.29297 1.0181t-.29541 1.0254q-.29297.3637-.81543.3637-.26123 0-.47851-.095-.21485-.098-.36133-.2978h-.0293l-.0855.3442h-.29053v-3.7988h.40528v.9228q0 .3101-.0195.5567h.0195q.2832-.4004.83984-.4004zm-.0586.3393q-.41504 0-.59815.2393-.1831.2368-.1831.8008 0 .5639.18799.8081.18798.2417.60302.2417.37354 0 .55664-.271.18311-.2734.18311-.7837 0-.5225-.18311-.7788-.1831-.2564-.5664-.2564z"/>
</g>
<g transform="matrix(.50252 -.29013 .4352 .25126 -335.34 205.33)" aria-label="A">
<path d="m541.27 1066-.88867-2.2705h-2.8613l-.8789 2.2705h-.83985l2.8223-7.1679h.69824l2.8076 7.1679zm-1.1475-3.0176-.83008-2.2119q-.16113-.4199-.33203-1.0302-.10742.4687-.30761 1.0302l-.83985 2.2119z" fill="#fff"/>
</g>
<g transform="matrix(.50252 -.29013 .4352 .25126 -335.34 205.33)" aria-label="S">
<path d="m562.66 1064.1q0 .9424-.68359 1.4698-.68359.5273-1.8555.5273-1.2695 0-1.9531-.3271v-.8008q.43945.1855.95703.293.51758.1074 1.0254.1074.83008 0 1.25-.3125.41992-.3174.41992-.8789 0-.3711-.15137-.6055-.14648-.2393-.49804-.4394-.34668-.2002-1.0596-.4542-.9961-.3564-1.4258-.8447-.42481-.4883-.42481-1.2744 0-.8252.62012-1.3135.62011-.4882 1.6406-.4882 1.0645 0 1.958.3906l-.25879.7226q-.88379-.3711-1.7188-.3711-.65918 0-1.0303.2832-.3711.2832-.3711.7862 0 .3711.13672.6103.13672.2344.45899.4346.32715.1953.99609.4346 1.123.4004 1.543.8593.4248.459.4248 1.1914z" fill="#fff"/>
</g>
<g transform="matrix(.50252 -.29013 .4352 .25126 -335.34 205.33)" aria-label="D">
<path d="m585.16 1062.4q0 1.7675-.96192 2.705-.95703.9327-2.7588.9327h-1.9775v-7.1387h2.1875q1.665 0 2.5879.9228.92285.9229.92285 2.5782zm-.87891.029q0-1.3965-.70312-2.1045-.69824-.708-2.0801-.708h-1.2061v5.7031h1.0108q1.4844 0 2.2314-.7275.74707-.7325.74707-2.1631z" fill="#fff"/>
</g>
<g transform="matrix(.50252 -.29013 .4352 .25126 -335.34 205.33)" aria-label="F">
<path d="m602.91 1066h-.83008v-7.1387h3.9795v.7373h-3.1494v2.6123h2.959v.7373h-2.959z" fill="#fff"/>
</g>
<g transform="matrix(.50252 -.29013 .4352 .25126 -335.34 205.33)" aria-label="G">
<path d="m626.2 1062.3h2.4268v3.4717q-.56641.1806-1.1524.2734-.58593.093-1.3574.093-1.6211 0-2.5244-.962-.90332-.9667-.90332-2.705 0-1.1133.44433-1.9483.44922-.8398 1.2891-1.2793.83984-.4443 1.9678-.4443 1.1426 0 2.1289.4199l-.32227.7324q-.9668-.4101-1.8604-.4101-1.3037 0-2.0361.7764-.73243.7763-.73243 2.1533 0 1.4453.70313 2.1924.70801.747 2.0752.747.74219 0 1.4502-.1709v-2.1972h-1.5967z" fill="#fff"/>
</g>
<g transform="matrix(.50252 -.29013 .4352 .25126 -335.34 205.33)" aria-label="H">
<path d="m650.11 1066h-.83008v-3.3594h-3.7598v3.3594h-.83007v-7.1387h.83007v3.0371h3.7598v-3.0371h.83008z" fill="#fff"/>
</g>
<g transform="matrix(.50252 -.29013 .4352 .25126 -335.34 205.33)" aria-label="J">
<path d="m668.34 1066.9q-.45899 0-.72266-.1318v-.708q.34668.098.72266.098.4834 0 .73242-.293.25391-.2929.25391-.8447v-7.1387h.83008v7.0704q0 .9277-.46875 1.4355-.46875.5127-1.3477.5127z" fill="#fff"/>
</g>
<g transform="matrix(.50252 -.29013 .4352 .25126 -335.34 205.33)" aria-label="K">
<path d="m693.04 1066h-.97656l-2.6025-3.4619-.74707.6641v2.7978h-.83008v-7.1387h.83008v3.5401l3.2373-3.5401h.98145l-2.8711 3.1006z" fill="#fff"/>
</g>
<g transform="matrix(.50252 -.29013 .4352 .25126 -335.34 205.33)" aria-label="L">
<path d="m710.16 1066v-7.1386h.83007v6.3867h3.1494v.7519z" fill="#fff"/>
</g>
<g transform="matrix(.50252 -.29013 .4352 .25126 -335.34 205.33)" fill="#fff" aria-label=": ;">
<path d="m733.4 1059.5q0-.2617.11719-.3945.12109-.1367.34375-.1367.22656 0 .35156.1367.12891.1328.12891.3945 0 .2539-.12891.3907-.1289.1367-.35156.1367-.19922 0-.33203-.1211-.12891-.125-.12891-.4063zm0-3.4492q0-.5273.46094-.5273.48047 0 .48047.5273 0 .2539-.12891.3906-.1289.1368-.35156.1368-.19922 0-.33203-.1211-.12891-.125-.12891-.4063z"/>
<path d="m734.17 1066.9.0586.09q-.10156.3906-.29296.9062-.19141.5195-.39844.9649h-.48828q.10547-.4063.23047-1.004.1289-.5976.17968-.957zm-.79297-2.9336q0-.5273.46485-.5273.48046 0 .48046.5273 0 .2539-.1289.3906-.12891.1368-.35156.1368-.22657 0-.34766-.1368-.11719-.1367-.11719-.3906z"/>
</g>
<g transform="matrix(.50252 -.29013 .4352 .25126 -335.34 205.33)" fill="#fff" aria-label="enter">
<path d="m753.74 1068.6q-.59327 0-.9375-.3613-.3418-.3613-.3418-1.0034 0-.647.31738-1.0278.31983-.3809.85693-.3809.50293 0 .7959.332.29297.3296.29297.8716v.2564h-1.8433q.0122.4712.23682.7153.22705.2441.6372.2441.43213 0 .8545-.1806v.3613q-.21485.093-.40772.1318-.19043.041-.46142.041zm-.10987-2.434q-.32226 0-.51513.2099-.19043.21-.22461.5811h1.3989q0-.3833-.1709-.586-.1709-.205-.48828-.205z"/>
<path d="m757.24 1068.5v-1.7309q0-.3272-.14892-.4883-.14893-.1612-.46631-.1612-.41992 0-.61524.2271-.19531.2271-.19531.7495v1.4038h-.40527v-2.6758h.32959l.0659.3662h.0195q.12451-.1977.34912-.3051.22461-.1099.50049-.1099.4834 0 .72754.2344.24414.2319.24414.7446v1.7456z"/>
<path d="m759.34 1068.3q.10742 0 .20752-.015.1001-.017.15869-.034v.3101q-.0659.032-.19531.051-.12695.022-.22949.022-.77637 0-.77637-.8178v-1.5918h-.3833v-.1953l.3833-.1685.1709-.5713h.23437v.6201h.77637v.315h-.77637v1.5747q0 .2417.11475.3711t.31494.1294z"/>
<path d="m761.38 1068.6q-.59326 0-.9375-.3613-.34179-.3613-.34179-1.0034 0-.647.31738-1.0278.31982-.3809.85693-.3809.50293 0 .7959.332.29297.3296.29297.8716v.2564h-1.8433q.0122.4712.23682.7153.22705.2441.6372.2441.43213 0 .85449-.1806v.3613q-.21484.093-.40771.1318-.19043.041-.46143.041zm-.10986-2.434q-.32227 0-.51514.2099-.19043.21-.22461.5811h1.3989q0-.3833-.1709-.586-.1709-.205-.48828-.205z"/>
<path d="m764.27 1065.8q.17822 0 .31982.029l-.0562.376q-.16601-.037-.29297-.037-.3247 0-.55664.2636-.22949.2637-.22949.6568v1.4355h-.40527v-2.6758h.33447l.0464.4956h.0195q.14892-.2612.35888-.4028.20997-.1416.46143-.1416z"/>
</g>
<g transform="matrix(.50252 -.29013 .4352 .25126 -335.34 205.33)" aria-label="Z">
<path d="m549.76 1091h-4.9072v-.6494l3.7891-5.7422h-3.6719v-.747h4.6826v.6494l-3.7891 5.7373h3.8965z" fill="#fff"/>
</g>
<g transform="matrix(.50252 -.29013 .4352 .25126 -335.34 205.33)" aria-label="X">
<path d="m571.85 1091h-.94238l-1.919-3.1397-1.9531 3.1397h-.8789l2.373-3.7305-2.2119-3.4082h.91797l1.7725 2.8271 1.7871-2.8271h.88379l-2.2119 3.3789z" fill="#fff"/>
</g>
<g transform="matrix(.50252 -.29013 .4352 .25126 -335.34 205.33)" aria-label="C">
<path d="m591.72 1084.5q-1.1768 0-1.8604.7861-.67871.7812-.67871 2.1435 0 1.4014.6543 2.168.65918.7617 1.875.7617.74707 0 1.7041-.2685v.7275q-.74219.2783-1.8311.2783-1.5772 0-2.4365-.957-.85449-.957-.85449-2.7197 0-1.1035.41015-1.9336.41504-.8301 1.1914-1.2793.78125-.4492 1.8359-.4492 1.123 0 1.9629.4101l-.35157.7129q-.81054-.3808-1.6211-.3808z" fill="#fff"/>
</g>
<g transform="matrix(.50252 -.29013 .4352 .25126 -335.34 205.33)" aria-label="V">
<path d="m614.47 1083.9h.89355l-2.5732 7.1387h-.82031l-2.5586-7.1387h.8789l1.6406 4.6191q.2832.7959.44922 1.5479.17578-.791.45898-1.5772z" fill="#fff"/>
</g>
<g transform="matrix(.50252 -.29013 .4352 .25126 -335.34 205.33)" aria-label="B">
<path d="m631.9 1083.9h2.0166q1.4209 0 2.0557.4248.63476.4248.63476 1.3428 0 .6348-.35644 1.0498-.35157.4102-1.0303.5322v.049q1.626.2783 1.626 1.7089 0 .9571-.64942 1.4942-.64453.5371-1.8066.5371h-2.4902zm.83008 3.0567h1.3672q.8789 0 1.2646-.2735.38575-.2783.38575-.9326 0-.6006-.42969-.8643-.42969-.2685-1.3672-.2685h-1.2207zm0 .7031v2.6709h1.4893q.86425 0 1.2988-.332.43946-.337.43946-1.0499 0-.664-.44922-.9765-.44434-.3125-1.3574-.3125z" fill="#fff"/>
</g>
<g transform="matrix(.50252 -.29013 .4352 .25126 -335.34 205.33)" aria-label="N">
<path d="m658.95 1091h-.94727l-3.9014-5.9912h-.0391q.0781 1.0547.0781 1.9336v4.0576h-.76661v-7.1387h.9375l3.8916 5.9668h.0391q-.01-.1318-.0439-.8447-.0342-.7178-.0244-1.0254v-4.0967h.77637z" fill="#fff"/>
</g>
<g transform="matrix(.50252 -.29013 .4352 .25126 -335.34 205.33)" aria-label="M">
<path d="m677.61 1091-2.4219-6.3281h-.0391q.0684.7519.0684 1.7871v4.541h-.7666v-7.1387h1.25l2.2607 5.8887h.0391l2.2803-5.8887h1.2402v7.1387h-.83008v-4.5996q0-.791.0684-1.7187h-.0391l-2.4414 6.3183z" fill="#fff"/>
</g>
<g transform="matrix(.50252 -.29013 .4352 .25126 -335.34 205.33)" fill="#fff" aria-label="&lt; ,">
<path d="m701.32 1085.4-3.7539-1.6484v-.3829l3.7539-1.8711v.5821l-3.0547 1.4492 3.0547 1.2812z"/>
<path d="m698.53 1093.4.0586.09q-.10157.3906-.29297.9062-.19141.5195-.39844.9649h-.48828q.10547-.4063.23047-1.004.1289-.5976.17969-.957z"/>
</g>
<g transform="matrix(.50252 -.29013 .4352 .25126 -335.34 205.33)" fill="#fff" aria-label="&gt; .">
<path d="m719.18 1085.4 3.0586-1.2734-3.0586-1.4571v-.582l3.7539 1.8711v.3828l-3.7539 1.6485z"/>
<path d="m719.37 1094.5q0-.2617.11719-.3945.12109-.1367.34375-.1367.22656 0 .35156.1367.1289.1328.1289.3945 0 .2539-.1289.3906-.12891.1368-.35156.1368-.19922 0-.33204-.1211-.1289-.125-.1289-.4063z"/>
</g>
<g transform="matrix(.50252 -.29013 .4352 .25126 -335.34 205.33)" fill="#fff" aria-label="caps lock">
<path d="m496.48 1066.9q-.58105 0-.90088-.3565-.31738-.3589-.31738-1.0132 0-.6713.32227-1.0376.3247-.3662.92285-.3662.19287 0 .38574.042t.30274.098l-.12452.3442q-.13427-.054-.29297-.088-.15869-.037-.28076-.037-.81543 0-.81543 1.0401 0 .4931.19776.7568.20019.2637.59082.2637.33447 0 .68603-.1441v.3589q-.26855.1392-.67627.1392z"/>
<path d="m499.44 1066.8-.0806-.3808h-.0195q-.2002.2515-.40039.3418-.19775.088-.49561.088-.39795 0-.625-.2051-.22461-.2051-.22461-.5835 0-.8105 1.2964-.8496l.4541-.015v-.166q0-.3149-.13672-.4638-.13427-.1514-.43212-.1514-.33448 0-.75684.2051l-.12451-.3101q.19775-.1074.43213-.1684.23681-.061.47363-.061.47851 0 .70801.2124.23193.2124.23193.6812v1.8261zm-.91553-.2856q.37842 0 .59326-.2075.21729-.2075.21729-.5811v-.2417l-.40528.017q-.48339.017-.69824.1514-.2124.1318-.2124.4126 0 .2197.13184.3345.13427.1147.37353.1147z"/>
<path d="m501.82 1066.9q-.26123 0-.47852-.095-.21484-.098-.36132-.2979h-.0293q.0293.2344.0293.4443v1.1011h-.40528v-3.8769h.32959l.0562.3662h.0195q.15625-.2198.36377-.3174.20752-.098.47607-.098.53223 0 .82031.3638.29053.3638.29053 1.0205 0 .6592-.29541 1.0254-.29297.3638-.81543.3638zm-.0586-2.4292q-.41016 0-.59327.227-.1831.2271-.18798.7227v.09q0 .564.18798.8081.18799.2417.60303.2417.34668 0 .54199-.2807.19776-.2808.19776-.774 0-.5005-.19776-.7666-.19531-.2685-.55175-.2685z"/>
<path d="m505.37 1066.1q0 .3735-.27832.5761-.27832.2027-.78125.2027-.53222 0-.83007-.1685v-.376q.19287.098.41259.1538.22217.056.42725.056.31738 0 .48828-.1001.1709-.1025.1709-.3101 0-.1562-.13672-.2661-.13428-.1123-.52734-.2636-.37354-.1392-.53223-.2417-.15625-.105-.23438-.2369-.0757-.1318-.0757-.3149 0-.3271.26611-.5151.26612-.1905.72998-.1905.43213 0 .84473.1758l-.14404.3296q-.40283-.166-.72998-.166-.28809 0-.43457.09-.14649.09-.14649.249 0 .1075.0537.1832.0562.076.17823.144.12207.068.46875.1977.47607.1734.64209.3492.16845.1758.16845.4419z"/>
<path d="m507.73 1066.8h-.40527v-3.7988h.40527z"/>
<path d="m510.9 1065.5q0 .6543-.32959 1.023-.32959.3662-.91064.3662-.35889 0-.63721-.1685-.27832-.1684-.42969-.4834-.15136-.3149-.15136-.7373 0-.6543.32714-1.0181.32715-.3662.90821-.3662.56152 0 .89111.3736.33203.3735.33203 1.0107zm-2.0386 0q0 .5127.20508.7813.20507.2685.60302.2685t.60303-.2661q.20752-.2685.20752-.7837 0-.5102-.20752-.7739-.20508-.2661-.60791-.2661-.39795 0-.60059.2612-.20263.2612-.20263.7788z"/>
<path d="m512.68 1066.9q-.58106 0-.90088-.3565-.31739-.3589-.31739-1.0132 0-.6713.32227-1.0376.32471-.3662.92285-.3662.19287 0 .38574.042t.30274.098l-.12451.3442q-.13428-.054-.29297-.088-.15869-.037-.28076-.037-.81543 0-.81543 1.0401 0 .4931.19775.7568.20019.2637.59082.2637.33447 0 .68603-.1441v.3589q-.26855.1392-.67626.1392z"/>
<path d="m514.39 1065.4q.10498-.1489.31983-.3906l.86425-.9155h.48096l-1.084 1.1401 1.1597 1.5356h-.49073l-.94482-1.2646-.30518.2637v1.0009h-.40039v-3.7988h.40039v2.0142q0 .1343-.0195.415z"/>
</g>
<g transform="matrix(.50252 -.29013 .4352 .25126 -335.34 205.33)" fill="#fff" aria-label="shift">
<path d="m497.5 1092q0 .3735-.27832.5762-.27832.2026-.78125.2026-.53222 0-.83008-.1685v-.3759q.19288.098.4126.1538.22217.056.42725.056.31738 0 .48828-.1001.1709-.1025.1709-.31 0-.1563-.13672-.2662-.13428-.1123-.52734-.2636-.37354-.1392-.53223-.2417-.15625-.105-.23438-.2368-.0757-.1319-.0757-.315 0-.3271.26611-.5151.26612-.1904.72998-.1904.43213 0 .84473.1757l-.14404.3296q-.40283-.166-.72998-.166-.28809 0-.43457.09-.14649.09-.14649.2491 0 .1074.0537.1831.0562.076.17823.144.12207.068.46875.1978.47607.1733.64209.3491.16845.1758.16845.4419z"/>
<path d="m499.98 1092.7v-1.731q0-.3271-.14893-.4883-.14893-.1611-.46631-.1611-.42236 0-.61767.2295-.19288.2295-.19288.7519v1.399h-.40527v-3.7989h.40527v1.1499q0 .2076-.0195.3443h.0244q.11963-.1929.33935-.3028.22217-.1123.50537-.1123.49073 0 .73487.2344.24658.2319.24658.7398v1.7456z"/>
<path d="m501.63 1092.7h-.40527v-2.6758h.40527zm-.43945-3.4009q0-.1392.0684-.2027.0684-.066.1709-.066.0976 0 .16845.066.0708.066.0708.2027t-.0708.2051q-.0708.066-.16845.066-.10254 0-.1709-.066-.0684-.068-.0684-.2051z"/>
<path d="m503.7 1090.3h-.68115v2.3609h-.40527v-2.3609h-.47852v-.1831l.47852-.1465v-.1489q0-.9863.86181-.9863.21241 0 .49805.085l-.10498.3247q-.23437-.076-.40039-.076-.22949 0-.33936.1539-.10986.1513-.10986.4882v.1734h.68115z"/>
<path d="m505.05 1092.4q.10743 0 .20752-.015.1001-.017.1587-.034v.31q-.0659.032-.19532.051-.12695.022-.22949.022-.77637 0-.77637-.8179v-1.5918h-.3833v-.1953l.3833-.1684.1709-.5713h.23438v.6201h.77636v.3149h-.77636v1.5747q0 .2417.11474.3711.11475.1294.31494.1294z"/>
</g>
<g transform="matrix(.50252 -.29013 .4352 .25126 -335.34 205.33)" fill="#fff" aria-label="shift">
<path d="m757.39 1092.3q0 .3735-.27832.5762-.27832.2026-.78125.2026-.53223 0-.83008-.1684v-.376q.19287.098.4126.1538.22217.056.42725.056.31738 0 .48828-.1.1709-.1026.1709-.3101 0-.1563-.13672-.2661-.13428-.1123-.52735-.2637-.37353-.1392-.53222-.2417-.15625-.105-.23438-.2368-.0757-.1318-.0757-.315 0-.3271.26611-.5151.26612-.1904.72998-.1904.43213 0 .84473.1758l-.14404.3296q-.40284-.1661-.72998-.1661-.28809 0-.43457.09-.14649.09-.14649.249 0 .1074.0537.1831.0562.076.17822.144.12208.068.46875.1978.47608.1733.64209.3491.16846.1758.16846.4419z"/>
<path d="m759.87 1093.1v-1.731q0-.3271-.14892-.4882-.14893-.1612-.46631-.1612-.42236 0-.61768.2295-.19287.2295-.19287.752v1.3989h-.40527v-3.7988h.40527v1.1499q0 .2075-.0195.3442h.0244q.11963-.1929.33935-.3027.22217-.1123.50537-.1123.49073 0 .73487.2343.24658.232.24658.7398v1.7456z"/>
<path d="m761.52 1093.1h-.40527v-2.6758h.40527zm-.43945-3.4009q0-.1391.0684-.2026.0684-.066.17089-.066.0977 0 .16846.066.0708.066.0708.2026 0 .1367-.0708.2051-.0708.066-.16846.066-.10253 0-.17089-.066-.0684-.068-.0684-.2051z"/>
<path d="m763.59 1090.7h-.68115v2.3608h-.40527v-2.3608h-.47852v-.1832l.47852-.1464v-.149q0-.9863.86181-.9863.21241 0 .49805.086l-.10498.3247q-.23438-.076-.40039-.076-.22949 0-.33936.1538-.10986.1514-.10986.4883v.1733h.68115z"/>
<path d="m764.94 1092.8q.10743 0 .20752-.015.1001-.017.1587-.034v.3101q-.0659.032-.19532.051-.12695.022-.22949.022-.77637 0-.77637-.8179v-1.5917h-.3833v-.1954l.3833-.1684.1709-.5713h.23438v.6201h.77636v.315h-.77636v1.5747q0 .2417.11474.3711.11475.1293.31494.1293z"/>
</g>
<g transform="matrix(.50252 -.29013 .4352 .25126 -335.34 205.33)" fill="#fff" aria-label="fn">
<path d="m495.54 1116.8h-.68115v2.3609h-.40527v-2.3609h-.47852v-.1831l.47852-.1465v-.1489q0-.9863.86181-.9863.2124 0 .49805.085l-.10498.3247q-.23438-.076-.40039-.076-.22949 0-.33936.1538-.10986.1513-.10986.4883v.1733h.68115z"/>
<path d="m497.87 1119.2v-1.731q0-.3271-.14893-.4883-.14892-.1611-.4663-.1611-.41993 0-.61524.2271-.19531.227-.19531.7495v1.4038h-.40527v-2.6758h.32959l.0659.3662h.0195q.12452-.1978.34913-.3052.2246-.1098.50048-.1098.4834 0 .72754.2343.24414.232.24414.7447v1.7456z"/>
</g>
<g transform="matrix(.50252 -.29013 .4352 .25126 -335.34 205.33)" fill="#fff" aria-label="ctrl">
<path d="m513.03 1119.1q-.58105 0-.90088-.3564-.31738-.3589-.31738-1.0132 0-.6714.32226-1.0376.32471-.3662.92286-.3662.19287 0 .38574.041.19287.042.30273.098l-.12451.3443q-.13428-.054-.29297-.088-.15869-.037-.28076-.037-.81543 0-.81543 1.04 0 .4932.19775.7568.2002.2637.59082.2637.33448 0 .68604-.144v.3588q-.26855.1392-.67627.1392z"/>
<path d="m515.21 1118.7q.10743 0 .20752-.015.1001-.017.1587-.034v.3101q-.0659.032-.19532.051-.12695.022-.22949.022-.77637 0-.77637-.8179v-1.5918h-.3833v-.1953l.3833-.1684.1709-.5713h.23438v.6201h.77636v.3149h-.77636v1.5747q0 .2417.11474.3711.11475.1294.31494.1294z"/>
<path d="m517.33 1116.3q.17822 0 .31982.029l-.0562.3759q-.16602-.037-.29297-.037-.32471 0-.55664.2637-.22949.2637-.22949.6567v1.4356h-.40527v-2.6758h.33447l.0464.4956h.0195q.14892-.2612.35888-.4028t.46143-.1416z"/>
<path d="m518.56 1119h-.40527v-3.7989h.40527z"/>
</g>
<g transform="matrix(.50252 -.29013 .4352 .25126 -335.34 205.33)" fill="#fff" aria-label="option">
<path d="m534.32 1117.1q0 .6543-.32959 1.023-.32959.3662-.91065.3662-.35889 0-.63721-.1685-.27832-.1684-.42968-.4834-.15137-.3149-.15137-.7373 0-.6543.32715-1.018.32715-.3663.9082-.3663.56152 0 .89111.3736.33204.3735.33204 1.0107zm-2.0386 0q0 .5127.20508.7813.20508.2685.60303.2685t.60302-.2661q.20752-.2685.20752-.7837 0-.5102-.20752-.7739-.20507-.2661-.60791-.2661-.39795 0-.60058.2612-.20264.2612-.20264.7788z"/>
<path d="m536.28 1118.5q-.26123 0-.47852-.095-.21484-.098-.36132-.2979h-.0293q.0293.2344.0293.4444v1.101h-.40528v-3.8769h.32959l.0562.3662h.0195q.15625-.2197.36377-.3174.20752-.098.47607-.098.53223 0 .82031.3638.29053.3638.29053 1.0205 0 .6592-.29541 1.0254-.29297.3638-.81543.3638zm-.0586-2.4292q-.41016 0-.59327.227-.1831.2271-.18798.7227v.09q0 .564.18798.8081.18799.2417.60303.2417.34668 0 .54199-.2807.19776-.2808.19776-.774 0-.5004-.19776-.7666-.19531-.2685-.55175-.2685z"/>
<path d="m538.96 1118.2q.10742 0 .20752-.015.10009-.017.15869-.034v.31q-.0659.032-.19531.051-.12696.022-.2295.022-.77636 0-.77636-.8179v-1.5918h-.3833v-.1953l.3833-.1685.17089-.5712h.23438v.6201h.77637v.3149h-.77637v1.5747q0 .2417.11475.3711.11474.1294.31494.1294z"/>
<path d="m540.27 1118.5h-.40527v-2.6758h.40527zm-.43945-3.4009q0-.1392.0684-.2027.0684-.066.1709-.066.0976 0 .16845.066.0708.066.0708.2027t-.0708.2051q-.0708.066-.16845.066-.10254 0-.1709-.066-.0684-.068-.0684-.2051z"/>
<path d="m543.44 1117.1q0 .6543-.32959 1.023-.32959.3662-.91065.3662-.35888 0-.6372-.1685-.27832-.1684-.42969-.4834-.15137-.3149-.15137-.7373 0-.6543.32715-1.018.32715-.3663.9082-.3663.56153 0 .89112.3736.33203.3735.33203 1.0107zm-2.0386 0q0 .5127.20508.7813.20508.2685.60303.2685t.60303-.2661q.20752-.2685.20752-.7837 0-.5102-.20752-.7739-.20508-.2661-.60791-.2661-.39795 0-.60059.2612t-.20264.7788z"/>
<path d="m545.98 1118.5v-1.731q0-.3271-.14892-.4883-.14893-.1611-.46631-.1611-.41992 0-.61524.227-.19531.2271-.19531.7495v1.4039h-.40527v-2.6758h.32959l.0659.3662h.0195q.12451-.1978.34912-.3052.22461-.1099.50049-.1099.48339 0 .72753.2344.24414.232.24414.7447v1.7456z"/>
</g>
<g transform="matrix(.50252 -.29013 .4352 .25126 -335.34 205.33)" fill="#fff" aria-label="command">
<path d="m556.09 1119.1q-.58105 0-.90088-.3564-.31738-.3589-.31738-1.0132 0-.6714.32227-1.0376.3247-.3662.92285-.3662.19287 0 .38574.042t.30273.098l-.12451.3442q-.13428-.054-.29297-.088-.15869-.037-.28076-.037-.81543 0-.81543 1.04 0 .4932.19776.7569.20019.2636.59082.2636.33447 0 .68603-.144v.3589q-.26855.1391-.67627.1391z"/>
<path d="m559.71 1117.7q0 .6543-.32959 1.0229-.32959.3662-.91065.3662-.35888 0-.6372-.1684-.27832-.1685-.42969-.4834-.15137-.315-.15137-.7373 0-.6543.32715-1.0181.32715-.3662.9082-.3662.56153 0 .89112.3735.33203.3736.33203 1.0108zm-2.0386 0q0 .5127.20508.7812.20508.2686.60303.2686t.60303-.2661q.20752-.2686.20752-.7837 0-.5103-.20752-.774-.20508-.2661-.60791-.2661-.39795 0-.60059.2613-.20264.2612-.20264.7788z"/>
<path d="m563.83 1119v-1.7407q0-.3198-.13672-.4785-.13672-.1612-.4248-.1612-.37842 0-.55908.2173-.18067.2173-.18067.669v1.4941h-.40527v-1.7407q0-.3198-.13672-.4785-.13672-.1612-.42725-.1612-.38086 0-.55908.2295-.17578.2271-.17578.7471v1.4038h-.40527v-2.6758h.32959l.0659.3662h.0195q.11474-.1953.32226-.3051.20996-.1099.46875-.1099.62744 0 .82031.4541h.0195q.11963-.21.34668-.332.22706-.1221.51758-.1221.4541 0 .67871.2344.22705.2319.22705.7446v1.7456z"/>
<path d="m568.48 1119v-1.7407q0-.3198-.13672-.4785-.13672-.1612-.42481-.1612-.37841 0-.55908.2173-.18066.2173-.18066.669v1.4941h-.40527v-1.7407q0-.3198-.13672-.4785-.13672-.1612-.42725-.1612-.38086 0-.55908.2295-.17578.2271-.17578.7471v1.4038h-.40528v-2.6758h.32959l.0659.3662h.0195q.11475-.1953.32227-.3051.20996-.1099.46875-.1099.62744 0 .82031.4541h.0195q.11963-.21.34668-.332.22705-.1221.51758-.1221.4541 0 .67871.2344.22705.2319.22705.7446v1.7456z"/>
<path d="m571.36 1119-.0806-.3809h-.0195q-.20019.2515-.40039.3418-.19775.088-.4956.088-.39795 0-.625-.205-.22461-.2051-.22461-.5835 0-.8106 1.2964-.8496l.4541-.015v-.166q0-.315-.13671-.4639-.13428-.1513-.43213-.1513-.33448 0-.75684.205l-.12451-.31q.19775-.1074.43213-.1685.23681-.061.47363-.061.47852 0 .70801.2124.23193.2124.23193.6811v1.8262zm-.91553-.2856q.37842 0 .59326-.2076.21729-.2075.21729-.581v-.2417l-.40527.017q-.4834.017-.69825.1513-.2124.1319-.2124.4126 0 .2198.13184.3345.13427.1148.37353.1148z"/>
<path d="m574.33 1119v-1.7309q0-.3272-.14893-.4883-.14892-.1612-.46631-.1612-.41992 0-.61523.2271-.19531.227-.19531.7495v1.4038h-.40528v-2.6758h.32959l.0659.3662h.0195q.12452-.1977.34912-.3051.22461-.1099.50049-.1099.4834 0 .72754.2344.24414.2319.24414.7446v1.7456z"/>
<path d="m577.39 1118.7h-.022q-.28076.4077-.83985.4077-.5249 0-.81787-.3589-.29053-.3588-.29053-1.0205 0-.6616.29297-1.0278t.81543-.3662q.54444 0 .83496.3955h.0317l-.0171-.1929-.01-.188v-1.0888h.40527v3.7988h-.32959zm-.81055.068q.41504 0 .60059-.2246.18799-.2271.18799-.73v-.085q0-.5688-.19043-.8105-.18799-.2441-.60303-.2441-.35645 0-.54687.2783-.18799.2759-.18799.7812 0 .5127.18799.7739.18798.2613.55175.2613z"/>
</g>
<g transform="matrix(.50252 -.29013 .4352 .25126 -335.34 205.33)" fill="#fff" aria-label="command">
<path d="m682.1 1119q-.58106 0-.90088-.3565-.31738-.3589-.31738-1.0131 0-.6714.32226-1.0376.32471-.3663.92285-.3663.19288 0 .38575.042t.30273.098l-.12451.3442q-.13428-.054-.29297-.088-.15869-.037-.28076-.037-.81543 0-.81543 1.0401 0 .4931.19775.7568.2002.2637.59082.2637.33448 0 .68604-.1441v.3589q-.26856.1392-.67627.1392z"/>
<path d="m685.72 1117.6q0 .6543-.32959 1.023-.32959.3662-.91065.3662-.35888 0-.63721-.1685-.27832-.1684-.42968-.4834-.15137-.3149-.15137-.7373 0-.6543.32715-1.018.32715-.3663.9082-.3663.56153 0 .89111.3736.33204.3735.33204 1.0107zm-2.0386 0q0 .5127.20508.7813.20508.2685.60303.2685t.60302-.2661q.20752-.2685.20752-.7837 0-.5102-.20752-.7739-.20507-.2661-.60791-.2661-.39794 0-.60058.2612t-.20264.7788z"/>
<path d="m689.84 1118.9v-1.7408q0-.3198-.13672-.4785-.13672-.1611-.4248-.1611-.37842 0-.55909.2173-.18066.2173-.18066.6689v1.4942h-.40527v-1.7408q0-.3198-.13672-.4785-.13672-.1611-.42725-.1611-.38086 0-.55908.2295-.17578.227-.17578.747v1.4039h-.40528v-2.6758h.32959l.0659.3662h.0195q.11475-.1953.32227-.3052.20996-.1099.46875-.1099.62744 0 .82031.4541h.0195q.11963-.2099.34668-.332t.51758-.1221q.4541 0 .67871.2344.22705.232.22705.7446v1.7457z"/>
<path d="m694.49 1118.9v-1.7408q0-.3198-.13672-.4785-.13672-.1611-.42481-.1611-.37842 0-.55908.2173t-.18066.6689v1.4942h-.40528v-1.7408q0-.3198-.13672-.4785-.13671-.1611-.42724-.1611-.38086 0-.55908.2295-.17579.227-.17579.747v1.4039h-.40527v-2.6758h.32959l.0659.3662h.0195q.11475-.1953.32227-.3052.20996-.1099.46875-.1099.62744 0 .82031.4541h.0195q.11963-.2099.34668-.332t.51758-.1221q.4541 0 .67871.2344.22705.232.22705.7446v1.7457z"/>
<path d="m697.37 1118.9-.0806-.3809h-.0195q-.2002.2515-.40039.3418-.19776.088-.49561.088-.39795 0-.625-.2051-.22461-.2051-.22461-.5835 0-.8105 1.2964-.8496l.4541-.015v-.166q0-.3149-.13672-.4638-.13427-.1514-.43213-.1514-.33447 0-.75683.2051l-.12451-.3101q.19775-.1074.43213-.1684.23681-.061.47363-.061.47851 0 .70801.2124.23193.2124.23193.6812v1.8262zm-.91553-.2857q.37842 0 .59326-.2075.21729-.2075.21729-.5811v-.2417l-.40528.017q-.4834.017-.69824.1514-.2124.1318-.2124.4126 0 .2197.13183.3345.13428.1147.37354.1147z"/>
<path d="m700.34 1118.9v-1.731q0-.3272-.14893-.4883-.14892-.1611-.46631-.1611-.41992 0-.61523.227-.19531.2271-.19531.7495v1.4039h-.40528v-2.6758h.32959l.0659.3662h.0195q.12451-.1978.34912-.3052.22461-.1099.50049-.1099.4834 0 .72754.2344.24414.232.24414.7446v1.7457z"/>
<path d="m703.4 1118.6h-.022q-.28076.4077-.83984.4077-.5249 0-.81787-.3589-.29053-.3589-.29053-1.0205t.29297-1.0278q.29297-.3663.81543-.3663.54443 0 .83496.3956h.0317l-.0171-.1929-.01-.188v-1.0889h.40528v3.7989h-.32959zm-.81055.068q.41504 0 .60059-.2246.18798-.227.18798-.73v-.085q0-.5689-.19042-.8106-.18799-.2441-.60303-.2441-.35645 0-.54688.2783-.18799.2759-.18799.7813 0 .5127.18799.7739t.55176.2612z"/>
</g>
<g transform="matrix(.50252 -.29013 .4352 .25126 -335.34 205.33)" fill="#fff" aria-label="option">
<path d="m723.27 1117.2q0 .6543-.32959 1.0229-.32959.3662-.91064.3662-.35889 0-.63721-.1684-.27832-.1685-.42968-.4834-.15137-.315-.15137-.7373 0-.6543.32715-1.0181.32715-.3662.9082-.3662.56152 0 .89111.3735.33203.3736.33203 1.0108zm-2.0386 0q0 .5127.20508.7812.20508.2686.60303.2686.39794 0 .60302-.2661.20752-.2686.20752-.7837 0-.5103-.20752-.7739-.20508-.2662-.60791-.2662-.39795 0-.60058.2613-.20264.2612-.20264.7788z"/>
<path d="m725.22 1118.6q-.26123 0-.47852-.095-.21484-.098-.36132-.2978h-.0293q.0293.2344.0293.4443v1.1011h-.40528v-3.877h.32959l.0562.3662h.0195q.15625-.2197.36377-.3173.20751-.098.47607-.098.53223 0 .82031.3638.29053.3637.29053 1.0205 0 .6592-.29541 1.0254-.29297.3637-.81543.3637zm-.0586-2.4292q-.41016 0-.59327.2271-.1831.227-.18798.7227v.09q0 .5639.18798.8081.18799.2417.60303.2417.34668 0 .54199-.2808.19776-.2807.19776-.7739 0-.5005-.19776-.7666-.19531-.2686-.55175-.2686z"/>
<path d="m727.9 1118.3q.10742 0 .20752-.015.10009-.017.15869-.034v.3101q-.0659.032-.19532.051-.12695.022-.22949.022-.77636 0-.77636-.8178v-1.5918h-.38331v-.1953l.38331-.1685.17089-.5713h.23438v.6201h.77637v.315h-.77637v1.5747q0 .2417.11474.3711.11475.1294.31495.1294z"/>
<path d="m729.21 1118.6h-.40527v-2.6758h.40527zm-.43945-3.4009q0-.1391.0684-.2026.0684-.066.17089-.066.0977 0 .16846.066.0708.066.0708.2026 0 .1368-.0708.2051-.0708.066-.16846.066-.10253 0-.17089-.066-.0684-.068-.0684-.2051z"/>
<path d="m732.39 1117.2q0 .6543-.32959 1.0229-.32959.3662-.91065.3662-.35888 0-.6372-.1684-.27832-.1685-.42969-.4834-.15137-.315-.15137-.7373 0-.6543.32715-1.0181.32715-.3662.9082-.3662.56153 0 .89112.3735.33203.3736.33203 1.0108zm-2.0386 0q0 .5127.20508.7812.20508.2686.60303.2686t.60303-.2661q.20752-.2686.20752-.7837 0-.5103-.20752-.7739-.20508-.2662-.60791-.2662-.39795 0-.60059.2613-.20264.2612-.20264.7788z"/>
<path d="m734.93 1118.6v-1.7309q0-.3272-.14893-.4883-.14892-.1612-.4663-.1612-.41993 0-.61524.2271-.19531.227-.19531.7495v1.4038h-.40527v-2.6758h.32959l.0659.3662h.0195q.12452-.1977.34913-.3051.22461-.1099.50048-.1099.4834 0 .72754.2344.24414.2319.24414.7446v1.7456z"/>
</g>
<g transform="matrix(.50252 -.29013 .4352 .25126 -335.34 205.33)" fill="#fff" aria-label="fn">
<path d="m762.76 1116.3h-.68116v2.3608h-.40527v-2.3608h-.47852v-.1831l.47852-.1465v-.1489q0-.9863.86182-.9863.2124 0 .49804.085l-.10498.3247q-.23437-.076-.40039-.076-.22949 0-.33935.1538-.10987.1514-.10987.4883v.1734h.68116z"/>
<path d="m765.08 1118.7v-1.7309q0-.3272-.14892-.4883-.14893-.1611-.46631-.1611-.41992 0-.61523.227-.19532.2271-.19532.7495v1.4038h-.40527v-2.6757h.32959l.0659.3662h.0195q.12451-.1978.34912-.3052.22461-.1099.50049-.1099.4834 0 .72754.2344.24414.2319.24414.7446v1.7456z"/>
</g>
<path d="m373.99 223.55h5.7908" fill="none" stroke="#5f5f5f" stroke-linecap="square" stroke-width=".19308" style="paint-order:stroke markers fill"/>
</g>
<text x="162.75925" y="215.86211" fill="#000000" font-family="Helvetica" font-size="6px" letter-spacing="0px" stroke-width=".5" word-spacing="0px" style="line-height:0%" xml:space="preserve"><tspan x="162.75925" y="215.86211" font-size="20px" stroke-width=".5" style="line-height:1.25"></tspan></text>
</g>
</svg>
