<svg width="1440" height="1722" version="1.1" viewBox="0 0 1440 1722" xmlns="http://www.w3.org/2000/svg">
<defs>
<filter id="a" x="-.20163" y="-.11641" width="1.4033" height="1.2328" color-interpolation-filters="sRGB">
<feGaussianBlur stdDeviation="0.29102108"/>
</filter>
<filter id="b" x="-.02078" y="-.0084356" width="1.0416" height="1.0169" color-interpolation-filters="sRGB">
<feGaussianBlur stdDeviation="0.1757426"/>
</filter>
</defs>
<g transform="translate(0 669.64)">
<g>
<path d="m0-669.64h1440v1722h-1440z" fill="#191d27"/>
<path d="m238.02 282.42c-3.6698 0-6.6255 2.9545-6.6255 6.6244v174.91c0 3.6698 2.9557 6.6244 6.6255 6.6244h97.53c3.6698 0 6.6243-2.9546 6.6243-6.6244v-174.91c0-3.6698-2.9545-6.6244-6.6243-6.6244z" fill="#f2f2f2"/>
<path d="m241.58 292.48h90.414c.90466 0 1.633.74372 1.633 1.6675v155.96c0 .92381-.72835 1.6675-1.633 1.6675h-90.414c-.90471 0-1.633-.74371-1.633-1.6675v-155.96c0-.92381.72833-1.6675 1.633-1.6675z" fill="#191d27"/>
<path d="m320.58 279.88h12.21v4.5289h-12.21z" fill="#505050"/>
</g>
<g fill="#f2f2f2">
<g stroke-width="1.7468" aria-label="hypertext (HTML)">
<path d="m243.3 348.34v15.814h1.3953v-6.6666q.0221-.84163.26578-1.5504.26577-.73089.70874-1.2403.46511-.53155 1.1074-.81948.66445-.31007 1.5061-.31007t1.3953.26578q.57585.26577.90807.73089.33223.46511.46511 1.1074.13289.62015.13289 1.351v7.1317h1.3953v-7.3532q0-1.0188-.19934-1.8383-.19933-.81948-.68659-1.3732-.48726-.57585-1.3067-.88593-.79733-.31007-1.9933-.31007-1.2182 0-2.237.64229-1.0188.62015-1.4175 1.6611h-.0443v-6.3565z"/>
<path d="m253.93 352.73 4.5625 11.384-.48726 1.2846q-.17718.39867-.33222.73089-.15504.33223-.37652.55371-.22148.24363-.53155.37651-.28793.13289-.75304.13289-.24363 0-.48726-.0443-.22148-.0222-.46511-.0665v1.1738q.17718.0664.39867.0664.24363.0222.66444.0443.66444 0 1.0853-.13289.44296-.11074.75304-.39867.33222-.26578.598-.75304.26577-.46511.57585-1.196l4.9612-13.156h-1.3953l-3.5216 9.7452-3.7652-9.7452z"/>
<path d="m265.47 352.73v15.637h1.3953v-6.3787h.0443q.22148.62015.62015 1.0853.42081.46511.95237.77518.53155.31008 1.1517.46512.62015.15503 1.2403.15503 1.3067 0 2.2591-.46511.97452-.48726 1.6168-1.3067.6423-.84163.95237-1.9269.31008-1.1074.31008-2.3256t-.31008-2.3034q-.31007-1.1074-.95237-1.9269-.64229-.84162-1.6168-1.3289-.95237-.48726-2.2591-.48726-1.3953 0-2.5027.66444-1.0853.6423-1.5725 1.8383h-.0443v-2.1705zm9.1472 5.7142q0 .88592-.22148 1.7718-.19933.86378-.66444 1.5504-.44297.68659-1.1517 1.1296-.70874.42082-1.7054.42082-1.1074 0-1.8826-.42082-.75304-.44296-1.2403-1.1296-.46511-.68659-.68659-1.5504-.19934-.88593-.19934-1.7718 0-.97452.17719-1.8604.19933-.88593.66444-1.5504.46511-.66445 1.2403-1.0631.77518-.39867 1.9269-.39867.99666 0 1.7054.44296.70874.42082 1.1517 1.1074.46511.68659.66444 1.5725.22148.86377.22148 1.7497z"/>
<path d="m286.4 357.65h-7.3975q.0886-.77519.35437-1.5061.28792-.75303.75303-1.3067.46512-.57585 1.1296-.90807.66444-.35437 1.5282-.35437.84163 0 1.5061.35437.66445.33222 1.1296.90807.46511.55371.70874 1.2846.26578.73089.28793 1.5282zm-7.3975 1.1738h8.7928q.0443-1.196-.22148-2.3477-.26578-1.1738-.88593-2.0598-.598-.90808-1.5725-1.4618-.97451-.5537-2.3477-.5537-1.351 0-2.3477.53155-.97452.50941-1.5947 1.3732-.62015.84163-.93022 1.9269-.28793 1.0852-.28793 2.2148 0 1.2182.28793 2.3256.31007 1.0853.93022 1.9269.62015.81948 1.5947 1.3067.99666.46511 2.3477.46511 2.1705 0 3.3444-1.0631 1.196-1.0631 1.639-3.0121h-1.3953q-.33222 1.3289-1.196 2.1262-.86378.79733-2.392.79733-.99667 0-1.7054-.42082-.70874-.42081-1.1738-1.0631-.46511-.64229-.68659-1.4396-.19933-.81949-.19933-1.5725z"/>
<path d="m289.69 352.73v11.428h1.3953v-6.0907q0-.90807.31008-1.6611.31007-.77518.86377-1.3289.57585-.5537 1.351-.84163.77518-.31007 1.7276-.26577v-1.3953q-1.5504-.0664-2.6799.68659-1.1074.75304-1.639 2.1484h-.0443v-2.6799z"/>
<path d="m298.87 352.73v-3.433h-1.3953v3.433h-1.9933v1.1738h1.9933v7.8183q-.0222 1.4618.53156 2.0155.5537.53156 1.949.53156.31008 0 .62015-.0221.31007-.0222.62015-.0222v-1.1738q-.598.0664-1.196.0664-.75304-.0443-.95237-.42082-.17719-.39866-.17719-1.0853v-7.7076h2.3256v-1.1738z"/>
<path d="m311.45 357.65h-7.3975q.0886-.77519.35437-1.5061.28793-.75303.75304-1.3067.46511-.57585 1.1296-.90807.66445-.35437 1.5282-.35437.84163 0 1.5061.35437.66444.33222 1.1296.90807.46511.55371.70874 1.2846.26578.73089.28793 1.5282zm-7.3975 1.1738h8.7928q.0443-1.196-.22148-2.3477-.26578-1.1738-.88593-2.0598-.598-.90808-1.5725-1.4618-.97452-.5537-2.3477-.5537-1.351 0-2.3477.53155-.97452.50941-1.5947 1.3732-.62015.84163-.93023 1.9269-.28792 1.0852-.28792 2.2148 0 1.2182.28792 2.3256.31008 1.0853.93023 1.9269.62014.81948 1.5947 1.3067.99667.46511 2.3477.46511 2.1705 0 3.3444-1.0631 1.196-1.0631 1.639-3.0121h-1.3953q-.33222 1.3289-1.196 2.1262-.86377.79733-2.392.79733-.99666 0-1.7054-.42082-.70874-.42081-1.1738-1.0631-.46512-.64229-.6866-1.4396-.19933-.81949-.19933-1.5725z"/>
<path d="m317.86 358.22-4.4296 5.9357h1.7276l3.5216-4.8062 3.588 4.8062h1.7718l-4.4518-5.9578 4.1196-5.4706h-1.7497l-3.1893 4.341-3.2558-4.341h-1.7497z"/>
<path d="m327.59 352.73v-3.433h-1.3953v3.433h-1.9933v1.1738h1.9933v7.8183q-.0221 1.4618.53156 2.0155.5537.53156 1.949.53156.31008 0 .62015-.0221.31007-.0222.62015-.0222v-1.1738q-.598.0664-1.196.0664-.75304-.0443-.95237-.42082-.17719-.39866-.17719-1.0853v-7.7076h2.3256v-1.1738z"/>
<path d="m256.26 396.05h1.1074q-.64229-1.0188-1.1738-2.1927-.50941-1.1738-.88593-2.4142-.37651-1.2624-.57585-2.5249-.19933-1.2624-.19933-2.4584 0-2.9678.66444-5.6699.6866-2.7021 2.1705-5.0941h-1.1074q-1.4618 2.2813-2.3034 4.8504-.81948 2.547-.81948 5.4042 0 1.4618.19933 2.7685.22148 1.2846.62015 2.5027.39866 1.2182.97452 2.4142.598 1.196 1.3289 2.4142z"/>
<path d="m258.92 376.03v15.814h1.5061v-7.6632h9.3908v7.6632h1.5061v-15.814h-1.5061v6.8659h-9.3908v-6.8659z"/>
<path d="m272.81 376.03v1.2846h5.4927v14.529h1.5061v-14.529h5.5149v-1.2846z"/>
<path d="m288.99 376.03 5.2491 13.865 5.4484-13.865h2.2148v15.814h-1.5061v-13.665h-.0443l-5.4042 13.665h-1.4175l-5.2048-13.665h-.0443v13.665h-1.5061v-15.814z"/>
<path d="m304.99 376.03v15.814h10.365v-1.2846h-8.8593v-14.529z"/>
<path d="m316.38 375.7h-1.0853q.598 1.0631 1.1074 2.237.53156 1.1738.90807 2.4142.37652 1.2182.57586 2.4806.22148 1.2624.22148 2.4806 0 2.9678-.6866 5.6699-.66444 2.6799-2.1262 5.0719h1.0853q1.4618-2.2813 2.2813-4.8283.84163-2.547.84163-5.4041 0-1.4396-.22148-2.7464-.19934-1.3067-.598-2.5249-.39867-1.2403-.99667-2.4363-.57585-1.196-1.3067-2.4142z"/>
</g>
<rect x="538" y="307.36" width="280" height="240" rx="10.5" ry="10.5"/>
<rect x="538" y="553.36" width="280" height="40" rx="5.4142" ry="5.4142"/>
</g>
<g>
<rect x="558" y="325.36" width="240" height="204" rx="7.9999" ry="7.9999" fill="#191d27"/>
<g fill="#f2f2f2" stroke-width="3" aria-label="hypertext (HTML)">
<path d="m599.46 384.4v28.56h2.52v-12.04q.04-1.52.48-2.8.48-1.32 1.28-2.24.84-.96 2-1.48 1.2-.56 2.72-.56t2.52.48q1.04.48 1.64 1.32t.84 2q.24 1.12.24 2.44v12.88h2.52v-13.28q0-1.84-.36-3.32t-1.24-2.48q-.88-1.04-2.36-1.6-1.44-.56-3.6-.56-2.2 0-4.04 1.16-1.84 1.12-2.56 3h-.08v-11.48z"/>
<path d="m618.66 392.32 8.24 20.56-.88 2.32q-.32.72-.6 1.32t-.68 1q-.4.44-.96.68-.52.24-1.36.24-.44 0-.88-.08-.4-.04-.84-.12v2.12q.32.12.72.12.44.04 1.2.08 1.2 0 1.96-.24.8-.2 1.36-.72.6-.48 1.08-1.36.48-.84 1.04-2.16l8.96-23.76h-2.52l-6.36 17.6-6.8-17.6z"/>
<path d="m639.5 392.32v28.24h2.52v-11.52h.08q.4 1.12 1.12 1.96.76.84 1.72 1.4t2.08.84 2.24.28q2.36 0 4.08-.84 1.76-.88 2.92-2.36 1.16-1.52 1.72-3.48.56-2 .56-4.2t-.56-4.16q-.56-2-1.72-3.48-1.16-1.52-2.92-2.4-1.72-.88-4.08-.88-2.52 0-4.52 1.2-1.96 1.16-2.84 3.32h-.08v-3.92zm16.52 10.32q0 1.6-.4 3.2-.36 1.56-1.2 2.8-.8 1.24-2.08 2.04-1.28.76-3.08.76-2 0-3.4-.76-1.36-.8-2.24-2.04-.84-1.24-1.24-2.8-.36-1.6-.36-3.2 0-1.76.32-3.36.36-1.6 1.2-2.8t2.24-1.92 3.48-.72q1.8 0 3.08.8 1.28.76 2.08 2 .84 1.24 1.2 2.84.4 1.56.4 3.16z"/>
<path d="m677.31 401.2h-13.36q.16-1.4.64-2.72.52-1.36 1.36-2.36.84-1.04 2.04-1.64 1.2-.64 2.76-.64 1.52 0 2.72.64 1.2.6 2.04 1.64.84 1 1.28 2.32.48 1.32.52 2.76zm-13.36 2.12h15.88q.08-2.16-.4-4.24-.48-2.12-1.6-3.72-1.08-1.64-2.84-2.64t-4.24-1q-2.44 0-4.24.96-1.76.92-2.88 2.48-1.12 1.52-1.68 3.48-.52 1.96-.52 4 0 2.2.52 4.2.56 1.96 1.68 3.48 1.12 1.48 2.88 2.36 1.8.84 4.24.84 3.92 0 6.04-1.92 2.16-1.92 2.96-5.44h-2.52q-.6 2.4-2.16 3.84t-4.32 1.44q-1.8 0-3.08-.76t-2.12-1.92-1.24-2.6q-.36-1.48-.36-2.84z"/>
<path d="m683.25 392.32v20.64h2.52v-11q0-1.64.56-3 .56-1.4 1.56-2.4 1.04-1 2.44-1.52 1.4-.56 3.12-.48v-2.52q-2.8-.12-4.84 1.24-2 1.36-2.96 3.88h-.08v-4.84z"/>
<path d="m699.83 392.32v-6.2h-2.52v6.2h-3.6v2.12h3.6v14.12q-.04 2.64.96 3.64 1 .96 3.52.96.56 0 1.12-.04t1.12-.04v-2.12q-1.08.12-2.16.12-1.36-.08-1.72-.76-.32-.72-.32-1.96v-13.92h4.2v-2.12z"/>
<path d="m722.54 401.2h-13.36q.16-1.4.64-2.72.52-1.36 1.36-2.36.84-1.04 2.04-1.64 1.2-.64 2.76-.64 1.52 0 2.72.64 1.2.6 2.04 1.64.84 1 1.28 2.32.48 1.32.52 2.76zm-13.36 2.12h15.88q.08-2.16-.4-4.24-.48-2.12-1.6-3.72-1.08-1.64-2.84-2.64t-4.24-1q-2.44 0-4.24.96-1.76.92-2.88 2.48-1.12 1.52-1.68 3.48-.52 1.96-.52 4 0 2.2.52 4.2.56 1.96 1.68 3.48 1.12 1.48 2.88 2.36 1.8.84 4.24.84 3.92 0 6.04-1.92 2.16-1.92 2.96-5.44h-2.52q-.6 2.4-2.16 3.84t-4.32 1.44q-1.8 0-3.08-.76t-2.12-1.92-1.24-2.6q-.36-1.48-.36-2.84z"/>
<path d="m734.12 402.24-8 10.72h3.12l6.36-8.68 6.48 8.68h3.2l-8.04-10.76 7.44-9.88h-3.16l-5.76 7.84-5.88-7.84h-3.16z"/>
<path d="m751.7 392.32v-6.2h-2.52v6.2h-3.6v2.12h3.6v14.12q-.04 2.64.96 3.64 1 .96 3.52.96.56 0 1.12-.04t1.12-.04v-2.12q-1.08.12-2.16.12-1.36-.08-1.72-.76-.32-.72-.32-1.96v-13.92h4.2v-2.12z"/>
<path d="m622.86 470.56h2q-1.16-1.84-2.12-3.96-.92-2.12-1.6-4.36-.68-2.28-1.04-4.56t-.36-4.44q0-5.36 1.2-10.24 1.24-4.88 3.92-9.2h-2q-2.64 4.12-4.16 8.76-1.48 4.6-1.48 9.76 0 2.64.36 5 .4 2.32 1.12 4.52t1.76 4.36q1.08 2.16 2.4 4.36z"/>
<path d="m627.67 434.4v28.56h2.72v-13.84h16.96v13.84h2.72v-28.56h-2.72v12.4h-16.96v-12.4z"/>
<path d="m652.76 434.4v2.32h9.92v26.24h2.72v-26.24h9.96v-2.32z"/>
<path d="m681.98 434.4 9.48 25.04 9.84-25.04h4v28.56h-2.72v-24.68h-.08l-9.76 24.68h-2.56l-9.4-24.68h-.08v24.68h-2.72v-28.56z"/>
<path d="m710.88 434.4v28.56h18.72v-2.32h-16v-26.24z"/>
<path d="m731.44 433.8h-1.96q1.08 1.92 2 4.04.96 2.12 1.64 4.36.68 2.2 1.04 4.48.4 2.28.4 4.48 0 5.36-1.24 10.24-1.2 4.84-3.84 9.16h1.96q2.64-4.12 4.12-8.72 1.52-4.6 1.52-9.76 0-2.6-.4-4.96-.36-2.36-1.08-4.56-.72-2.24-1.8-4.4-1.04-2.16-2.36-4.36z"/>
</g>
<rect x="1010" y="253.36" width="280" height="185" rx="6.1666" ry="6.1666" fill="#f2f2f2"/>
<rect x="1022" y="264.8" width="256" height="158.39" rx="6.2113" ry="6.2113" fill="#191d27"/>
<rect x="958" y="441.36" width="384" height="12.828" rx="1.7364" ry="1.7364" fill="#f2f2f2"/>
<g fill="#fff" stroke-width="3" aria-label="hypertext (HTML)">
<path d="m1091.1 311.77v21.42h1.89v-9.03q.03-1.14.36-2.1.36-.99.96-1.68.63-.72 1.5-1.11.9-.42 2.04-.42t1.89.36q.78.36 1.23.99t.63 1.5q.18.84.18 1.83v9.66h1.89v-9.96q0-1.38-.27-2.49t-.93-1.86q-.66-.78-1.77-1.2-1.08-.42-2.7-.42-1.65 0-3.03.87-1.38.84-1.92 2.25h-.06v-8.61z"/>
<path d="m1105.5 317.71 6.18 15.42-.66 1.74q-.24.54-.45.99t-.51.75q-.3.33-.72.51-.39.18-1.02.18-.33 0-.66-.06-.3-.03-.63-.09v1.59q.24.09.54.09.33.03.9.06.9 0 1.47-.18.6-.15 1.02-.54.45-.36.81-1.02.36-.63.78-1.62l6.72-17.82h-1.89l-4.77 13.2-5.1-13.2z"/>
<path d="m1121.1 317.71v21.18h1.89v-8.64h.06q.3.84.84 1.47.57.63 1.29 1.05t1.56.63 1.68.21q1.77 0 3.06-.63 1.32-.66 2.19-1.77.87-1.14 1.29-2.61.42-1.5.42-3.15t-.42-3.12q-.42-1.5-1.29-2.61-.87-1.14-2.19-1.8-1.29-.66-3.06-.66-1.89 0-3.39.9-1.47.87-2.13 2.49h-.06v-2.94zm12.39 7.74q0 1.2-.3 2.4-.27 1.17-.9 2.1-.6.93-1.56 1.53-.96.57-2.31.57-1.5 0-2.55-.57-1.02-.6-1.68-1.53-.63-.93-.93-2.1-.27-1.2-.27-2.4 0-1.32.24-2.52.27-1.2.9-2.1t1.68-1.44 2.61-.54q1.35 0 2.31.6.96.57 1.56 1.5.63.93.9 2.13.3 1.17.3 2.37z"/>
<path d="m1149.5 324.37h-10.02q.12-1.05.48-2.04.39-1.02 1.02-1.77.63-.78 1.53-1.23.9-.48 2.07-.48 1.14 0 2.04.48.9.45 1.53 1.23.63.75.96 1.74.36.99.39 2.07zm-10.02 1.59h11.91q.06-1.62-.3-3.18-.36-1.59-1.2-2.79-.81-1.23-2.13-1.98t-3.18-.75q-1.83 0-3.18.72-1.32.69-2.16 1.86-.84 1.14-1.26 2.61-.39 1.47-.39 3 0 1.65.39 3.15.42 1.47 1.26 2.61.84 1.11 2.16 1.77 1.35.63 3.18.63 2.94 0 4.53-1.44 1.62-1.44 2.22-4.08h-1.89q-.45 1.8-1.62 2.88t-3.24 1.08q-1.35 0-2.31-.57t-1.59-1.44-.93-1.95q-.27-1.11-.27-2.13z"/>
<path d="m1153.9 317.71v15.48h1.89v-8.25q0-1.23.42-2.25.42-1.05 1.17-1.8.78-.75 1.83-1.14 1.05-.42 2.34-.36v-1.89q-2.1-.09-3.63.93-1.5 1.02-2.22 2.91h-.06v-3.63z"/>
<path d="m1166.4 317.71v-4.65h-1.89v4.65h-2.7v1.59h2.7v10.59q-.03 1.98.72 2.73.75.72 2.64.72.42 0 .84-.03t.84-.03v-1.59q-.81.09-1.62.09-1.02-.06-1.29-.57-.24-.54-.24-1.47v-10.44h3.15v-1.59z"/>
<path d="m1183.4 324.37h-10.02q.12-1.05.48-2.04.39-1.02 1.02-1.77.63-.78 1.53-1.23.9-.48 2.07-.48 1.14 0 2.04.48.9.45 1.53 1.23.63.75.96 1.74.36.99.39 2.07zm-10.02 1.59h11.91q.06-1.62-.3-3.18-.36-1.59-1.2-2.79-.81-1.23-2.13-1.98t-3.18-.75q-1.83 0-3.18.72-1.32.69-2.16 1.86-.84 1.14-1.26 2.61-.39 1.47-.39 3 0 1.65.39 3.15.42 1.47 1.26 2.61.84 1.11 2.16 1.77 1.35.63 3.18.63 2.94 0 4.53-1.44 1.62-1.44 2.22-4.08h-1.89q-.45 1.8-1.62 2.88t-3.24 1.08q-1.35 0-2.31-.57t-1.59-1.44-.93-1.95q-.27-1.11-.27-2.13z"/>
<path d="m1192.1 325.15-6 8.04h2.34l4.77-6.51 4.86 6.51h2.4l-6.03-8.07 5.58-7.41h-2.37l-4.32 5.88-4.41-5.88h-2.37z"/>
<path d="m1205.3 317.71v-4.65h-1.89v4.65h-2.7v1.59h2.7v10.59q-.03 1.98.72 2.73.75.72 2.64.72.42 0 .84-.03t.84-.03v-1.59q-.81.09-1.62.09-1.02-.06-1.29-.57-.24-.54-.24-1.47v-10.44h3.15v-1.59z"/>
<path d="m1108.6 376.39h1.5q-.87-1.38-1.59-2.97-.69-1.59-1.2-3.27-.51-1.71-.78-3.42t-.27-3.33q0-4.02.9-7.68.93-3.66 2.94-6.9h-1.5q-1.98 3.09-3.12 6.57-1.11 3.45-1.11 7.32 0 1.98.27 3.75.3 1.74.84 3.39t1.32 3.27q.81 1.62 1.8 3.27z"/>
<path d="m1112.3 349.27v21.42h2.04v-10.38h12.72v10.38h2.04v-21.42h-2.04v9.3h-12.72v-9.3z"/>
<path d="m1131.1 349.27v1.74h7.44v19.68h2.04v-19.68h7.47v-1.74z"/>
<path d="m1153 349.27 7.11 18.78 7.38-18.78h3v21.42h-2.04v-18.51h-.06l-7.32 18.51h-1.92l-7.05-18.51h-.06v18.51h-2.04v-21.42z"/>
<path d="m1174.7 349.27v21.42h14.04v-1.74h-12v-19.68z"/>
<path d="m1190.1 348.82h-1.47q.81 1.44 1.5 3.03.72 1.59 1.23 3.27.51 1.65.78 3.36.3 1.71.3 3.36 0 4.02-.93 7.68-.9 3.63-2.88 6.87h1.47q1.98-3.09 3.09-6.54 1.14-3.45 1.14-7.32 0-1.95-.3-3.72-.27-1.77-.81-3.42-.54-1.68-1.35-3.3-.78-1.62-1.77-3.27z"/>
</g>
</g>
<g transform="translate(0 2369)">
<g transform="matrix(2.5108 0 0 2.5108 -860.71 2565.3)">
<path d="m762.1-1627.6 17.321 10 1.732-41-19.053-9z" fill="#6e6e6e"/>
<path d="m762.1-1667.6 17.321-10 17.321 10-6.9282 12-10.392-2z" fill="#bebebe"/>
<path d="m779.42-1617.6 17.321-10v-40l-17.321 10z" fill="#9f9f9f"/>
<g fill="#0f0">
<path transform="matrix(.83635 0 0 .83635 124.37 -273.2)" d="m765.57-1661.6 3.4641 2v4l-3.4641-2z" filter="url(#a)"/>
<path d="m764.95-1662.4 2.3058 1.3312v2.6624l-2.3058-1.3312z"/>
</g>
<g transform="translate(31.177 18)">
<path d="m762.1-1627.6 17.321 10 3.0354-3.3134-1.3034-37.687-19.053-9z" fill="#6e6e6e"/>
<path d="m762.1-1667.6 17.321-10 17.321 10-6.9282 12-10.392-2z" fill="#bebebe"/>
<path d="m779.42-1617.6 17.321-10v-40l-17.321 10z" fill="#9f9f9f"/>
<g fill="#0f0">
<path transform="matrix(.83635 0 0 .83635 124.37 -273.2)" d="m765.57-1661.6 3.4641 2v4l-3.4641-2z" filter="url(#a)"/>
<path d="m764.95-1662.4 2.3058 1.3312v2.6624l-2.3058-1.3312z"/>
</g>
</g>
<g transform="translate(-31.423 18.142)">
<path d="m762.1-1627.6 17.321 10 4.063-4.0135-.50038-36.142-20.883-9.8449z" fill="#6e6e6e"/>
<path d="m762.1-1667.6 17.321-10 17.321 10-6.9282 12-10.392-2z" fill="#bebebe"/>
<path d="m779.42-1617.6 17.321-10v-40l-17.321 10z" fill="#9f9f9f"/>
<g fill="#0f0">
<path transform="matrix(.83635 0 0 .83635 124.37 -273.2)" d="m765.57-1661.6 3.4641 2v4l-3.4641-2z" filter="url(#a)"/>
<path d="m764.95-1662.4 2.3058 1.3312v2.6624l-2.3058-1.3312z"/>
</g>
</g>
<g transform="translate(-.24597 36.142)">
<path d="m762.1-1627.6 17.321 10 2.9765-3-1.2445-38-19.053-9z" fill="#6e6e6e" filter="url(#b)"/>
<path d="m762.1-1667.6 17.321-10 17.321 10-6.9282 12-10.392-2z" fill="#bebebe"/>
<path d="m779.42-1617.6 17.321-10v-40l-17.321 10z" fill="#9f9f9f"/>
<g fill="#0f0">
<path transform="matrix(.83635 0 0 .83635 124.37 -273.2)" d="m765.57-1661.6 3.4641 2v4l-3.4641-2z" filter="url(#a)"/>
<path d="m764.95-1662.4 2.3058 1.3312v2.6624l-2.3058-1.3312z"/>
</g>
</g>
</g>
<g transform="matrix(2.5108 0 0 2.5108 -1086.7 2575.3)">
<path d="m792.8-1612.6h-185.24" fill="none" stroke="#f2f2f2" stroke-dasharray="3, 6" stroke-width="3"/>
<g transform="rotate(44.783 629.82 -1601.3)">
<path d="m614.01-1588.6-14.012.9998 1.0216-14" fill="none" stroke="#f2f2f2" stroke-width="3"/>
</g>
</g>
<g transform="matrix(2.5108 0 0 2.5108 -870.75 2540.2)">
<path d="m525.56-1632.6h185.24" fill="none" stroke="#f2f2f2" stroke-dasharray="3, 6" stroke-width="3"/>
<g transform="matrix(-.70978 .70443 .70443 .70978 2264.6 -928.37)">
<path d="m614.01-1588.6-14.012.9998 1.0216-14" fill="none" stroke="#f2f2f2" stroke-width="3"/>
</g>
</g>
<g fill="#f2f2f2" stroke-width="7.5323" aria-label="HTTP Request">
<path d="m455.56-1636.6v49.299h4.6951v-23.89h29.275v23.89h4.6951v-49.299h-4.6951v21.404h-29.275v-21.404z"/>
<path d="m498.87-1636.6v4.0047h17.123v45.294h4.6951v-45.294h17.192v-4.0047z"/>
<path d="m537.3-1636.6v4.0047h17.123v45.294h4.6951v-45.294h17.192v-4.0047z"/>
<path d="m585.68-1612.4v-20.161h16.157q4.9023 0 7.9403 2.4856 3.038 2.4857 3.038 7.5951t-3.038 7.595q-3.038 2.4857-7.9403 2.4857zm-4.6951-24.166v49.299h4.6951v-21.128h17.192q3.3142 0 6.007-.8976 2.6928-.9666 4.6261-2.7618 1.9333-1.8643 2.969-4.488t1.0357-5.9379-1.0357-5.938q-1.0357-2.6237-2.969-4.4189-1.9333-1.8643-4.6261-2.7619-2.6928-.9666-6.007-.9666z"/>
<path d="m648.38-1613.2v-19.402h17.538q5.3856 0 8.0093 2.6237 2.6238 2.6237 2.6238 7.1808 0 2.2785-.8976 4.0737-.82855 1.7261-2.2785 2.969-1.45 1.2428-3.3832 1.9332-1.9333.6215-4.0737.6215zm-4.6951-23.407v49.299h4.6951v-21.888h17.814q3.3142-.1381 5.1784 1.1047 1.9333 1.2429 2.8999 3.3143 1.0357 2.0023 1.3119 4.626.34523 2.5547.48333 5.1785.069.7595.13809 1.7952.069 1.0356.13809 2.1404.13809 1.0357.34523 2.0714.27618.9666.69046 1.6571h5.1784q-.75951-.8976-1.2428-2.4857-.41427-1.6571-.62141-3.4523-.20714-1.8642-.27618-3.6594-.069-1.7952-.1381-3.038-.13809-2.2095-.62141-4.0737-.41427-1.9333-1.45-3.3833-.96664-1.45-2.5547-2.3476-1.5881-.9666-4.0047-1.3118v-.1381q4.7642-.9667 7.1808-4.419 2.4166-3.4522 2.4166-8.1474 0-3.3142-1.2428-5.7308-1.1738-2.4856-3.2452-4.0046-2.0023-1.5881-4.7642-2.3476-2.6928-.7595-5.7308-.7595z"/>
<path d="m714.6-1607.6h-23.061q.27618-2.4166 1.1047-4.6952.8976-2.3475 2.3476-4.0737 1.45-1.7952 3.5213-2.8308 2.0714-1.1048 4.7642-1.1048 2.6237 0 4.6951 1.1048 2.0714 1.0356 3.5213 2.8308 1.45 1.7262 2.2095 4.0047.82855 2.2785.8976 4.7642zm-23.061 3.6594h27.411q.13809-3.7285-.69046-7.3189-.82855-3.6594-2.7618-6.4212-1.8642-2.8309-4.9023-4.5571-3.038-1.7261-7.3189-1.7261-4.2118 0-7.3189 1.6571-3.038 1.5881-4.9713 4.2808-1.9333 2.6238-2.8999 6.007-.89759 3.3833-.89759 6.9046 0 3.7975.89759 7.2498.96665 3.3833 2.8999 6.007 1.9333 2.5547 4.9713 4.0737 3.1071 1.45 7.3189 1.45 6.7665 0 10.426-3.3142 3.7285-3.3142 5.1094-9.3902h-4.3499q-1.0357 4.1427-3.7285 6.6284-2.6928 2.4856-7.457 2.4856-3.1071 0-5.3165-1.3119-2.2095-1.3118-3.6594-3.3142-1.45-2.0023-2.1404-4.4879-.62141-2.5547-.62141-4.9023z"/>
<path d="m756.2-1574.2v-48.746h-4.0047v6.7665h-.13809q-.69046-1.7952-2.0714-3.1761-1.3119-1.45-3.038-2.4857t-3.7285-1.588q-1.9333-.5524-3.8666-.5524-4.0737 0-7.1117 1.519-2.969 1.519-4.9713 4.1428-2.0023 2.5547-2.969 6.0069-.96664 3.3833-.96664 7.1808t.96664 7.2498q.96664 3.3833 2.969 6.007 2.0023 2.5547 4.9713 4.0737 3.038 1.45 7.1117 1.45 2.0023 0 3.8666-.4833 1.9333-.4833 3.5904-1.45 1.6571-.9666 2.8999-2.4166 1.3119-1.45 2.0023-3.3832h.13809v19.885zm-28.516-30.933q0-2.7618.62141-5.4546.69046-2.7618 2.0714-4.9023 1.45-2.1404 3.6594-3.4523 2.2095-1.3809 5.3165-1.3809 3.4523 0 5.7999 1.3809 2.4166 1.3119 3.8666 3.4523 1.519 2.1405 2.1404 4.9023.69046 2.6928.69046 5.4546 0 2.7619-.69046 5.5237-.62141 2.6928-2.1404 4.8332-1.45 2.1404-3.8666 3.5213-2.3476 1.3119-5.7999 1.3119-3.1071 0-5.3165-1.3119-2.2095-1.3809-3.6594-3.5213-1.3809-2.1404-2.0714-4.8332-.62141-2.7618-.62141-5.5237z"/>
<path d="m793.36-1587.3v-35.628h-4.3499v18.711q0 2.6928-.62141 5.3166-.62142 2.5546-1.9333 4.557-1.3119 2.0023-3.3142 3.2451-2.0023 1.1738-4.8332 1.1738-5.1784 0-7.3189-2.4856-2.0714-2.4857-2.2095-7.3189v-23.199h-4.3499v23.13q0 3.1761.69046 5.6617.69046 2.4857 2.1404 4.2118 1.519 1.7262 3.8666 2.6238 2.4166.9666 5.7999.9666 4.0047 0 7.2498-1.8642 3.3142-1.9333 5.0404-5.5237h.13809v6.4213z"/>
<path d="m827.2-1607.6h-23.061q.27618-2.4166 1.1047-4.6952.8976-2.3475 2.3476-4.0737 1.45-1.7952 3.5213-2.8308 2.0714-1.1048 4.7642-1.1048 2.6238 0 4.6951 1.1048 2.0714 1.0356 3.5213 2.8308 1.45 1.7262 2.2095 4.0047.82855 2.2785.8976 4.7642zm-23.061 3.6594h27.411q.13809-3.7285-.69046-7.3189-.82855-3.6594-2.7618-6.4212-1.8642-2.8309-4.9022-4.5571-3.038-1.7261-7.3189-1.7261-4.2118 0-7.3189 1.6571-3.038 1.5881-4.9713 4.2808-1.9333 2.6238-2.8999 6.007-.8976 3.3833-.8976 6.9046 0 3.7975.8976 7.2498.96664 3.3833 2.8999 6.007 1.9333 2.5547 4.9713 4.0737 3.1071 1.45 7.3189 1.45 6.7665 0 10.426-3.3142 3.7285-3.3142 5.1094-9.3902h-4.3499q-1.0357 4.1427-3.7285 6.6284-2.6928 2.4856-7.457 2.4856-3.1071 0-5.3165-1.3119-2.2095-1.3118-3.6594-3.3142-1.45-2.0023-2.1404-4.4879-.62141-2.5547-.62141-4.9023z"/>
<path d="m858.79-1612.5h4.3499q-.13809-2.8999-1.1738-5.0403-1.0357-2.1405-2.8309-3.5904-1.7262-1.45-4.0737-2.1404-2.2785-.6905-4.9713-.6905-2.3476 0-4.7642.5524-2.3476.5523-4.2808 1.7261-1.9333 1.1738-3.1761 3.1071-1.1738 1.9333-1.1738 4.626 0 2.2786.7595 3.8666.75951 1.519 2.0714 2.6238 1.3809 1.0356 3.1761 1.7952 1.7952.6904 3.9356 1.2428l5.5927 1.2428q1.45.3452 2.8309.8286 1.45.4833 2.5547 1.2428 1.1047.6904 1.7262 1.7952.69046 1.0357.69046 2.6237 0 1.8643-.96664 3.1761-.8976 1.2429-2.3476 2.0714-1.45.8286-3.1761 1.1738-1.6571.3452-3.2452.3452-4.3499 0-7.3189-2.2095-2.8999-2.2785-3.1761-6.6974h-4.3499q.55237 6.5594 4.4189 9.5283 3.9356 2.969 10.219 2.969 2.4856 0 5.0404-.5524 2.5547-.5523 4.557-1.7952 2.0714-1.3118 3.3832-3.3142 1.3119-2.0713 1.3119-4.9713 0-2.3475-.8976-4.0737-.89759-1.7261-2.3476-2.8999-1.3809-1.1738-3.2452-1.8642-1.7952-.7595-3.6594-1.0357l-5.7998-1.3119q-1.1047-.2762-2.4166-.6905-1.3119-.4833-2.4166-1.1737-1.1047-.6905-1.8642-1.6571-.69046-1.0357-.69046-2.4857 0-1.7261.7595-2.8999.75951-1.1738 2.0023-1.8643 1.2428-.7595 2.6928-1.0356 1.519-.3453 2.969-.3453 1.8642 0 3.5213.4833 1.6571.4143 2.8999 1.381 1.3119.9666 2.0714 2.4856.75951 1.45.82855 3.4523z"/>
<path d="m877.53-1622.9v-10.702h-4.3499v10.702h-6.2141v3.6594h6.2141v24.373q-.069 4.557 1.6571 6.2832 1.7262 1.6571 6.076 1.6571.96664 0 1.9333-.069.96665-.069 1.9333-.069v-3.6594q-1.8642.2071-3.7285.2071-2.3476-.1381-2.969-1.3119-.55237-1.2428-.55237-3.3832v-24.028h7.2498v-3.6594z"/>
</g>
<g fill="#f2f2f2" stroke-width="7.5323" aria-label="HTTP Response">
<path d="m466.38-1448v49.299h4.6951v-23.89h29.275v23.89h4.6951v-49.299h-4.6951v21.404h-29.275v-21.404z"/>
<path d="m509.68-1448v4.0046h17.123v45.294h4.6951v-45.294h17.192v-4.0046z"/>
<path d="m548.11-1448v4.0046h17.123v45.294h4.6951v-45.294h17.192v-4.0046z"/>
<path d="m596.49-1423.9v-20.161h16.157q4.9023 0 7.9403 2.4857 3.038 2.4856 3.038 7.595t-3.038 7.5951q-3.038 2.4856-7.9403 2.4856zm-4.6951-24.166v49.299h4.6951v-21.128h17.192q3.3142 0 6.007-.8976 2.6928-.9667 4.6261-2.7619 1.9333-1.8642 2.969-4.4879 1.0357-2.6238 1.0357-5.938t-1.0357-5.9379q-1.0357-2.6238-2.969-4.419-1.9333-1.8642-4.6261-2.7618-2.6928-.9666-6.007-.9666z"/>
<path d="m659.2-1424.6v-19.402h17.538q5.3856 0 8.0093 2.6238 2.6238 2.6237 2.6238 7.1807 0 2.2785-.8976 4.0737-.82855 1.7262-2.2785 2.969-1.45 1.2428-3.3832 1.9333-1.9333.6214-4.0737.6214zm-4.6951-23.406v49.299h4.6951v-21.888h17.814q3.3142-.1381 5.1784 1.1047 1.9333 1.2428 2.8999 3.3142 1.0357 2.0023 1.3119 4.6261.34523 2.5547.48332 5.1784.0691.7595.1381 1.7952t.13809 2.1404q.13809 1.0357.34523 2.0714.27618.9667.69046 1.6571h5.1784q-.75951-.8976-1.2428-2.4856-.41427-1.6571-.62141-3.4523-.20714-1.8643-.27618-3.6595-.0691-1.7952-.1381-3.038-.13809-2.2094-.62141-4.0737-.41427-1.9333-1.45-3.3832-.96665-1.45-2.5547-2.3476-1.5881-.9666-4.0047-1.3119v-.1381q4.7642-.9666 7.1808-4.4189t2.4166-8.1474q0-3.3142-1.2428-5.7308-1.1738-2.4857-3.2452-4.0047-2.0023-1.588-4.7642-2.3475-2.6928-.7595-5.7308-.7595z"/>
<path d="m725.41-1419h-23.061q.27618-2.4166 1.1047-4.6951.8976-2.3476 2.3476-4.0737 1.45-1.7952 3.5213-2.8309 2.0714-1.1047 4.7642-1.1047 2.6237 0 4.6951 1.1047 2.0714 1.0357 3.5213 2.8309 1.45 1.7261 2.2095 4.0047.82855 2.2785.89759 4.7641zm-23.061 3.6595h27.411q.13809-3.7285-.69046-7.3189-.82855-3.6594-2.7618-6.4213-1.8642-2.8309-4.9023-4.557t-7.3189-1.7261q-4.2118 0-7.3189 1.6571-3.038 1.588-4.9713 4.2808-1.9333 2.6237-2.8999 6.007-.89759 3.3832-.89759 6.9046 0 3.7975.89759 7.2498.96665 3.3832 2.8999 6.007 1.9333 2.5547 4.9713 4.0737 3.1071 1.45 7.3189 1.45 6.7665 0 10.426-3.3142 3.7285-3.3142 5.1094-9.3903h-4.3499q-1.0357 4.1428-3.7285 6.6284-2.6928 2.4857-7.457 2.4857-3.1071 0-5.3165-1.3119-2.2095-1.3119-3.6594-3.3142-1.45-2.0023-2.1404-4.488-.62141-2.5547-.62141-4.9022z"/>
<path d="m757-1423.9h4.3499q-.1381-2.9-1.1738-5.0404-1.0357-2.1404-2.8309-3.5904-1.7261-1.4499-4.0737-2.1404-2.2785-.6904-4.9713-.6904-2.3476 0-4.7642.5523-2.3476.5524-4.2808 1.7262-1.9333 1.1737-3.1761 3.107-1.1738 1.9333-1.1738 4.6261 0 2.2785.75951 3.8666.7595 1.519 2.0714 2.6237 1.3809 1.0357 3.1761 1.7952 1.7952.6905 3.9356 1.2428l5.5927 1.2429q1.45.3452 2.8309.8285 1.45.4833 2.5547 1.2428 1.1047.6905 1.7261 1.7952.69046 1.0357.69046 2.6238 0 1.8642-.96664 3.1761-.8976 1.2428-2.3476 2.0714-1.45.8285-3.1761 1.1737-1.6571.3453-3.2452.3453-4.3499 0-7.3189-2.2095-2.8999-2.2785-3.1761-6.6974h-4.3499q.55237 6.5593 4.4189 9.5283 3.9356 2.969 10.219 2.969 2.4857 0 5.0404-.5524 2.5547-.5524 4.557-1.7952 2.0714-1.3119 3.3832-3.3142 1.3119-2.0714 1.3119-4.9713 0-2.3476-.89759-4.0737-.8976-1.7262-2.3476-2.8999-1.3809-1.1738-3.2452-1.8643-1.7952-.7595-3.6594-1.0357l-5.7999-1.3118q-1.1047-.2762-2.4166-.6905-1.3119-.4833-2.4166-1.1738-1.1047-.6904-1.8642-1.6571-.69046-1.0357-.69046-2.4856 0-1.7262.75951-2.9.7595-1.1737 2.0023-1.8642 1.2428-.7595 2.6928-1.0357 1.519-.3452 2.969-.3452 1.8642 0 3.5213.4833 1.6571.4143 2.8999 1.3809 1.3119.9667 2.0714 2.4857.75951 1.4499.82856 3.4523z"/>
<path d="m768.84-1434.4v48.746h4.3499v-19.885h.1381q.69045 1.9333 1.9333 3.3833 1.3119 1.4499 2.969 2.4166 1.6571.9666 3.5904 1.4499 1.9333.4834 3.8666.4834 4.0737 0 7.0427-1.45 3.038-1.519 5.0404-4.0737 2.0023-2.6238 2.969-6.007.96665-3.4523.96665-7.2498t-.96665-7.1808q-.96664-3.4523-2.969-6.007-2.0023-2.6237-5.0404-4.1427-2.969-1.519-7.0427-1.519-4.3499 0-7.8022 2.0713-3.3832 2.0024-4.9022 5.7308h-.1381v-6.7665zm28.516 17.814q0 2.7618-.69046 5.5237-.62142 2.6927-2.0714 4.8332-1.3809 2.1404-3.5904 3.5213-2.2095 1.3119-5.3165 1.3119-3.4523 0-5.8689-1.3119-2.3476-1.3809-3.8666-3.5213-1.45-2.1405-2.1404-4.8332-.62142-2.7619-.62142-5.5237 0-3.038.55237-5.7999.62141-2.7618 2.0714-4.8332 1.45-2.0714 3.8666-3.3142 2.4166-1.2428 6.007-1.2428 3.1071 0 5.3165 1.3809 2.2095 1.3119 3.5904 3.4523 1.45 2.1404 2.0714 4.9023.69046 2.6927.69046 5.4546z"/>
<path d="m823.54-1431.7q3.1071 0 5.4546 1.3119 2.3476 1.3118 3.8666 3.4523 1.5881 2.1404 2.3476 4.9022.82855 2.6928.82855 5.5237t-.82855 5.5927q-.7595 2.6928-2.3476 4.8332-1.519 2.1404-3.8666 3.4523t-5.4546 1.3119q-3.1071 0-5.4546-1.3119t-3.9356-3.4523q-1.519-2.1404-2.3476-4.8332-.75951-2.7618-.75951-5.5927t.75951-5.5237q.82855-2.7618 2.3476-4.9022 1.588-2.1405 3.9356-3.4523 2.3476-1.3119 5.4546-1.3119zm0-3.6594q-4.0737 0-7.2498 1.519-3.1071 1.519-5.2475 4.0737t-3.2452 6.007q-1.1047 3.3832-1.1047 7.2498 0 3.8665 1.1047 7.3188 1.1047 3.3833 3.2452 5.938t5.2475 4.0737q3.1761 1.45 7.2498 1.45t7.1808-1.45q3.1761-1.519 5.3165-4.0737 2.1404-2.5547 3.2452-5.938 1.1047-3.4523 1.1047-7.3188 0-3.8666-1.1047-7.2498-1.1047-3.4523-3.2452-6.007-2.1404-2.5547-5.3165-4.0737-3.1071-1.519-7.1808-1.519z"/>
<path d="m846.85-1434.4v35.628h4.3499v-20.783q.069-2.6237.82855-4.8332.82855-2.2785 2.2095-3.8666 1.45-1.6571 3.4523-2.5547 2.0714-.9666 4.6951-.9666t4.3499.8285q1.7952.8286 2.8309 2.2785 1.0357 1.45 1.45 3.4523.41427 1.9333.41427 4.2118v22.233h4.3499v-22.923q0-3.1761-.62141-5.7308t-2.1404-4.2809q-1.519-1.7952-4.0737-2.7618-2.4856-.9666-6.2141-.9666-3.7975 0-6.9736 2.0023-3.1761 1.9333-4.4189 5.1784h-.13809v-6.1451z"/>
<path d="m905.34-1423.9h4.3499q-.1381-2.9-1.1738-5.0404-1.0357-2.1404-2.8309-3.5904-1.7261-1.4499-4.0737-2.1404-2.2785-.6904-4.9713-.6904-2.3476 0-4.7642.5523-2.3476.5524-4.2808 1.7262-1.9333 1.1737-3.1761 3.107-1.1738 1.9333-1.1738 4.6261 0 2.2785.7595 3.8666.75951 1.519 2.0714 2.6237 1.3809 1.0357 3.1761 1.7952 1.7952.6905 3.9356 1.2428l5.5927 1.2429q1.45.3452 2.8309.8285 1.45.4833 2.5547 1.2428 1.1047.6905 1.7262 1.7952.69046 1.0357.69046 2.6238 0 1.8642-.96664 3.1761-.8976 1.2428-2.3476 2.0714-1.45.8285-3.1761 1.1737-1.6571.3453-3.2452.3453-4.3499 0-7.3189-2.2095-2.8999-2.2785-3.1761-6.6974h-4.3499q.55237 6.5593 4.4189 9.5283 3.9356 2.969 10.219 2.969 2.4856 0 5.0404-.5524t4.557-1.7952q2.0714-1.3119 3.3832-3.3142 1.3119-2.0714 1.3119-4.9713 0-2.3476-.89759-4.0737-.8976-1.7262-2.3476-2.8999-1.3809-1.1738-3.2452-1.8643-1.7952-.7595-3.6594-1.0357l-5.7999-1.3118q-1.1047-.2762-2.4166-.6905-1.3119-.4833-2.4166-1.1738-1.1047-.6904-1.8642-1.6571-.69046-1.0357-.69046-2.4856 0-1.7262.75951-2.9.7595-1.1737 2.0023-1.8642 1.2428-.7595 2.6928-1.0357 1.519-.3452 2.969-.3452 1.8642 0 3.5213.4833 1.6571.4143 2.8999 1.3809 1.3119.9667 2.0714 2.4857.75951 1.4499.82855 3.4523z"/>
<path d="m942.8-1419h-23.061q.27618-2.4166 1.1047-4.6951.8976-2.3476 2.3476-4.0737 1.45-1.7952 3.5214-2.8309 2.0714-1.1047 4.7642-1.1047 2.6238 0 4.6951 1.1047 2.0714 1.0357 3.5213 2.8309 1.45 1.7261 2.2095 4.0047.82855 2.2785.8976 4.7641zm-23.061 3.6595h27.411q.13809-3.7285-.69046-7.3189-.82855-3.6594-2.7618-6.4213-1.8642-2.8309-4.9022-4.557t-7.3189-1.7261q-4.2118 0-7.3189 1.6571-3.038 1.588-4.9713 4.2808-1.9333 2.6237-2.8999 6.007-.8976 3.3832-.8976 6.9046 0 3.7975.8976 7.2498.96664 3.3832 2.8999 6.007 1.9333 2.5547 4.9713 4.0737 3.1071 1.45 7.3189 1.45 6.7665 0 10.426-3.3142 3.7285-3.3142 5.1094-9.3903h-4.3499q-1.0357 4.1428-3.7285 6.6284-2.6928 2.4857-7.457 2.4857-3.1071 0-5.3165-1.3119t-3.6594-3.3142q-1.45-2.0023-2.1404-4.488-.62141-2.5547-.62141-4.9022z"/>
</g>
<g transform="translate(-2)">
<path d="m306.98-1428.4 69.58-40.172v-5.0627l1.1206-13.779s-72.701 42.971-72.701 48.971z" fill="#a7a7a7"/>
<path d="m220-1488.7v10.043l86.975 50.215v-12.043z" fill="#6e6e6e"/>
<path d="m289.58-1528.8-69.58 40.172 86.975 50.215 69.58-40.172c0-4.5-86.975-50.215-86.975-50.215z" fill="#949494"/>
<path d="m289.58-1528.8v-80.344l89.725 48.465-2.75 82.094z" fill="#787878"/>
<path d="m376.56-1473.6 4.3488-2.5107v-85.366l-4.3488 2.5107z" fill="#aaa"/>
<path d="m376.56-1559-86.975-50.215 4.3487-2.5107 86.975 50.215z" fill="#bebebe"/>
<path d="m293.66-1532v-69.354l78.815 45.504v69.354z" fill="#191d27"/>
<g>
<path d="m289.58-1523.8-4.3488 2.5108 4.3488 2.5108 4.3487-2.5108z"/>
<path d="m298.28-1518.8-4.3488 2.5107 4.3488 2.5108 4.3487-2.5108z"/>
<path d="m306.98-1513.8-4.3488 2.5107 4.3488 2.5108 4.3487-2.5108z"/>
<path d="m315.67-1508.7-4.3488 2.5108 4.3488 2.5107 4.3487-2.5107z"/>
<path d="m324.37-1503.7-4.3488 2.5108 4.3488 2.5107 4.3487-2.5107z"/>
<path d="m333.07-1498.7-4.3488 2.5108 4.3488 2.5108 4.3487-2.5108z"/>
<path d="m341.77-1493.7-4.3488 2.5107 4.3488 2.5108 4.3487-2.5108z"/>
<path d="m350.46-1488.7-4.3488 2.5107 4.3488 2.5108 4.3487-2.5108z"/>
<path d="m359.16-1483.6-4.3488 2.5108 4.3488 2.5107 4.3487-2.5107z"/>
<path d="m283.24-1517.5-4.3488 2.5108 4.3488 2.5108 4.3487-2.5108z"/>
<path d="m291.93-1512.5-4.3488 2.5107 4.3488 2.5108 4.3487-2.5108z"/>
<path d="m300.63-1507.5-4.3488 2.5107 4.3488 2.5108 4.3487-2.5108z"/>
<path d="m309.33-1502.5-4.3488 2.5108 4.3488 2.5107 4.3487-2.5107z"/>
<path d="m318.03-1497.4-4.3488 2.5108 4.3488 2.5107 4.3487-2.5107z"/>
<path d="m326.72-1492.4-4.3488 2.5108 4.3488 2.5108 4.3487-2.5108z"/>
<path d="m335.42-1487.4-4.3488 2.5107 4.3488 2.5108 4.3487-2.5108z"/>
<path d="m344.12-1482.4-4.3488 2.5107 4.3488 2.5108 4.3487-2.5108z"/>
<path d="m352.82-1477.4-4.3488 2.5108 4.3488 2.5107 4.3487-2.5107z"/>
<path d="m272.19-1513.8-4.3488 2.5107 4.3488 2.5108 4.3487-2.5108z"/>
<path d="m280.88-1508.7-4.3488 2.5108 4.3488 2.5107 4.3487-2.5107z"/>
<path d="m289.58-1503.7-4.3488 2.5108 4.3488 2.5107 4.3487-2.5107z"/>
<path d="m298.28-1498.7-4.3488 2.5108 4.3488 2.5108 4.3487-2.5108z"/>
<path d="m306.98-1493.7-4.3488 2.5107 4.3488 2.5108 4.3487-2.5108z"/>
<path d="m315.67-1488.7-4.3488 2.5107 4.3488 2.5108 4.3487-2.5108z"/>
<path d="m324.37-1483.6-4.3488 2.5108 4.3488 2.5107 4.3487-2.5107z"/>
<path d="m333.07-1478.6-4.3488 2.5108 4.3488 2.5107 4.3487-2.5107z"/>
<path d="m341.77-1473.6-4.3488 2.5108 4.3488 2.5108 4.3487-2.5108z"/>
<path d="m267.25-1506.5-4.3488 2.5108 4.3488 2.5107 4.3487-2.5107z"/>
<path d="m275.95-1501.5-4.3488 2.5108 4.3488 2.5108 4.3487-2.5108z"/>
<path d="m284.65-1496.5-4.3488 2.5107 4.3488 2.5108 4.3487-2.5108z"/>
<path d="m293.35-1491.5-4.3488 2.5107 4.3488 2.5108 4.3487-2.5108z"/>
<path d="m302.04-1486.5-4.3488 2.5108 4.3488 2.5107 4.3487-2.5107z"/>
<path d="m310.74-1481.4-4.3488 2.5108 4.3488 2.5107 4.3487-2.5107z"/>
<path d="m319.44-1476.4-4.3488 2.5108 4.3488 2.5108 4.3487-2.5108z"/>
<path d="m328.14-1471.4-4.3488 2.5107 4.3488 2.5108 4.3487-2.5108z"/>
<path d="m336.83-1466.4-4.3488 2.5107 4.3488 2.5108 4.3487-2.5108z"/>
<path d="m254.79-1503.7-4.3488 2.5108 4.3488 2.5107 4.3487-2.5107z"/>
<path d="m263.49-1498.7-4.3488 2.5108 4.3488 2.5108 4.3487-2.5108z"/>
<path d="m272.19-1493.7-4.3488 2.5107 39.139 22.597 4.3487-2.5108z"/>
<path d="m315.67-1468.6-4.3488 2.5107 4.3488 2.5108 4.3487-2.5108z"/>
<path d="m324.37-1463.6-4.3488 2.5107 4.3488 2.5108 4.3487-2.5108z"/>
</g>
<path d="m272.19-1483.6-17.395 10.043 26.093 15.065 17.395-10.043z" fill="#666"/>
<g transform="matrix(.50425 .29113 0 .58226 -209.07 -2042.6)" fill="#f2f2f2">
<g fill="#f2f2f2" stroke-width="3" aria-label="hypertext (HTML)">
<path d="m1000.4 282.44v27.159h2.3964v-11.449q.038-1.4454.4564-2.6627.4565-1.2553 1.2172-2.1301.7988-.91292 1.9019-1.4074 1.1412-.53254 2.5866-.53254 1.4455 0 2.3964.45646.989.45646 1.5596 1.2553t.7988 1.9019q.2282 1.0651.2282 2.3203v12.248h2.3964v-12.629q0-1.7498-.3423-3.1572-.3423-1.4074-1.1792-2.3584-.8368-.98899-2.2442-1.5215-1.3694-.53253-3.4235-.53253-2.0921 0-3.8418 1.1031-1.7498 1.0651-2.4345 2.8529h-.076v-10.917z"/>
<path d="m1018.7 289.97 7.8359 19.552-.8368 2.2062q-.3044.68469-.5706 1.2553-.2663.57057-.6467.95095-.3804.41842-.9129.64665-.4945.22823-1.2933.22823-.4184 0-.8368-.0761-.3804-.038-.7988-.11412v2.016q.3043.11412.6847.11412.4184.038 1.1411.0761 1.1412 0 1.8639-.22822.7607-.19019 1.2933-.68469.5705-.45646 1.027-1.2933.4565-.7988.989-2.0541l8.5205-22.595h-2.3964l-6.048 16.737-6.4665-16.737z"/>
<path d="m1038.5 289.97v26.855h2.3964v-10.955h.076q.3804 1.0651 1.0651 1.8639.7227.79881 1.6356 1.3313.913.53253 1.978.7988 1.0651.26627 2.1302.26627 2.2442 0 3.8799-.7988 1.6736-.83684 2.7767-2.2442 1.1032-1.4454 1.6357-3.3093.5325-1.9019.5325-3.994t-.5325-3.956q-.5325-1.9019-1.6357-3.3093-1.1031-1.4454-2.7767-2.2823-1.6357-.83684-3.8799-.83684-2.3964 0-4.2983 1.1411-1.8639 1.1031-2.7008 3.1572h-.076v-3.7277zm15.71 9.8138q0 1.5215-.3804 3.043-.3423 1.4835-1.1411 2.6627-.7608 1.1792-1.978 1.94-1.2172.72272-2.9289.72272-1.9019 0-3.2333-.72272-1.2933-.76076-2.1301-1.94-.7988-1.1792-1.1792-2.6627-.3423-1.5215-.3423-3.043 0-1.6737.3043-3.1952.3423-1.5215 1.1411-2.6627.7988-1.1411 2.1301-1.8258 1.3314-.68469 3.3094-.68469 1.7117 0 2.9289.76077 1.2172.72272 1.978 1.9019.7988 1.1792 1.1411 2.7007.3804 1.4835.3804 3.005z"/>
<path d="m1074.5 298.41h-12.705q.1521-1.3313.6086-2.5866.4945-1.2933 1.2933-2.2442.7988-.98899 1.9399-1.5596 1.1412-.60861 2.6247-.60861 1.4454 0 2.5866.60861 1.1411.57058 1.9399 1.5596.7988.95095 1.2172 2.2062.4565 1.2553.4945 2.6246zm-12.705 2.016h15.101q.076-2.0541-.3803-4.032-.4565-2.016-1.5216-3.5376-1.027-1.5596-2.7007-2.5105-1.6737-.95095-4.032-.95095-2.3204 0-4.0321.91292-1.6736.87487-2.7387 2.3584-1.0651 1.4454-1.5976 3.3093-.4945 1.8639-.4945 3.8038 0 2.0921.4945 3.994.5325 1.8639 1.5976 3.3093 1.0651 1.4074 2.7387 2.2442 1.7117.7988 4.0321.7988 3.7277 0 5.7437-1.8258 2.0541-1.8258 2.8149-5.1732h-2.3964q-.5706 2.2823-2.0541 3.6517t-4.1081 1.3694q-1.7117 0-2.929-.72272-1.2172-.72273-2.016-1.8258-.7988-1.1031-1.1792-2.4725-.3423-1.4074-.3423-2.7007z"/>
<path d="m1080.1 289.97v19.628h2.3964v-10.46q0-1.5596.5325-2.8529.5326-1.3313 1.4835-2.2823.989-.95096 2.3203-1.4454 1.3314-.53254 2.967-.45646v-2.3964q-2.6626-.11412-4.6026 1.1792-1.9019 1.2933-2.8148 3.6897h-.076v-4.6026z"/>
<path d="m1095.9 289.97v-5.8959h-2.3964v5.8959h-3.4234v2.016h3.4234v13.427q-.038 2.5105.9129 3.4615.951.91291 3.3474.91291.5325 0 1.0651-.038.5325-.038 1.065-.038v-2.016q-1.027.11411-2.054.11411-1.2933-.0761-1.6357-.72272-.3043-.68469-.3043-1.8639v-13.237h3.994v-2.016z"/>
<path d="m1117.5 298.41h-12.705q.1522-1.3313.6086-2.5866.4945-1.2933 1.2933-2.2442.7988-.98899 1.94-1.5596 1.1411-.60861 2.6246-.60861 1.4454 0 2.5866.60861 1.1411.57058 1.9399 1.5596.7988.95095 1.2173 2.2062.4564 1.2553.4945 2.6246zm-12.705 2.016h15.101q.076-2.0541-.3804-4.032-.4565-2.016-1.5216-3.5376-1.027-1.5596-2.7007-2.5105-1.6736-.95095-4.032-.95095-2.3203 0-4.0321.91292-1.6736.87487-2.7387 2.3584-1.0651 1.4454-1.5976 3.3093-.4945 1.8639-.4945 3.8038 0 2.0921.4945 3.994.5325 1.8639 1.5976 3.3093 1.0651 1.4074 2.7387 2.2442 1.7118.7988 4.0321.7988 3.7277 0 5.7438-1.8258 2.054-1.8258 2.8148-5.1732h-2.3964q-.5706 2.2823-2.0541 3.6517t-4.1081 1.3694q-1.7117 0-2.9289-.72272-1.2173-.72273-2.0161-1.8258-.7988-1.1031-1.1792-2.4725-.3423-1.4074-.3423-2.7007z"/>
<path d="m1128.5 299.4-7.6076 10.194h2.9669l6.0481-8.2543 6.1622 8.2543h3.043l-7.6456-10.232 7.0751-9.3954h-3.005l-5.4775 7.4555-5.5917-7.4555h-3.005z"/>
<path d="m1145.2 289.97v-5.8959h-2.3964v5.8959h-3.4235v2.016h3.4235v13.427q-.038 2.5105.9129 3.4615.9509.91291 3.3473.91291.5326 0 1.0651-.038t1.0651-.038v-2.016q-1.0271.11411-2.0541.11411-1.2933-.0761-1.6356-.72272-.3043-.68469-.3043-1.8639v-13.237h3.994v-2.016z"/>
<path d="m1022.7 364.37h1.9019q-1.1031-1.7498-2.016-3.7658-.8749-2.016-1.5215-4.1462-.6467-2.1682-.989-4.3364-.3424-2.1682-.3424-4.2222 0-5.0971 1.1412-9.7378 1.1792-4.6406 3.7277-8.7488h-1.9019q-2.5105 3.9179-3.9559 8.3304-1.4075 4.3744-1.4075 9.2813 0 2.5105.3424 4.7548.3804 2.2062 1.0651 4.2983.6846 2.0921 1.6736 4.1462 1.0271 2.0541 2.2823 4.1462z"/>
<path d="m1027.3 329.98v27.159h2.5866v-13.161h16.128v13.161h2.5866v-27.159h-2.5866v11.792h-16.128v-11.792z"/>
<path d="m1051.1 329.98v2.2062h9.4335v24.953h2.5866v-24.953h9.4715v-2.2062z"/>
<path d="m1078.9 329.98 9.0151 23.812 9.3574-23.812h3.8038v27.159h-2.5866v-23.47h-.076l-9.2813 23.47h-2.4344l-8.939-23.47h-.076v23.47h-2.5866v-27.159z"/>
<path d="m1106.4 329.98v27.159h17.802v-2.2062h-15.215v-24.953z"/>
<path d="m1125.9 329.41h-1.8638q1.027 1.8258 1.9019 3.8418.9129 2.016 1.5595 4.1462.6467 2.0921.989 4.2603.3804 2.1682.3804 4.2603 0 5.0971-1.1792 9.7378-1.1411 4.6026-3.6516 8.7107h1.8638q2.5106-3.9179 3.918-8.2923 1.4454-4.3744 1.4454-9.2813 0-2.4725-.3804-4.7167-.3423-2.2442-1.027-4.3364-.6847-2.1301-1.7117-4.1842-.989-2.0541-2.2443-4.1462z"/>
</g>
</g>
</g>
</g>
<g transform="matrix(1.8641 0 0 1.8641 -804.1 -1727.7)" stroke-width="2">
<path transform="matrix(2 0 0 2 0 340.93)" d="m395.47 123.47a29.578 23.061 0 0 0 -23.705 9.3164 27.573 30.581 0 0 0 -12.391 -3.3008 27.573 30.581 0 0 0 -24.252 16.045 14.308 12.221 0 0 0 -14.256 12.219 14.308 12.221 0 0 0 .75 3.8574 84.222 34.591 0 0 0 -7.8633 14.502 84.222 34.591 0 0 0 .52539 3.5059 36.596 23.311 0 0 0 -.52539 3.7637 36.596 23.311 0 0 0 36.598 23.311 36.596 23.311 0 0 0 6.584 -.39062 84.222 34.591 0 0 0 41.041 4.4023 84.222 34.591 0 0 0 43.135 -4.9727 10.749 10.433 0 0 0 6.0352 1.8027 10.749 10.433 0 0 0 3.8691 -.70118 29.578 21.557 0 0 0 18.648 4.873 29.578 21.557 0 0 0 29.578 -21.557 29.578 21.557 0 0 0 -.60156 -4.2226 23.207 21.644 0 0 0 4.6133 -12.91 23.207 21.644 0 0 0 -15.043 -20.232 29.077 25.567 0 0 0 -26.066 -14.27 29.077 25.567 0 0 0 -12.723 2.6426 6.4494 6.2597 0 0 0 -3.4688 -.99023 6.4494 6.2597 0 0 0 -2.2188 .38672 32.084 16.042 0 0 0 -18.104 -3.0312 6.4494 6.2597 0 0 0 -4.748 -2.6934 29.578 23.061 0 0 0 -25.412 -11.355zm-55.021 30.5h2.9258v30.717h-2.9258zm33.547 1.8496h2.7109v6.668h4.5156v2.2812h-4.5156v14.971c0 .88912.1143 1.5931.34375 2.1094.25813.48758.87445.75904 1.8496.8164.77439 0 1.5479-.0429 2.3223-.1289v2.2793c-.40153 0-.80159.0143-1.2031.043-.40154.0287-.80354.043-1.2051.043-1.8069 0-3.0681-.3429-3.7852-1.0312-.71702-.71703-1.0619-2.0231-1.0332-3.916v-15.186h-3.873v-2.2812h3.873zm94.949 0h2.7109v6.668h4.5176v2.2812h-4.5176v14.971c0 .88912.1143 1.5931.34375 2.1094.25813.48758.8764.75904 1.8516.8164.77439 0 1.5479-.0429 2.3223-.1289v2.2793c-.40154 0-.80355.0143-1.2051.043-.40154.0287-.80355.043-1.2051.043-1.8069 0-3.0681-.3429-3.7852-1.0312-.71703-.71703-1.0619-2.0231-1.0332-3.916v-15.186h-3.8711v-2.2812h3.8711zm-109.8 6.0234c1.5488 0 2.8405.20002 3.873.60156 1.0612.40154 1.9061.97499 2.5371 1.7207.63099.71703 1.0758 1.6068 1.334 2.668.25814 1.0612.38672 2.251.38672 3.5703v14.283h-2.709v-13.852c0-.94647-.0877-1.8219-.25977-2.625-.17208-.83175-.47212-1.5481-.90234-2.1504-.43022-.6023-1.018-1.0757-1.7637-1.4199-.71703-.34417-1.6211-.51758-2.7109-.51758s-2.0654.20198-2.9258.60352c-.83175.37285-1.5481.90345-2.1504 1.5918-.57362.65966-1.0328 1.4617-1.377 2.4082-.3155.9178-.48695 1.9218-.51563 3.0117v12.949h-2.7109v-22.199h2.7109v3.8301h.0859c.51626-1.348 1.4326-2.4235 2.752-3.2266 1.3193-.83175 2.7682-1.248 4.3457-1.248zm34.934 0c1.7782 0 3.2986.35914 4.5605 1.0762 1.262.71703 2.2803 1.662 3.0547 2.8379.80307 1.1472 1.3765 2.4818 1.7207 4.002.34417 1.4914.48705 3.0118.42968 4.5606h-17.08c0 .97516.12859 1.9935.38672 3.0547.28681 1.0325.73168 1.9632 1.334 2.7949.6023.83175 1.3634 1.5215 2.2812 2.0664.91779.54494 2.0218.8164 3.3125.8164 1.979 0 3.5279-.51631 4.6465-1.5488 1.1186-1.0325 1.892-2.408 2.3223-4.1289h2.7109c-.57363 2.5239-1.6348 4.4729-3.1836 5.8496-1.5201 1.3767-3.6853 2.0664-6.4961 2.0664-1.7496 0-3.2699-.30199-4.5606-.90429-1.262-.63099-2.2946-1.4759-3.0976-2.5371-.80308-1.0899-1.4051-2.3388-1.8066-3.7441-.37285-1.4341-.55859-2.9401-.55859-4.5176 0-1.4627.18574-2.8954.55859-4.3008.40154-1.4054 1.0036-2.6543 1.8066-3.7441.80307-1.1186 1.8357-2.0064 3.0976-2.666 1.2906-.68835 2.811-1.0332 4.5606-1.0332zm37.623 0c1.5488 0 2.8405.20002 3.873.60156 1.0612.40154 1.9061.97499 2.5371 1.7207.63099.71703 1.0759 1.6068 1.334 2.668s.38671 2.251.38671 3.5703v14.283h-2.709v-13.852c0-.94647-.0857-1.8219-.25781-2.625-.17209-.83175-.47408-1.5481-.9043-2.1504-.43022-.6023-1.018-1.0757-1.7637-1.4199-.71703-.34417-1.6211-.51758-2.7109-.51758s-2.0654.20198-2.9258.60352c-.83175.37285-1.5481.90345-2.1504 1.5918-.57362.65966-1.0328 1.4617-1.377 2.4082-.3155.9178-.48695 1.9218-.51563 3.0117v12.949h-2.7109v-22.199h2.7109v3.8301h.0859c.51626-1.348 1.4346-2.4235 2.7539-3.2266 1.3193-.83175 2.7663-1.248 4.3437-1.248zm22.203 0c1.7782 0 3.2986.35914 4.5606 1.0762s2.2803 1.662 3.0547 2.8379c.80308 1.1472 1.3765 2.4818 1.7207 4.002.34417 1.4914.48705 3.0118.42969 4.5606h-17.078c0 .97516.12859 1.9935.38672 3.0547.28681 1.0325.73168 1.9632 1.334 2.7949.60231.83175 1.3615 1.5215 2.2793 2.0664.9178.54494 2.0218.8164 3.3125.8164 1.979 0 3.5279-.51631 4.6465-1.5488 1.1186-1.0325 1.894-2.408 2.3242-4.1289h2.709c-.57362 2.5239-1.6348 4.4729-3.1836 5.8496-1.5201 1.3767-3.6853 2.0664-6.4961 2.0664-1.7496 0-3.2699-.30199-4.5606-.90429-1.262-.63099-2.2946-1.4759-3.0976-2.5371-.80307-1.0899-1.4051-2.3388-1.8066-3.7441-.37286-1.4341-.5586-2.9401-.5586-4.5176 0-1.4627.18574-2.8954.5586-4.3008.40153-1.4054 1.0036-2.6543 1.8066-3.7441.80307-1.1186 1.8357-2.0064 3.0976-2.666 1.2906-.68835 2.811-1.0332 4.5606-1.0332zm-36.15.33593c.24244-.006.48927-.003.74023.008v2.7109c-1.2333-.0574-2.3516.11409-3.3555.51563-1.0038.37285-1.8793.91774-2.625 1.6348-.71702.71702-1.2762 1.5782-1.6777 2.582-.40154.97515-.60156 2.0506-.60156 3.2266v11.83h-2.7109v-22.199h2.4961v5.207h.0859c.68835-1.8069 1.7495-3.1987 3.1836-4.1738 1.2799-.85326 2.7677-1.301 4.4648-1.3418zm-23.676 1.9434c-1.1186 0-2.1083.23056-2.9688.68946-.86044.43021-1.5911 1.018-2.1934 1.7637-.6023.71703-1.09 1.5639-1.4629 2.5391-.34418.94648-.57473 1.92-.68946 2.9238h14.369c-.0287-1.0325-.21442-2.0223-.5586-2.9688-.31549-.94648-.77465-1.7771-1.377-2.4941-.6023-.74571-1.3329-1.3335-2.1934-1.7637-.86043-.4589-1.8359-.68946-2.9258-.68946zm59.826 0c-1.1186 0-2.1083.23056-2.9688.68946-.86043.43021-1.5911 1.018-2.1934 1.7637-.6023.71703-1.09 1.5639-1.4629 2.5391-.34417.94648-.57278 1.92-.6875 2.9238h14.369c-.0287-1.0325-.21637-2.0223-.56055-2.9688-.31549-.94648-.77465-1.7771-1.377-2.4941-.6023-.74571-1.3329-1.3335-2.1934-1.7637-.86043-.4589-1.8359-.68946-2.9258-.68946z" fill="#fff"/>
</g>
<g fill="#fff" stroke-width=".91997">
<g transform="matrix(2.8651 .90611 -.90611 2.8651 173.67 -3165)">
<g>
<g transform="matrix(-.042645 .33964 -.43064 -.035368 -88.772 754.46)" aria-label="HTTP">
<path d="m276.6-1160.5v6.6273h1.4573v-2.8588h2.6825v2.8588h1.4573v-6.6273h-1.4573v2.5432h-2.6825v-2.5432z" fill="#fff"/>
<path d="m286.41-1159.6v5.648h1.5236v-5.648h2.0768v-1.281h-5.6771v1.281z"/>
<path d="m293.71-1159.9v5.8653h1.5822v-5.8653h2.1566v-1.3302h-5.8955v1.3302z"/>
<path d="m301.23-1158.1v-2.3164h1.3206q.29225 0 .56286.043t.47627.1732q.20566.1191.32472.3464.12989.2273.12989.5953 0 .3681-.12989.5954-.11906.2273-.32472.3572-.20566.119-.47627.1623-.27061.043-.56286.043zm-1.6994-3.6369v7.7285h1.6994v-2.771h1.786q.72523 0 1.234-.2057.50874-.2165.82265-.5628.32472-.3464.46544-.7902.15154-.4546.15154-.9201 0-.4762-.15154-.92-.14072-.4438-.46544-.7902-.31391-.3464-.82265-.552-.50873-.2165-1.234-.2165z"/>
</g>
<g transform="matrix(-.043405 .33982 -.43058 -.033519 -91.072 764.67)" aria-label="HTTP">
<path d="m289.63-1166.3v8.9388h1.9655v-3.8559h3.6181v3.8559h1.9655v-8.9388h-1.9655v3.4303h-3.6181v-3.4303z" fill="#fff"/>
<path d="m301.29-1165v7.6179h2.055v-7.6179h2.8011v-1.7278h-7.6572v1.7278z"/>
<path d="m310.89-1165.2v7.9109h2.134v-7.9109h2.9088v-1.7943h-7.9517v1.7943z"/>
<path d="m320.02-1162.7v-3.1243h1.7812q.39418 0 .75917.058t.64238.2336q.2774.1606.43799.4672.1752.3065.1752.8029t-.1752.803q-.16059.3066-.43799.4818-.27739.1606-.64238.219-.36499.058-.75917.058zm-2.2921-4.9055v10.424h2.2921v-3.7375h2.4089q.97817 0 1.6644-.2774.68618-.292 1.1096-.7591.43798-.4672.62778-1.0658.20439-.6132.20439-1.241 0-.6424-.20439-1.2409-.1898-.5986-.62778-1.0658-.42339-.4672-1.1096-.7446-.68618-.292-1.6644-.292z"/>
</g>
<g transform="matrix(-.041694 .33995 -.43074 -.032168 -91.228 765.42)" aria-label="HTTP">
<path d="m337.99-1167.1v12.007h2.6403v-5.1797h4.8601v5.1797h2.6403v-12.007h-2.6403v4.6079h-4.8601v-4.6079z" fill="#fff"/>
<path d="m353.27-1165.3v10.233h2.7604v-10.233h3.7627v-2.3209h-10.286v2.3209z"/>
<path d="m364.17-1165.7v10.627h2.8666v-10.627h3.9074v-2.4102h-10.681v2.4102z"/>
<path d="m375.62-1162.5v-4.1968h2.3926q.5295 0 1.0198.078.49028.079.86289.3138.37262.2157.58834.6276.23534.4118.23534 1.0786t-.23534 1.0786q-.21572.4119-.58834.6472-.37261.2157-.86289.2942-.49029.078-1.0198.078zm-3.079-6.5894v14.002h3.079v-5.0205h3.2359q1.314 0 2.2357-.3726.92173-.3923 1.4905-1.0198.58834-.6276.84328-1.4316.27456-.8237.27456-1.667 0-.8629-.27456-1.667-.25494-.804-.84328-1.4316-.56873-.6275-1.4905-1.0002-.92173-.3922-2.2357-.3922z"/>
</g>
<g transform="matrix(-.041694 .33995 -.43074 -.032168 -91.228 765.42)" aria-label="HTTP">
<path d="m390.67-1170.2v16.2h3.5621v-6.988h6.557v6.988h3.5621v-16.2h-3.5621v6.2167h-6.557v-6.2167z" fill="#fff"/>
<path d="m411.29-1167.8v13.806h3.7242v-13.806h5.0764v-3.1312h-13.877v3.1312z"/>
<path d="m425.99-1168.3v14.337h3.8675v-14.337h5.2716v-3.2517h-14.411v3.2517z"/>
<path d="m441.44-1164v-5.6621h3.2279q.71438 0 1.3758.1059.66146.1058 1.1642.4233.50271.291.79375.8467.31751.5556.31751 1.4552t-.31751 1.4552q-.29104.5556-.79375.8731-.50271.2911-1.1642.3969t-1.3758.1058zm-4.154-8.89v18.891h4.154v-6.7733h4.3656q1.7727 0 3.0163-.5027 1.2435-.5292 2.0108-1.3759.79375-.8467 1.1377-1.9314.37042-1.1113.37042-2.249 0-1.1642-.37042-2.249-.34396-1.0848-1.1377-1.9315-.7673-.8466-2.0108-1.3493-1.2436-.5292-3.0163-.5292z"/>
</g>
<g transform="matrix(.2646 -.27065 .34244 .20821 -91.228 765.42)" aria-label="HTTP">
<path d="m177.15 1237.3v16.2h3.5621v-6.988h6.557v6.988h3.5621v-16.2h-3.5621v6.2167h-6.557v-6.2167z" fill="#fff"/>
<path d="m197.77 1239.7v13.806h3.7242v-13.806h5.0764v-3.1312h-13.877v3.1312z"/>
<path d="m212.47 1239.2v14.337h3.8675v-14.337h5.2716v-3.2516h-14.411v3.2516z"/>
<path d="m227.92 1243.5v-5.6621h3.2279q.71438 0 1.3758.1059.66146.1058 1.1642.4233.50272.291.79376.8467.3175.5556.3175 1.4552t-.3175 1.4552q-.29104.5556-.79376.8731-.50271.2911-1.1642.3969t-1.3758.1058zm-4.154-8.89v18.891h4.154v-6.7733h4.3656q1.7727 0 3.0163-.5027 1.2436-.5292 2.0108-1.3759.79376-.8466 1.1377-1.9314.37041-1.1113.37041-2.249 0-1.1642-.37041-2.249-.34396-1.0848-1.1377-1.9314-.76729-.8467-2.0108-1.3494-1.2436-.5292-3.0163-.5292z"/>
</g>
<g transform="matrix(.2646 -.27065 .34244 .20821 -91.228 765.42)" aria-label="HTTP">
<path d="m250.08 1233.5v16.2h3.5621v-6.988h6.557v6.988h3.5621v-16.2h-3.5621v6.2167h-6.557v-6.2167z" fill="#fff"/>
<path d="m270.69 1235.8v13.806h3.7243v-13.806h5.0764v-3.1312h-13.877v3.1312z"/>
<path d="m285.4 1235.3v14.337h3.8675v-14.337h5.2716v-3.2516h-14.411v3.2516z"/>
<path d="m300.85 1239.7v-5.6621h3.2279q.71437 0 1.3758.1059.66147.1058 1.1642.4233.50271.291.79375.8467.3175.5556.3175 1.4552t-.3175 1.4552q-.29104.5556-.79375.8731-.50271.2911-1.1642.3969-.66146.1058-1.3758.1058zm-4.154-8.89v18.891h4.154v-6.7733h4.3656q1.7727 0 3.0163-.5027 1.2436-.5292 2.0108-1.3759.79376-.8466 1.1377-1.9314.37042-1.1113.37042-2.249 0-1.1642-.37042-2.249-.34396-1.0848-1.1377-1.9314-.76729-.8467-2.0108-1.3494-1.2436-.5292-3.0163-.5292z"/>
</g>
<g transform="matrix(-.053394 .33895 -.42945 -.041403 -91.228 765.42)" aria-label="HTTP">
<path d="m417.78-1225.2v16.2h3.5621v-6.9881h6.557v6.9881h3.5621v-16.2h-3.5621v6.2166h-6.557v-6.2166z" fill="#fff"/>
<path d="m438.4-1222.8v13.806h3.7243v-13.806h5.0764v-3.1312h-13.877v3.1312z"/>
<path d="m452.9-1222.8v13.805h3.724v-13.805h5.0761v-3.131h-13.876v3.131z"/>
<path d="m467.14-1217.5v-4.8525h2.7663q.61222 0 1.1791.091t.9977.3628q.43082.2495.68024.7256.2721.4762.2721 1.2472 0 .7709-.2721 1.2471-.24942.4762-.68024.7482-.43083.2495-.9977.3402-.56687.091-1.1791.091zm-3.56-7.6188v16.19h3.56v-5.8048h3.7414q1.5192 0 2.5849-.4308 1.0657-.4535 1.7233-1.1791.68024-.7256.97502-1.6553.31745-.9523.31745-1.9273 0-.9977-.31745-1.9274-.29478-.9297-.97502-1.6553-.65758-.7256-1.7233-1.1564-1.0657-.4535-2.5849-.4535z"/>
</g>
<g transform="matrix(-.053394 .33895 -.42945 -.041403 -91.228 765.42)" aria-label="HTTP">
<path d="m484.71-1224.6v12.556h2.7609v-5.4162h5.0821v5.4162h2.7609v-12.556h-2.7609v4.8184h-5.0821v-4.8184z" fill="#fff"/>
<path d="m500.68-1222.7v10.7h2.8866v-10.7h3.9346v-2.427h-10.756v2.427z"/>
<path d="m511.92-1222.7v10.7h2.8864v-10.7h3.9343v-2.4268h-10.755v2.4268z"/>
<path d="m522.96-1218.7v-3.7609h2.1441q.47451 0 .91388.07.43936.07.77328.2812.33392.1933.52724.5623.2109.3691.2109.9667 0 .5975-.2109.9666-.19332.369-.52724.5799-.33392.1933-.77328.2636-.43937.07-.91388.07zm-2.7592-5.905v12.548h2.7592v-4.4991h2.8998q1.1775 0 2.0035-.3339.82601-.3515 1.3357-.9139.52723-.5623.75571-1.2829.24604-.7381.24604-1.4938 0-.7733-.24604-1.4939-.22848-.7206-.75571-1.2829-.50967-.5624-1.3357-.8963-.826-.3515-2.0035-.3515z"/>
</g>
<g transform="matrix(-.053394 .33895 -.42945 -.041403 -91.228 765.42)" aria-label="HTTP">
<path d="m553.88-1223.6v8.1833h1.7994v-3.5301h3.3123v3.5301h1.7994v-8.1833h-1.7994v3.1404h-3.3123v-3.1404z" fill="#fff"/>
<path d="m564.29-1222.4v6.9741h1.8813v-6.9741h2.5644v-1.5817h-7.01v1.5817z"/>
<path d="m571.62-1222.4v6.9737h1.8812v-6.9737h2.5642v-1.5816h-7.0096v1.5816z"/>
<path d="m578.81-1219.8v-2.4513h1.3974q.30926 0 .59562.046t.50399.1832q.21763.126.34363.3666.13745.2405.13745.63 0 .3894-.13745.6299-.126.2406-.34363.378-.21763.126-.50399.1718-.28636.046-.59562.046zm-1.7983-3.8487v8.1784h1.7983v-2.9323h1.89q.76744 0 1.3058-.2176.53836-.2291.87053-.5957.34363-.3665.49254-.8361.16036-.4811.16036-.9736 0-.504-.16036-.9737-.14891-.4696-.49254-.8361-.33217-.3666-.87053-.5842-.53835-.2291-1.3058-.2291z"/>
</g>
<g transform="matrix(-.070382 .44679 -.56608 -.054575 -247.51 682.06)" aria-label="HTTP">
<path d="m596.1-1223.4v5.7541h.7656v-2.6353h3.0302v2.6353h.7656v-5.7541h-.7656v2.4741h-3.0302v-2.4741z" fill="#fff"/>
<path d="m603.94-1222.8v5.1867h.77718v-5.1867h1.947v-.6544h-4.6713v.6544z"/>
<path d="m609.87-1222.7v4.5782h.68601v-4.5782h1.7186v-.5777h-4.1233v.5777z"/>
<path d="m614.36-1220.8v-1.8085h1.284q.55915 0 .81456.2346.26231.2278.26231.6696t-.26231.6766q-.25541.2346-.81456.2277zm-.65578-2.3608v4.9287h.65578v-2.0156h1.5048q.74553.01 1.1252-.3797.38656-.3866.38656-1.0769t-.38656-1.0699q-.37967-.3866-1.1252-.3866z"/>
</g>
<g transform="matrix(-.056001 .2686 -.34177 -.056063 7.9132 817.24)" aria-label="HTTP">
<path d="m276.6-1160.5v6.6273h1.4573v-2.8588h2.6825v2.8588h1.4573v-6.6273h-1.4573v2.5432h-2.6825v-2.5432z" fill="#fff"/>
<path d="m285.04-1159.6v5.648h1.5236v-5.648h2.0768v-1.281h-5.6771v1.281z"/>
<path d="m291.05-1159.8v5.8653h1.5822v-5.8653h2.1566v-1.3302h-5.8955v1.3302z"/>
<path d="m297.37-1158v-2.3164h1.3206q.29225 0 .56286.043t.47627.1732q.20566.1191.32472.3464.12989.2273.12989.5953 0 .3681-.12989.5954-.11906.2273-.32472.3572-.20566.119-.47627.1623-.27061.043-.56286.043zm-1.6994-3.6369v7.7285h1.6994v-2.771h1.786q.72523 0 1.234-.2057.50874-.2165.82265-.5628.32472-.3464.46544-.7902.15154-.4546.15154-.9201 0-.4762-.15154-.92-.14072-.4438-.46544-.7902-.31391-.3464-.82265-.552-.50873-.2165-1.234-.2165z"/>
</g>
<g transform="matrix(.1725 -.18528 .24302 .2075 650.06 1228.9)" aria-label="HTTP">
<path d="m276.2-1161v7.5863h1.6681v-3.2725h3.0706v3.2725h1.6681v-7.5863h-1.6681v2.9112h-3.0706v-2.9112z" fill="#fff"/>
<path d="m286.45-1159.3v5.1622h1.3926v-5.1622h1.8981v-1.1708h-5.1888v1.1708z"/>
<path d="m293.54-1159.3v4.8937h1.3201v-4.8937h1.7994v-1.1098h-4.9189v1.1098z"/>
<path d="m299.59-1157.8v-1.2741h.72632q.16074 0 .30958.024.14883.024.26195.095.11312.066.1786.1906.0715.125.0715.3274t-.0715.3275q-.0655.125-.1786.1965-.11312.066-.26195.089-.14884.024-.30958.024zm-.93469-2.0004v4.2509h.93469v-1.5241h.98232q.39888 0 .67869-.1132.27982-.119.45247-.3095.1786-.1906.25599-.4347.0833-.25.0833-.506 0-.262-.0833-.506-.0774-.2441-.25599-.4347-.17265-.1905-.45247-.3036-.27981-.1191-.67869-.1191z"/>
</g>
<g transform="matrix(.18711 -.20068 .26322 .22509 630.92 1300.3)" aria-label="HTTP">
<path d="m276.99-1159.3v4.0675h.8944v-1.7546h1.6464v1.7546h.89441v-4.0675h-.89441v1.5609h-1.6464v-1.5609z" fill="#fff"/>
<path d="m284.14-1159v3.996h1.078v-3.996h1.4693v-.9063h-4.0166v.9063z"/>
<path d="m290.42-1159.6v5.185h1.3987v-5.185h1.9065v-1.1759h-5.2117v1.1759z"/>
<path d="m297.56-1158v-2.6457h1.5083q.33379 0 .64287.049t.54398.1979q.23489.136.37088.3956.14835.2596.14835.6799 0 .4205-.14835.6801-.13599.2596-.37088.4079-.2349.136-.54398.1854-.30908.049-.64287.049zm-1.941-4.1539v8.8272h1.941v-3.165h2.0399q.82833 0 1.4094-.2349.58106-.2473.93959-.6428.37088-.3956.5316-.9025.17309-.5193.17309-1.0509 0-.5439-.17309-1.0508-.16072-.5069-.5316-.9025-.35853-.3957-.93959-.6305-.58105-.2473-1.4094-.2473z"/>
</g>
<g transform="matrix(-.050076 .31789 -.40277 -.03883 -59.063 759.24)" aria-label="HTTP">
<path d="m596.1-1223.4v5.7541h.7656v-2.6353h3.0302v2.6353h.7656v-5.7541h-.7656v2.4741h-3.0302v-2.4741z" fill="#fff"/>
<path d="m603.32-1223v5.342h.80045v-5.342h2.0054v-.674h-4.8112v.674z"/>
<path d="m608.16-1223v5.3417h.80041v-5.3417h2.0052v-.674h-4.8109v.674z"/>
<path d="m612.37-1220.7v-2.1102h1.4981q.65239 0 .95039.2738.30606.2658.30606.7813 0 .5154-.30606.7893-.298.2738-.95039.2658zm-.76514-2.7545v5.7506h.76514v-2.3518h1.7558q.86985.01 1.3128-.443.45103-.451.45103-1.2564t-.45103-1.2484q-.44298-.451-1.3128-.451z"/>
</g>
<g transform="matrix(-.022429 .14238 -.1804 -.017392 197.68 894.17)" aria-label="HTTP">
<path d="m596.1-1223.4v5.7541h.7656v-2.6353h3.0302v2.6353h.7656v-5.7541h-.7656v2.4741h-3.0302v-2.4741z" fill="#fff"/>
<path d="m603.32-1223v5.342h.80045v-5.342h2.0054v-.674h-4.8112v.674z"/>
<path d="m608.16-1223v5.3417h.80041v-5.3417h2.0052v-.674h-4.8109v.674z"/>
<path d="m612.37-1220.7v-2.1102h1.4981q.65239 0 .95039.2738.30606.2658.30606.7813 0 .5154-.30606.7893-.298.2738-.95039.2658zm-.76514-2.7545v5.7506h.76514v-2.3518h1.7558q.86985.01 1.3128-.443.45103-.451.45103-1.2564t-.45103-1.2484q-.44298-.451-1.3128-.451z"/>
</g>
<g transform="matrix(-.017245 .10948 -.13871 -.013372 245.89 919.57)" aria-label="HTTP">
<path d="m553.88-1223.6v8.1833h1.7994v-3.5301h3.3123v3.5301h1.7994v-8.1833h-1.7994v3.1404h-3.3123v-3.1404z" fill="#fff"/>
<path d="m564.29-1222.4v6.9741h1.8813v-6.9741h2.5644v-1.5817h-7.01v1.5817z"/>
<path d="m571.62-1222.4v6.9737h1.8812v-6.9737h2.5642v-1.5816h-7.0096v1.5816z"/>
<path d="m578.81-1219.8v-2.4513h1.3974q.30926 0 .59562.046t.50399.1832q.21763.126.34363.3666.13745.2405.13745.63 0 .3894-.13745.6299-.126.2406-.34363.378-.21763.126-.50399.1718-.28636.046-.59562.046zm-1.7983-3.8487v8.1784h1.7983v-2.9323h1.89q.76744 0 1.3058-.2176.53836-.2291.87053-.5957.34363-.3665.49254-.8361.16036-.4811.16036-.9736 0-.504-.16036-.9737-.14891-.4696-.49254-.8361-.33217-.3666-.87053-.5842-.53835-.2291-1.3058-.2291z"/>
</g>
<g transform="matrix(-.032586 .15101 -.19199 -.029488 196.99 830.64)" aria-label="HTTP">
<path d="m553.88-1223.6v8.1833h1.7994v-3.5301h3.3123v3.5301h1.7994v-8.1833h-1.7994v3.1404h-3.3123v-3.1404z" fill="#fff"/>
<path d="m564.29-1222.4v6.9741h1.8813v-6.9741h2.5644v-1.5817h-7.01v1.5817z"/>
<path d="m571.62-1222.4v6.9737h1.8812v-6.9737h2.5642v-1.5816h-7.0096v1.5816z"/>
<path d="m578.81-1219.8v-2.4513h1.3974q.30926 0 .59562.046t.50399.1832q.21763.126.34363.3666.13745.2405.13745.63 0 .3894-.13745.6299-.126.2406-.34363.378-.21763.126-.50399.1718-.28636.046-.59562.046zm-1.7983-3.8487v8.1784h1.7983v-2.9323h1.89q.76744 0 1.3058-.2176.53836-.2291.87053-.5957.34363-.3665.49254-.8361.16036-.4811.16036-.9736 0-.504-.16036-.9737-.14891-.4696-.49254-.8361-.33217-.3666-.87053-.5842-.53835-.2291-1.3058-.2291z"/>
</g>
<g transform="matrix(-.040516 .3059 -.3059 -.040516 731.99 956.85)" dominant-baseline="auto" style="font-feature-settings:normal;font-variant-alternates:normal;font-variant-caps:normal;font-variant-ligatures:normal;font-variant-numeric:normal;font-variant-position:normal;shape-padding:0;text-decoration-color:#000000;text-decoration-line:none;text-decoration-style:solid;text-indent:0;text-orientation:mixed;text-transform:none;white-space:normal" aria-label="HTTP">
<g stroke-width=".2748">
<path d="m389.17 1033.4h.91026v2.7443h2.4797v-2.7443h.91027v6.6948h-.91027v-3.1882h-2.4797v3.1882h-.91026z"/>
<path d="m395.41 1033.8h4.9419v.7376h-2.0262v5.7402h-.88077v-5.7402h-2.0349z"/>
<path d="m401.98 1034h4.5638v.6811h-1.8712v5.3009h-.81339v-5.3009h-1.8792z"/>
</g>
<path d="m408.77 1034.6v1.9925h.83106q.49723 0 .77424-.2628.28057-.2629.28057-.7353 0-.4723-.277-.7315-.27703-.2629-.77781-.2629zm-.7174-.5895h1.5485q.8879 0 1.346.4049.45815.4012.45815 1.179 0 .785-.45815 1.1863-.4546.4014-1.346.4014h-.83106v2.1308h-.7174z" stroke-width=".2748"/>
</g>
<g transform="matrix(-.040516 .3059 -.3059 -.040516 733.1 948.66)" dominant-baseline="auto" style="font-feature-settings:normal;font-variant-alternates:normal;font-variant-caps:normal;font-variant-ligatures:normal;font-variant-numeric:normal;font-variant-position:normal;shape-padding:0;text-decoration-color:#000000;text-decoration-line:none;text-decoration-style:solid;text-indent:0;text-orientation:mixed;text-transform:none;white-space:normal" aria-label="HTTP">
<g stroke-width=".2748">
<path d="m389.17 1033.4h.91026v2.7443h2.4797v-2.7443h.91027v6.6948h-.91027v-3.1882h-2.4797v3.1882h-.91026z"/>
<path d="m395.41 1033.8h4.9419v.7376h-2.0262v5.7402h-.88077v-5.7402h-2.0349z"/>
<path d="m401.98 1034h4.5638v.6811h-1.8712v5.3009h-.81339v-5.3009h-1.8792z"/>
</g>
<path d="m409.53 1034.5v2.2592h.94228q.56378 0 .87786-.298.31812-.2981.31812-.8337 0-.5355-.31407-.8294-.31411-.2981-.88191-.2981zm-.81342-.6684h1.7557q1.0067 0 1.5262.4591.51946.4549.51946 1.3368 0 .8901-.51946 1.3451-.51544.4551-1.5262.4551h-.94228v2.416h-.81342z" stroke-width=".2748"/>
</g>
</g>
<path d="m398.62 878.34.52627-.43705-.0616-1.4687z"/>
<path d="m397.77 1041.4.83969.1105-.48613 1.6572z"/>
<g transform="rotate(95.089 11.345 2.0715)" dominant-baseline="auto" stroke-width=".084795" style="font-feature-settings:normal;font-variant-alternates:normal;font-variant-caps:normal;font-variant-ligatures:normal;font-variant-numeric:normal;font-variant-position:normal;shape-padding:0;text-decoration-color:#000000;text-decoration-line:none;text-decoration-style:solid;text-indent:0;text-orientation:mixed;text-transform:none;white-space:normal" aria-label="HTTP">
<path d="m852.51-460.65h-.29352v-.80599h-.82434v.80599h-.29231v-1.7881h.29231v.73138h.82434v-.73138h.29352z"/>
<path d="m853.96-460.47h-.35042v-1.843h-.63047v-.30058h1.6114v.30058h-.63046z"/>
<path d="m856.12-460.3h-.40616v-2.1362h-.73078v-.3484h1.8677v.3484h-.73079z"/>
<path d="m859.21-462.06q0 .41455-.27154.63541-.27154.22085-.77299.22085h-.27516v.99022h-.43266v-2.6466h.76213q.49601 0 .74221.20275.24801.20276.24801.5974zm-1.3197.49239h.2299q.33309 0 .48878-.11585.15568-.11586.15568-.36206 0-.2281-.13939-.34033-.13939-.11224-.43447-.11224h-.3005z"/>
</g>
</g>
<g transform="matrix(3.0049 -.024936 .024936 3.0049 -504.49 -2903.1)">
<g>
<g transform="matrix(-.042645 .33964 -.43064 -.035368 -88.772 754.46)" aria-label="HTTP">
<path d="m276.6-1160.5v6.6273h1.4573v-2.8588h2.6825v2.8588h1.4573v-6.6273h-1.4573v2.5432h-2.6825v-2.5432z" fill="#fff"/>
<path d="m286.41-1159.6v5.648h1.5236v-5.648h2.0768v-1.281h-5.6771v1.281z"/>
<path d="m293.71-1159.9v5.8653h1.5822v-5.8653h2.1566v-1.3302h-5.8955v1.3302z"/>
<path d="m301.23-1158.1v-2.3164h1.3206q.29225 0 .56286.043t.47627.1732q.20566.1191.32472.3464.12989.2273.12989.5953 0 .3681-.12989.5954-.11906.2273-.32472.3572-.20566.119-.47627.1623-.27061.043-.56286.043zm-1.6994-3.6369v7.7285h1.6994v-2.771h1.786q.72523 0 1.234-.2057.50874-.2165.82265-.5628.32472-.3464.46544-.7902.15154-.4546.15154-.9201 0-.4762-.15154-.92-.14072-.4438-.46544-.7902-.31391-.3464-.82265-.552-.50873-.2165-1.234-.2165z"/>
</g>
<g transform="matrix(-.043405 .33982 -.43058 -.033519 -91.072 764.67)" aria-label="HTTP">
<path d="m289.63-1166.3v8.9388h1.9655v-3.8559h3.6181v3.8559h1.9655v-8.9388h-1.9655v3.4303h-3.6181v-3.4303z" fill="#fff"/>
<path d="m301.29-1165v7.6179h2.055v-7.6179h2.8011v-1.7278h-7.6572v1.7278z"/>
<path d="m310.89-1165.2v7.9109h2.134v-7.9109h2.9088v-1.7943h-7.9517v1.7943z"/>
<path d="m320.02-1162.7v-3.1243h1.7812q.39418 0 .75917.058t.64238.2336q.2774.1606.43799.4672.1752.3065.1752.8029t-.1752.803q-.16059.3066-.43799.4818-.27739.1606-.64238.219-.36499.058-.75917.058zm-2.2921-4.9055v10.424h2.2921v-3.7375h2.4089q.97817 0 1.6644-.2774.68618-.292 1.1096-.7591.43798-.4672.62778-1.0658.20439-.6132.20439-1.241 0-.6424-.20439-1.2409-.1898-.5986-.62778-1.0658-.42339-.4672-1.1096-.7446-.68618-.292-1.6644-.292z"/>
</g>
<g transform="matrix(-.041694 .33995 -.43074 -.032168 -91.228 765.42)" aria-label="HTTP">
<path d="m337.99-1167.1v12.007h2.6403v-5.1797h4.8601v5.1797h2.6403v-12.007h-2.6403v4.6079h-4.8601v-4.6079z" fill="#fff"/>
<path d="m353.27-1165.3v10.233h2.7604v-10.233h3.7627v-2.3209h-10.286v2.3209z"/>
<path d="m364.17-1165.7v10.627h2.8666v-10.627h3.9074v-2.4102h-10.681v2.4102z"/>
<path d="m375.62-1162.5v-4.1968h2.3926q.5295 0 1.0198.078.49028.079.86289.3138.37262.2157.58834.6276.23534.4118.23534 1.0786t-.23534 1.0786q-.21572.4119-.58834.6472-.37261.2157-.86289.2942-.49029.078-1.0198.078zm-3.079-6.5894v14.002h3.079v-5.0205h3.2359q1.314 0 2.2357-.3726.92173-.3923 1.4905-1.0198.58834-.6276.84328-1.4316.27456-.8237.27456-1.667 0-.8629-.27456-1.667-.25494-.804-.84328-1.4316-.56873-.6275-1.4905-1.0002-.92173-.3922-2.2357-.3922z"/>
</g>
<g transform="matrix(-.041694 .33995 -.43074 -.032168 -91.228 765.42)" aria-label="HTTP">
<path d="m390.67-1170.2v16.2h3.5621v-6.988h6.557v6.988h3.5621v-16.2h-3.5621v6.2167h-6.557v-6.2167z" fill="#fff"/>
<path d="m411.29-1167.8v13.806h3.7242v-13.806h5.0764v-3.1312h-13.877v3.1312z"/>
<path d="m425.99-1168.3v14.337h3.8675v-14.337h5.2716v-3.2517h-14.411v3.2517z"/>
<path d="m441.44-1164v-5.6621h3.2279q.71438 0 1.3758.1059.66146.1058 1.1642.4233.50271.291.79375.8467.31751.5556.31751 1.4552t-.31751 1.4552q-.29104.5556-.79375.8731-.50271.2911-1.1642.3969t-1.3758.1058zm-4.154-8.89v18.891h4.154v-6.7733h4.3656q1.7727 0 3.0163-.5027 1.2435-.5292 2.0108-1.3759.79375-.8467 1.1377-1.9314.37042-1.1113.37042-2.249 0-1.1642-.37042-2.249-.34396-1.0848-1.1377-1.9315-.7673-.8466-2.0108-1.3493-1.2436-.5292-3.0163-.5292z"/>
</g>
<g transform="matrix(.2646 -.27065 .34244 .20821 -91.228 765.42)" aria-label="HTTP">
<path d="m177.15 1237.3v16.2h3.5621v-6.988h6.557v6.988h3.5621v-16.2h-3.5621v6.2167h-6.557v-6.2167z" fill="#fff"/>
<path d="m197.77 1239.7v13.806h3.7242v-13.806h5.0764v-3.1312h-13.877v3.1312z"/>
<path d="m212.47 1239.2v14.337h3.8675v-14.337h5.2716v-3.2516h-14.411v3.2516z"/>
<path d="m227.92 1243.5v-5.6621h3.2279q.71438 0 1.3758.1059.66146.1058 1.1642.4233.50272.291.79376.8467.3175.5556.3175 1.4552t-.3175 1.4552q-.29104.5556-.79376.8731-.50271.2911-1.1642.3969t-1.3758.1058zm-4.154-8.89v18.891h4.154v-6.7733h4.3656q1.7727 0 3.0163-.5027 1.2436-.5292 2.0108-1.3759.79376-.8466 1.1377-1.9314.37041-1.1113.37041-2.249 0-1.1642-.37041-2.249-.34396-1.0848-1.1377-1.9314-.76729-.8467-2.0108-1.3494-1.2436-.5292-3.0163-.5292z"/>
</g>
<g transform="matrix(.2646 -.27065 .34244 .20821 -91.228 765.42)" aria-label="HTTP">
<path d="m250.08 1233.5v16.2h3.5621v-6.988h6.557v6.988h3.5621v-16.2h-3.5621v6.2167h-6.557v-6.2167z" fill="#fff"/>
<path d="m270.69 1235.8v13.806h3.7243v-13.806h5.0764v-3.1312h-13.877v3.1312z"/>
<path d="m285.4 1235.3v14.337h3.8675v-14.337h5.2716v-3.2516h-14.411v3.2516z"/>
<path d="m300.85 1239.7v-5.6621h3.2279q.71437 0 1.3758.1059.66147.1058 1.1642.4233.50271.291.79375.8467.3175.5556.3175 1.4552t-.3175 1.4552q-.29104.5556-.79375.8731-.50271.2911-1.1642.3969-.66146.1058-1.3758.1058zm-4.154-8.89v18.891h4.154v-6.7733h4.3656q1.7727 0 3.0163-.5027 1.2436-.5292 2.0108-1.3759.79376-.8466 1.1377-1.9314.37042-1.1113.37042-2.249 0-1.1642-.37042-2.249-.34396-1.0848-1.1377-1.9314-.76729-.8467-2.0108-1.3494-1.2436-.5292-3.0163-.5292z"/>
</g>
<g transform="matrix(-.053394 .33895 -.42945 -.041403 -91.228 765.42)" aria-label="HTTP">
<path d="m417.78-1225.2v16.2h3.5621v-6.9881h6.557v6.9881h3.5621v-16.2h-3.5621v6.2166h-6.557v-6.2166z" fill="#fff"/>
<path d="m438.4-1222.8v13.806h3.7243v-13.806h5.0764v-3.1312h-13.877v3.1312z"/>
<path d="m452.9-1222.8v13.805h3.724v-13.805h5.0761v-3.131h-13.876v3.131z"/>
<path d="m467.14-1217.5v-4.8525h2.7663q.61222 0 1.1791.091t.9977.3628q.43082.2495.68024.7256.2721.4762.2721 1.2472 0 .7709-.2721 1.2471-.24942.4762-.68024.7482-.43083.2495-.9977.3402-.56687.091-1.1791.091zm-3.56-7.6188v16.19h3.56v-5.8048h3.7414q1.5192 0 2.5849-.4308 1.0657-.4535 1.7233-1.1791.68024-.7256.97502-1.6553.31745-.9523.31745-1.9273 0-.9977-.31745-1.9274-.29478-.9297-.97502-1.6553-.65758-.7256-1.7233-1.1564-1.0657-.4535-2.5849-.4535z"/>
</g>
<g transform="matrix(-.053394 .33895 -.42945 -.041403 -91.228 765.42)" aria-label="HTTP">
<path d="m484.71-1224.6v12.556h2.7609v-5.4162h5.0821v5.4162h2.7609v-12.556h-2.7609v4.8184h-5.0821v-4.8184z" fill="#fff"/>
<path d="m500.68-1222.7v10.7h2.8866v-10.7h3.9346v-2.427h-10.756v2.427z"/>
<path d="m511.92-1222.7v10.7h2.8864v-10.7h3.9343v-2.4268h-10.755v2.4268z"/>
<path d="m522.96-1218.7v-3.7609h2.1441q.47451 0 .91388.07.43936.07.77328.2812.33392.1933.52724.5623.2109.3691.2109.9667 0 .5975-.2109.9666-.19332.369-.52724.5799-.33392.1933-.77328.2636-.43937.07-.91388.07zm-2.7592-5.905v12.548h2.7592v-4.4991h2.8998q1.1775 0 2.0035-.3339.82601-.3515 1.3357-.9139.52723-.5623.75571-1.2829.24604-.7381.24604-1.4938 0-.7733-.24604-1.4939-.22848-.7206-.75571-1.2829-.50967-.5624-1.3357-.8963-.826-.3515-2.0035-.3515z"/>
</g>
<g transform="matrix(-.053394 .33895 -.42945 -.041403 -91.228 765.42)" aria-label="HTTP">
<path d="m553.88-1223.6v8.1833h1.7994v-3.5301h3.3123v3.5301h1.7994v-8.1833h-1.7994v3.1404h-3.3123v-3.1404z" fill="#fff"/>
<path d="m564.29-1222.4v6.9741h1.8813v-6.9741h2.5644v-1.5817h-7.01v1.5817z"/>
<path d="m571.62-1222.4v6.9737h1.8812v-6.9737h2.5642v-1.5816h-7.0096v1.5816z"/>
<path d="m578.81-1219.8v-2.4513h1.3974q.30926 0 .59562.046t.50399.1832q.21763.126.34363.3666.13745.2405.13745.63 0 .3894-.13745.6299-.126.2406-.34363.378-.21763.126-.50399.1718-.28636.046-.59562.046zm-1.7983-3.8487v8.1784h1.7983v-2.9323h1.89q.76744 0 1.3058-.2176.53836-.2291.87053-.5957.34363-.3665.49254-.8361.16036-.4811.16036-.9736 0-.504-.16036-.9737-.14891-.4696-.49254-.8361-.33217-.3666-.87053-.5842-.53835-.2291-1.3058-.2291z"/>
</g>
<g transform="matrix(-.070382 .44679 -.56608 -.054575 -247.51 682.06)" aria-label="HTTP">
<path d="m596.1-1223.4v5.7541h.7656v-2.6353h3.0302v2.6353h.7656v-5.7541h-.7656v2.4741h-3.0302v-2.4741z" fill="#fff"/>
<path d="m603.94-1222.8v5.1867h.77718v-5.1867h1.947v-.6544h-4.6713v.6544z"/>
<path d="m609.87-1222.7v4.5782h.68601v-4.5782h1.7186v-.5777h-4.1233v.5777z"/>
<path d="m614.36-1220.8v-1.8085h1.284q.55915 0 .81456.2346.26231.2278.26231.6696t-.26231.6766q-.25541.2346-.81456.2277zm-.65578-2.3608v4.9287h.65578v-2.0156h1.5048q.74553.01 1.1252-.3797.38656-.3866.38656-1.0769t-.38656-1.0699q-.37967-.3866-1.1252-.3866z"/>
</g>
<g transform="matrix(-.056001 .2686 -.34177 -.056063 7.9132 817.24)" aria-label="HTTP">
<path d="m276.6-1160.5v6.6273h1.4573v-2.8588h2.6825v2.8588h1.4573v-6.6273h-1.4573v2.5432h-2.6825v-2.5432z" fill="#fff"/>
<path d="m285.04-1159.6v5.648h1.5236v-5.648h2.0768v-1.281h-5.6771v1.281z"/>
<path d="m291.05-1159.8v5.8653h1.5822v-5.8653h2.1566v-1.3302h-5.8955v1.3302z"/>
<path d="m297.37-1158v-2.3164h1.3206q.29225 0 .56286.043t.47627.1732q.20566.1191.32472.3464.12989.2273.12989.5953 0 .3681-.12989.5954-.11906.2273-.32472.3572-.20566.119-.47627.1623-.27061.043-.56286.043zm-1.6994-3.6369v7.7285h1.6994v-2.771h1.786q.72523 0 1.234-.2057.50874-.2165.82265-.5628.32472-.3464.46544-.7902.15154-.4546.15154-.9201 0-.4762-.15154-.92-.14072-.4438-.46544-.7902-.31391-.3464-.82265-.552-.50873-.2165-1.234-.2165z"/>
</g>
<g transform="matrix(.1725 -.18528 .24302 .2075 650.06 1228.9)" aria-label="HTTP">
<path d="m276.2-1161v7.5863h1.6681v-3.2725h3.0706v3.2725h1.6681v-7.5863h-1.6681v2.9112h-3.0706v-2.9112z" fill="#fff"/>
<path d="m286.45-1159.3v5.1622h1.3926v-5.1622h1.8981v-1.1708h-5.1888v1.1708z"/>
<path d="m293.54-1159.3v4.8937h1.3201v-4.8937h1.7994v-1.1098h-4.9189v1.1098z"/>
<path d="m299.59-1157.8v-1.2741h.72632q.16074 0 .30958.024.14883.024.26195.095.11312.066.1786.1906.0715.125.0715.3274t-.0715.3275q-.0655.125-.1786.1965-.11312.066-.26195.089-.14884.024-.30958.024zm-.93469-2.0004v4.2509h.93469v-1.5241h.98232q.39888 0 .67869-.1132.27982-.119.45247-.3095.1786-.1906.25599-.4347.0833-.25.0833-.506 0-.262-.0833-.506-.0774-.2441-.25599-.4347-.17265-.1905-.45247-.3036-.27981-.1191-.67869-.1191z"/>
</g>
<g transform="matrix(.18711 -.20068 .26322 .22509 630.92 1300.3)" aria-label="HTTP">
<path d="m276.99-1159.3v4.0675h.8944v-1.7546h1.6464v1.7546h.89441v-4.0675h-.89441v1.5609h-1.6464v-1.5609z" fill="#fff"/>
<path d="m284.14-1159v3.996h1.078v-3.996h1.4693v-.9063h-4.0166v.9063z"/>
<path d="m290.42-1159.6v5.185h1.3987v-5.185h1.9065v-1.1759h-5.2117v1.1759z"/>
<path d="m297.56-1158v-2.6457h1.5083q.33379 0 .64287.049t.54398.1979q.23489.136.37088.3956.14835.2596.14835.6799 0 .4205-.14835.6801-.13599.2596-.37088.4079-.2349.136-.54398.1854-.30908.049-.64287.049zm-1.941-4.1539v8.8272h1.941v-3.165h2.0399q.82833 0 1.4094-.2349.58106-.2473.93959-.6428.37088-.3956.5316-.9025.17309-.5193.17309-1.0509 0-.5439-.17309-1.0508-.16072-.5069-.5316-.9025-.35853-.3957-.93959-.6305-.58105-.2473-1.4094-.2473z"/>
</g>
<g transform="matrix(-.050076 .31789 -.40277 -.03883 -59.063 759.24)" aria-label="HTTP">
<path d="m596.1-1223.4v5.7541h.7656v-2.6353h3.0302v2.6353h.7656v-5.7541h-.7656v2.4741h-3.0302v-2.4741z" fill="#fff"/>
<path d="m603.32-1223v5.342h.80045v-5.342h2.0054v-.674h-4.8112v.674z"/>
<path d="m608.16-1223v5.3417h.80041v-5.3417h2.0052v-.674h-4.8109v.674z"/>
<path d="m612.37-1220.7v-2.1102h1.4981q.65239 0 .95039.2738.30606.2658.30606.7813 0 .5154-.30606.7893-.298.2738-.95039.2658zm-.76514-2.7545v5.7506h.76514v-2.3518h1.7558q.86985.01 1.3128-.443.45103-.451.45103-1.2564t-.45103-1.2484q-.44298-.451-1.3128-.451z"/>
</g>
<g transform="matrix(-.022429 .14238 -.1804 -.017392 197.68 894.17)" aria-label="HTTP">
<path d="m596.1-1223.4v5.7541h.7656v-2.6353h3.0302v2.6353h.7656v-5.7541h-.7656v2.4741h-3.0302v-2.4741z" fill="#fff"/>
<path d="m603.32-1223v5.342h.80045v-5.342h2.0054v-.674h-4.8112v.674z"/>
<path d="m608.16-1223v5.3417h.80041v-5.3417h2.0052v-.674h-4.8109v.674z"/>
<path d="m612.37-1220.7v-2.1102h1.4981q.65239 0 .95039.2738.30606.2658.30606.7813 0 .5154-.30606.7893-.298.2738-.95039.2658zm-.76514-2.7545v5.7506h.76514v-2.3518h1.7558q.86985.01 1.3128-.443.45103-.451.45103-1.2564t-.45103-1.2484q-.44298-.451-1.3128-.451z"/>
</g>
<g transform="matrix(-.017245 .10948 -.13871 -.013372 245.89 919.57)" aria-label="HTTP">
<path d="m553.88-1223.6v8.1833h1.7994v-3.5301h3.3123v3.5301h1.7994v-8.1833h-1.7994v3.1404h-3.3123v-3.1404z" fill="#fff"/>
<path d="m564.29-1222.4v6.9741h1.8813v-6.9741h2.5644v-1.5817h-7.01v1.5817z"/>
<path d="m571.62-1222.4v6.9737h1.8812v-6.9737h2.5642v-1.5816h-7.0096v1.5816z"/>
<path d="m578.81-1219.8v-2.4513h1.3974q.30926 0 .59562.046t.50399.1832q.21763.126.34363.3666.13745.2405.13745.63 0 .3894-.13745.6299-.126.2406-.34363.378-.21763.126-.50399.1718-.28636.046-.59562.046zm-1.7983-3.8487v8.1784h1.7983v-2.9323h1.89q.76744 0 1.3058-.2176.53836-.2291.87053-.5957.34363-.3665.49254-.8361.16036-.4811.16036-.9736 0-.504-.16036-.9737-.14891-.4696-.49254-.8361-.33217-.3666-.87053-.5842-.53835-.2291-1.3058-.2291z"/>
</g>
<g transform="matrix(-.032586 .15101 -.19199 -.029488 196.99 830.64)" aria-label="HTTP">
<path d="m553.88-1223.6v8.1833h1.7994v-3.5301h3.3123v3.5301h1.7994v-8.1833h-1.7994v3.1404h-3.3123v-3.1404z" fill="#fff"/>
<path d="m564.29-1222.4v6.9741h1.8813v-6.9741h2.5644v-1.5817h-7.01v1.5817z"/>
<path d="m571.62-1222.4v6.9737h1.8812v-6.9737h2.5642v-1.5816h-7.0096v1.5816z"/>
<path d="m578.81-1219.8v-2.4513h1.3974q.30926 0 .59562.046t.50399.1832q.21763.126.34363.3666.13745.2405.13745.63 0 .3894-.13745.6299-.126.2406-.34363.378-.21763.126-.50399.1718-.28636.046-.59562.046zm-1.7983-3.8487v8.1784h1.7983v-2.9323h1.89q.76744 0 1.3058-.2176.53836-.2291.87053-.5957.34363-.3665.49254-.8361.16036-.4811.16036-.9736 0-.504-.16036-.9737-.14891-.4696-.49254-.8361-.33217-.3666-.87053-.5842-.53835-.2291-1.3058-.2291z"/>
</g>
<g transform="matrix(-.040516 .3059 -.3059 -.040516 731.99 956.85)" dominant-baseline="auto" style="font-feature-settings:normal;font-variant-alternates:normal;font-variant-caps:normal;font-variant-ligatures:normal;font-variant-numeric:normal;font-variant-position:normal;shape-padding:0;text-decoration-color:#000000;text-decoration-line:none;text-decoration-style:solid;text-indent:0;text-orientation:mixed;text-transform:none;white-space:normal" aria-label="HTTP">
<g stroke-width=".2748">
<path d="m389.17 1033.4h.91026v2.7443h2.4797v-2.7443h.91027v6.6948h-.91027v-3.1882h-2.4797v3.1882h-.91026z"/>
<path d="m395.41 1033.8h4.9419v.7376h-2.0262v5.7402h-.88077v-5.7402h-2.0349z"/>
<path d="m401.98 1034h4.5638v.6811h-1.8712v5.3009h-.81339v-5.3009h-1.8792z"/>
</g>
<path d="m408.77 1034.6v1.9925h.83106q.49723 0 .77424-.2628.28057-.2629.28057-.7353 0-.4723-.277-.7315-.27703-.2629-.77781-.2629zm-.7174-.5895h1.5485q.8879 0 1.346.4049.45815.4012.45815 1.179 0 .785-.45815 1.1863-.4546.4014-1.346.4014h-.83106v2.1308h-.7174z" stroke-width=".2748"/>
</g>
<g transform="matrix(-.040516 .3059 -.3059 -.040516 733.1 948.66)" dominant-baseline="auto" style="font-feature-settings:normal;font-variant-alternates:normal;font-variant-caps:normal;font-variant-ligatures:normal;font-variant-numeric:normal;font-variant-position:normal;shape-padding:0;text-decoration-color:#000000;text-decoration-line:none;text-decoration-style:solid;text-indent:0;text-orientation:mixed;text-transform:none;white-space:normal" aria-label="HTTP">
<g stroke-width=".2748">
<path d="m389.17 1033.4h.91026v2.7443h2.4797v-2.7443h.91027v6.6948h-.91027v-3.1882h-2.4797v3.1882h-.91026z"/>
<path d="m395.41 1033.8h4.9419v.7376h-2.0262v5.7402h-.88077v-5.7402h-2.0349z"/>
<path d="m401.98 1034h4.5638v.6811h-1.8712v5.3009h-.81339v-5.3009h-1.8792z"/>
</g>
<path d="m409.53 1034.5v2.2592h.94228q.56378 0 .87786-.298.31812-.2981.31812-.8337 0-.5355-.31407-.8294-.31411-.2981-.88191-.2981zm-.81342-.6684h1.7557q1.0067 0 1.5262.4591.51946.4549.51946 1.3368 0 .8901-.51946 1.3451-.51544.4551-1.5262.4551h-.94228v2.416h-.81342z" stroke-width=".2748"/>
</g>
</g>
<path d="m398.62 878.34.52627-.43705-.0616-1.4687z"/>
<path d="m397.77 1041.4.83969.1105-.48613 1.6572z"/>
<g transform="rotate(95.089 11.345 2.0715)" dominant-baseline="auto" stroke-width=".084795" style="font-feature-settings:normal;font-variant-alternates:normal;font-variant-caps:normal;font-variant-ligatures:normal;font-variant-numeric:normal;font-variant-position:normal;shape-padding:0;text-decoration-color:#000000;text-decoration-line:none;text-decoration-style:solid;text-indent:0;text-orientation:mixed;text-transform:none;white-space:normal" aria-label="HTTP">
<path d="m852.51-460.65h-.29352v-.80599h-.82434v.80599h-.29231v-1.7881h.29231v.73138h.82434v-.73138h.29352z"/>
<path d="m853.96-460.47h-.35042v-1.843h-.63047v-.30058h1.6114v.30058h-.63046z"/>
<path d="m856.12-460.3h-.40616v-2.1362h-.73078v-.3484h1.8677v.3484h-.73079z"/>
<path d="m859.21-462.06q0 .41455-.27154.63541-.27154.22085-.77299.22085h-.27516v.99022h-.43266v-2.6466h.76213q.49601 0 .74221.20275.24801.20276.24801.5974zm-1.3197.49239h.2299q.33309 0 .48878-.11585.15568-.11586.15568-.36206 0-.2281-.13939-.34033-.13939-.11224-.43447-.11224h-.3005z"/>
</g>
</g>
<g transform="matrix(2.7322 -1.251 1.251 2.7322 -1271.4 -2169.9)">
<g>
<g transform="matrix(-.042645 .33964 -.43064 -.035368 -88.772 754.46)" aria-label="HTTP">
<path d="m276.6-1160.5v6.6273h1.4573v-2.8588h2.6825v2.8588h1.4573v-6.6273h-1.4573v2.5432h-2.6825v-2.5432z" fill="#fff"/>
<path d="m286.41-1159.6v5.648h1.5236v-5.648h2.0768v-1.281h-5.6771v1.281z"/>
<path d="m293.71-1159.9v5.8653h1.5822v-5.8653h2.1566v-1.3302h-5.8955v1.3302z"/>
<path d="m301.23-1158.1v-2.3164h1.3206q.29225 0 .56286.043t.47627.1732q.20566.1191.32472.3464.12989.2273.12989.5953 0 .3681-.12989.5954-.11906.2273-.32472.3572-.20566.119-.47627.1623-.27061.043-.56286.043zm-1.6994-3.6369v7.7285h1.6994v-2.771h1.786q.72523 0 1.234-.2057.50874-.2165.82265-.5628.32472-.3464.46544-.7902.15154-.4546.15154-.9201 0-.4762-.15154-.92-.14072-.4438-.46544-.7902-.31391-.3464-.82265-.552-.50873-.2165-1.234-.2165z"/>
</g>
<g transform="matrix(-.043405 .33982 -.43058 -.033519 -91.072 764.67)" aria-label="HTTP">
<path d="m289.63-1166.3v8.9388h1.9655v-3.8559h3.6181v3.8559h1.9655v-8.9388h-1.9655v3.4303h-3.6181v-3.4303z" fill="#fff"/>
<path d="m301.29-1165v7.6179h2.055v-7.6179h2.8011v-1.7278h-7.6572v1.7278z"/>
<path d="m310.89-1165.2v7.9109h2.134v-7.9109h2.9088v-1.7943h-7.9517v1.7943z"/>
<path d="m320.02-1162.7v-3.1243h1.7812q.39418 0 .75917.058t.64238.2336q.2774.1606.43799.4672.1752.3065.1752.8029t-.1752.803q-.16059.3066-.43799.4818-.27739.1606-.64238.219-.36499.058-.75917.058zm-2.2921-4.9055v10.424h2.2921v-3.7375h2.4089q.97817 0 1.6644-.2774.68618-.292 1.1096-.7591.43798-.4672.62778-1.0658.20439-.6132.20439-1.241 0-.6424-.20439-1.2409-.1898-.5986-.62778-1.0658-.42339-.4672-1.1096-.7446-.68618-.292-1.6644-.292z"/>
</g>
<g transform="matrix(-.041694 .33995 -.43074 -.032168 -91.228 765.42)" aria-label="HTTP">
<path d="m337.99-1167.1v12.007h2.6403v-5.1797h4.8601v5.1797h2.6403v-12.007h-2.6403v4.6079h-4.8601v-4.6079z" fill="#fff"/>
<path d="m353.27-1165.3v10.233h2.7604v-10.233h3.7627v-2.3209h-10.286v2.3209z"/>
<path d="m364.17-1165.7v10.627h2.8666v-10.627h3.9074v-2.4102h-10.681v2.4102z"/>
<path d="m375.62-1162.5v-4.1968h2.3926q.5295 0 1.0198.078.49028.079.86289.3138.37262.2157.58834.6276.23534.4118.23534 1.0786t-.23534 1.0786q-.21572.4119-.58834.6472-.37261.2157-.86289.2942-.49029.078-1.0198.078zm-3.079-6.5894v14.002h3.079v-5.0205h3.2359q1.314 0 2.2357-.3726.92173-.3923 1.4905-1.0198.58834-.6276.84328-1.4316.27456-.8237.27456-1.667 0-.8629-.27456-1.667-.25494-.804-.84328-1.4316-.56873-.6275-1.4905-1.0002-.92173-.3922-2.2357-.3922z"/>
</g>
<g transform="matrix(-.041694 .33995 -.43074 -.032168 -91.228 765.42)" aria-label="HTTP">
<path d="m390.67-1170.2v16.2h3.5621v-6.988h6.557v6.988h3.5621v-16.2h-3.5621v6.2167h-6.557v-6.2167z" fill="#fff"/>
<path d="m411.29-1167.8v13.806h3.7242v-13.806h5.0764v-3.1312h-13.877v3.1312z"/>
<path d="m425.99-1168.3v14.337h3.8675v-14.337h5.2716v-3.2517h-14.411v3.2517z"/>
<path d="m441.44-1164v-5.6621h3.2279q.71438 0 1.3758.1059.66146.1058 1.1642.4233.50271.291.79375.8467.31751.5556.31751 1.4552t-.31751 1.4552q-.29104.5556-.79375.8731-.50271.2911-1.1642.3969t-1.3758.1058zm-4.154-8.89v18.891h4.154v-6.7733h4.3656q1.7727 0 3.0163-.5027 1.2435-.5292 2.0108-1.3759.79375-.8467 1.1377-1.9314.37042-1.1113.37042-2.249 0-1.1642-.37042-2.249-.34396-1.0848-1.1377-1.9315-.7673-.8466-2.0108-1.3493-1.2436-.5292-3.0163-.5292z"/>
</g>
<g transform="matrix(.2646 -.27065 .34244 .20821 -91.228 765.42)" aria-label="HTTP">
<path d="m177.15 1237.3v16.2h3.5621v-6.988h6.557v6.988h3.5621v-16.2h-3.5621v6.2167h-6.557v-6.2167z" fill="#fff"/>
<path d="m197.77 1239.7v13.806h3.7242v-13.806h5.0764v-3.1312h-13.877v3.1312z"/>
<path d="m212.47 1239.2v14.337h3.8675v-14.337h5.2716v-3.2516h-14.411v3.2516z"/>
<path d="m227.92 1243.5v-5.6621h3.2279q.71438 0 1.3758.1059.66146.1058 1.1642.4233.50272.291.79376.8467.3175.5556.3175 1.4552t-.3175 1.4552q-.29104.5556-.79376.8731-.50271.2911-1.1642.3969t-1.3758.1058zm-4.154-8.89v18.891h4.154v-6.7733h4.3656q1.7727 0 3.0163-.5027 1.2436-.5292 2.0108-1.3759.79376-.8466 1.1377-1.9314.37041-1.1113.37041-2.249 0-1.1642-.37041-2.249-.34396-1.0848-1.1377-1.9314-.76729-.8467-2.0108-1.3494-1.2436-.5292-3.0163-.5292z"/>
</g>
<g transform="matrix(.2646 -.27065 .34244 .20821 -91.228 765.42)" aria-label="HTTP">
<path d="m250.08 1233.5v16.2h3.5621v-6.988h6.557v6.988h3.5621v-16.2h-3.5621v6.2167h-6.557v-6.2167z" fill="#fff"/>
<path d="m270.69 1235.8v13.806h3.7243v-13.806h5.0764v-3.1312h-13.877v3.1312z"/>
<path d="m285.4 1235.3v14.337h3.8675v-14.337h5.2716v-3.2516h-14.411v3.2516z"/>
<path d="m300.85 1239.7v-5.6621h3.2279q.71437 0 1.3758.1059.66147.1058 1.1642.4233.50271.291.79375.8467.3175.5556.3175 1.4552t-.3175 1.4552q-.29104.5556-.79375.8731-.50271.2911-1.1642.3969-.66146.1058-1.3758.1058zm-4.154-8.89v18.891h4.154v-6.7733h4.3656q1.7727 0 3.0163-.5027 1.2436-.5292 2.0108-1.3759.79376-.8466 1.1377-1.9314.37042-1.1113.37042-2.249 0-1.1642-.37042-2.249-.34396-1.0848-1.1377-1.9314-.76729-.8467-2.0108-1.3494-1.2436-.5292-3.0163-.5292z"/>
</g>
<g transform="matrix(-.053394 .33895 -.42945 -.041403 -91.228 765.42)" aria-label="HTTP">
<path d="m417.78-1225.2v16.2h3.5621v-6.9881h6.557v6.9881h3.5621v-16.2h-3.5621v6.2166h-6.557v-6.2166z" fill="#fff"/>
<path d="m438.4-1222.8v13.806h3.7243v-13.806h5.0764v-3.1312h-13.877v3.1312z"/>
<path d="m452.9-1222.8v13.805h3.724v-13.805h5.0761v-3.131h-13.876v3.131z"/>
<path d="m467.14-1217.5v-4.8525h2.7663q.61222 0 1.1791.091t.9977.3628q.43082.2495.68024.7256.2721.4762.2721 1.2472 0 .7709-.2721 1.2471-.24942.4762-.68024.7482-.43083.2495-.9977.3402-.56687.091-1.1791.091zm-3.56-7.6188v16.19h3.56v-5.8048h3.7414q1.5192 0 2.5849-.4308 1.0657-.4535 1.7233-1.1791.68024-.7256.97502-1.6553.31745-.9523.31745-1.9273 0-.9977-.31745-1.9274-.29478-.9297-.97502-1.6553-.65758-.7256-1.7233-1.1564-1.0657-.4535-2.5849-.4535z"/>
</g>
<g transform="matrix(-.053394 .33895 -.42945 -.041403 -91.228 765.42)" aria-label="HTTP">
<path d="m484.71-1224.6v12.556h2.7609v-5.4162h5.0821v5.4162h2.7609v-12.556h-2.7609v4.8184h-5.0821v-4.8184z" fill="#fff"/>
<path d="m500.68-1222.7v10.7h2.8866v-10.7h3.9346v-2.427h-10.756v2.427z"/>
<path d="m511.92-1222.7v10.7h2.8864v-10.7h3.9343v-2.4268h-10.755v2.4268z"/>
<path d="m522.96-1218.7v-3.7609h2.1441q.47451 0 .91388.07.43936.07.77328.2812.33392.1933.52724.5623.2109.3691.2109.9667 0 .5975-.2109.9666-.19332.369-.52724.5799-.33392.1933-.77328.2636-.43937.07-.91388.07zm-2.7592-5.905v12.548h2.7592v-4.4991h2.8998q1.1775 0 2.0035-.3339.82601-.3515 1.3357-.9139.52723-.5623.75571-1.2829.24604-.7381.24604-1.4938 0-.7733-.24604-1.4939-.22848-.7206-.75571-1.2829-.50967-.5624-1.3357-.8963-.826-.3515-2.0035-.3515z"/>
</g>
<g transform="matrix(-.053394 .33895 -.42945 -.041403 -91.228 765.42)" aria-label="HTTP">
<path d="m553.88-1223.6v8.1833h1.7994v-3.5301h3.3123v3.5301h1.7994v-8.1833h-1.7994v3.1404h-3.3123v-3.1404z" fill="#fff"/>
<path d="m564.29-1222.4v6.9741h1.8813v-6.9741h2.5644v-1.5817h-7.01v1.5817z"/>
<path d="m571.62-1222.4v6.9737h1.8812v-6.9737h2.5642v-1.5816h-7.0096v1.5816z"/>
<path d="m578.81-1219.8v-2.4513h1.3974q.30926 0 .59562.046t.50399.1832q.21763.126.34363.3666.13745.2405.13745.63 0 .3894-.13745.6299-.126.2406-.34363.378-.21763.126-.50399.1718-.28636.046-.59562.046zm-1.7983-3.8487v8.1784h1.7983v-2.9323h1.89q.76744 0 1.3058-.2176.53836-.2291.87053-.5957.34363-.3665.49254-.8361.16036-.4811.16036-.9736 0-.504-.16036-.9737-.14891-.4696-.49254-.8361-.33217-.3666-.87053-.5842-.53835-.2291-1.3058-.2291z"/>
</g>
<g transform="matrix(-.070382 .44679 -.56608 -.054575 -247.51 682.06)" aria-label="HTTP">
<path d="m596.1-1223.4v5.7541h.7656v-2.6353h3.0302v2.6353h.7656v-5.7541h-.7656v2.4741h-3.0302v-2.4741z" fill="#fff"/>
<path d="m603.94-1222.8v5.1867h.77718v-5.1867h1.947v-.6544h-4.6713v.6544z"/>
<path d="m609.87-1222.7v4.5782h.68601v-4.5782h1.7186v-.5777h-4.1233v.5777z"/>
<path d="m614.36-1220.8v-1.8085h1.284q.55915 0 .81456.2346.26231.2278.26231.6696t-.26231.6766q-.25541.2346-.81456.2277zm-.65578-2.3608v4.9287h.65578v-2.0156h1.5048q.74553.01 1.1252-.3797.38656-.3866.38656-1.0769t-.38656-1.0699q-.37967-.3866-1.1252-.3866z"/>
</g>
<g transform="matrix(-.056001 .2686 -.34177 -.056063 7.9132 817.24)" aria-label="HTTP">
<path d="m276.6-1160.5v6.6273h1.4573v-2.8588h2.6825v2.8588h1.4573v-6.6273h-1.4573v2.5432h-2.6825v-2.5432z" fill="#fff"/>
<path d="m285.04-1159.6v5.648h1.5236v-5.648h2.0768v-1.281h-5.6771v1.281z"/>
<path d="m291.05-1159.8v5.8653h1.5822v-5.8653h2.1566v-1.3302h-5.8955v1.3302z"/>
<path d="m297.37-1158v-2.3164h1.3206q.29225 0 .56286.043t.47627.1732q.20566.1191.32472.3464.12989.2273.12989.5953 0 .3681-.12989.5954-.11906.2273-.32472.3572-.20566.119-.47627.1623-.27061.043-.56286.043zm-1.6994-3.6369v7.7285h1.6994v-2.771h1.786q.72523 0 1.234-.2057.50874-.2165.82265-.5628.32472-.3464.46544-.7902.15154-.4546.15154-.9201 0-.4762-.15154-.92-.14072-.4438-.46544-.7902-.31391-.3464-.82265-.552-.50873-.2165-1.234-.2165z"/>
</g>
<g transform="matrix(.1725 -.18528 .24302 .2075 650.06 1228.9)" aria-label="HTTP">
<path d="m276.2-1161v7.5863h1.6681v-3.2725h3.0706v3.2725h1.6681v-7.5863h-1.6681v2.9112h-3.0706v-2.9112z" fill="#fff"/>
<path d="m286.45-1159.3v5.1622h1.3926v-5.1622h1.8981v-1.1708h-5.1888v1.1708z"/>
<path d="m293.54-1159.3v4.8937h1.3201v-4.8937h1.7994v-1.1098h-4.9189v1.1098z"/>
<path d="m299.59-1157.8v-1.2741h.72632q.16074 0 .30958.024.14883.024.26195.095.11312.066.1786.1906.0715.125.0715.3274t-.0715.3275q-.0655.125-.1786.1965-.11312.066-.26195.089-.14884.024-.30958.024zm-.93469-2.0004v4.2509h.93469v-1.5241h.98232q.39888 0 .67869-.1132.27982-.119.45247-.3095.1786-.1906.25599-.4347.0833-.25.0833-.506 0-.262-.0833-.506-.0774-.2441-.25599-.4347-.17265-.1905-.45247-.3036-.27981-.1191-.67869-.1191z"/>
</g>
<g transform="matrix(.18711 -.20068 .26322 .22509 630.92 1300.3)" aria-label="HTTP">
<path d="m276.99-1159.3v4.0675h.8944v-1.7546h1.6464v1.7546h.89441v-4.0675h-.89441v1.5609h-1.6464v-1.5609z" fill="#fff"/>
<path d="m284.14-1159v3.996h1.078v-3.996h1.4693v-.9063h-4.0166v.9063z"/>
<path d="m290.42-1159.6v5.185h1.3987v-5.185h1.9065v-1.1759h-5.2117v1.1759z"/>
<path d="m297.56-1158v-2.6457h1.5083q.33379 0 .64287.049t.54398.1979q.23489.136.37088.3956.14835.2596.14835.6799 0 .4205-.14835.6801-.13599.2596-.37088.4079-.2349.136-.54398.1854-.30908.049-.64287.049zm-1.941-4.1539v8.8272h1.941v-3.165h2.0399q.82833 0 1.4094-.2349.58106-.2473.93959-.6428.37088-.3956.5316-.9025.17309-.5193.17309-1.0509 0-.5439-.17309-1.0508-.16072-.5069-.5316-.9025-.35853-.3957-.93959-.6305-.58105-.2473-1.4094-.2473z"/>
</g>
<g transform="matrix(-.050076 .31789 -.40277 -.03883 -59.063 759.24)" aria-label="HTTP">
<path d="m596.1-1223.4v5.7541h.7656v-2.6353h3.0302v2.6353h.7656v-5.7541h-.7656v2.4741h-3.0302v-2.4741z" fill="#fff"/>
<path d="m603.32-1223v5.342h.80045v-5.342h2.0054v-.674h-4.8112v.674z"/>
<path d="m608.16-1223v5.3417h.80041v-5.3417h2.0052v-.674h-4.8109v.674z"/>
<path d="m612.37-1220.7v-2.1102h1.4981q.65239 0 .95039.2738.30606.2658.30606.7813 0 .5154-.30606.7893-.298.2738-.95039.2658zm-.76514-2.7545v5.7506h.76514v-2.3518h1.7558q.86985.01 1.3128-.443.45103-.451.45103-1.2564t-.45103-1.2484q-.44298-.451-1.3128-.451z"/>
</g>
<g transform="matrix(-.022429 .14238 -.1804 -.017392 197.68 894.17)" aria-label="HTTP">
<path d="m596.1-1223.4v5.7541h.7656v-2.6353h3.0302v2.6353h.7656v-5.7541h-.7656v2.4741h-3.0302v-2.4741z" fill="#fff"/>
<path d="m603.32-1223v5.342h.80045v-5.342h2.0054v-.674h-4.8112v.674z"/>
<path d="m608.16-1223v5.3417h.80041v-5.3417h2.0052v-.674h-4.8109v.674z"/>
<path d="m612.37-1220.7v-2.1102h1.4981q.65239 0 .95039.2738.30606.2658.30606.7813 0 .5154-.30606.7893-.298.2738-.95039.2658zm-.76514-2.7545v5.7506h.76514v-2.3518h1.7558q.86985.01 1.3128-.443.45103-.451.45103-1.2564t-.45103-1.2484q-.44298-.451-1.3128-.451z"/>
</g>
<g transform="matrix(-.017245 .10948 -.13871 -.013372 245.89 919.57)" aria-label="HTTP">
<path d="m553.88-1223.6v8.1833h1.7994v-3.5301h3.3123v3.5301h1.7994v-8.1833h-1.7994v3.1404h-3.3123v-3.1404z" fill="#fff"/>
<path d="m564.29-1222.4v6.9741h1.8813v-6.9741h2.5644v-1.5817h-7.01v1.5817z"/>
<path d="m571.62-1222.4v6.9737h1.8812v-6.9737h2.5642v-1.5816h-7.0096v1.5816z"/>
<path d="m578.81-1219.8v-2.4513h1.3974q.30926 0 .59562.046t.50399.1832q.21763.126.34363.3666.13745.2405.13745.63 0 .3894-.13745.6299-.126.2406-.34363.378-.21763.126-.50399.1718-.28636.046-.59562.046zm-1.7983-3.8487v8.1784h1.7983v-2.9323h1.89q.76744 0 1.3058-.2176.53836-.2291.87053-.5957.34363-.3665.49254-.8361.16036-.4811.16036-.9736 0-.504-.16036-.9737-.14891-.4696-.49254-.8361-.33217-.3666-.87053-.5842-.53835-.2291-1.3058-.2291z"/>
</g>
<g transform="matrix(-.032586 .15101 -.19199 -.029488 196.99 830.64)" aria-label="HTTP">
<path d="m553.88-1223.6v8.1833h1.7994v-3.5301h3.3123v3.5301h1.7994v-8.1833h-1.7994v3.1404h-3.3123v-3.1404z" fill="#fff"/>
<path d="m564.29-1222.4v6.9741h1.8813v-6.9741h2.5644v-1.5817h-7.01v1.5817z"/>
<path d="m571.62-1222.4v6.9737h1.8812v-6.9737h2.5642v-1.5816h-7.0096v1.5816z"/>
<path d="m578.81-1219.8v-2.4513h1.3974q.30926 0 .59562.046t.50399.1832q.21763.126.34363.3666.13745.2405.13745.63 0 .3894-.13745.6299-.126.2406-.34363.378-.21763.126-.50399.1718-.28636.046-.59562.046zm-1.7983-3.8487v8.1784h1.7983v-2.9323h1.89q.76744 0 1.3058-.2176.53836-.2291.87053-.5957.34363-.3665.49254-.8361.16036-.4811.16036-.9736 0-.504-.16036-.9737-.14891-.4696-.49254-.8361-.33217-.3666-.87053-.5842-.53835-.2291-1.3058-.2291z"/>
</g>
<g transform="matrix(-.040516 .3059 -.3059 -.040516 731.99 956.85)" dominant-baseline="auto" style="font-feature-settings:normal;font-variant-alternates:normal;font-variant-caps:normal;font-variant-ligatures:normal;font-variant-numeric:normal;font-variant-position:normal;shape-padding:0;text-decoration-color:#000000;text-decoration-line:none;text-decoration-style:solid;text-indent:0;text-orientation:mixed;text-transform:none;white-space:normal" aria-label="HTTP">
<g stroke-width=".2748">
<path d="m389.17 1033.4h.91026v2.7443h2.4797v-2.7443h.91027v6.6948h-.91027v-3.1882h-2.4797v3.1882h-.91026z"/>
<path d="m395.41 1033.8h4.9419v.7376h-2.0262v5.7402h-.88077v-5.7402h-2.0349z"/>
<path d="m401.98 1034h4.5638v.6811h-1.8712v5.3009h-.81339v-5.3009h-1.8792z"/>
</g>
<path d="m408.77 1034.6v1.9925h.83106q.49723 0 .77424-.2628.28057-.2629.28057-.7353 0-.4723-.277-.7315-.27703-.2629-.77781-.2629zm-.7174-.5895h1.5485q.8879 0 1.346.4049.45815.4012.45815 1.179 0 .785-.45815 1.1863-.4546.4014-1.346.4014h-.83106v2.1308h-.7174z" stroke-width=".2748"/>
</g>
<g transform="matrix(-.040516 .3059 -.3059 -.040516 733.1 948.66)" dominant-baseline="auto" style="font-feature-settings:normal;font-variant-alternates:normal;font-variant-caps:normal;font-variant-ligatures:normal;font-variant-numeric:normal;font-variant-position:normal;shape-padding:0;text-decoration-color:#000000;text-decoration-line:none;text-decoration-style:solid;text-indent:0;text-orientation:mixed;text-transform:none;white-space:normal" aria-label="HTTP">
<g stroke-width=".2748">
<path d="m389.17 1033.4h.91026v2.7443h2.4797v-2.7443h.91027v6.6948h-.91027v-3.1882h-2.4797v3.1882h-.91026z"/>
<path d="m395.41 1033.8h4.9419v.7376h-2.0262v5.7402h-.88077v-5.7402h-2.0349z"/>
<path d="m401.98 1034h4.5638v.6811h-1.8712v5.3009h-.81339v-5.3009h-1.8792z"/>
</g>
<path d="m409.53 1034.5v2.2592h.94228q.56378 0 .87786-.298.31812-.2981.31812-.8337 0-.5355-.31407-.8294-.31411-.2981-.88191-.2981zm-.81342-.6684h1.7557q1.0067 0 1.5262.4591.51946.4549.51946 1.3368 0 .8901-.51946 1.3451-.51544.4551-1.5262.4551h-.94228v2.416h-.81342z" stroke-width=".2748"/>
</g>
</g>
<path d="m398.62 878.34.52627-.43705-.0616-1.4687z"/>
<path d="m397.77 1041.4.83969.1105-.48613 1.6572z"/>
<g transform="rotate(95.089 11.345 2.0715)" dominant-baseline="auto" stroke-width=".084795" style="font-feature-settings:normal;font-variant-alternates:normal;font-variant-caps:normal;font-variant-ligatures:normal;font-variant-numeric:normal;font-variant-position:normal;shape-padding:0;text-decoration-color:#000000;text-decoration-line:none;text-decoration-style:solid;text-indent:0;text-orientation:mixed;text-transform:none;white-space:normal" aria-label="HTTP">
<path d="m852.51-460.65h-.29352v-.80599h-.82434v.80599h-.29231v-1.7881h.29231v.73138h.82434v-.73138h.29352z"/>
<path d="m853.96-460.47h-.35042v-1.843h-.63047v-.30058h1.6114v.30058h-.63046z"/>
<path d="m856.12-460.3h-.40616v-2.1362h-.73078v-.3484h1.8677v.3484h-.73079z"/>
<path d="m859.21-462.06q0 .41455-.27154.63541-.27154.22085-.77299.22085h-.27516v.99022h-.43266v-2.6466h.76213q.49601 0 .74221.20275.24801.20276.24801.5974zm-1.3197.49239h.2299q.33309 0 .48878-.11585.15568-.11586.15568-.36206 0-.2281-.13939-.34033-.13939-.11224-.43447-.11224h-.3005z"/>
</g>
</g>
</g>
</g>
</svg>
