<svg width="720" height="806" version="1.1" viewBox="0 0 720 806" xmlns="http://www.w3.org/2000/svg" xmlns:xlink="http://www.w3.org/1999/xlink">
<defs>
<linearGradient id="a" x1="1181.4" x2="1193" y1="497.79" y2="485.76" gradientTransform="matrix(.12893 .074439 -.12893 .074438 263.1 378.55)" gradientUnits="userSpaceOnUse">
<stop stop-color="#1a1a1a" offset="0"/>
<stop stop-color="#1a1a1a" stop-opacity="0" offset="1"/>
</linearGradient>
<filter id="b" x="-.35755" y="-.20643" width="1.7151" height="1.4129" color-interpolation-filters="sRGB">
<feGaussianBlur stdDeviation="1.2901982"/>
</filter>
</defs>
<g transform="translate(0 -246.36)">
<g>
<path d="m0 246.36h720v806h-720z" fill="#f2f2f2"/>
<path d="m309.38 906.92 49.086 28.34 4.9086-116.19-53.995-25.506z" fill="#1a1a1a"/>
<path d="m309.38 793.57 49.086-28.34 49.086 28.34-19.634 34.008-29.452-5.668z" fill="#434343"/>
<path d="m358.46 935.26 49.086-28.34v-113.36l-49.086 28.34z" fill="#2c2c2c"/>
<path d="m317.45 808.4 6.5347 3.7726v7.5452l-6.5347-3.7726z" fill="#0f0"/>
<path d="m397.73 957.94 49.086 28.34 8.6023-9.3902-3.6937-106.8-53.995-25.506z" fill="#1a1a1a"/>
<path d="m397.73 844.58 49.086-28.34 49.086 28.34-19.634 34.008-29.452-5.668z" fill="#434343"/>
<path d="m446.82 986.28 49.086-28.34v-113.36l-49.086 28.34z" fill="#2c2c2c"/>
<path d="m405.81 859.41 6.5347 3.7726v7.5452l-6.5347-3.7726z" fill="#0f0"/>
<path d="m220.32 958.34 49.086 28.34 11.515-11.374-1.4181-102.43-59.183-27.9z" fill="#1a1a1a"/>
<path d="m220.32 844.98 49.086-28.34 49.086 28.34-19.634 34.008-29.452-5.668z" fill="#434343"/>
<path d="m269.41 986.68 49.086-28.34v-113.36l-49.086 28.34z" fill="#2c2c2c"/>
<path d="m228.4 859.82 6.5347 3.7726v7.5452l-6.5347-3.7726z" fill="#0f0"/>
<path d="m308.68 1009.4 49.086 28.34 8.4355-8.5019l-3.5268-107.69-53.995-25.506z" fill="#1a1a1a"/>
<path d="m308.68 895.99 49.086-28.34 49.086 28.34-19.634 34.008-29.452-5.668z" fill="#434343"/>
<path d="m357.77 1037.7 49.086-28.34v-113.36l-49.086 28.34z" fill="#2c2c2c"/>
<path d="m316.76 910.83 6.5347 3.7726v7.5452l-6.5347-3.7726z" fill="#0f0"/>
<g>
<g transform="matrix(.26939 -.42122 .42122 .26939 1009.8 831.71)" aria-label="HTTP Request">
<path d="m-395.29-1013.5v27.823h2.6498v-13.483h16.522v13.483h2.6498v-27.823h-2.6498v12.08h-16.522v-12.08z"/>
<path d="m-370.85-1013.5v2.2601h9.6639v25.563h2.6498v-25.563h9.7029v-2.2601z"/>
<path d="m-349.16-1013.5v2.2601h9.6639v25.563h2.6498v-25.563h9.7029v-2.2601z"/>
<path d="m-321.85-999.91v-11.378h9.1184q2.7667 0 4.4812 1.4028 1.7146 1.4029 1.7146 4.2864 0 2.8836-1.7146 4.2865-1.7146 1.4028-4.4812 1.4028zm-2.6498-13.639v27.823h2.6498v-11.924h9.7029q1.8704 0 3.3902-.50658 1.5197-.54554 2.6108-1.5587 1.0911-1.0521 1.6756-2.5329.58451-1.4807.58451-3.3512 0-1.8704-.58451-3.3512-.58451-1.4807-1.6756-2.4939-1.0911-1.0521-2.6108-1.5587-1.5197-.5455-3.3902-.5455z"/>
<path d="m-286.46-1000.3v-10.95h9.8977q3.0395 0 4.5202 1.4808 1.4808 1.4807 1.4808 4.0526 0 1.2859-.50657 2.299-.46761.9742-1.2859 1.6756-.81831.7015-1.9094 1.0911-1.0911.3507-2.2991.3507zm-2.6498-13.21v27.823h2.6498v-12.353h10.054q1.8704-.0779 2.9226.62348 1.0911.70141 1.6366 1.8704.58451 1.1301.74038 2.6108.19483 1.4418.27277 2.9226.039.42865.0779 1.0132.039.58451.0779 1.208.0779.58451.19484 1.169.15587.54554.38967.93522h2.9226q-.42865-.50658-.70142-1.4028-.2338-.93522-.3507-1.9484-.11691-1.0521-.15587-2.0653-.039-1.0132-.0779-1.7146-.0779-1.247-.35071-2.2991-.2338-1.0911-.81831-1.9094-.54554-.81831-1.4418-1.3249-.89626-.54554-2.2601-.74038v-.0779q2.6888-.54555 4.0526-2.4939 1.3638-1.9484 1.3638-4.5982 0-1.8704-.70141-3.2343-.66244-1.4028-1.8315-2.2601-1.13-.8962-2.6888-1.3249-1.5197-.4286-3.2343-.4286z"/>
<path d="m-249.1-997.18h-13.015q.15587-1.3639.62348-2.6498.50658-1.3249 1.3249-2.2991.81832-1.0131 1.9873-1.5976 1.169-.6235 2.6888-.6235 1.4808 0 2.6498.6235 1.169.5845 1.9873 1.5976.81831.9742 1.247 2.2602.46761 1.2859.50657 2.6888zm-13.015 2.0653h15.47q.0779-2.1042-.38968-4.1305-.4676-2.0652-1.5587-3.6239-1.0521-1.5977-2.7667-2.5719-1.7146-.9742-4.1305-.9742-2.377 0-4.1306.9352-1.7146.8963-2.8056 2.416-1.0911 1.4808-1.6366 3.3902-.50658 1.9094-.50658 3.8967 0 2.1432.50658 4.0916.54554 1.9094 1.6366 3.3902 1.0911 1.4418 2.8056 2.2991 1.7535.81832 4.1306.81832 3.8188 0 5.8841-1.8704 2.1042-1.8704 2.8836-5.2996h-2.4549q-.58451 2.338-2.1042 3.7409-1.5197 1.4028-4.2085 1.4028-1.7535 0-3.0005-.74038t-2.0653-1.8704q-.81832-1.1301-1.208-2.5329-.35071-1.4418-.35071-2.7667z"/>
<path d="m-225.62-978.32v-27.511h-2.2601v3.8188h-.0779q-.38967-1.0131-1.169-1.7925-.74038-.8183-1.7146-1.4028-.97419-.5845-2.1042-.8962-1.0911-.3118-2.1822-.3118-2.2991 0-4.0136.8573-1.6756.8573-2.8056 2.3381-1.1301 1.4417-1.6756 3.3901-.54554 1.9094-.54554 4.0526 0 2.1432.54554 4.0916.54554 1.9094 1.6756 3.3902 1.13 1.4418 2.8056 2.2991 1.7146.81832 4.0136.81832 1.1301 0 2.1822-.27277 1.0911-.27277 2.0263-.81832.93522-.54554 1.6366-1.3639.74038-.81831 1.1301-1.9094h.0779v11.223zm-16.094-17.457q0-1.5587.35071-3.0784.38967-1.5587 1.169-2.7667.81832-1.208 2.0653-1.9484 1.247-.7793 3.0005-.7793 1.9484 0 3.2733.7793 1.3639.7404 2.1822 1.9484.85728 1.208 1.208 2.7667.38967 1.5197.38967 3.0784 0 1.5587-.38967 3.1174-.35071 1.5197-1.208 2.7277-.81832 1.208-2.1822 1.9873-1.3249.74038-3.2733.74038-1.7535 0-3.0005-.74038-1.247-.77934-2.0653-1.9873-.77935-1.208-1.169-2.7277-.35071-1.5587-.35071-3.1174z"/>
<path d="m-204.64-985.73v-20.107h-2.455v10.56q0 1.5197-.3507 3.0005-.35071 1.4418-1.0911 2.5718-.74038 1.1301-1.8704 1.8315-1.1301.66244-2.7277.66244-2.9226 0-4.1306-1.4028-1.169-1.4028-1.247-4.1306v-13.093h-2.455v13.054q0 1.7925.38967 3.1953.38968 1.4028 1.208 2.377.85729.97419 2.1822 1.4808 1.3639.54554 3.2733.54554 2.2601 0 4.0916-1.0521 1.8704-1.0911 2.8446-3.1174h.0779v3.624z"/>
<path d="m-185.55-997.18h-13.015q.15587-1.3639.62348-2.6498.50657-1.3249 1.3249-2.2991.81832-1.0131 1.9873-1.5976 1.169-.6235 2.6888-.6235 1.4808 0 2.6498.6235 1.169.5845 1.9873 1.5976.81831.9742 1.247 2.2602.4676 1.2859.50657 2.6888zm-13.015 2.0653h15.47q.0779-2.1042-.38968-4.1305-.46761-2.0652-1.5587-3.6239-1.0521-1.5977-2.7667-2.5719-1.7146-.9742-4.1305-.9742-2.377 0-4.1306.9352-1.7146.8963-2.8056 2.416-1.0911 1.4808-1.6366 3.3902-.50658 1.9094-.50658 3.8967 0 2.1432.50658 4.0916.54554 1.9094 1.6366 3.3902 1.0911 1.4418 2.8056 2.2991 1.7535.81832 4.1306.81832 3.8188 0 5.8841-1.8704 2.1042-1.8704 2.8836-5.2996h-2.4549q-.58451 2.338-2.1042 3.7409-1.5197 1.4028-4.2085 1.4028-1.7535 0-3.0005-.74038-1.247-.74038-2.0653-1.8704-.81832-1.1301-1.208-2.5329-.35071-1.4418-.35071-2.7667z"/>
<path d="m-167.72-999.95h2.455q-.0779-1.6366-.66245-2.8446-.58451-1.208-1.5977-2.0263-.97418-.8183-2.2991-1.208-1.2859-.3897-2.8056-.3897-1.3249 0-2.6888.3118-1.3249.3117-2.416.9742-1.0911.6624-1.7925 1.7535-.66244 1.0911-.66244 2.6108 0 1.2859.42864 2.1822.42864.85729 1.169 1.4808.77935.58452 1.7925 1.0132 1.0132.38967 2.2211.70141l3.1564.70141q.81832.19484 1.5977.46761.81832.27277 1.4418.70142.62348.38967.97418 1.0132.38968.58451.38968 1.4808 0 1.0521-.54555 1.7925-.50657.70141-1.3249 1.169-.81831.46761-1.7925.66245-.93522.19483-1.8315.19483-2.4549 0-4.1305-1.247-1.6366-1.2859-1.7925-3.7798h-2.455q.31174 3.7019 2.4939 5.3775 2.2211 1.6756 5.7672 1.6756 1.4028 0 2.8446-.31174 1.4418-.31174 2.5718-1.0132 1.169-.74038 1.9094-1.8704.74038-1.169.74038-2.8056 0-1.3249-.50657-2.2991-.50658-.97418-1.3249-1.6366-.77935-.66244-1.8315-1.0521-1.0132-.42864-2.0653-.58451l-3.2733-.74038q-.62347-.15587-1.3638-.38967-.74039-.27278-1.3639-.66245-.62348-.38967-1.0521-.93522-.38968-.58452-.38968-1.4028 0-.9742.42864-1.6366.42865-.6625 1.1301-1.0522.70141-.4286 1.5197-.5845.85728-.1948 1.6756-.1948 1.0521 0 1.9873.2728.93522.2338 1.6366.7793.74038.5456 1.169 1.4028.42864.8184.4676 1.9484z"/>
<path d="m-157.14-1005.8v-6.0399h-2.4549v6.0399h-3.5071v2.0653h3.5071v13.756q-.039 2.5718.93521 3.546.97419.93522 3.4291.93522.54554 0 1.0911-.039.54555-.039 1.0911-.039v-2.0653q-1.0521.1169-2.1042.1169-1.3249-.0779-1.6756-.74038-.31174-.70142-.31174-1.9094v-13.561h4.0916v-2.0653z"/>
</g>
<g transform="matrix(.15203 -.23773 .23773 .15203 915.82 205.84)" stroke-width="7.5323" aria-label="HTTP Response">
<path d="m-2339.7-235.05v49.299h4.6952v-23.89h29.275v23.89h4.6951v-49.299h-4.6951v21.404h-29.275v-21.404z"/>
<path d="m-2296.4-235.05v4.0047h17.123v45.294h4.6951v-45.294h17.192v-4.0047z"/>
<path d="m-2258-235.05v4.0047h17.123v45.294h4.6951v-45.294h17.192v-4.0047z"/>
<path d="m-2209.6-210.88v-20.161h16.157q4.9022 0 7.9403 2.4856 3.038 2.4856 3.038 7.595t-3.038 7.595q-3.0381 2.4856-7.9403 2.4856zm-4.6952-24.166v49.299h4.6952v-21.128h17.192q3.3142 0 6.007-.89759 2.6928-.96665 4.626-2.7618 1.9333-1.8642 2.969-4.488 1.0357-2.6238 1.0357-5.938t-1.0357-5.938q-1.0357-2.6237-2.969-4.4189-1.9332-1.8642-4.626-2.7618-2.6928-.96664-6.007-.96664z"/>
<path d="m-2146.9-211.64v-19.402h17.538q5.3856 0 8.0093 2.6237 2.6238 2.6238 2.6238 7.1808 0 2.2785-.8976 4.0737-.8286 1.7262-2.2785 2.969-1.45 1.2428-3.3833 1.9333-1.9333.62142-4.0737.62142zm-4.6951-23.407v49.299h4.6951v-21.888h17.814q3.3142-.13809 5.1784 1.1047 1.9333 1.2428 2.8999 3.3142 1.0357 2.0023 1.3119 4.6261.3452 2.5547.4833 5.1784.069.75951.1381 1.7952.069 1.0357.1381 2.1404.1381 1.0357.3453 2.0714.2761.96665.6904 1.6571h5.1785q-.7596-.8976-1.2429-2.4857-.4142-1.6571-.6214-3.4523-.2071-1.8642-.2762-3.6594-.069-1.7952-.1381-3.038-.1381-2.2095-.6214-4.0737-.4142-1.9333-1.4499-3.3832-.9667-1.45-2.5547-2.3476-1.5881-.96664-4.0047-1.3119v-.13809q4.7642-.96665 7.1808-4.4189t2.4166-8.1474q0-3.3142-1.2428-5.7308-1.1738-2.4857-3.2452-4.0047-2.0023-1.588-4.7642-2.3476-2.6928-.7595-5.7308-.7595z"/>
<path d="m-2080.7-206.05h-23.061q.2761-2.4166 1.1047-4.6951.8976-2.3476 2.3476-4.0737 1.4499-1.7952 3.5213-2.8309 2.0714-1.1047 4.7642-1.1047 2.6237 0 4.6951 1.1047 2.0714 1.0357 3.5213 2.8309 1.45 1.7261 2.2095 4.0047.8285 2.2785.8976 4.7642zm-23.061 3.6594h27.411q.1381-3.7285-.6905-7.3189-.8285-3.6594-2.7618-6.4213-1.8643-2.8309-4.9023-4.557-3.038-1.7261-7.3188-1.7261-4.2118 0-7.3189 1.6571-3.038 1.588-4.9713 4.2808-1.9333 2.6238-2.8999 6.007-.8976 3.3832-.8976 6.9046 0 3.7975.8976 7.2498.9666 3.3832 2.8999 6.007 1.9333 2.5547 4.9713 4.0737 3.1071 1.45 7.3189 1.45 6.7665 0 10.426-3.3142 3.7285-3.3142 5.1094-9.3902h-4.3499q-1.0357 4.1428-3.7285 6.6284t-7.4569 2.4856q-3.1071 0-5.3166-1.3119-2.2094-1.3119-3.6594-3.3142t-2.1404-4.488q-.6214-2.5547-.6214-4.9022z"/>
<path d="m-2049.1-210.95h4.3498q-.138-2.8999-1.1737-5.0404-1.0357-2.1404-2.8309-3.5904-1.7262-1.45-4.0737-2.1404-2.2785-.69046-4.9713-.69046-2.3476 0-4.7642.55236-2.3476.55237-4.2808 1.7262-1.9333 1.1738-3.1762 3.1071-1.1737 1.9333-1.1737 4.6261 0 2.2785.7595 3.8666.7595 1.519 2.0713 2.6238 1.381 1.0357 3.1762 1.7952 1.7952.69046 3.9356 1.2428l5.5927 1.2428q1.45.34523 2.8309.82855 1.4499.48332 2.5547 1.2428 1.1047.69046 1.7261 1.7952.6905 1.0357.6905 2.6237 0 1.8642-.9667 3.1761-.8976 1.2428-2.3475 2.0714-1.45.82855-3.1761 1.1738-1.6571.34523-3.2452.34523-4.3499 0-7.3189-2.2095-2.8999-2.2785-3.1761-6.6974h-4.3499q.5524 6.5594 4.419 9.5283 3.9356 2.969 10.219 2.969 2.4856 0 5.0403-.55237t4.557-1.7952q2.0714-1.3119 3.3833-3.3142 1.3119-2.0714 1.3119-4.9713 0-2.3476-.8976-4.0737-.8976-1.7261-2.3476-2.8999-1.3809-1.1738-3.2451-1.8642-1.7952-.75951-3.6595-1.0357l-5.7998-1.3119q-1.1048-.27619-2.4166-.69046-1.3119-.48332-2.4166-1.1738-1.1048-.69046-1.8643-1.6571-.6904-1.0357-.6904-2.4857 0-1.7261.7595-2.8999t2.0023-1.8642q1.2428-.75951 2.6928-1.0357 1.519-.34523 2.969-.34523 1.8642 0 3.5213.48332 1.6571.41428 2.8999 1.3809 1.3119.96664 2.0714 2.4856.7595 1.45.8286 3.4523z"/>
<path d="m-2037.2-221.38v48.746h4.3499v-19.885h.1381q.6905 1.9333 1.9333 3.3832 1.3119 1.45 2.969 2.4166 1.6571.96665 3.5904 1.45t3.8665.48332q4.0738 0 7.0427-1.45 3.038-1.519 5.0404-4.0737 2.0023-2.6238 2.9689-6.007.9667-3.4523.9667-7.2498 0-3.7975-.9667-7.1808-.9666-3.4523-2.9689-6.007-2.0024-2.6237-5.0404-4.1428-2.9689-1.519-7.0427-1.519-4.3498 0-7.8021 2.0714-3.3833 2.0023-4.9023 5.7308h-.1381v-6.7665zm28.516 17.814q0 2.7618-.6905 5.5237-.6214 2.6928-2.0713 4.8332-1.381 2.1404-3.5904 3.5213-2.2095 1.3119-5.3166 1.3119-3.4522 0-5.8689-1.3119-2.3475-1.3809-3.8665-3.5213-1.45-2.1404-2.1404-4.8332-.6215-2.7618-.6215-5.5237 0-3.038.5524-5.7999.6214-2.7618 2.0714-4.8332 1.4499-2.0714 3.8666-3.3142 2.4166-1.2428 6.0069-1.2428 3.1071 0 5.3166 1.3809 2.2094 1.3119 3.5904 3.4523 1.4499 2.1404 2.0713 4.9023.6905 2.6928.6905 5.4546z"/>
<path d="m-1982.5-218.75q3.1071 0 5.4546 1.3119 2.3476 1.3119 3.8666 3.4523 1.5881 2.1404 2.3476 4.9022.8285 2.6928.8285 5.5237 0 2.8309-.8285 5.5927-.7595 2.6928-2.3476 4.8332-1.519 2.1404-3.8666 3.4523-2.3475 1.3119-5.4546 1.3119t-5.4546-1.3119q-2.3476-1.3119-3.9356-3.4523-1.519-2.1404-2.3476-4.8332-.7595-2.7618-.7595-5.5927 0-2.8309.7595-5.5237.8286-2.7618 2.3476-4.9022 1.588-2.1404 3.9356-3.4523 2.3475-1.3119 5.4546-1.3119zm0-3.6594q-4.0737 0-7.2498 1.519-3.1071 1.519-5.2475 4.0737-2.1404 2.5547-3.2451 6.007-1.1048 3.3832-1.1048 7.2498t1.1048 7.3189q1.1047 3.3832 3.2451 5.938 2.1404 2.5547 5.2475 4.0737 3.1761 1.45 7.2498 1.45t7.1808-1.45q3.1761-1.519 5.3165-4.0737 2.1404-2.5547 3.2452-5.938 1.1047-3.4523 1.1047-7.3189t-1.1047-7.2498q-1.1048-3.4523-3.2452-6.007-2.1404-2.5547-5.3165-4.0737-3.1071-1.519-7.1808-1.519z"/>
<path d="m-1959.2-221.38v35.628h4.3499v-20.783q.069-2.6237.8286-4.8332.8285-2.2785 2.2094-3.8666 1.45-1.6571 3.4523-2.5547 2.0714-.96664 4.6951-.96664 2.6238 0 4.3499.82855 1.7952.82855 2.8309 2.2785 1.0357 1.45 1.45 3.4523.4142 1.9333.4142 4.2118v22.233h4.3499v-22.923q0-3.1761-.6214-5.7308t-2.1404-4.2808q-1.519-1.7952-4.0737-2.7618-2.4857-.96664-6.2141-.96664-3.7976 0-6.9737 2.0023-3.1761 1.9333-4.4189 5.1784h-.1381v-6.1451z"/>
<path d="m-1900.7-210.95h4.3499q-.1381-2.8999-1.1738-5.0404-1.0357-2.1404-2.8309-3.5904-1.7261-1.45-4.0737-2.1404-2.2785-.69046-4.9713-.69046-2.3475 0-4.7641.55236-2.3476.55237-4.2809 1.7262t-3.1761 3.1071q-1.1738 1.9333-1.1738 4.6261 0 2.2785.7595 3.8666.7595 1.519 2.0714 2.6238 1.3809 1.0357 3.1761 1.7952 1.7952.69046 3.9356 1.2428l5.5928 1.2428q1.4499.34523 2.8308.82855 1.45.48332 2.5547 1.2428 1.1048.69046 1.7262 1.7952.6904 1.0357.6904 2.6237 0 1.8642-.9666 3.1761-.8976 1.2428-2.3476 2.0714-1.4499.82855-3.1761 1.1738-1.6571.34523-3.2451.34523-4.3499 0-7.3189-2.2095-2.8999-2.2785-3.1761-6.6974h-4.3499q.5524 6.5594 4.4189 9.5283 3.9357 2.969 10.219 2.969 2.4857 0 5.0404-.55237t4.557-1.7952q2.0714-1.3119 3.3833-3.3142 1.3118-2.0714 1.3118-4.9713 0-2.3476-.8976-4.0737-.8976-1.7261-2.3475-2.8999-1.3809-1.1738-3.2452-1.8642-1.7952-.75951-3.6594-1.0357l-5.7999-1.3119q-1.1047-.27619-2.4166-.69046-1.3119-.48332-2.4166-1.1738t-1.8642-1.6571q-.6905-1.0357-.6905-2.4857 0-1.7261.7595-2.8999t2.0024-1.8642q1.2428-.75951 2.6927-1.0357 1.5191-.34523 2.969-.34523 1.8643 0 3.5214.48332 1.6571.41428 2.8999 1.3809 1.3119.96664 2.0714 2.4856.7595 1.45.8285 3.4523z"/>
<path d="m-1863.3-206.05h-23.061q.2762-2.4166 1.1048-4.6951.8976-2.3476 2.3475-4.0737 1.45-1.7952 3.5214-2.8309 2.0713-1.1047 4.7641-1.1047 2.6238 0 4.6952 1.1047 2.0713 1.0357 3.5213 2.8309 1.45 1.7261 2.2095 4.0047.8285 2.2785.8976 4.7642zm-23.061 3.6594h27.411q.138-3.7285-.6905-7.3189-.8286-3.6594-2.7618-6.4213-1.8643-2.8309-4.9023-4.557-3.038-1.7261-7.3189-1.7261-4.2118 0-7.3188 1.6571-3.038 1.588-4.9713 4.2808-1.9333 2.6238-2.9 6.007-.8976 3.3832-.8976 6.9046 0 3.7975.8976 7.2498.9667 3.3832 2.9 6.007 1.9333 2.5547 4.9713 4.0737 3.107 1.45 7.3188 1.45 6.7665 0 10.426-3.3142 3.7284-3.3142 5.1094-9.3902h-4.3499q-1.0357 4.1428-3.7285 6.6284t-7.457 2.4856q-3.107 0-5.3165-1.3119t-3.6594-3.3142q-1.45-2.0023-2.1405-4.488-.6214-2.5547-.6214-4.9022z"/>
</g>
<path d="m366.17 464.94v-91.074" fill="#fff" stroke="#000" stroke-width="1.6931"/>
</g>
<path d="m367.63 467.98c-.53033-3e-5-1.0608.11705-1.4672.35163l-38.73 22.361c-.81261.46916-.81261 1.225 1e-5 1.6942l21.596 12.468c.81263.46917 2.1217.46917 2.9343 1e-5l38.73-22.361c.40727-.23514.61052-.5419.60957-.84877v-3.4038l-4.5535.28218-17.652-10.192c-.40631-.23459-.93682-.35159-1.4671-.35163z" fill="#2c2c2c"/>
<path d="m354.28 474.62-25.169 14.532-.0871-.79144-2.199-.22376.005 2.7436.009.56627c-.0411.33387.15129.67512.59523.93142l21.596 12.469c.81261.46916 2.1217.46916 2.9343 0l2.3159-1.3371v-28.889z" fill="url(#a)"/>
</g>
<g transform="matrix(.12893 .074439 -.12893 .074438 261.76 377.78)">
<path d="m1158.7 169.45-4.3674-4.3674-2.233 12.146 7.7281 4.3034z" fill="#202020"/>
<path d="m1133.4 165.08h20.97v7.7782h-20.97z" fill="#2c2c2c"/>
</g>
<g>
<path d="m369.1 464.94c-.81262-.46915-2.1213-.46931-2.9339-.00014l-38.73 22.361c-.8126.46916-.81234 1.2248.00027 1.6939l21.596 12.469c.81261.46916 2.1211.46916 2.9337 0l38.73-22.361c.81262-.46916.81262-1.2246 0-1.6938z" fill="#434343"/>
<path d="m367.66 466.68 20.021 11.559c.20032.11566.19692.30385-.008.42196l-34.535 19.939c-.20456.1181-.53052.12006-.73084.004l-20.021-11.559c-.20033-.11567-.19693-.30386.008-.42196l34.535-19.939c.20457-.11811.53052-.12007.73085-.005z"/>
<g transform="matrix(.4653 .26864 -.4653 .26864 0 526.18)" fill="#f3f3f3" stroke-width=".83127" aria-label="UA">
<path d="m291.82-476.05v10.172q0 1.2242.33387 2.3371.35613 1.0906 1.0906 1.9142.75678.82355 1.9142 1.3132 1.1797.46742 2.8268.46742 1.6694 0 2.8268-.46742 1.1797-.48968 1.9142-1.3132.75678-.82355 1.0906-1.9142.35613-1.1129.35613-2.3371v-10.172h-1.5136v9.8381q0 1.38-.31162 2.3594-.31161.9571-.91258 1.5803-.60097.60097-1.469.89033-.86807.2671-1.981.2671-1.0906 0-1.9587-.2671-.86807-.28936-1.469-.89033-.60097-.62323-.91258-1.5803-.31161-.97936-.31161-2.3594v-9.8381z"/>
<path d="m309.49-466.39 3.1829-8.1465 3.0716 8.1465zm2.4039-9.66-6.3881 15.892h1.6026l1.9142-4.9413h7.2339l1.9365 4.9413h1.6248l-6.2323-15.892z"/>
</g>
<rect x="331.06" y="289.64" width="56.014" height="84.232" rx="0" ry="2.0497" fill="#f3f3f3"/>
<path d="m332.71 290.02c-.9223 0-1.6514.72907-1.6514 1.6514v3.6492h56.014v-3.6492c0-.9223-.72907-1.6514-1.6514-1.6514z" fill="#271919"/>
<path d="m332.71 373.63c-.9223 0-1.6514-.72907-1.6514-1.6514v-10.746h56.014v10.746c0 .92231-.72907 1.6514-1.6514 1.6514z" fill="#271919"/>
</g>
<rect x="331.06" y="289.64" width="56.014" height="84.232" rx="0" ry="2.0497" fill="none" stroke="#271919" stroke-width=".84655"/>
<g>
<g>
<text x="378.98502" y="293.63626" fill="#ffffff" font-family="sans-serif" font-size="3.3862px" font-weight="300" stroke-width=".84655" text-align="center" text-anchor="middle" style="line-height:0%" xml:space="preserve"><tspan x="378.98502" y="293.63626" font-size="3.1617px" stroke-width=".84655" style="line-height:1.25">12:23</tspan></text>
<text x="359.13654" y="293.3782" fill="#ffffff" font-family="sans-serif" font-size="3.3862px" font-weight="300" stroke-width=".84655" text-align="center" text-anchor="middle" style="line-height:0%" xml:space="preserve"><tspan x="359.13654" y="293.3782" font-size="3.1424px" stroke-width=".84655" style="line-height:1.25">App</tspan></text>
<g transform="matrix(.5 0 0 .5 0 526.18)" fill="#271919" stroke-width="1.6931" aria-label="Mobile App">
<path d="m679.56-432.85 7.216 19.06 7.4901-19.06h3.0447v21.739h-2.0704v-18.786h-.0609l-7.4292 18.786h-1.9486l-7.1552-18.786h-.0609v18.786h-2.0704v-21.739z"/>
<path d="m707.82-425.66q1.3701 0 2.4053.5785 1.0352.5785 1.7051 1.5224.70029.94387 1.0352 2.1618.36537 1.1874.36537 2.4358 0 1.2484-.36537 2.4662-.33492 1.1874-1.0352 2.1313-.66984.94387-1.7051 1.5224-1.0352.5785-2.4053.5785-1.3701 0-2.4054-.5785t-1.7355-1.5224q-.66985-.94387-1.0352-2.1313-.33492-1.2179-.33492-2.4662 0-1.2483.33492-2.4358.36537-1.2179 1.0352-2.1618.70029-.94387 1.7355-1.5224t2.4054-.5785zm0-1.6137q-1.7964 0-3.197.66985-1.3701.66984-2.314 1.7964-.94387 1.1266-1.431 2.6489-.48716 1.4919-.48716 3.197 0 1.7051.48716 3.2274.48716 1.4919 1.431 2.6185.94387 1.1266 2.314 1.7964 1.4006.6394 3.197.6394t3.1665-.6394q1.4006-.66984 2.3444-1.7964.94387-1.1266 1.431-2.6185.48716-1.5224.48716-3.2274 0-1.705-.48716-3.197-.48716-1.5224-1.431-2.6489-.94387-1.1266-2.3444-1.7964-1.3701-.66985-3.1665-.66985z"/>
<path d="m718.13-432.85v21.739h1.766v-2.9838h.0609q.66985 1.6442 2.1618 2.5271 1.5224.88298 3.4406.88298 1.7964 0 3.1056-.6394 1.3397-.66984 2.2227-1.7964.88298-1.157 1.3092-2.6489.42627-1.5224.42627-3.197t-.42627-3.1665q-.42626-1.5224-1.3092-2.6489-.88297-1.157-2.2227-1.8268-1.3092-.66985-3.1056-.66985-.85253 0-1.705.21314-.85253.21313-1.5833.66984-.73074.42626-1.3092 1.0657-.54805.6394-.85253 1.4919h-.0609v-9.0124zm12.575 13.884q0 1.2179-.30447 2.4358-.27403 1.1874-.91343 2.1313-.60895.94387-1.5833 1.5528-.97432.5785-2.3445.5785-1.5224 0-2.588-.5785-1.0352-.60895-1.7051-1.5528-.63939-.94387-.94387-2.1313-.27402-1.2179-.27402-2.4358 0-1.2179.27402-2.4053.30448-1.2179.94387-2.1618.66985-.94387 1.7051-1.5224 1.0657-.60895 2.588-.60895 1.3701 0 2.3445.60895.97431.5785 1.5833 1.5224.6394.94387.91343 2.1618.30447 1.1874.30447 2.4053z"/>
<path d="m735.64-432.85v3.0752h1.9182v-3.0752zm0 6.0286v15.711h1.9182v-15.711z"/>
<path d="m741.29-432.85v21.739h1.9182v-21.739z"/>
<path d="m758.21-420.06h-10.169q.12179-1.0657.48716-2.0704.39582-1.0352 1.0352-1.7964.6394-.79163 1.5528-1.2483.91343-.48716 2.1009-.48716 1.157 0 2.0704.48716.91342.45671 1.5528 1.2483.6394.76119.97432 1.766.36537 1.0048.39582 2.1009zm-10.169 1.6137h12.088q.0609-1.6442-.30447-3.2274-.36537-1.6137-1.2179-2.8316-.82208-1.2483-2.1618-2.0095-1.3397-.76119-3.2274-.76119-1.8573 0-3.2274.73074-1.3397.70029-2.1922 1.8877-.85253 1.157-1.2788 2.6489-.39582 1.4919-.39582 3.0447 0 1.6746.39582 3.197.42626 1.4919 1.2788 2.6489.85253 1.1266 2.1922 1.7964 1.3701.6394 3.2274.6394 2.9838 0 4.5976-1.4615 1.6442-1.4615 2.2531-4.1408h-1.9182q-.45671 1.8268-1.6442 2.923t-3.2883 1.0961q-1.3701 0-2.3445-.5785-.97431-.5785-1.6137-1.4615-.6394-.88297-.94387-1.9791-.27403-1.1266-.27403-2.1618z"/>
<path d="m695.82-381.57 4.354-11.144 4.2017 11.144zm3.2883-13.214-8.7384 21.739h2.1922l2.6185-6.7593h9.8954l2.6489 6.7593h2.2227l-8.5253-21.739z"/>
<path d="m711.59-388.76v21.496h1.9182v-8.7689h.0609q.30447.85253.85253 1.4919.5785.63939 1.3092 1.0657.73074.42626 1.5833.63939.85253.21314 1.7051.21314 1.7964 0 3.1056-.6394 1.3397-.66984 2.2227-1.7964.88298-1.157 1.3092-2.6489.42626-1.5224.42626-3.197t-.42626-3.1665q-.42626-1.5224-1.3092-2.6489-.88298-1.157-2.2227-1.8268-1.3092-.66985-3.1056-.66985-1.9182 0-3.4406.91343-1.4919.88297-2.1618 2.5271h-.0609v-2.9838zm12.575 7.8554q0 1.2179-.30448 2.4358-.27403 1.1874-.91342 2.1313-.60895.94387-1.5833 1.5528-.97432.5785-2.3444.5785-1.5224 0-2.588-.5785-1.0352-.60895-1.7051-1.5528-.6394-.94387-.94387-2.1313-.27403-1.2179-.27403-2.4358 0-1.3397.24358-2.5576.27403-1.2179.91342-2.1313.6394-.91343 1.7051-1.4615t2.6489-.54805q1.3701 0 2.3444.60895.97432.5785 1.5833 1.5224.63939.94387.91342 2.1618.30448 1.1874.30448 2.4053z"/>
<path d="m729.07-388.76v21.496h1.9182v-8.7689h.0609q.30447.85253.85253 1.4919.5785.63939 1.3092 1.0657.73074.42626 1.5833.63939.85253.21314 1.7051.21314 1.7964 0 3.1056-.6394 1.3397-.66984 2.2227-1.7964.88298-1.157 1.3092-2.6489.42627-1.5224.42627-3.197t-.42627-3.1665q-.42626-1.5224-1.3092-2.6489-.88297-1.157-2.2227-1.8268-1.3092-.66985-3.1056-.66985-1.9182 0-3.4406.91343-1.4919.88297-2.1618 2.5271h-.0609v-2.9838zm12.575 7.8554q0 1.2179-.30448 2.4358-.27402 1.1874-.91342 2.1313-.60895.94387-1.5833 1.5528-.97431.5785-2.3444.5785-1.5224 0-2.588-.5785-1.0352-.60895-1.7051-1.5528-.63939-.94387-.94387-2.1313-.27403-1.2179-.27403-2.4358 0-1.3397.24358-2.5576.27403-1.2179.91343-2.1313.63939-.91343 1.705-1.4615t2.6489-.54805q1.3701 0 2.3444.60895.97432.5785 1.5833 1.5224.6394.94387.91342 2.1618.30448 1.1874.30448 2.4053z"/>
</g>
</g>
<g transform="matrix(.28218 0 0 .28218 304.3 330.46)" fill="#fff">
<rect x="119.5" y="118.98" width="19.799" height="24.042" ry="5.8495"/>
<rect x="162.63" y="118.98" width="19.799" height="24.042" ry="5.8495"/>
<rect x="205.77" y="118.98" width="19.799" height="24.042" ry="5.8495"/>
<rect x="248.9" y="118.98" width="19.799" height="24.042" ry="5.8495"/>
</g>
<path d="m642.93 434.45v-53.974" fill="#fff" stroke="#000" stroke-width="1.6931"/>
</g>
<g transform="matrix(.56437 0 0 .56437 399.17 410.18)">
<path d="m398.37 252.36 112.58-65v-130l-164.54 35z" fill="#2c2c2c"/>
<path d="m346.41 222.36v-130l51.962 30v130z" fill="#1a1a1a"/>
<path d="m398.37 122.36 112.58-65-51.962-30-112.58 65z" fill="#434343"/>
<path transform="matrix(.94226 0 0 .95244 20.75 5.463)" d="m355.07 107.36v10l8.6602 5v-10z" fill="#0f0" filter="url(#b)"/>
<path d="m356.26 108.86v8.009l6.2757 4.0045v-8.009z" fill="#0f0"/>
<g transform="matrix(.93061 -.53729 0 1.0746 0 0)" fill="#f3f3f3" stroke-width="2.779" aria-label="UA">
<path d="m462.99 373.58v18.41q0 2.2157.60428 4.23.64457 1.974 1.974 3.4645 1.3697 1.4906 3.4645 2.3768 2.1351.84599 5.1162.84599 3.0214 0 5.1162-.84599 2.1351-.88627 3.4645-2.3768 1.3697-1.4906 1.974-3.4645.64457-2.0143.64457-4.23v-18.41h-2.7394v17.806q0 2.4977-.564 4.2702-.56399 1.7323-1.6517 2.8603-1.0877 1.0877-2.6588 1.6114-1.5711.48342-3.5854.48342-1.974 0-3.5451-.48342-1.5711-.52371-2.6588-1.6114-1.0877-1.128-1.6517-2.8603-.56399-1.7726-.56399-4.2702v-17.806z"/>
<path d="m494.96 391.07 5.7608-14.744 5.5594 14.744zm4.3508-17.484-11.562 28.764h2.9005l3.4645-8.9433h13.093l3.5048 8.9433h2.9408l-11.28-28.764z"/>
</g>
</g>
<g transform="matrix(.56437 0 0 .56437 -89.613 354.59)" stroke-width="3">
<rect x="1160" y="-167.64" width="269.5" height="213.5" ry="6.3041" fill="#f3f3f3" stroke="#271919"/>
<g transform="translate(-19.775 39.795)" fill="#271919" aria-label="Web crawler">
<g transform="translate(28.861)">
<path d="m1238.9-149.33 9.5109 34.297h3.5546l8.6462-30.694h.096l8.6943 30.694h3.4585l9.4629-34.297h-3.2664l-7.8296 30.022h-.096l-8.4061-30.022h-4.083l-8.3581 30.022h-.096l-7.7817-30.022z"/>
<path d="m1302.4-129.16h-16.044q.1922-1.6812.7686-3.2664.6244-1.6332 1.6332-2.8341 1.0087-1.2489 2.4498-1.9694 1.441-.76855 3.3144-.76855 1.8253 0 3.2663.76855 1.4411.72053 2.4498 1.9694 1.0088 1.2009 1.5371 2.786.5765 1.5852.6245 3.3144zm-16.044 2.5458h19.07q.096-2.5939-.4803-5.0917-.5765-2.5458-1.9214-4.4672-1.297-1.9694-3.4105-3.1703-2.1136-1.2009-5.0917-1.2009-2.9302 0-5.0917 1.1528-2.1136 1.1048-3.4585 2.9782-1.345 1.8253-2.0175 4.179-.6245 2.3537-.6245 4.8035 0 2.6419.6245 5.0437.6725 2.3537 2.0175 4.179 1.3449 1.7773 3.4585 2.8341 2.1615 1.0087 5.0917 1.0087 4.7074 0 7.2532-2.3057 2.5939-2.3057 3.5546-6.5328h-3.0262q-.7205 2.8821-2.5939 4.6114-1.8733 1.7293-5.1877 1.7293-2.1616 0-3.6987-.91266-1.5371-.91267-2.5459-2.3057-1.0087-1.393-1.489-3.1223-.4324-1.7773-.4324-3.4105z"/>
<path d="m1309.5-149.33v34.297h2.786v-4.7074h.096q1.0568 2.5939 3.4105 3.9869 2.4017 1.393 5.4279 1.393 2.8341 0 4.8996-1.0087 2.1135-1.0568 3.5065-2.8341 1.393-1.8253 2.0655-4.179.6725-2.4018.6725-5.0437t-.6725-4.9956q-.6725-2.4018-2.0655-4.179-1.393-1.8253-3.5065-2.8821-2.0655-1.0568-4.8996-1.0568-1.345 0-2.6899.33625-1.345.33624-2.4979 1.0568-1.1528.67249-2.0655 1.6812-.8646 1.0087-1.3449 2.3537h-.096v-14.218zm19.838 21.904q0 1.9214-.4803 3.8428-.4323 1.8734-1.4411 3.3624-.9607 1.4891-2.4978 2.4498-1.5371.91266-3.6987.91266-2.4017 0-4.083-.91266-1.6331-.9607-2.6899-2.4498-1.0087-1.4891-1.4891-3.3624-.4323-1.9214-.4323-3.8428t.4323-3.7948q.4804-1.9214 1.4891-3.4105 1.0568-1.4891 2.6899-2.4018 1.6813-.96069 4.083-.96069 2.1616 0 3.6987.96069 1.5371.91267 2.4978 2.4018 1.0088 1.4891 1.4411 3.4105.4803 1.8734.4803 3.7948z"/>
</g>
<path d="m1259.3-76.798h3.0262q-.5284-4.2751-3.3144-6.3886-2.738-2.1135-6.7249-2.1135-2.8341 0-5.0437 1.0568-2.1616 1.0568-3.6507 2.8341-1.489 1.7773-2.2576 4.179-.7686 2.3537-.7686 5.0437 0 2.69.7686 5.0917.7686 2.3537 2.2576 4.131 1.4891 1.7773 3.6507 2.8341 2.2096 1.0087 5.0437 1.0087 4.227 0 6.917-2.4978 2.6899-2.5459 3.3144-7.0611h-3.0262q-.1441 1.5371-.7686 2.8341-.6244 1.2969-1.5851 2.2576-.9607.91266-2.2096 1.441-1.2489.52838-2.6419.52838-2.1616 0-3.7948-.91266t-2.738-2.4017q-1.0568-1.4891-1.6332-3.3624-.5284-1.9214-.5284-3.8908t.5284-3.8428q.5764-1.9214 1.6332-3.4105 1.1048-1.4891 2.738-2.4017 1.6332-.91266 3.7948-.91266 3.0262 0 4.7074 1.5852 1.6812 1.5852 2.3057 4.3712z"/>
<path d="m1266.8-84.58v24.786h3.0262v-13.21q0-1.9694.6725-3.6026.6725-1.6812 1.8733-2.8821 1.249-1.2009 2.9302-1.8253 1.6812-.67249 3.7467-.57642v-3.0262q-3.3624-.1441-5.8122 1.4891-2.4018 1.6332-3.5546 4.6594h-.096v-5.8122z"/>
<path d="m1281.6-76.99h3.0262q.096-3.0262 1.9214-4.3712 1.8253-1.393 4.7074-1.393 1.345 0 2.4978.24018 1.2009.19214 2.0656.76856.9126.57642 1.393 1.5852.5283.9607.5283 2.4978 0 1.0087-.2882 1.6332-.2401.62445-.7205 1.0087-.4803.33624-1.2009.48035-.7205.1441-1.6812.24018-2.4498.28821-4.8515.62445-2.3537.28821-4.2751 1.0568-1.8734.76856-3.0262 2.2576-1.1529 1.441-1.1529 4.0349 0 1.8734.6245 3.2664.6725 1.345 1.7773 2.2576 1.1528.86463 2.6419 1.2489 1.5371.43232 3.2664.43232 1.8253 0 3.1223-.33624 1.3449-.33624 2.3537-.9607 1.0567-.62445 1.8733-1.5371.8647-.9607 1.6813-2.1616h.096q0 .9607.096 1.7773.1441.76856.5284 1.345.3843.57642 1.0567.91266.7206.28821 1.8734.28821.6245 0 1.0087-.04804.4324-.04803.9607-.1441v-2.5459q-.4323.19214-.9607.19214-1.7773 0-1.7773-1.8253v-13.162q0-2.4978-.8165-4.0349-.8166-1.5852-2.1136-2.4498-1.2969-.86463-2.9301-1.1528-1.6332-.33624-3.2664-.33624-2.1616 0-3.9389.48035-1.7772.48035-3.1222 1.4891-1.297 1.0087-2.0655 2.5939-.7686 1.5852-.9127 3.7467zm16.14 3.6507v3.9389q0 1.8253-.7205 3.2664-.6725 1.441-1.8733 2.4498-1.1529 1.0087-2.738 1.5371-1.5852.52838-3.3144.52838-1.0568 0-2.0655-.33624-1.0088-.33624-1.7773-.9607-.7686-.67249-1.2489-1.5371-.4324-.91266-.4324-2.0655 0-1.8253 1.0568-2.786 1.1048-1.0087 2.786-1.5371 1.6813-.52838 3.6987-.76856 2.0655-.28821 3.9869-.62445.6245-.09607 1.4411-.33624.8166-.24018 1.1048-.76856z"/>
<path d="m1304.3-84.58 7.9738 24.786h3.3144l6.0524-20.847h.096l6.1005 20.847h3.3144l7.9738-24.786h-3.2184l-6.3406 21.231h-.096l-6.0524-21.231h-3.4105l-6.0524 21.231h-.096l-6.3406-21.231z"/>
<path d="m1342.4-94.091v34.297h3.0262v-34.297z"/>
<path d="m1369.1-73.916h-16.044q.1921-1.6812.7686-3.2664.6244-1.6332 1.6331-2.8341 1.0088-1.2489 2.4498-1.9694 1.4411-.76856 3.3144-.76856 1.8254 0 3.2664.76856 1.4411.72052 2.4498 1.9694 1.0087 1.2009 1.5371 2.786.5764 1.5852.6245 3.3144zm-16.044 2.5459h19.07q.096-2.5939-.4804-5.0917-.5764-2.5459-1.9214-4.4672-1.2969-1.9694-3.4105-3.1703-2.1135-1.2009-5.0917-1.2009-2.9301 0-5.0917 1.1528-2.1135 1.1048-3.4585 2.9782-1.345 1.8253-2.0175 4.179-.6244 2.3537-.6244 4.8035 0 2.6419.6244 5.0437.6725 2.3537 2.0175 4.179 1.345 1.7773 3.4585 2.8341 2.1616 1.0087 5.0917 1.0087 4.7075 0 7.2533-2.3057 2.5939-2.3057 3.5546-6.5327h-3.0262q-.7205 2.8821-2.5939 4.6114-1.8734 1.7293-5.1878 1.7293-2.1615 0-3.6987-.91266-1.5371-.91266-2.5458-2.3057-1.0087-1.393-1.4891-3.1223-.4323-1.7773-.4323-3.4105z"/>
<path d="m1376.2-84.58v24.786h3.0262v-13.21q0-1.9694.6725-3.6026.6725-1.6812 1.8734-2.8821 1.2489-1.2009 2.9301-1.8253 1.6812-.67249 3.7468-.57642v-3.0262q-3.3625-.1441-5.8123 1.4891-2.4017 1.6332-3.5546 4.6594h-.096v-5.8122z"/>
</g>
</g>
<g>
<path d="m94.636 396.12v51.28" fill="#fff" stroke="#000" stroke-width="1.6931"/>
<path d="m91.38 544.71 39.269-22.672v-2.8572l.6324-7.7766s-41.03 24.252-41.03 27.638z" fill="#2c2c2c"/>
<path d="m42.294 510.7v5.668l49.086 28.34v-6.7968z" fill="#1a1a1a"/>
<path d="m81.563 488.03-39.269 22.672 49.086 28.34 39.269-22.672c0-2.5397-49.086-28.34-49.086-28.34z" fill="#434343"/>
<path d="m81.563 488.03v-45.344l50.638 27.352-1.552 46.332z" fill="#272727"/>
<path d="m130.65 519.2 2.4543-1.417v-48.178l-2.4543 1.417z" fill="#343434"/>
<path d="m130.65 471.03-49.086-28.34 2.4543-1.417 49.086 28.34z" fill="#4d4d4d"/>
<path d="m83.865 486.26v-39.141l44.481 25.681v39.141z"/>
</g>
<g transform="matrix(1.3824 0 0 1.3824 -27.215 -198.08)">
<path d="m76.654 499.37-2.4543 1.417 2.4543 1.417 2.4543-1.417z"/>
<path d="m81.563 502.2-2.4543 1.417 2.4543 1.417 2.4543-1.417z"/>
<path d="m86.471 505.03-2.4543 1.417 2.4543 1.417 2.4543-1.417z"/>
<path d="m91.38 507.87-2.4543 1.417 2.4543 1.417 2.4543-1.417z"/>
<path d="m96.289 510.7-2.4543 1.417 2.4543 1.417 2.4543-1.417z"/>
<path d="m101.2 513.54-2.4543 1.417 2.4543 1.417 2.4543-1.417z"/>
<path d="m106.11 516.37-2.4543 1.417 2.4543 1.417 2.4543-1.417z"/>
<path d="m73.871 503.44-2.4543 1.417 2.4543 1.417 2.4543-1.417z"/>
<path d="m78.78 506.27-2.4543 1.417 2.4543 1.417 2.4543-1.417z"/>
<path d="m83.688 509.11-2.4543 1.417 2.4543 1.417 2.4543-1.417z"/>
<path d="m88.597 511.94-2.4543 1.417 2.4543 1.417 2.4543-1.417z"/>
<path d="m93.506 514.78-2.4543 1.417 2.4543 1.417 2.4543-1.417z"/>
<path d="m98.414 517.61-2.4543 1.417 2.4543 1.417 2.4543-1.417z"/>
<path d="m66.837 505.03-2.4543 1.417 2.4543 1.417 2.4543-1.417z"/>
<path d="m71.746 507.87-2.4543 1.417 22.089 12.753 2.4543-1.417z"/>
<path d="m96.289 522.04-2.4543 1.417 2.4543 1.417 2.4543-1.417z"/>
</g>
<g>
<path d="m71.746 513.54-9.8173 5.668 14.726 8.502 9.8172-5.668z" fill="#666"/>
<g transform="matrix(.28458 .16431 0 .32861 -199.86 198.08)" fill="#f3f3f3">
<g fill="#f3f3f3" stroke-width="3" aria-label="UA">
<path d="m1032 294.5v31.244q0 3.7602 1.0255 7.1785 1.0938 3.35 3.3499 5.8795 2.3245 2.5296 5.8795 4.0336 3.6235 1.4357 8.6826 1.4357 5.1275 0 8.6825-1.4357 3.6235-1.5041 5.8796-4.0336 2.3244-2.5296 3.3499-5.8795 1.0939-3.4183 1.0939-7.1785v-31.244h-4.6489v30.218q0 4.2387-.9572 7.2468-.9571 2.9398-2.803 4.854-1.8459 1.8459-4.5122 2.7347-2.6663.8204-6.0846.8204-3.35 0-6.0163-.8204-2.6663-.88876-4.5122-2.7347-1.8459-1.9143-2.803-4.854-.9571-3.0081-.9571-7.2468v-30.218z"/>
<path d="m1086.3 324.17 9.7764-25.022 9.4346 25.022zm7.3836-29.671-19.621 48.814h4.9224l5.8795-15.177h22.219l5.9479 15.177h4.9908l-19.143-48.814z"/>
</g>
</g>
<rect x="2.8465" y="283.25" width="170.55" height="112.87" rx="0" ry="2.7467" fill="#f3f3f3"/>
<path d="m6.1493 283.17c-1.8446-.002-3.3028 1.4581-3.3028 3.3028v15.727h169.59v-15.586c0-1.8446-1.4582-3.3012-3.3028-3.3028z" fill="#271919"/>
</g>
<rect x="2.8496" y="283.25" width="169.7" height="112.02" rx="0" ry="2.7259" fill="none" stroke="#271919" stroke-width="1.6993"/>
<g>
<g transform="matrix(.5 0 0 .5 0 526.18)" fill="#271919" stroke-width="3.3862" aria-label="Web Browser">
<path d="m123.97-423.09 10.04 36.203h3.7521l9.1268-32.4h.1014l9.1775 32.4h3.6507l9.9888-36.203h-3.4479l-8.2648 31.69h-.10141l-8.8733-31.69h-4.3099l-8.8226 31.69h-.10141l-8.2141-31.69z"/>
<path d="m190.93-401.8h-16.935q.20282-1.7747.81127-3.4479.65916-1.724 1.724-2.9916 1.0648-1.3183 2.5859-2.0789 1.5211-.81127 3.4986-.81127 1.9268 0 3.4479.81127 1.5211.76057 2.5859 2.0789 1.0648 1.2676 1.6226 2.9409.60845 1.6732.65915 3.4986zm-16.935 2.6873h20.13q.10141-2.738-.50704-5.3747-.60846-2.6873-2.0282-4.7155-1.369-2.0789-3.6-3.3465t-5.3747-1.2676q-3.093 0-5.3747 1.2169-2.231 1.1662-3.6507 3.1437-1.4197 1.9268-2.1296 4.4113-.65916 2.4845-.65916 5.0704 0 2.7888.65916 5.324.70986 2.4845 2.1296 4.4113 1.4197 1.8761 3.6507 2.9916 2.2817 1.0648 5.3747 1.0648 4.969 0 7.6564-2.4338 2.738-2.4338 3.7521-6.8958h-3.1944q-.76057 3.0423-2.738 4.8676t-5.4761 1.8254q-2.2817 0-3.9042-.96338-1.6225-.96339-2.6873-2.4338t-1.5718-3.2958q-.45634-1.8761-.45634-3.6z"/>
<path d="m198.51-423.09v36.203h2.9409v-4.969h.10141q1.1155 2.738 3.6 4.2085 2.5352 1.4704 5.7296 1.4704 2.9916 0 5.1719-1.0648 2.231-1.1155 3.7014-2.9916 1.4704-1.9268 2.1803-4.4113.70986-2.5352.70986-5.324t-.70986-5.2733q-.70986-2.5352-2.1803-4.4113-1.4704-1.9268-3.7014-3.0423-2.1803-1.1155-5.1719-1.1155-1.4197 0-2.8394.35493-1.4197.35493-2.6366 1.1155-1.2169.70986-2.1803 1.7747-.91269 1.0648-1.4197 2.4845h-.10141v-15.009zm20.941 23.121q0 2.0282-.50705 4.0564-.45634 1.9775-1.5211 3.5493-1.0141 1.5718-2.6366 2.5859-1.6225.96338-3.9042.96338-2.5352 0-4.3099-.96338-1.724-1.0141-2.8395-2.5859-1.0648-1.5718-1.5718-3.5493-.45634-2.0282-.45634-4.0564 0-2.0282.45634-4.0056.50705-2.0282 1.5718-3.6 1.1155-1.5718 2.8395-2.5352 1.7746-1.0141 4.3099-1.0141 2.2817 0 3.9042 1.0141 1.6226.96338 2.6366 2.5352 1.0648 1.5718 1.5211 3.6.50705 1.9775.50705 4.0056z"/>
<path d="m90.659-343.84v-12.93h11.865q8.1634 0 8.1634 6.7944 0 1.2676-.50704 2.3831-.50705 1.1155-1.5211 1.9775-1.0141.81127-2.5352 1.3183-1.5211.45634-3.6.45634zm-3.4479-15.871v36.203h15.313q2.9409 0 5.0198-.50704 2.1296-.55775 3.5493-1.369 1.4704-.86197 2.3324-1.9775.86197-1.1155 1.3183-2.231.45635-1.1662.60846-2.231.15211-1.1155.15211-1.9775 0-3.5493-2.0789-5.9324-2.0789-2.4338-5.5775-2.8902v-.10141q1.4197-.30423 2.5352-1.0648 1.1662-.76057 1.9775-1.8254.86198-1.1155 1.3183-2.4338.45634-1.369.45634-2.7888 0-2.5352-.96339-4.2085-.96338-1.724-2.5859-2.738-1.5718-1.0648-3.7014-1.4704-2.0789-.45634-4.3606-.45634zm3.4479 33.262v-14.451h11.865q4.6141 0 7.0479 1.7747 2.4845 1.724 2.4845 5.2226 0 2.1803-.76056 3.6507-.76057 1.4197-2.0789 2.2817t-3.0423 1.2169q-1.724.30423-3.6507.30423z"/>
<path d="m120.47-349.67v26.164h3.1944v-13.944q0-2.0789.70986-3.8028.70987-1.7747 1.9775-3.0423 1.3183-1.2676 3.093-1.9268 1.7747-.70987 3.955-.60846v-3.1944q-3.5493-.15212-6.1352 1.5718-2.5352 1.724-3.7521 4.9183h-.10141v-6.1352z"/>
<path d="m146.63-347.75q2.2817 0 4.0057.96339 1.724.96338 2.8394 2.5352 1.1662 1.5718 1.724 3.6.60845 1.9775.60845 4.0564t-.60845 4.1071q-.55775 1.9775-1.724 3.5493-1.1155 1.5718-2.8394 2.5352-1.724.96339-4.0057.96339-2.2817 0-4.0057-.96339-1.724-.96338-2.8902-2.5352-1.1155-1.5718-1.724-3.5493-.55775-2.0282-.55775-4.1071t.55775-4.0564q.60845-2.0282 1.724-3.6 1.1662-1.5718 2.8902-2.5352 1.724-.96339 4.0057-.96339zm0-2.6873q-2.9916 0-5.324 1.1155-2.2817 1.1155-3.8535 2.9916t-2.3831 4.4113q-.81127 2.4845-.81127 5.324t.81127 5.3747q.81128 2.4845 2.3831 4.3606t3.8535 2.9916q2.3324 1.0648 5.324 1.0648t5.2733-1.0648q2.3324-1.1155 3.9042-2.9916t2.3831-4.3606q.81128-2.5352.81128-5.3747t-.81128-5.324q-.81127-2.5352-2.3831-4.4113t-3.9042-2.9916q-2.2817-1.1155-5.2733-1.1155z"/>
<path d="m161.21-349.67 8.417 26.164h3.4986l6.3888-22.006h.10141l6.4395 22.006h3.4986l8.417-26.164h-3.3972l-6.693 22.411h-.10141l-6.3888-22.411h-3.6l-6.3888 22.411h-.10141l-6.693-22.411z"/>
<path d="m217.05-342.02h3.1944q-.10141-2.1296-.86198-3.7014t-2.0789-2.6366q-1.2676-1.0648-2.9916-1.5718-1.6732-.50705-3.6507-.50705-1.724 0-3.4986.40564-1.724.40563-3.1437 1.2676-1.4197.86198-2.3324 2.2817-.86197 1.4197-.86197 3.3972 0 1.6732.55775 2.8394.55775 1.1155 1.5211 1.9268 1.0141.76056 2.3324 1.3183 1.3183.50705 2.8902.91269l4.1071.91268q1.0648.25352 2.0789.60845 1.0648.35493 1.8761.91268.81128.50705 1.2676 1.3183.50704.76057.50704 1.9268 0 1.369-.70986 2.3324-.65916.91268-1.724 1.5211-1.0648.60845-2.3324.86198-1.2169.25352-2.3831.25352-3.1944 0-5.3747-1.6226-2.1296-1.6732-2.3324-4.9183h-3.1944q.40563 4.8169 3.2451 6.9972 2.8902 2.1803 7.5043 2.1803 1.8254 0 3.7014-.40563 1.8761-.40564 3.3465-1.3183 1.5211-.96339 2.4845-2.4338.96339-1.5211.96339-3.6507 0-1.724-.65916-2.9916-.65916-1.2676-1.724-2.1296-1.0141-.86198-2.3831-1.369-1.3183-.55775-2.6873-.76056l-4.2592-.96339q-.81127-.20282-1.7747-.50705-.96339-.35493-1.7747-.86197-.81127-.50705-1.369-1.2169-.50705-.76057-.50705-1.8254 0-1.2676.55775-2.1296.55775-.86197 1.4704-1.369.91268-.55775 1.9775-.76057 1.1155-.25352 2.1803-.25352 1.369 0 2.5859.35493 1.2169.30423 2.1296 1.0141.96339.70987 1.5211 1.8254.55775 1.0648.60845 2.5352z"/>
<path d="m244.55-338.42h-16.935q.20282-1.7747.81127-3.4479.65916-1.724 1.724-2.9916 1.0648-1.3183 2.5859-2.0789 1.5211-.81127 3.4986-.81127 1.9268 0 3.4479.81127 1.5211.76057 2.5859 2.0789 1.0648 1.2676 1.6226 2.9409.60845 1.6732.65916 3.4986zm-16.935 2.6873h20.13q.10141-2.738-.50704-5.3747-.60846-2.6873-2.0282-4.7155-1.369-2.0789-3.6-3.3465-2.231-1.2676-5.3747-1.2676-3.093 0-5.3747 1.2169-2.231 1.1662-3.6507 3.1437-1.4197 1.9268-2.1296 4.4113-.65916 2.4845-.65916 5.0704 0 2.7888.65916 5.324.70987 2.4845 2.1296 4.4113 1.4197 1.8761 3.6507 2.9916 2.2817 1.0648 5.3747 1.0648 4.969 0 7.6564-2.4338 2.738-2.4338 3.7521-6.8958h-3.1944q-.76057 3.0423-2.738 4.8676-1.9775 1.8254-5.4761 1.8254-2.2817 0-3.9042-.96339-1.6225-.96338-2.6873-2.4338-1.0648-1.4704-1.5718-3.2958-.45634-1.8761-.45634-3.6z"/>
<path d="m252.09-349.67v26.164h3.1944v-13.944q0-2.0789.70986-3.8028.70986-1.7747 1.9775-3.0423 1.3183-1.2676 3.093-1.9268 1.7746-.70987 3.955-.60846v-3.1944q-3.5493-.15212-6.1352 1.5718-2.5352 1.724-3.7521 4.9183h-.10141v-6.1352z"/>
</g>
<rect x="24.571" y="288.31" width="140.08" height="8.7477" ry="1.9001" fill="#fff"/>
<rect x="9.4479" y="288.31" width="8.7477" height="8.7477" ry="1.7325" fill="#fff"/>
</g>
<g>
<g transform="matrix(.001609 .28218 -.28218 .001609 410.33 96.15)" stroke-width="7.5323" aria-label="HTTP Request">
<path d="m1697.8 202.97v49.299h4.6951v-23.89h29.276v23.89h4.6951v-49.299h-4.6951v21.404h-29.276v-21.404z"/>
<path d="m1741.1 202.97v4.0047h17.123v45.294h4.6951v-45.294h17.192v-4.0047z"/>
<path d="m1779.5 202.97v4.0047h17.123v45.294h4.6951v-45.294h17.192v-4.0047z"/>
<path d="m1827.9 227.13v-20.161h16.157q4.9023 0 7.9403 2.4857 3.038 2.4856 3.038 7.595 0 5.1094-3.038 7.595t-7.9403 2.4856zm-4.6951-24.166v49.299h4.6951v-21.128h17.192q3.3142 0 6.007-.8976 2.6928-.96664 4.6261-2.7618 1.9333-1.8642 2.969-4.488t1.0357-5.938q0-3.3142-1.0357-5.9379-1.0357-2.6238-2.969-4.4189-1.9333-1.8642-4.6261-2.7618-2.6928-.96664-6.007-.96664z"/>
<path d="m1890.6 226.37v-19.402h17.538q5.3856 0 8.0094 2.6238 2.6237 2.6237 2.6237 7.1808 0 2.2785-.8976 4.0737-.8285 1.7261-2.2785 2.969t-3.3833 1.9333q-1.9332.62141-4.0737.62141zm-4.6951-23.407v49.299h4.6951v-21.888h17.814q3.3142-.13809 5.1785 1.1047 1.9333 1.2428 2.8999 3.3142 1.0357 2.0023 1.3119 4.6261.3452 2.5547.4833 5.1784.069.75951.1381 1.7952.069 1.0357.1381 2.1404.1381 1.0357.3452 2.0714.2762.96664.6905 1.6571h5.1784q-.7595-.8976-1.2428-2.4856-.4143-1.6571-.6214-3.4523-.2072-1.8642-.2762-3.6594t-.1381-3.038q-.1381-2.2095-.6214-4.0737-.4143-1.9333-1.45-3.3832-.9666-1.45-2.5547-2.3476-1.588-.96664-4.0047-1.3119v-.13809q4.7642-.96664 7.1808-4.4189 2.4166-3.4523 2.4166-8.1474 0-3.3142-1.2428-5.7308-1.1738-2.4856-3.2452-4.0047-2.0023-1.5881-4.7641-2.3476-2.6928-.75951-5.7308-.75951z"/>
<path d="m1956.8 231.97h-23.061q.2762-2.4166 1.1047-4.6951.8976-2.3476 2.3476-4.0737 1.45-1.7952 3.5213-2.8309 2.0714-1.1047 4.7642-1.1047 2.6238 0 4.6951 1.1047 2.0714 1.0357 3.5214 2.8309 1.4499 1.7262 2.2094 4.0047.8286 2.2785.8976 4.7642zm-23.061 3.6594h27.411q.1381-3.7285-.6904-7.3189-.8286-3.6594-2.7619-6.4213-1.8642-2.8309-4.9022-4.557-3.038-1.7262-7.3189-1.7262-4.2118 0-7.3189 1.6571-3.038 1.5881-4.9713 4.2808-1.9332 2.6237-2.8999 6.007-.8976 3.3832-.8976 6.9046 0 3.7975.8976 7.2498.9667 3.3832 2.8999 6.007 1.9333 2.5547 4.9713 4.0737 3.1071 1.45 7.3189 1.45 6.7665 0 10.426-3.3142 3.7285-3.3142 5.1094-9.3902h-4.3499q-1.0356 4.1428-3.7284 6.6284t-7.457 2.4856q-3.1071 0-5.3165-1.3119-2.2095-1.3119-3.6595-3.3142-1.4499-2.0023-2.1404-4.488-.6214-2.5547-.6214-4.9023z"/>
<path d="m1998.4 265.39v-48.746h-4.0047v6.7665h-.1381q-.6905-1.7952-2.0714-3.1761-1.3119-1.45-3.038-2.4856t-3.7285-1.588q-1.9333-.55237-3.8665-.55237-4.0738 0-7.1118 1.519-2.9689 1.519-4.9713 4.1428-2.0023 2.5547-2.969 6.007-.9666 3.3832-.9666 7.1808 0 3.7975.9666 7.2498.9667 3.3832 2.969 6.007 2.0024 2.5547 4.9713 4.0737 3.038 1.45 7.1118 1.45 2.0023 0 3.8665-.48332 1.9333-.48332 3.5904-1.45 1.6571-.96665 2.8999-2.4166 1.3119-1.45 2.0024-3.3832h.1381v19.885zm-28.516-30.933q0-2.7618.6214-5.4546.6905-2.7618 2.0714-4.9023 1.45-2.1404 3.6594-3.4523 2.2095-1.3809 5.3166-1.3809 3.4522 0 5.7998 1.3809 2.4166 1.3119 3.8666 3.4523 1.519 2.1404 2.1404 4.9023.6905 2.6928.6905 5.4546 0 2.7618-.6905 5.5237-.6214 2.6928-2.1404 4.8332-1.45 2.1404-3.8666 3.5213-2.3476 1.3119-5.7998 1.3119-3.1071 0-5.3166-1.3119-2.2094-1.3809-3.6594-3.5213-1.3809-2.1404-2.0714-4.8332-.6214-2.7618-.6214-5.5237z"/>
<path d="m2035.6 252.27v-35.628h-4.3499v18.711q0 2.6928-.6214 5.3165-.6214 2.5547-1.9333 4.557-1.3118 2.0023-3.3142 3.2452-2.0023 1.1738-4.8332 1.1738-5.1784 0-7.3188-2.4856-2.0714-2.4856-2.2095-7.3189v-23.199h-4.3499v23.13q0 3.1761.6905 5.6618.6904 2.4857 2.1404 4.2118 1.519 1.7262 3.8666 2.6238 2.4166.96664 5.7998.96664 4.0047 0 7.2498-1.8642 3.3142-1.9333 5.0404-5.5237h.1381v6.4213z"/>
<path d="m2069.4 231.97h-23.061q.2761-2.4166 1.1047-4.6951.8976-2.3476 2.3475-4.0737 1.45-1.7952 3.5214-2.8309 2.0714-1.1047 4.7642-1.1047 2.6237 0 4.6951 1.1047 2.0713 1.0357 3.5213 2.8309 1.45 1.7262 2.2095 4.0047.8285 2.2785.8976 4.7642zm-23.061 3.6594h27.411q.1381-3.7285-.6905-7.3189-.8285-3.6594-2.7618-6.4213-1.8643-2.8309-4.9023-4.557-3.038-1.7262-7.3188-1.7262-4.2118 0-7.3189 1.6571-3.038 1.5881-4.9713 4.2808-1.9333 2.6237-2.8999 6.007-.8976 3.3832-.8976 6.9046 0 3.7975.8976 7.2498.9666 3.3832 2.8999 6.007 1.9333 2.5547 4.9713 4.0737 3.1071 1.45 7.3189 1.45 6.7664 0 10.426-3.3142 3.7285-3.3142 5.1094-9.3902h-4.3499q-1.0357 4.1428-3.7285 6.6284t-7.4569 2.4856q-3.1071 0-5.3166-1.3119t-3.6594-3.3142q-1.45-2.0023-2.1404-4.488-.6214-2.5547-.6214-4.9023z"/>
<path d="m2101 227.06h4.3499q-.1381-2.8999-1.1738-5.0404t-2.8308-3.5904q-1.7262-1.45-4.0738-2.1404-2.2785-.69046-4.9713-.69046-2.3475 0-4.7641.55237-2.3476.55236-4.2809 1.7261t-3.1761 3.1071q-1.1738 1.9333-1.1738 4.6261 0 2.2785.7595 3.8666.7595 1.519 2.0714 2.6238 1.3809 1.0357 3.1761 1.7952 1.7952.69046 3.9356 1.2428l5.5928 1.2428q1.4499.34523 2.8308.82855 1.45.48332 2.5547 1.2428 1.1048.69046 1.7262 1.7952.6904 1.0357.6904 2.6238 0 1.8642-.9666 3.1761-.8976 1.2428-2.3476 2.0714-1.4499.82856-3.1761 1.1738-1.6571.34523-3.2451.34523-4.3499 0-7.3189-2.2095-2.8999-2.2785-3.1761-6.6975h-4.3499q.5524 6.5594 4.4189 9.5283 3.9357 2.969 10.219 2.969 2.4857 0 5.0404-.55237 2.5547-.55236 4.557-1.7952 2.0714-1.3119 3.3833-3.3142 1.3118-2.0714 1.3118-4.9713 0-2.3476-.8976-4.0737-.8976-1.7262-2.3475-2.8999-1.3809-1.1738-3.2452-1.8642-1.7952-.75951-3.6594-1.0357l-5.7999-1.3119q-1.1047-.27618-2.4166-.69046-1.3118-.48332-2.4166-1.1738-1.1047-.69046-1.8642-1.6571-.6905-1.0357-.6905-2.4856 0-1.7262.7595-2.8999t2.0024-1.8642q1.2428-.7595 2.6928-1.0357 1.519-.34523 2.9689-.34523 1.8643 0 3.5214.48332 1.6571.41428 2.8999 1.3809 1.3119.96664 2.0714 2.4856.7595 1.45.8285 3.4523z"/>
<path d="m2119.8 216.64v-10.702h-4.3499v10.702h-6.2141v3.6594h6.2141v24.373q-.069 4.557 1.6572 6.2832 1.7261 1.6571 6.076 1.6571.9666 0 1.9333-.0691.9666-.069 1.9333-.069v-3.6594q-1.8643.20714-3.7285.20714-2.3476-.13809-2.969-1.3119-.5524-1.2428-.5524-3.3832v-24.028h7.2499v-3.6594z"/>
</g>
<g transform="matrix(-.001609 -.28218 .28218 -.001609 431.06 38.952)" stroke-width="7.5323" aria-label="HTTP Response">
<path d="m-2344.4-244.21v49.299h4.6951v-23.89h29.275v23.89h4.6952v-49.299h-4.6952v21.404h-29.275v-21.404z"/>
<path d="m-2301.1-244.21v4.0047h17.123v45.294h4.6952v-45.294h17.192v-4.0047z"/>
<path d="m-2262.7-244.21v4.0047h17.123v45.294h4.6951v-45.294h17.192v-4.0047z"/>
<path d="m-2214.3-220.04v-20.161h16.157q4.9023 0 7.9403 2.4856 3.038 2.4857 3.038 7.595 0 5.1094-3.038 7.595t-7.9403 2.4856zm-4.6952-24.166v49.299h4.6952v-21.128h17.192q3.3142 0 6.007-.89759 2.6928-.96664 4.6261-2.7618 1.9332-1.8642 2.9689-4.488t1.0357-5.938q0-3.3142-1.0357-5.9379-1.0357-2.6238-2.9689-4.4189-1.9333-1.8642-4.6261-2.7618-2.6928-.96664-6.007-.96664z"/>
<path d="m-2151.6-220.8v-19.402h17.538q5.3856 0 8.0093 2.6238 2.6238 2.6237 2.6238 7.1808 0 2.2785-.8976 4.0737-.8286 1.7261-2.2785 2.969-1.45 1.2428-3.3833 1.9333-1.9333.62142-4.0737.62142zm-4.6952-23.407v49.299h4.6952v-21.888h17.814q3.3142-.13809 5.1784 1.1047 1.9333 1.2428 2.9 3.3142 1.0356 2.0023 1.3118 4.6261.3453 2.5547.4834 5.1784.069.75951.138 1.7952.069 1.0357.1381 2.1404.1381 1.0357.3453 2.0714.2761.96664.6904 1.6571h5.1785q-.7595-.8976-1.2429-2.4857-.4142-1.6571-.6214-3.4523-.2071-1.8642-.2762-3.6594-.069-1.7952-.138-3.038-.1381-2.2095-.6215-4.0737-.4142-1.9333-1.4499-3.3832-.9667-1.45-2.5547-2.3476-1.5881-.96664-4.0047-1.3119v-.13809q4.7642-.96664 7.1808-4.4189 2.4166-3.4523 2.4166-8.1474 0-3.3142-1.2428-5.7308-1.1738-2.4856-3.2452-4.0047-2.0023-1.5881-4.7642-2.3476-2.6927-.75951-5.7308-.75951z"/>
<path d="m-2085.4-215.21h-23.061q.2762-2.4166 1.1047-4.6951.8976-2.3476 2.3476-4.0737 1.4499-1.7952 3.5213-2.8309 2.0714-1.1047 4.7642-1.1047 2.6237 0 4.6951 1.1047 2.0714 1.0357 3.5213 2.8309 1.45 1.7261 2.2095 4.0047.8286 2.2785.8976 4.7642zm-23.061 3.6594h27.411q.1381-3.7285-.6905-7.3189-.8285-3.6594-2.7618-6.4213-1.8642-2.8309-4.9023-4.557-3.038-1.7262-7.3188-1.7262-4.2118 0-7.3189 1.6571-3.038 1.5881-4.9713 4.2808-1.9333 2.6237-2.8999 6.007-.8976 3.3832-.8976 6.9046 0 3.7975.8976 7.2498.9666 3.3832 2.8999 6.007 1.9333 2.5547 4.9713 4.0737 3.1071 1.45 7.3189 1.45 6.7665 0 10.426-3.3142 3.7285-3.3142 5.1094-9.3902h-4.3499q-1.0357 4.1428-3.7285 6.6284t-7.4569 2.4856q-3.1071 0-5.3166-1.3119-2.2094-1.3119-3.6594-3.3142t-2.1404-4.488q-.6214-2.5547-.6214-4.9023z"/>
<path d="m-2053.8-220.11h4.3499q-.1381-2.8999-1.1738-5.0404-1.0357-2.1404-2.8309-3.5904-1.7262-1.45-4.0737-2.1404-2.2785-.69046-4.9713-.69046-2.3476 0-4.7642.55237-2.3475.55236-4.2808 1.7261t-3.1761 3.1071q-1.1738 1.9333-1.1738 4.6261 0 2.2785.7595 3.8666.7595 1.519 2.0714 2.6238 1.3809 1.0357 3.1761 1.7952 1.7952.69046 3.9356 1.2428l5.5927 1.2428q1.45.34523 2.8309.82855 1.4499.48332 2.5547 1.2428 1.1047.69046 1.7261 1.7952.6905 1.0357.6905 2.6238 0 1.8642-.9667 3.1761-.8975 1.2428-2.3475 2.0714t-3.1761 1.1738q-1.6571.34523-3.2452.34523-4.3499 0-7.3188-2.2095-2.9-2.2785-3.1762-6.6974h-4.3498q.5523 6.5594 4.4189 9.5283 3.9356 2.969 10.219 2.969 2.4856 0 5.0403-.55237 2.5547-.55236 4.5571-1.7952 2.0713-1.3119 3.3832-3.3142 1.3119-2.0714 1.3119-4.9713 0-2.3476-.8976-4.0737-.8976-1.7261-2.3476-2.8999-1.3809-1.1738-3.2451-1.8642-1.7952-.75951-3.6595-1.0357l-5.7998-1.3119q-1.1048-.27619-2.4166-.69046-1.3119-.48332-2.4166-1.1738-1.1048-.69046-1.8643-1.6571-.6904-1.0357-.6904-2.4856 0-1.7262.7595-2.8999t2.0023-1.8642q1.2428-.75951 2.6928-1.0357 1.519-.34523 2.969-.34523 1.8642 0 3.5213.48332 1.6571.41428 2.8999 1.3809 1.3119.96664 2.0714 2.4856.7595 1.45.8286 3.4523z"/>
<path d="m-2041.9-230.54v48.746h4.3499v-19.885h.138q.6905 1.9333 1.9333 3.3832 1.3119 1.45 2.969 2.4166 1.6571.96665 3.5904 1.45t3.8666.48332q4.0737 0 7.0426-1.45 3.0381-1.519 5.0404-4.0737 2.0023-2.6238 2.969-6.007.9666-3.4523.9666-7.2498 0-3.7975-.9666-7.1808-.9667-3.4523-2.969-6.007-2.0023-2.6237-5.0404-4.1428-2.9689-1.519-7.0426-1.519-4.3499 0-7.8022 2.0714-3.3833 2.0023-4.9023 5.7308h-.1381v-6.7665zm28.516 17.814q0 2.7618-.6904 5.5237-.6215 2.6928-2.0714 4.8332-1.3809 2.1404-3.5904 3.5213-2.2095 1.3119-5.3165 1.3119-3.4523 0-5.8689-1.3119-2.3476-1.3809-3.8666-3.5213-1.45-2.1404-2.1404-4.8332-.6214-2.7618-.6214-5.5237 0-3.038.5523-5.7999.6214-2.7618 2.0714-4.8332t3.8666-3.3142q2.4166-1.2428 6.007-1.2428 3.107 0 5.3165 1.3809 2.2095 1.3119 3.5904 3.4523 1.4499 2.1404 2.0714 4.9023.6904 2.6928.6904 5.4546z"/>
<path d="m-1987.2-227.91q3.1071 0 5.4547 1.3119 2.3475 1.3119 3.8665 3.4523 1.5881 2.1404 2.3476 4.9023.8285 2.6928.8285 5.5237t-.8285 5.5927q-.7595 2.6928-2.3476 4.8332-1.519 2.1404-3.8665 3.4523-2.3476 1.3119-5.4547 1.3119-3.107 0-5.4546-1.3119t-3.9356-3.4523q-1.519-2.1404-2.3476-4.8332-.7595-2.7618-.7595-5.5927t.7595-5.5237q.8286-2.7618 2.3476-4.9023 1.588-2.1404 3.9356-3.4523 2.3476-1.3119 5.4546-1.3119zm0-3.6594q-4.0737 0-7.2498 1.519-3.1071 1.519-5.2475 4.0737-2.1404 2.5547-3.2451 6.007-1.1048 3.3832-1.1048 7.2498t1.1048 7.3189q1.1047 3.3832 3.2451 5.938t5.2475 4.0737q3.1761 1.45 7.2498 1.45t7.1808-1.45q3.1761-1.519 5.3165-4.0737 2.1405-2.5547 3.2452-5.938 1.1047-3.4523 1.1047-7.3189t-1.1047-7.2498q-1.1047-3.4523-3.2452-6.007-2.1404-2.5547-5.3165-4.0737-3.1071-1.519-7.1808-1.519z"/>
<path d="m-1963.9-230.54v35.628h4.3499v-20.783q.069-2.6237.8286-4.8332.8285-2.2785 2.2094-3.8666 1.45-1.6571 3.4523-2.5547 2.0714-.96664 4.6951-.96664 2.6238 0 4.3499.82855 1.7952.82855 2.8309 2.2785 1.0357 1.45 1.45 3.4523.4143 1.9333.4143 4.2118v22.233h4.3499v-22.923q0-3.1761-.6215-5.7308-.6214-2.5547-2.1404-4.2808-1.519-1.7952-4.0737-2.7618-2.4856-.96664-6.2141-.96664-3.7975 0-6.9737 2.0023-3.1761 1.9333-4.4189 5.1784h-.1381v-6.1451z"/>
<path d="m-1905.4-220.11h4.3499q-.1381-2.8999-1.1738-5.0404-1.0357-2.1404-2.8308-3.5904-1.7262-1.45-4.0738-2.1404-2.2785-.69046-4.9713-.69046-2.3475 0-4.7641.55237-2.3476.55236-4.2809 1.7261t-3.1761 3.1071q-1.1738 1.9333-1.1738 4.6261 0 2.2785.7595 3.8666.7595 1.519 2.0714 2.6238 1.3809 1.0357 3.1761 1.7952 1.7952.69046 3.9356 1.2428l5.5928 1.2428q1.4499.34523 2.8308.82855 1.45.48332 2.5547 1.2428 1.1048.69046 1.7262 1.7952.6904 1.0357.6904 2.6238 0 1.8642-.9666 3.1761-.8976 1.2428-2.3476 2.0714-1.4499.82855-3.1761 1.1738-1.6571.34523-3.2451.34523-4.3499 0-7.3189-2.2095-2.8999-2.2785-3.1761-6.6974h-4.3499q.5524 6.5594 4.4189 9.5283 3.9357 2.969 10.219 2.969 2.4857 0 5.0404-.55237 2.5547-.55236 4.557-1.7952 2.0714-1.3119 3.3833-3.3142 1.3118-2.0714 1.3118-4.9713 0-2.3476-.8976-4.0737-.8976-1.7261-2.3475-2.8999-1.3809-1.1738-3.2452-1.8642-1.7952-.75951-3.6594-1.0357l-5.7999-1.3119q-1.1047-.27619-2.4166-.69046-1.3118-.48332-2.4166-1.1738-1.1047-.69046-1.8642-1.6571-.6905-1.0357-.6905-2.4856 0-1.7262.7595-2.8999t2.0024-1.8642q1.2428-.75951 2.6928-1.0357 1.519-.34523 2.9689-.34523 1.8643 0 3.5214.48332 1.6571.41428 2.8999 1.3809 1.3119.96664 2.0714 2.4856.7595 1.45.8285 3.4523z"/>
<path d="m-1868-215.21h-23.061q.2762-2.4166 1.1048-4.6951.8976-2.3476 2.3475-4.0737 1.45-1.7952 3.5214-2.8309 2.0714-1.1047 4.7641-1.1047 2.6238 0 4.6952 1.1047 2.0713 1.0357 3.5213 2.8309 1.45 1.7261 2.2095 4.0047.8285 2.2785.8976 4.7642zm-23.061 3.6594h27.411q.1381-3.7285-.6905-7.3189-.8285-3.6594-2.7618-6.4213-1.8643-2.8309-4.9023-4.557-3.038-1.7262-7.3189-1.7262-4.2117 0-7.3188 1.6571-3.038 1.5881-4.9713 4.2808-1.9333 2.6237-2.8999 6.007-.8976 3.3832-.8976 6.9046 0 3.7975.8976 7.2498.9666 3.3832 2.8999 6.007 1.9333 2.5547 4.9713 4.0737 3.1071 1.45 7.3188 1.45 6.7665 0 10.426-3.3142 3.7285-3.3142 5.1094-9.3902h-4.3499q-1.0357 4.1428-3.7285 6.6284t-7.457 2.4856q-3.107 0-5.3165-1.3119t-3.6594-3.3142q-1.45-2.0023-2.1404-4.488-.6215-2.5547-.6215-4.9023z"/>
</g>
<g transform="matrix(.30785 .39399 -.39399 .30785 10 514.18)" aria-label="HTTP Request">
<path d="m398.25-90.843v27.823h2.6498v-13.483h16.522v13.483h2.6498v-27.823h-2.6498v12.08h-16.522v-12.08z"/>
<path d="m422.69-90.843v2.2601h9.6639v25.563h2.6498v-25.563h9.7029v-2.2601z"/>
<path d="m444.38-90.843v2.2601h9.6639v25.563h2.6498v-25.563h9.7029v-2.2601z"/>
<path d="m471.68-77.204v-11.378h9.1184q2.7667 0 4.4812 1.4028 1.7146 1.4028 1.7146 4.2864 0 2.8836-1.7146 4.2864-1.7146 1.4028-4.4812 1.4028zm-2.6498-13.639v27.823h2.6498v-11.924h9.7029q1.8704 0 3.3902-.50658 1.5197-.54554 2.6108-1.5587 1.0911-1.0521 1.6756-2.5329t.58451-3.3512-.58451-3.3512q-.58451-1.4808-1.6756-2.4939-1.0911-1.0521-2.6108-1.5587-1.5197-.54554-3.3902-.54554z"/>
<path d="m507.07-77.633v-10.95h9.8977q3.0395 0 4.5202 1.4808t1.4808 4.0526q0 1.2859-.50658 2.2991-.4676.97418-1.2859 1.6756-.81831.70141-1.9094 1.0911-1.0911.35071-2.2991.35071zm-2.6498-13.21v27.823h2.6498v-12.353h10.054q1.8704-.07793 2.9226.62348 1.0911.70141 1.6366 1.8704.58451 1.1301.74038 2.6108.19483 1.4418.27277 2.9226.039.42864.0779 1.0132.039.58451.0779 1.208.0779.58451.19484 1.169.15587.54554.38967.93522h2.9226q-.42864-.50658-.70141-1.4028-.2338-.93522-.35071-1.9484-.1169-1.0521-.15586-2.0653-.039-1.0132-.0779-1.7146-.0779-1.247-.35071-2.2991-.2338-1.0911-.81831-1.9094-.54555-.81832-1.4418-1.3249-.89625-.54554-2.2601-.74038v-.07793q2.6888-.54554 4.0526-2.4939 1.3638-1.9484 1.3638-4.5982 0-1.8704-.70141-3.2343-.66244-1.4028-1.8315-2.2601-1.13-.89625-2.6888-1.3249-1.5197-.42864-3.2343-.42864z"/>
<path d="m544.44-74.477h-13.015q.15587-1.3639.62348-2.6498.50658-1.3249 1.3249-2.2991.81832-1.0132 1.9873-1.5977 1.169-.62348 2.6888-.62348 1.4808 0 2.6498.62348 1.169.58451 1.9873 1.5977.81831.97418 1.247 2.2601.4676 1.2859.50657 2.6888zm-13.015 2.0653h15.47q.0779-2.1042-.38968-4.1305-.4676-2.0653-1.5587-3.624-1.0521-1.5977-2.7667-2.5718-1.7146-.97418-4.1305-.97418-2.377 0-4.1306.93522-1.7146.89625-2.8056 2.416-1.0911 1.4808-1.6366 3.3902-.50658 1.9094-.50658 3.8967 0 2.1432.50658 4.0916.54554 1.9094 1.6366 3.3902 1.0911 1.4418 2.8056 2.2991 1.7535.81832 4.1306.81832 3.8188 0 5.8841-1.8704 2.1042-1.8704 2.8836-5.2996h-2.4549q-.58451 2.338-2.1042 3.7409-1.5197 1.4028-4.2085 1.4028-1.7535 0-3.0005-.74038t-2.0653-1.8704q-.81832-1.1301-1.208-2.5329-.35071-1.4418-.35071-2.7667z"/>
<path d="m567.92-55.616v-27.511h-2.2601v3.8188h-.0779q-.38967-1.0132-1.169-1.7925-.74038-.81832-1.7146-1.4028-.97419-.58451-2.1042-.89625-1.0911-.31174-2.1822-.31174-2.2991 0-4.0136.85728-1.6756.85728-2.8056 2.338-1.1301 1.4418-1.6756 3.3902-.54554 1.9094-.54554 4.0526t.54554 4.0916q.54554 1.9094 1.6756 3.3902 1.13 1.4418 2.8056 2.2991 1.7146.81832 4.0136.81832 1.1301 0 2.1822-.27277 1.0911-.27277 2.0263-.81832.93522-.54554 1.6366-1.3639.74038-.81832 1.1301-1.9094h.0779v11.223zm-16.094-17.457q0-1.5587.35071-3.0784.38967-1.5587 1.169-2.7667.81832-1.208 2.0653-1.9484 1.247-.77935 3.0005-.77935 1.9484 0 3.2733.77935 1.3639.74038 2.1822 1.9484.85728 1.208 1.208 2.7667.38967 1.5197.38967 3.0784t-.38967 3.1174q-.35071 1.5197-1.208 2.7277-.81832 1.208-2.1822 1.9873-1.3249.74038-3.2733.74038-1.7535 0-3.0005-.74038-1.247-.77935-2.0653-1.9873-.77935-1.208-1.169-2.7277-.35071-1.5587-.35071-3.1174z"/>
<path d="m588.89-63.02v-20.107h-2.455v10.56q0 1.5197-.3507 3.0005-.35071 1.4418-1.0911 2.5718t-1.8704 1.8315q-1.13.66245-2.7277.66245-2.9226 0-4.1306-1.4028-1.169-1.4028-1.247-4.1305v-13.093h-2.455v13.054q0 1.7925.38967 3.1953.38968 1.4028 1.208 2.377.85729.97418 2.1822 1.4808 1.3639.54554 3.2733.54554 2.2601 0 4.0916-1.0521 1.8704-1.0911 2.8446-3.1174h.0779v3.624z"/>
<path d="m607.99-74.477h-13.015q.15587-1.3639.62348-2.6498.50657-1.3249 1.3249-2.2991.81831-1.0132 1.9873-1.5977 1.169-.62348 2.6888-.62348 1.4808 0 2.6498.62348 1.169.58451 1.9873 1.5977.81831.97418 1.247 2.2601.46761 1.2859.50658 2.6888zm-13.015 2.0653h15.47q.0779-2.1042-.38968-4.1305-.46761-2.0653-1.5587-3.624-1.0521-1.5977-2.7667-2.5718-1.7146-.97418-4.1305-.97418-2.377 0-4.1306.93522-1.7146.89625-2.8056 2.416-1.0911 1.4808-1.6366 3.3902-.50658 1.9094-.50658 3.8967 0 2.1432.50658 4.0916.54554 1.9094 1.6366 3.3902 1.0911 1.4418 2.8056 2.2991 1.7535.81832 4.1306.81832 3.8188 0 5.8841-1.8704 2.1042-1.8704 2.8836-5.2996h-2.4549q-.58451 2.338-2.1042 3.7409-1.5197 1.4028-4.2085 1.4028-1.7535 0-3.0005-.74038-1.247-.74038-2.0653-1.8704-.81832-1.1301-1.208-2.5329-.35071-1.4418-.35071-2.7667z"/>
<path d="m625.82-77.243h2.455q-.0779-1.6366-.66245-2.8446-.58451-1.208-1.5977-2.0263-.97418-.81832-2.2991-1.208-1.2859-.38967-2.8056-.38967-1.3249 0-2.6888.31174-1.3249.31174-2.416.97418-1.0911.66244-1.7925 1.7535-.66244 1.0911-.66244 2.6108 0 1.2859.42864 2.1822.42864.85728 1.169 1.4808.77935.58451 1.7925 1.0132 1.0132.38967 2.2211.70141l3.1564.70141q.81832.19484 1.5977.46761.81832.27277 1.4418.70141.62348.38967.97418 1.0132.38968.58451.38968 1.4808 0 1.0521-.54555 1.7925-.50657.70141-1.3249 1.169-.81831.46761-1.7925.66245-.93522.19484-1.8315.19484-2.4549 0-4.1305-1.247-1.6366-1.2859-1.7925-3.7798h-2.455q.31174 3.7019 2.4939 5.3775 2.2211 1.6756 5.7672 1.6756 1.4028 0 2.8446-.31174 1.4418-.31174 2.5718-1.0132 1.169-.74038 1.9094-1.8704.74038-1.169.74038-2.8057 0-1.3249-.50657-2.2991-.50658-.97418-1.3249-1.6366-.77935-.66244-1.8315-1.0521-1.0132-.42864-2.0653-.58451l-3.2733-.74038q-.62347-.15587-1.3639-.38967-.74038-.27277-1.3638-.66245-.62348-.38967-1.0521-.93522-.38968-.58451-.38968-1.4028 0-.97418.42864-1.6366.42864-.66244 1.1301-1.0521.70141-.42864 1.5197-.58451.85728-.19484 1.6756-.19484 1.0521 0 1.9873.27277.93522.2338 1.6366.77935.74038.54554 1.169 1.4028.42865.81832.46761 1.9484z"/>
<path d="m636.4-83.127v-6.0399h-2.4549v6.0399h-3.5071v2.0653h3.5071v13.755q-.039 2.5718.93521 3.546.97419.93522 3.4291.93522.54554 0 1.0911-.03897.54555-.03897 1.0911-.03897v-2.0653q-1.0521.1169-2.1042.1169-1.3249-.07793-1.6756-.74038-.31174-.70141-.31174-1.9094v-13.561h4.0916v-2.0653z"/>
</g>
<g transform="matrix(.17374 .22236 -.22236 .17374 518.96 1152.4)" stroke-width="7.5323" aria-label="HTTP Response">
<path d="m-2339.7-235.05v49.299h4.6952v-23.89h29.275v23.89h4.6951v-49.299h-4.6951v21.404h-29.275v-21.404z"/>
<path d="m-2296.4-235.05v4.0047h17.123v45.294h4.6951v-45.294h17.192v-4.0047z"/>
<path d="m-2258-235.05v4.0047h17.123v45.294h4.6951v-45.294h17.192v-4.0047z"/>
<path d="m-2209.6-210.88v-20.161h16.157q4.9022 0 7.9403 2.4856 3.038 2.4856 3.038 7.595t-3.038 7.595q-3.0381 2.4856-7.9403 2.4856zm-4.6952-24.166v49.299h4.6952v-21.128h17.192q3.3142 0 6.007-.89759 2.6928-.96665 4.626-2.7618 1.9333-1.8642 2.969-4.488 1.0357-2.6238 1.0357-5.938t-1.0357-5.938q-1.0357-2.6237-2.969-4.4189-1.9332-1.8642-4.626-2.7618-2.6928-.96664-6.007-.96664z"/>
<path d="m-2146.9-211.64v-19.402h17.538q5.3856 0 8.0093 2.6237 2.6238 2.6238 2.6238 7.1808 0 2.2785-.8976 4.0737-.8286 1.7262-2.2785 2.969-1.45 1.2428-3.3833 1.9333-1.9333.62142-4.0737.62142zm-4.6951-23.407v49.299h4.6951v-21.888h17.814q3.3142-.13809 5.1784 1.1047 1.9333 1.2428 2.8999 3.3142 1.0357 2.0023 1.3119 4.6261.3452 2.5547.4833 5.1784.069.75951.1381 1.7952.069 1.0357.1381 2.1404.1381 1.0357.3453 2.0714.2761.96665.6904 1.6571h5.1785q-.7596-.8976-1.2429-2.4857-.4142-1.6571-.6214-3.4523-.2071-1.8642-.2762-3.6594-.069-1.7952-.1381-3.038-.1381-2.2095-.6214-4.0737-.4142-1.9333-1.4499-3.3832-.9667-1.45-2.5547-2.3476-1.5881-.96664-4.0047-1.3119v-.13809q4.7642-.96665 7.1808-4.4189t2.4166-8.1474q0-3.3142-1.2428-5.7308-1.1738-2.4857-3.2452-4.0047-2.0023-1.588-4.7642-2.3476-2.6928-.7595-5.7308-.7595z"/>
<path d="m-2080.7-206.05h-23.061q.2761-2.4166 1.1047-4.6951.8976-2.3476 2.3476-4.0737 1.4499-1.7952 3.5213-2.8309 2.0714-1.1047 4.7642-1.1047 2.6237 0 4.6951 1.1047 2.0714 1.0357 3.5213 2.8309 1.45 1.7261 2.2095 4.0047.8285 2.2785.8976 4.7642zm-23.061 3.6594h27.411q.1381-3.7285-.6905-7.3189-.8285-3.6594-2.7618-6.4213-1.8643-2.8309-4.9023-4.557-3.038-1.7261-7.3188-1.7261-4.2118 0-7.3189 1.6571-3.038 1.588-4.9713 4.2808-1.9333 2.6238-2.8999 6.007-.8976 3.3832-.8976 6.9046 0 3.7975.8976 7.2498.9666 3.3832 2.8999 6.007 1.9333 2.5547 4.9713 4.0737 3.1071 1.45 7.3189 1.45 6.7665 0 10.426-3.3142 3.7285-3.3142 5.1094-9.3902h-4.3499q-1.0357 4.1428-3.7285 6.6284t-7.4569 2.4856q-3.1071 0-5.3166-1.3119-2.2094-1.3119-3.6594-3.3142t-2.1404-4.488q-.6214-2.5547-.6214-4.9022z"/>
<path d="m-2049.1-210.95h4.3498q-.138-2.8999-1.1737-5.0404-1.0357-2.1404-2.8309-3.5904-1.7262-1.45-4.0737-2.1404-2.2785-.69046-4.9713-.69046-2.3476 0-4.7642.55236-2.3476.55237-4.2808 1.7262-1.9333 1.1738-3.1762 3.1071-1.1737 1.9333-1.1737 4.6261 0 2.2785.7595 3.8666.7595 1.519 2.0713 2.6238 1.381 1.0357 3.1762 1.7952 1.7952.69046 3.9356 1.2428l5.5927 1.2428q1.45.34523 2.8309.82855 1.4499.48332 2.5547 1.2428 1.1047.69046 1.7261 1.7952.6905 1.0357.6905 2.6237 0 1.8642-.9667 3.1761-.8976 1.2428-2.3475 2.0714-1.45.82855-3.1761 1.1738-1.6571.34523-3.2452.34523-4.3499 0-7.3189-2.2095-2.8999-2.2785-3.1761-6.6974h-4.3499q.5524 6.5594 4.419 9.5283 3.9356 2.969 10.219 2.969 2.4856 0 5.0403-.55237t4.557-1.7952q2.0714-1.3119 3.3833-3.3142 1.3119-2.0714 1.3119-4.9713 0-2.3476-.8976-4.0737-.8976-1.7261-2.3476-2.8999-1.3809-1.1738-3.2451-1.8642-1.7952-.75951-3.6595-1.0357l-5.7998-1.3119q-1.1048-.27619-2.4166-.69046-1.3119-.48332-2.4166-1.1738-1.1048-.69046-1.8643-1.6571-.6904-1.0357-.6904-2.4857 0-1.7261.7595-2.8999t2.0023-1.8642q1.2428-.75951 2.6928-1.0357 1.519-.34523 2.969-.34523 1.8642 0 3.5213.48332 1.6571.41428 2.8999 1.3809 1.3119.96664 2.0714 2.4856.7595 1.45.8286 3.4523z"/>
<path d="m-2037.2-221.38v48.746h4.3499v-19.885h.1381q.6905 1.9333 1.9333 3.3832 1.3119 1.45 2.969 2.4166 1.6571.96665 3.5904 1.45t3.8665.48332q4.0738 0 7.0427-1.45 3.038-1.519 5.0404-4.0737 2.0023-2.6238 2.9689-6.007.9667-3.4523.9667-7.2498 0-3.7975-.9667-7.1808-.9666-3.4523-2.9689-6.007-2.0024-2.6237-5.0404-4.1428-2.9689-1.519-7.0427-1.519-4.3498 0-7.8021 2.0714-3.3833 2.0023-4.9023 5.7308h-.1381v-6.7665zm28.516 17.814q0 2.7618-.6905 5.5237-.6214 2.6928-2.0713 4.8332-1.381 2.1404-3.5904 3.5213-2.2095 1.3119-5.3166 1.3119-3.4522 0-5.8689-1.3119-2.3475-1.3809-3.8665-3.5213-1.45-2.1404-2.1404-4.8332-.6215-2.7618-.6215-5.5237 0-3.038.5524-5.7999.6214-2.7618 2.0714-4.8332 1.4499-2.0714 3.8666-3.3142 2.4166-1.2428 6.0069-1.2428 3.1071 0 5.3166 1.3809 2.2094 1.3119 3.5904 3.4523 1.4499 2.1404 2.0713 4.9023.6905 2.6928.6905 5.4546z"/>
<path d="m-1982.5-218.75q3.1071 0 5.4546 1.3119 2.3476 1.3119 3.8666 3.4523 1.5881 2.1404 2.3476 4.9022.8285 2.6928.8285 5.5237 0 2.8309-.8285 5.5927-.7595 2.6928-2.3476 4.8332-1.519 2.1404-3.8666 3.4523-2.3475 1.3119-5.4546 1.3119t-5.4546-1.3119q-2.3476-1.3119-3.9356-3.4523-1.519-2.1404-2.3476-4.8332-.7595-2.7618-.7595-5.5927 0-2.8309.7595-5.5237.8286-2.7618 2.3476-4.9022 1.588-2.1404 3.9356-3.4523 2.3475-1.3119 5.4546-1.3119zm0-3.6594q-4.0737 0-7.2498 1.519-3.1071 1.519-5.2475 4.0737-2.1404 2.5547-3.2451 6.007-1.1048 3.3832-1.1048 7.2498t1.1048 7.3189q1.1047 3.3832 3.2451 5.938 2.1404 2.5547 5.2475 4.0737 3.1761 1.45 7.2498 1.45t7.1808-1.45q3.1761-1.519 5.3165-4.0737 2.1404-2.5547 3.2452-5.938 1.1047-3.4523 1.1047-7.3189t-1.1047-7.2498q-1.1048-3.4523-3.2452-6.007-2.1404-2.5547-5.3165-4.0737-3.1071-1.519-7.1808-1.519z"/>
<path d="m-1959.2-221.38v35.628h4.3499v-20.783q.069-2.6237.8286-4.8332.8285-2.2785 2.2094-3.8666 1.45-1.6571 3.4523-2.5547 2.0714-.96664 4.6951-.96664 2.6238 0 4.3499.82855 1.7952.82855 2.8309 2.2785 1.0357 1.45 1.45 3.4523.4142 1.9333.4142 4.2118v22.233h4.3499v-22.923q0-3.1761-.6214-5.7308t-2.1404-4.2808q-1.519-1.7952-4.0737-2.7618-2.4857-.96664-6.2141-.96664-3.7976 0-6.9737 2.0023-3.1761 1.9333-4.4189 5.1784h-.1381v-6.1451z"/>
<path d="m-1900.7-210.95h4.3499q-.1381-2.8999-1.1738-5.0404-1.0357-2.1404-2.8309-3.5904-1.7261-1.45-4.0737-2.1404-2.2785-.69046-4.9713-.69046-2.3475 0-4.7641.55236-2.3476.55237-4.2809 1.7262t-3.1761 3.1071q-1.1738 1.9333-1.1738 4.6261 0 2.2785.7595 3.8666.7595 1.519 2.0714 2.6238 1.3809 1.0357 3.1761 1.7952 1.7952.69046 3.9356 1.2428l5.5928 1.2428q1.4499.34523 2.8308.82855 1.45.48332 2.5547 1.2428 1.1048.69046 1.7262 1.7952.6904 1.0357.6904 2.6237 0 1.8642-.9666 3.1761-.8976 1.2428-2.3476 2.0714-1.4499.82855-3.1761 1.1738-1.6571.34523-3.2451.34523-4.3499 0-7.3189-2.2095-2.8999-2.2785-3.1761-6.6974h-4.3499q.5524 6.5594 4.4189 9.5283 3.9357 2.969 10.219 2.969 2.4857 0 5.0404-.55237t4.557-1.7952q2.0714-1.3119 3.3833-3.3142 1.3118-2.0714 1.3118-4.9713 0-2.3476-.8976-4.0737-.8976-1.7261-2.3475-2.8999-1.3809-1.1738-3.2452-1.8642-1.7952-.75951-3.6594-1.0357l-5.7999-1.3119q-1.1047-.27619-2.4166-.69046-1.3119-.48332-2.4166-1.1738t-1.8642-1.6571q-.6905-1.0357-.6905-2.4857 0-1.7261.7595-2.8999t2.0024-1.8642q1.2428-.75951 2.6927-1.0357 1.5191-.34523 2.969-.34523 1.8643 0 3.5214.48332 1.6571.41428 2.8999 1.3809 1.3119.96664 2.0714 2.4856.7595 1.45.8285 3.4523z"/>
<path d="m-1863.3-206.05h-23.061q.2762-2.4166 1.1048-4.6951.8976-2.3476 2.3475-4.0737 1.45-1.7952 3.5214-2.8309 2.0713-1.1047 4.7641-1.1047 2.6238 0 4.6952 1.1047 2.0713 1.0357 3.5213 2.8309 1.45 1.7261 2.2095 4.0047.8285 2.2785.8976 4.7642zm-23.061 3.6594h27.411q.138-3.7285-.6905-7.3189-.8286-3.6594-2.7618-6.4213-1.8643-2.8309-4.9023-4.557-3.038-1.7261-7.3189-1.7261-4.2118 0-7.3188 1.6571-3.038 1.588-4.9713 4.2808-1.9333 2.6238-2.9 6.007-.8976 3.3832-.8976 6.9046 0 3.7975.8976 7.2498.9667 3.3832 2.9 6.007 1.9333 2.5547 4.9713 4.0737 3.107 1.45 7.3188 1.45 6.7665 0 10.426-3.3142 3.7284-3.3142 5.1094-9.3902h-4.3499q-1.0357 4.1428-3.7285 6.6284t-7.457 2.4856q-3.107 0-5.3165-1.3119t-3.6594-3.3142q-1.45-2.0023-2.1405-4.488-.6214-2.5547-.6214-4.9022z"/>
</g>
</g>
<g fill="#ffffff" font-family="'open sans'" font-size="5.3333px" letter-spacing="0px" stroke-width=".092171" text-anchor="middle" word-spacing="0px">
<text transform="rotate(122.78)" x="376.18848" y="-796.64734" dominant-baseline="auto" text-align="center" style="font-feature-settings:normal;font-variant-alternates:normal;font-variant-caps:normal;font-variant-ligatures:normal;font-variant-numeric:normal;font-variant-position:normal;line-height:1.25;shape-padding:0;text-decoration-color:#000000;text-decoration-line:none;text-decoration-style:solid;text-indent:0;text-orientation:mixed;text-transform:none;white-space:normal" xml:space="preserve"><tspan x="376.18848" y="-796.64734" fill="#000000" font-family="'Anonymous Pro'" font-size="16px" font-weight="bold">--&gt;</tspan></text>
<text transform="rotate(122.78)" x="181.51506" y="-821.52368" dominant-baseline="auto" text-align="center" style="font-feature-settings:normal;font-variant-alternates:normal;font-variant-caps:normal;font-variant-ligatures:normal;font-variant-numeric:normal;font-variant-position:normal;line-height:1.25;shape-padding:0;text-decoration-color:#000000;text-decoration-line:none;text-decoration-style:solid;text-indent:0;text-orientation:mixed;text-transform:none;white-space:normal" xml:space="preserve"><tspan x="181.51506" y="-821.52368" fill="#000000" font-family="'Anonymous Pro'" font-size="16px" font-weight="bold">&lt;--</tspan></text>
<text transform="rotate(-90)" x="-544.55463" y="377.40439" dominant-baseline="auto" text-align="center" style="font-feature-settings:normal;font-variant-alternates:normal;font-variant-caps:normal;font-variant-ligatures:normal;font-variant-numeric:normal;font-variant-position:normal;line-height:1.25;shape-padding:0;text-decoration-color:#000000;text-decoration-line:none;text-decoration-style:solid;text-indent:0;text-orientation:mixed;text-transform:none;white-space:normal" xml:space="preserve"><tspan x="-544.55463" y="377.40439" fill="#000000" font-family="'Anonymous Pro'" font-size="16px" font-weight="bold">--&gt;</tspan></text>
<text transform="rotate(90)" x="719.43018" y="-344.95715" dominant-baseline="auto" text-align="center" style="font-feature-settings:normal;font-variant-alternates:normal;font-variant-caps:normal;font-variant-ligatures:normal;font-variant-numeric:normal;font-variant-position:normal;line-height:1.25;shape-padding:0;text-decoration-color:#000000;text-decoration-line:none;text-decoration-style:solid;text-indent:0;text-orientation:mixed;text-transform:none;white-space:normal" xml:space="preserve"><tspan x="719.43018" y="-344.95715" fill="#000000" font-family="'Anonymous Pro'" font-size="16px" font-weight="bold">--&gt;</tspan></text>
<text transform="rotate(231.97)" x="-543.37946" y="-236.28" dominant-baseline="auto" text-align="center" style="font-feature-settings:normal;font-variant-alternates:normal;font-variant-caps:normal;font-variant-ligatures:normal;font-variant-numeric:normal;font-variant-position:normal;line-height:1.25;shape-padding:0;text-decoration-color:#000000;text-decoration-line:none;text-decoration-style:solid;text-indent:0;text-orientation:mixed;text-transform:none;white-space:normal" xml:space="preserve"><tspan x="-543.37946" y="-236.28" fill="#000000" font-family="'Anonymous Pro'" font-size="16px" font-weight="bold">--&gt;</tspan></text>
<text transform="rotate(51.968)" x="753.30786" y="275.68503" dominant-baseline="auto" text-align="center" style="font-feature-settings:normal;font-variant-alternates:normal;font-variant-caps:normal;font-variant-ligatures:normal;font-variant-numeric:normal;font-variant-position:normal;line-height:1.25;shape-padding:0;text-decoration-color:#000000;text-decoration-line:none;text-decoration-style:solid;text-indent:0;text-orientation:mixed;text-transform:none;white-space:normal" xml:space="preserve"><tspan x="753.30786" y="275.68503" fill="#000000" font-family="'Anonymous Pro'" font-size="16px" font-weight="bold">--&gt;</tspan></text>
</g>
</g>
</svg>
