<svg width="720" height="668" version="1.1" viewBox="0 0 720 668" xmlns="http://www.w3.org/2000/svg">
<g transform="translate(0 -384.4)">
<g>
<path d="m0 384.4h718.9v668h-718.9z" fill="#f2f2f2"/>
<g transform="matrix(.5758 0 0 .5758 -55.25 851.2)" stroke-width="6.569" aria-label="Internet Engineering Task Force (IETF)">
<path d="m98.9-207.3v55.34h5.27v-55.34z"/>
<path d="m114.8-192v39.99h4.882v-23.33q.0775-2.945.93-5.425.93-2.558 2.48-4.34 1.628-1.86 3.875-2.868 2.325-1.085 5.27-1.085t4.882.93q2.015.93 3.178 2.558t1.628 3.875q.465 2.17.465 4.728v24.96h4.882v-25.73q0-3.565-.6975-6.432t-2.402-4.805q-1.705-2.015-4.572-3.1-2.79-1.085-6.975-1.085-4.262 0-7.828 2.248-3.565 2.17-4.96 5.812h-.155v-6.898z"/>
<path d="m164.2-192v-12.01h-4.882v12.01h-6.975v4.108h6.975v27.36q-.0775 5.115 1.86 7.052 1.938 1.86 6.82 1.86 1.085 0 2.17-.0775t2.17-.0775v-4.108q-2.092.2325-4.185.2325-2.635-.155-3.332-1.472-.62-1.395-.62-3.798v-26.97h8.138v-4.108z"/>
<path d="m208.2-174.8h-25.88q.31-2.712 1.24-5.27 1.008-2.635 2.635-4.572 1.628-2.015 3.952-3.178 2.325-1.24 5.348-1.24 2.945 0 5.27 1.24 2.325 1.162 3.952 3.178 1.628 1.938 2.48 4.495.93 2.558 1.008 5.348zm-25.88 4.108h30.77q.155-4.185-.775-8.215-.93-4.108-3.1-7.208-2.092-3.178-5.502-5.115t-8.215-1.938q-4.728 0-8.215 1.86-3.41 1.782-5.58 4.805-2.17 2.945-3.255 6.742-1.008 3.798-1.008 7.75 0 4.262 1.008 8.138 1.085 3.798 3.255 6.742 2.17 2.868 5.58 4.572 3.488 1.628 8.215 1.628 7.595 0 11.7-3.72 4.185-3.72 5.735-10.54h-4.882q-1.162 4.65-4.185 7.44t-8.37 2.79q-3.488 0-5.968-1.472t-4.108-3.72-2.402-5.038q-.6975-2.868-.6975-5.502z"/>
<path d="m219.7-192v39.99h4.882v-21.31q0-3.178 1.085-5.812 1.085-2.712 3.022-4.65 2.015-1.938 4.728-2.945 2.712-1.085 6.045-.93v-4.882q-5.425-.2325-9.378 2.402-3.875 2.635-5.735 7.518h-.155v-9.378z"/>
<path d="m245.5-192v39.99h4.882v-23.33q.0775-2.945.93-5.425.93-2.558 2.48-4.34 1.628-1.86 3.875-2.868 2.325-1.085 5.27-1.085t4.882.93q2.015.93 3.178 2.558t1.628 3.875q.465 2.17.465 4.728v24.96h4.882v-25.73q0-3.565-.6975-6.432t-2.402-4.805q-1.705-2.015-4.572-3.1-2.79-1.085-6.975-1.085-4.262 0-7.828 2.248-3.565 2.17-4.96 5.812h-.155v-6.898z"/>
<path d="m316-174.8h-25.88q.31-2.712 1.24-5.27 1.008-2.635 2.635-4.572 1.628-2.015 3.952-3.178 2.325-1.24 5.348-1.24 2.945 0 5.27 1.24 2.325 1.162 3.952 3.178 1.628 1.938 2.48 4.495.93 2.558 1.008 5.348zm-25.88 4.108h30.77q.155-4.185-.775-8.215-.93-4.108-3.1-7.208-2.092-3.178-5.502-5.115t-8.215-1.938q-4.728 0-8.215 1.86-3.41 1.782-5.58 4.805-2.17 2.945-3.255 6.742-1.008 3.798-1.008 7.75 0 4.262 1.008 8.138 1.085 3.798 3.255 6.742 2.17 2.868 5.58 4.572 3.488 1.628 8.215 1.628 7.595 0 11.7-3.72 4.185-3.72 5.735-10.54h-4.882q-1.162 4.65-4.185 7.44t-8.37 2.79q-3.488 0-5.968-1.472t-4.108-3.72-2.402-5.038q-.6975-2.868-.6975-5.502z"/>
<path d="m335.3-192v-12.01h-4.882v12.01h-6.975v4.108h6.975v27.36q-.0775 5.115 1.86 7.052 1.938 1.86 6.82 1.86 1.085 0 2.17-.0775t2.17-.0775v-4.108q-2.092.2325-4.185.2325-2.635-.155-3.332-1.472-.62-1.395-.62-3.798v-26.97h8.138v-4.108z"/>
<path d="m372.9-207.3v55.34h38.6v-4.495h-33.32v-21.86h30.84v-4.495h-30.84v-20h32.94v-4.495z"/>
<path d="m418-192v39.99h4.882v-23.33q.0775-2.945.93-5.425.93-2.558 2.48-4.34 1.628-1.86 3.875-2.868 2.325-1.085 5.27-1.085t4.882.93q2.015.93 3.178 2.558t1.628 3.875q.465 2.17.465 4.728v24.96h4.882v-25.73q0-3.565-.6975-6.432t-2.402-4.805q-1.705-2.015-4.572-3.1-2.79-1.085-6.975-1.085-4.262 0-7.828 2.248-3.565 2.17-4.96 5.812h-.155v-6.898z"/>
<path d="m493.4-155.2v-36.74h-4.882v6.898h-.155q-.6975-1.628-2.015-3.1-1.24-1.472-2.868-2.558-1.628-1.162-3.642-1.782-1.938-.62-4.185-.62-4.34 0-7.75 1.628-3.332 1.55-5.658 4.34-2.248 2.712-3.488 6.432-1.162 3.642-1.162 7.75 0 4.262 1.008 8.06 1.008 3.72 3.178 6.51 2.248 2.79 5.658 4.418 3.41 1.55 8.215 1.55 4.418 0 7.672-2.248 3.332-2.248 5.038-5.968h.155v5.425q0 7.285-3.022 11.16t-9.842 3.875q-2.015 0-3.952-.465-1.938-.3875-3.565-1.318-1.55-.93-2.712-2.48-1.085-1.472-1.472-3.72h-4.882q.2325 3.178 1.705 5.425 1.55 2.325 3.798 3.798 2.325 1.472 5.192 2.17t5.89.6975q4.882 0 8.215-1.318 3.41-1.318 5.502-3.798t3.022-6.045q1.008-3.565 1.008-7.982zm-17.75-1.318q-3.41 0-5.89-1.318-2.48-1.395-4.108-3.565-1.628-2.248-2.402-5.115t-.775-5.89q0-3.1.6975-6.045.775-3.022 2.402-5.348t4.108-3.72q2.48-1.472 5.968-1.472t5.89 1.472q2.48 1.472 4.03 3.875t2.248 5.348.6975 5.89q0 3.022-.8525 5.89-.775 2.868-2.402 5.115-1.628 2.17-4.03 3.565-2.402 1.318-5.58 1.318z"/>
<path d="m502.9-207.3v7.828h4.882v-7.828zm0 15.34v39.99h4.882v-39.99z"/>
<path d="m517.1-192v39.99h4.882v-23.33q.0775-2.945.93-5.425.93-2.558 2.48-4.34 1.628-1.86 3.875-2.868 2.325-1.085 5.27-1.085t4.882.93q2.015.93 3.178 2.558t1.628 3.875q.465 2.17.465 4.728v24.96h4.882v-25.73q0-3.565-.6975-6.432t-2.402-4.805q-1.705-2.015-4.572-3.1-2.79-1.085-6.975-1.085-4.262 0-7.828 2.248-3.565 2.17-4.96 5.812h-.155v-6.898z"/>
<path d="m587.6-174.8h-25.88q.31-2.712 1.24-5.27 1.008-2.635 2.635-4.572 1.628-2.015 3.952-3.178 2.325-1.24 5.348-1.24 2.945 0 5.27 1.24 2.325 1.162 3.952 3.178 1.628 1.938 2.48 4.495.93 2.558 1.008 5.348zm-25.88 4.108h30.77q.155-4.185-.775-8.215-.93-4.108-3.1-7.208-2.092-3.178-5.502-5.115t-8.215-1.938q-4.728 0-8.215 1.86-3.41 1.782-5.58 4.805-2.17 2.945-3.255 6.742-1.008 3.798-1.008 7.75 0 4.262 1.008 8.138 1.085 3.798 3.255 6.742 2.17 2.868 5.58 4.572 3.488 1.628 8.215 1.628 7.595 0 11.7-3.72 4.185-3.72 5.735-10.54h-4.882q-1.162 4.65-4.185 7.44t-8.37 2.79q-3.488 0-5.968-1.472t-4.108-3.72-2.402-5.038q-.6975-2.868-.6975-5.502z"/>
<path d="m627.8-174.8h-25.88q.31-2.712 1.24-5.27 1.008-2.635 2.635-4.572 1.628-2.015 3.952-3.178 2.325-1.24 5.348-1.24 2.945 0 5.27 1.24 2.325 1.162 3.952 3.178 1.628 1.938 2.48 4.495.93 2.558 1.008 5.348zm-25.88 4.108h30.77q.155-4.185-.775-8.215-.93-4.108-3.1-7.208-2.092-3.178-5.502-5.115t-8.215-1.938q-4.728 0-8.215 1.86-3.41 1.782-5.58 4.805-2.17 2.945-3.255 6.742-1.008 3.798-1.008 7.75 0 4.262 1.008 8.138 1.085 3.798 3.255 6.742 2.17 2.868 5.58 4.572 3.488 1.628 8.215 1.628 7.595 0 11.7-3.72 4.185-3.72 5.735-10.54h-4.882q-1.162 4.65-4.185 7.44t-8.37 2.79q-3.488 0-5.968-1.472t-4.108-3.72-2.402-5.038q-.6975-2.868-.6975-5.502z"/>
<path d="m639.3-192v39.99h4.882v-21.31q0-3.178 1.085-5.812 1.085-2.712 3.022-4.65 2.015-1.938 4.728-2.945 2.712-1.085 6.045-.93v-4.882q-5.425-.2325-9.378 2.402-3.875 2.635-5.735 7.518h-.155v-9.378z"/>
<path d="m663.8-207.3v7.828h4.883v-7.828zm0 15.34v39.99h4.883v-39.99z"/>
<path d="m678-192v39.99h4.882v-23.33q.0775-2.945.93-5.425.93-2.558 2.48-4.34 1.628-1.86 3.875-2.868 2.325-1.085 5.27-1.085t4.882.93q2.015.93 3.178 2.558t1.628 3.875q.465 2.17.465 4.728v24.96h4.882v-25.73q0-3.565-.6975-6.432t-2.402-4.805q-1.705-2.015-4.572-3.1-2.79-1.085-6.975-1.085-4.262 0-7.828 2.248-3.565 2.17-4.96 5.812h-.155v-6.898z"/>
<path d="m753.5-155.2v-36.74h-4.882v6.898h-.155q-.6975-1.628-2.015-3.1-1.24-1.472-2.868-2.558-1.628-1.162-3.642-1.782-1.938-.62-4.185-.62-4.34 0-7.75 1.628-3.332 1.55-5.658 4.34-2.248 2.712-3.488 6.432-1.162 3.642-1.162 7.75 0 4.262 1.008 8.06 1.008 3.72 3.178 6.51 2.248 2.79 5.658 4.418 3.41 1.55 8.215 1.55 4.418 0 7.672-2.248 3.332-2.248 5.038-5.968h.155v5.425q0 7.285-3.022 11.16t-9.842 3.875q-2.015 0-3.952-.465-1.938-.3875-3.565-1.318-1.55-.93-2.712-2.48-1.085-1.472-1.472-3.72h-4.882q.2325 3.178 1.705 5.425 1.55 2.325 3.798 3.798 2.325 1.472 5.192 2.17t5.89.6975q4.882 0 8.215-1.318 3.41-1.318 5.502-3.798t3.022-6.045q1.008-3.565 1.008-7.982zm-17.75-1.318q-3.41 0-5.89-1.318-2.48-1.395-4.108-3.565-1.628-2.248-2.402-5.115t-.775-5.89q0-3.1.6975-6.045.775-3.022 2.402-5.348t4.108-3.72q2.48-1.472 5.968-1.472t5.89 1.472q2.48 1.472 4.03 3.875t2.248 5.348.6975 5.89q0 3.022-.8525 5.89-.775 2.868-2.402 5.115-1.628 2.17-4.03 3.565-2.402 1.318-5.58 1.318z"/>
<path d="m779.4-207.3v4.495h19.22v50.84h5.27v-50.84h19.3v-4.495z"/>
<path d="m818.5-179.7h4.882q.155-4.882 3.1-7.052 2.945-2.248 7.595-2.248 2.17 0 4.03.3875 1.938.31 3.332 1.24 1.472.93 2.248 2.558.8525 1.55.8525 4.03 0 1.628-.465 2.635-.3875 1.008-1.162 1.628-.775.5425-1.938.775t-2.712.3875q-3.952.465-7.828 1.008-3.798.465-6.898 1.705-3.022 1.24-4.882 3.642-1.86 2.325-1.86 6.51 0 3.022 1.008 5.27 1.085 2.17 2.868 3.642 1.86 1.395 4.262 2.015 2.48.6975 5.27.6975 2.945 0 5.038-.5425 2.17-.5425 3.798-1.55 1.705-1.008 3.022-2.48 1.395-1.55 2.712-3.488h.155q0 1.55.155 2.868.2325 1.24.8525 2.17t1.705 1.472q1.162.465 3.022.465 1.008 0 1.628-.0775.6975-.0775 1.55-.2325v-4.108q-.6975.31-1.55.31-2.868 0-2.868-2.945v-21.24q0-4.03-1.318-6.51-1.318-2.558-3.41-3.952t-4.728-1.86q-2.635-.5425-5.27-.5425-3.488 0-6.355.775t-5.038 2.402q-2.092 1.628-3.332 4.185t-1.472 6.045zm26.04 5.89v6.355q0 2.945-1.162 5.27-1.085 2.325-3.022 3.952-1.86 1.628-4.418 2.48t-5.348.8525q-1.705 0-3.332-.5425t-2.868-1.55q-1.24-1.085-2.015-2.48-.6975-1.472-.6975-3.332 0-2.945 1.705-4.495 1.782-1.628 4.495-2.48t5.968-1.24q3.332-.465 6.432-1.008 1.008-.155 2.325-.5425t1.782-1.24z"/>
<path d="m883.2-180.3h4.882q-.155-3.255-1.318-5.658t-3.178-4.03q-1.938-1.628-4.572-2.402-2.558-.775-5.58-.775-2.635 0-5.348.62-2.635.62-4.805 1.938t-3.565 3.488q-1.318 2.17-1.318 5.192 0 2.558.8525 4.34.8525 1.705 2.325 2.945 1.55 1.162 3.565 2.015 2.015.775 4.418 1.395l6.278 1.395q1.628.3875 3.178.93 1.628.5425 2.868 1.395 1.24.775 1.938 2.015.775 1.162.775 2.945 0 2.092-1.085 3.565-1.008 1.395-2.635 2.325t-3.565 1.318q-1.86.3875-3.642.3875-4.882 0-8.215-2.48-3.255-2.558-3.565-7.518h-4.882q.62 7.362 4.96 10.7 4.418 3.332 11.47 3.332 2.79 0 5.658-.62t5.115-2.015q2.325-1.472 3.798-3.72 1.472-2.325 1.472-5.58 0-2.635-1.008-4.572t-2.635-3.255q-1.55-1.318-3.642-2.092-2.015-.8525-4.108-1.162l-6.51-1.472q-1.24-.31-2.712-.775-1.472-.5425-2.712-1.318t-2.092-1.86q-.775-1.162-.775-2.79 0-1.938.8525-3.255t2.248-2.092q1.395-.8525 3.022-1.162 1.705-.3875 3.332-.3875 2.092 0 3.952.5425 1.86.465 3.255 1.55 1.472 1.085 2.325 2.79.8525 1.628.93 3.875z"/>
<path d="m896.5-207.3v55.34h4.882v-15.19l7.905-6.588 15.81 21.78h6.122l-18.21-25.19 17.05-14.8h-6.51l-22.16 19.38v-34.72z"/>
<path d="m957.7-207.3v55.34h5.27v-26.35h26.5v-4.495h-26.5v-20h29.84v-4.495z"/>
<path d="m1015-189q3.488 0 6.122 1.472t4.34 3.875q1.782 2.402 2.635 5.502.93 3.022.93 6.2t-.93 6.278q-.8525 3.022-2.635 5.425-1.705 2.402-4.34 3.875t-6.122 1.472-6.122-1.472-4.418-3.875q-1.705-2.402-2.635-5.425-.8525-3.1-.8525-6.278t.8525-6.2q.93-3.1 2.635-5.502 1.782-2.402 4.418-3.875t6.122-1.472zm0-4.108q-4.572 0-8.138 1.705-3.488 1.705-5.89 4.572-2.402 2.868-3.642 6.742-1.24 3.798-1.24 8.138t1.24 8.215q1.24 3.798 3.642 6.665 2.402 2.868 5.89 4.572 3.565 1.628 8.138 1.628t8.06-1.628q3.565-1.705 5.968-4.572t3.642-6.665q1.24-3.875 1.24-8.215t-1.24-8.138q-1.24-3.875-3.642-6.742t-5.968-4.572q-3.488-1.705-8.06-1.705z"/>
<path d="m1042-192v39.99h4.882v-21.31q0-3.178 1.085-5.812 1.085-2.712 3.022-4.65 2.015-1.938 4.728-2.945 2.712-1.085 6.045-.93v-4.882q-5.425-.2325-9.378 2.402-3.875 2.635-5.735 7.518h-.155v-9.378z"/>
<path d="m1093-179.4h4.882q-.8525-6.898-5.348-10.31-4.418-3.41-10.85-3.41-4.572 0-8.138 1.705-3.488 1.705-5.89 4.572t-3.642 6.742q-1.24 3.798-1.24 8.138t1.24 8.215q1.24 3.798 3.642 6.665t5.89 4.572q3.565 1.628 8.138 1.628 6.82 0 11.16-4.03 4.34-4.108 5.348-11.39h-4.882q-.2325 2.48-1.24 4.572t-2.558 3.642q-1.55 1.472-3.565 2.325t-4.262.8525q-3.488 0-6.122-1.472t-4.418-3.875q-1.705-2.402-2.635-5.425-.8525-3.1-.8525-6.278t.8525-6.2q.93-3.1 2.635-5.502 1.782-2.402 4.418-3.875t6.122-1.472q4.882 0 7.595 2.558t3.72 7.052z"/>
<path d="m1134-174.8h-25.88q.31-2.712 1.24-5.27 1.008-2.635 2.635-4.572 1.628-2.015 3.952-3.178 2.325-1.24 5.348-1.24 2.945 0 5.27 1.24 2.325 1.162 3.952 3.178 1.628 1.938 2.48 4.495.93 2.558 1.008 5.348zm-25.88 4.108h30.77q.155-4.185-.775-8.215-.93-4.108-3.1-7.208-2.092-3.178-5.502-5.115t-8.215-1.938q-4.728 0-8.215 1.86-3.41 1.782-5.58 4.805-2.17 2.945-3.255 6.742-1.008 3.798-1.008 7.75 0 4.262 1.008 8.138 1.085 3.798 3.255 6.742 2.17 2.868 5.58 4.572 3.488 1.628 8.215 1.628 7.595 0 11.7-3.72 4.185-3.72 5.735-10.54h-4.882q-1.162 4.65-4.185 7.44t-8.37 2.79q-3.488 0-5.968-1.472t-4.108-3.72-2.402-5.038q-.6975-2.868-.6975-5.502z"/>
<path d="m1177-137.3h3.875q-2.248-3.565-4.108-7.672-1.782-4.108-3.1-8.448-1.318-4.418-2.015-8.835t-.6975-8.602q0-10.38 2.325-19.84 2.402-9.455 7.595-17.82h-3.875q-5.115 7.982-8.06 16.97-2.868 8.912-2.868 18.91 0 5.115.6975 9.688.775 4.495 2.17 8.758t3.41 8.448q2.092 4.185 4.65 8.448z"/>
<path d="m1187-207.3v55.34h5.27v-55.34z"/>
<path d="m1203-207.3v55.34h38.6v-4.495h-33.32v-21.86h30.84v-4.495h-30.84v-20h32.94v-4.495z"/>
<path d="m1244-207.3v4.495h19.22v50.84h5.27v-50.84h19.3v-4.495z"/>
<path d="m1293-207.3v55.34h5.27v-26.35h26.5v-4.495h-26.5v-20h29.84v-4.495z"/>
<path d="m1332-208.5h-3.798q2.092 3.72 3.875 7.828 1.86 4.108 3.178 8.448 1.318 4.262 2.015 8.68.775 4.418.775 8.68 0 10.38-2.402 19.84-2.325 9.378-7.44 17.75h3.798q5.115-7.982 7.982-16.9 2.945-8.912 2.945-18.91 0-5.038-.775-9.61-.6975-4.572-2.092-8.835-1.395-4.34-3.488-8.525-2.015-4.185-4.572-8.448z"/>
</g>
<g transform="matrix(.5758 0 0 .5758 -55.25 851.2)" stroke-width="6.699" aria-label="World Wide Web Consortium (W3C)">
<path d="m139.5-89.73 15.34 55.34h5.735l13.95-49.52h.155l14.03 49.52h5.58l15.27-55.34h-5.27l-12.63 48.44h-.155l-13.56-48.44h-6.588l-13.48 48.44h-.155l-12.56-48.44z"/>
<path d="m230-71.44q3.488 0 6.122 1.472t4.34 3.875q1.782 2.402 2.635 5.502.93 3.022.93 6.2t-.93 6.278q-.8525 3.022-2.635 5.425-1.705 2.402-4.34 3.875t-6.122 1.472-6.122-1.472-4.418-3.875q-1.705-2.402-2.635-5.425-.8525-3.1-.8525-6.278t.8525-6.2q.93-3.1 2.635-5.502 1.782-2.402 4.418-3.875t6.122-1.472zm0-4.108q-4.572 0-8.138 1.705-3.488 1.705-5.89 4.572t-3.642 6.742q-1.24 3.798-1.24 8.138t1.24 8.215q1.24 3.798 3.642 6.665t5.89 4.572q3.565 1.628 8.138 1.628t8.06-1.628q3.565-1.705 5.968-4.572t3.642-6.665q1.24-3.875 1.24-8.215t-1.24-8.138q-1.24-3.875-3.642-6.742t-5.968-4.572q-3.488-1.705-8.06-1.705z"/>
<path d="m256.3-74.38v39.99h4.882v-21.31q0-3.178 1.085-5.812 1.085-2.712 3.022-4.65 2.015-1.938 4.728-2.945 2.712-1.085 6.045-.93v-4.882q-5.425-.2325-9.378 2.402-3.875 2.635-5.735 7.518h-.155v-9.378z"/>
<path d="m280.8-89.73v55.34h4.882v-55.34z"/>
<path d="m330.3-34.39v-55.34h-4.882v22.94h-.155q-.775-2.17-2.248-3.798-1.395-1.628-3.255-2.712-1.86-1.162-4.03-1.705-2.092-.5425-4.34-.5425-4.572 0-7.982 1.705-3.332 1.705-5.58 4.65-2.248 2.868-3.332 6.742-1.085 3.798-1.085 8.06t1.085 8.138q1.085 3.798 3.332 6.742 2.248 2.868 5.58 4.572 3.41 1.628 7.982 1.628 2.17 0 4.34-.62 2.248-.62 4.185-1.705 1.938-1.162 3.41-2.79 1.55-1.628 2.325-3.565h.155v7.595zm-32.01-20q0-3.1.6975-6.122.775-3.1 2.325-5.502 1.628-2.402 4.108-3.875 2.48-1.55 5.968-1.55 3.875 0 6.51 1.55 2.712 1.472 4.34 3.875 1.705 2.402 2.402 5.502.775 3.022.775 6.122t-.775 6.2q-.6975 3.022-2.402 5.425-1.628 2.402-4.34 3.952-2.635 1.472-6.51 1.472-3.488 0-5.968-1.472-2.48-1.55-4.108-3.952-1.55-2.402-2.325-5.425-.6975-3.1-.6975-6.2z"/>
<path d="m356.4-89.73 15.34 55.34h5.735l13.95-49.52h.155l14.03 49.52h5.58l15.27-55.34h-5.27l-12.63 48.44h-.155l-13.56-48.44h-6.588l-13.48 48.44h-.155l-12.56-48.44z"/>
<path d="m433.2-89.73v7.828h4.882v-7.828zm0 15.34v39.99h4.882v-39.99z"/>
<path d="m482.7-34.39v-55.34h-4.882v22.94h-.155q-.775-2.17-2.248-3.798-1.395-1.628-3.255-2.712-1.86-1.162-4.03-1.705-2.092-.5425-4.34-.5425-4.572 0-7.982 1.705-3.332 1.705-5.58 4.65-2.248 2.868-3.332 6.742-1.085 3.798-1.085 8.06t1.085 8.138q1.085 3.798 3.332 6.742 2.248 2.868 5.58 4.572 3.41 1.628 7.982 1.628 2.17 0 4.34-.62 2.248-.62 4.185-1.705 1.938-1.162 3.41-2.79 1.55-1.628 2.325-3.565h.155v7.595zm-32.01-20q0-3.1.6975-6.122.775-3.1 2.325-5.502 1.628-2.402 4.108-3.875 2.48-1.55 5.968-1.55 3.875 0 6.51 1.55 2.712 1.472 4.34 3.875 1.705 2.402 2.402 5.502.775 3.022.775 6.122t-.775 6.2q-.6975 3.022-2.402 5.425-1.628 2.402-4.34 3.952-2.635 1.472-6.51 1.472-3.488 0-5.968-1.472-2.48-1.55-4.108-3.952-1.55-2.402-2.325-5.425-.6975-3.1-.6975-6.2z"/>
<path d="m520.7-57.18h-25.88q.31-2.712 1.24-5.27 1.008-2.635 2.635-4.572 1.628-2.015 3.952-3.178 2.325-1.24 5.348-1.24 2.945 0 5.27 1.24 2.325 1.162 3.952 3.178 1.628 1.938 2.48 4.495.93 2.558 1.008 5.348zm-25.88 4.108h30.77q.155-4.185-.775-8.215-.93-4.108-3.1-7.208-2.092-3.178-5.502-5.115t-8.215-1.938q-4.728 0-8.215 1.86-3.41 1.782-5.58 4.805-2.17 2.945-3.255 6.742-1.008 3.798-1.008 7.75 0 4.262 1.008 8.138 1.085 3.798 3.255 6.742 2.17 2.868 5.58 4.572 3.488 1.628 8.215 1.628 7.595 0 11.7-3.72 4.185-3.72 5.735-10.54h-4.882q-1.162 4.65-4.185 7.44t-8.37 2.79q-3.488 0-5.968-1.472t-4.108-3.72-2.402-5.038q-.6975-2.868-.6975-5.502z"/>
<path d="m549.1-89.73 15.34 55.34h5.735l13.95-49.52h.155l14.03 49.52h5.58l15.27-55.34h-5.27l-12.63 48.44h-.155l-13.56-48.44h-6.588l-13.48 48.44h-.155l-12.56-48.44z"/>
<path d="m651.5-57.18h-25.88q.31-2.712 1.24-5.27 1.008-2.635 2.635-4.572 1.628-2.015 3.952-3.178 2.325-1.24 5.348-1.24 2.945 0 5.27 1.24 2.325 1.162 3.952 3.178 1.628 1.938 2.48 4.495.93 2.558 1.008 5.348zm-25.88 4.108h30.77q.155-4.185-.775-8.215-.93-4.108-3.1-7.208-2.092-3.178-5.502-5.115t-8.215-1.938q-4.728 0-8.215 1.86-3.41 1.782-5.58 4.805-2.17 2.945-3.255 6.742-1.008 3.798-1.008 7.75 0 4.262 1.008 8.138 1.085 3.798 3.255 6.742 2.17 2.868 5.58 4.572 3.488 1.628 8.215 1.628 7.595 0 11.7-3.72 4.185-3.72 5.735-10.54h-4.882q-1.162 4.65-4.185 7.44t-8.37 2.79q-3.488 0-5.968-1.472t-4.108-3.72-2.402-5.038q-.6975-2.868-.6975-5.502z"/>
<path d="m663-89.73v55.34h4.495v-7.595h.155q1.705 4.185 5.502 6.432 3.875 2.248 8.758 2.248 4.572 0 7.905-1.628 3.41-1.705 5.658-4.572 2.248-2.945 3.332-6.742 1.085-3.875 1.085-8.138t-1.085-8.06q-1.085-3.875-3.332-6.742-2.248-2.945-5.658-4.65-3.332-1.705-7.905-1.705-2.17 0-4.34.5425t-4.03 1.705q-1.86 1.085-3.332 2.712-1.395 1.628-2.17 3.798h-.155v-22.94zm32.01 35.34q0 3.1-.775 6.2-.6975 3.022-2.325 5.425-1.55 2.402-4.03 3.952-2.48 1.472-5.968 1.472-3.875 0-6.588-1.472-2.635-1.55-4.34-3.952-1.628-2.402-2.402-5.425-.6975-3.1-.6975-6.2t.6975-6.122q.775-3.1 2.402-5.502 1.705-2.402 4.34-3.875 2.712-1.55 6.588-1.55 3.488 0 5.968 1.55 2.48 1.472 4.03 3.875 1.628 2.402 2.325 5.502.775 3.022.775 6.122z"/>
<path d="m770.4-72.99h5.27q-.5425-4.34-2.635-7.672-2.015-3.332-5.115-5.58-3.022-2.325-6.82-3.488-3.72-1.162-7.672-1.162-6.51 0-11.47 2.402-4.882 2.325-8.138 6.355-3.255 3.952-4.882 9.145t-1.628 10.93 1.628 10.93 4.882 9.145 8.138 6.355q4.96 2.325 11.47 2.325 4.882 0 8.835-1.55 4.03-1.55 6.975-4.418t4.805-6.975 2.402-9.222h-5.27q-.3875 3.72-1.782 6.975-1.395 3.178-3.642 5.58t-5.348 3.798-6.975 1.395q-5.502 0-9.455-2.092t-6.51-5.502q-2.48-3.488-3.72-7.828-1.162-4.418-1.162-8.912 0-4.572 1.162-8.912 1.24-4.34 3.72-7.75 2.558-3.488 6.51-5.58t9.455-2.092q3.022 0 5.735.93 2.79.8525 5.038 2.558 2.325 1.705 3.875 4.262 1.628 2.48 2.325 5.658z"/>
<path d="m800.4-71.44q3.488 0 6.122 1.472t4.34 3.875q1.782 2.402 2.635 5.502.93 3.022.93 6.2t-.93 6.278q-.8525 3.022-2.635 5.425-1.705 2.402-4.34 3.875t-6.122 1.472-6.122-1.472-4.418-3.875q-1.705-2.402-2.635-5.425-.8525-3.1-.8525-6.278t.8525-6.2q.93-3.1 2.635-5.502 1.782-2.402 4.418-3.875t6.122-1.472zm0-4.108q-4.572 0-8.138 1.705-3.488 1.705-5.89 4.572t-3.642 6.742q-1.24 3.798-1.24 8.138t1.24 8.215q1.24 3.798 3.642 6.665t5.89 4.572q3.565 1.628 8.138 1.628t8.06-1.628q3.565-1.705 5.968-4.572t3.642-6.665q1.24-3.875 1.24-8.215t-1.24-8.138q-1.24-3.875-3.642-6.742t-5.968-4.572q-3.488-1.705-8.06-1.705z"/>
<path d="m826.6-74.38v39.99h4.882v-23.33q.0775-2.945.93-5.425.93-2.558 2.48-4.34 1.628-1.86 3.875-2.868 2.325-1.085 5.27-1.085t4.882.93q2.015.93 3.178 2.558t1.628 3.875q.465 2.17.465 4.728v24.96h4.882v-25.73q0-3.565-.6975-6.432t-2.402-4.805q-1.705-2.015-4.572-3.1-2.79-1.085-6.975-1.085-4.262 0-7.828 2.248-3.565 2.17-4.96 5.812h-.155v-6.898z"/>
<path d="m892.2-62.68h4.882q-.155-3.255-1.318-5.658t-3.178-4.03q-1.938-1.628-4.572-2.402-2.558-.775-5.58-.775-2.635 0-5.348.62-2.635.62-4.805 1.938t-3.565 3.488q-1.318 2.17-1.318 5.192 0 2.558.8525 4.34.8525 1.705 2.325 2.945 1.55 1.162 3.565 2.015 2.015.775 4.418 1.395l6.278 1.395q1.628.3875 3.178.93 1.628.5425 2.868 1.395 1.24.775 1.938 2.015.775 1.162.775 2.945 0 2.092-1.085 3.565-1.008 1.395-2.635 2.325t-3.565 1.318q-1.86.3875-3.642.3875-4.882 0-8.215-2.48-3.255-2.558-3.565-7.518h-4.882q.62 7.362 4.96 10.7 4.418 3.332 11.47 3.332 2.79 0 5.658-.62t5.115-2.015q2.325-1.472 3.798-3.72 1.472-2.325 1.472-5.58 0-2.635-1.008-4.572t-2.635-3.255q-1.55-1.318-3.642-2.092-2.015-.8525-4.108-1.162l-6.51-1.472q-1.24-.31-2.712-.775-1.472-.5425-2.712-1.318t-2.092-1.86q-.775-1.162-.775-2.79 0-1.938.8525-3.255t2.248-2.092q1.395-.8525 3.022-1.162 1.705-.3875 3.332-.3875 2.092 0 3.952.5425 1.86.465 3.255 1.55 1.472 1.085 2.325 2.79.8525 1.628.93 3.875z"/>
<path d="m922.4-71.44q3.488 0 6.122 1.472t4.34 3.875q1.782 2.402 2.635 5.502.93 3.022.93 6.2t-.93 6.278q-.8525 3.022-2.635 5.425-1.705 2.402-4.34 3.875t-6.122 1.472-6.122-1.472-4.418-3.875q-1.705-2.402-2.635-5.425-.8525-3.1-.8525-6.278t.8525-6.2q.93-3.1 2.635-5.502 1.782-2.402 4.418-3.875t6.122-1.472zm0-4.108q-4.572 0-8.138 1.705-3.488 1.705-5.89 4.572t-3.642 6.742q-1.24 3.798-1.24 8.138t1.24 8.215q1.24 3.798 3.642 6.665t5.89 4.572q3.565 1.628 8.138 1.628t8.06-1.628q3.565-1.705 5.968-4.572t3.642-6.665q1.24-3.875 1.24-8.215t-1.24-8.138q-1.24-3.875-3.642-6.742t-5.968-4.572q-3.488-1.705-8.06-1.705z"/>
<path d="m948.7-74.38v39.99h4.882v-21.31q0-3.178 1.085-5.812 1.085-2.712 3.022-4.65 2.015-1.938 4.728-2.945 2.712-1.085 6.045-.93v-4.882q-5.425-.2325-9.378 2.402-3.875 2.635-5.735 7.518h-.155v-9.378z"/>
<path d="m980.8-74.38v-12.01h-4.882v12.01h-6.975v4.108h6.975v27.36q-.0775 5.115 1.86 7.052 1.938 1.86 6.82 1.86 1.085 0 2.17-.0775t2.17-.0775v-4.108q-2.092.2325-4.185.2325-2.635-.155-3.332-1.472-.62-1.395-.62-3.798v-26.97h8.138v-4.108z"/>
<path d="m996.1-89.73v7.828h4.882v-7.828zm0 15.34v39.99h4.882v-39.99z"/>
<path d="m1043-34.39v-39.99h-4.882v21q0 3.022-.6975 5.968-.6975 2.868-2.17 5.115t-3.72 3.642q-2.248 1.318-5.425 1.318-5.812 0-8.215-2.79-2.325-2.79-2.48-8.215v-26.04h-4.882v25.96q0 3.565.775 6.355t2.402 4.728q1.705 1.938 4.34 2.945 2.712 1.085 6.51 1.085 4.495 0 8.138-2.092 3.72-2.17 5.658-6.2h.155v7.208z"/>
<path d="m1052-74.38v39.99h4.882v-22.32q0-3.178.6975-5.812.6975-2.712 2.092-4.65 1.472-2.015 3.72-3.1 2.325-1.162 5.425-1.162 2.325 0 3.952.775t2.558 2.17q1.008 1.318 1.395 3.178.465 1.782.465 3.798v27.12h4.882v-22.63q0-2.79.465-5.348.5425-2.635 1.782-4.65t3.332-3.178q2.092-1.24 5.27-1.24 5.27 0 7.362 2.635 2.092 2.558 2.092 7.518v26.89h4.882v-27.12q0-14.03-13.25-14.03-3.952 0-7.44 1.938t-5.27 5.89q-1.085-3.952-4.34-5.89-3.178-1.938-7.13-1.938-4.882 0-8.06 2.092-3.1 2.092-5.038 5.812h-.2325v-6.742z"/>
<path d="m1148-19.67h3.875q-2.248-3.565-4.108-7.672-1.782-4.108-3.1-8.448-1.318-4.418-2.015-8.835t-.6975-8.602q0-10.38 2.325-19.84 2.402-9.455 7.595-17.82h-3.875q-5.115 7.982-8.06 16.97-2.868 8.912-2.868 18.91 0 5.115.6975 9.688.775 4.495 2.17 8.758t3.41 8.448q2.092 4.185 4.65 8.448z"/>
<path d="m1152-89.73 15.34 55.34h5.735l13.95-49.52h.155l14.03 49.52h5.58l15.27-55.34h-5.27l-12.63 48.44h-.155l-13.56-48.44h-6.588l-13.48 48.44h-.155l-12.56-48.44z"/>
<path d="m1230-51.68h-4.882q-.31 4.418.93 7.828 1.318 3.41 3.798 5.735 2.558 2.325 6.045 3.565 3.565 1.24 7.75 1.24 3.72 0 7.13-1.085 3.41-1.008 5.968-3.1t4.03-5.115q1.55-3.1 1.55-7.13 0-5.348-2.945-8.912-2.868-3.642-8.215-4.495v-.155q4.418-1.085 6.742-4.34 2.402-3.255 2.402-7.672 0-3.642-1.472-6.2-1.395-2.635-3.798-4.262-2.325-1.705-5.348-2.48-3.022-.8525-6.2-.8525-3.952 0-7.13 1.395-3.178 1.318-5.425 3.72-2.17 2.325-3.41 5.58-1.162 3.255-1.162 7.13h4.882q-.077-3.022.6975-5.502.775-2.558 2.325-4.34 1.628-1.86 3.952-2.868t5.348-1.008q2.48 0 4.572.62 2.17.5425 3.798 1.86 1.628 1.24 2.558 3.178.93 1.86.93 4.572 0 2.558-1.008 4.418t-2.635 3.1q-1.55 1.162-3.565 1.782-1.938.5425-3.798.5425h-4.108v4.108h4.108q2.712 0 5.038.6975 2.402.6975 4.185 2.17 1.782 1.395 2.79 3.565 1.008 2.092 1.008 5.038 0 2.868-1.162 5.115t-3.1 3.798-4.418 2.325-5.192.775q-3.255 0-5.89-1.008-2.558-1.085-4.34-2.945-1.705-1.86-2.635-4.495-.8525-2.635-.6975-5.89z"/>
<path d="m1312-72.99h5.27q-.5425-4.34-2.635-7.672-2.015-3.332-5.115-5.58-3.022-2.325-6.82-3.488-3.72-1.162-7.672-1.162-6.51 0-11.47 2.402-4.882 2.325-8.138 6.355-3.255 3.952-4.882 9.145t-1.628 10.93 1.628 10.93 4.882 9.145 8.138 6.355q4.96 2.325 11.47 2.325 4.882 0 8.835-1.55 4.03-1.55 6.975-4.418t4.805-6.975 2.402-9.222h-5.27q-.3875 3.72-1.782 6.975-1.395 3.178-3.642 5.58t-5.348 3.798-6.975 1.395q-5.502 0-9.455-2.092t-6.51-5.502q-2.48-3.488-3.72-7.828-1.162-4.418-1.162-8.912 0-4.572 1.162-8.912 1.24-4.34 3.72-7.75 2.558-3.488 6.51-5.58t9.455-2.092q3.022 0 5.735.93 2.79.8525 5.038 2.558 2.325 1.705 3.875 4.262 1.628 2.48 2.325 5.658z"/>
<path d="m1324-90.89h-3.798q2.092 3.72 3.875 7.828 1.86 4.108 3.178 8.448 1.318 4.262 2.015 8.68.775 4.418.775 8.68 0 10.38-2.402 19.84-2.325 9.378-7.44 17.75h3.798q5.115-7.982 7.982-16.9 2.945-8.912 2.945-18.91 0-5.038-.775-9.61-.6975-4.572-2.092-8.835-1.395-4.34-3.488-8.525-2.015-4.185-4.572-8.448z"/>
</g>
</g>
<g>
<rect x="40.3" y="888.4" width="147.5" height="147.5" rx="7.372" ry="7.372" fill="none" stroke="#000" stroke-width="2.24"/>
<g transform="matrix(.5758 0 0 .5758 -55.25 459.9)" stroke-width="3.766" aria-label="HTTP/1.0 RFC 1945 (1996)">
<path d="m182.8 805.1v39.27h3.74v-19.03h23.32v19.03h3.74v-39.27h-3.74v17.05h-23.32v-17.05z"/>
<path d="m217.3 805.1v3.19h13.64v36.08h3.74v-36.08h13.7v-3.19z"/>
<path d="m247.9 805.1v3.19h13.64v36.08h3.74v-36.08h13.7v-3.19z"/>
<path d="m286.5 824.3v-16.06h12.87q3.905 0 6.325 1.98t2.42 6.05-2.42 6.05-6.325 1.98zm-3.74-19.25v39.27h3.74v-16.83h13.7q2.64 0 4.785-.715 2.145-.77 3.685-2.2 1.54-1.485 2.365-3.575t.825-4.73-.825-4.73-2.365-3.52q-1.54-1.485-3.685-2.2-2.145-.77-4.785-.77z"/>
<path d="m312.8 845.1h2.915l16.78-40.86h-2.805z"/>
<path d="m337.2 813.3v2.475h10.18v28.6h3.465v-38.5h-2.805q-.385 2.64-1.32 4.125-.88 1.43-2.255 2.145-1.32.715-3.19.935-1.815.165-4.07.22z"/>
<path d="m367.8 844.4h4.62v-5.83h-4.62z"/>
<path d="m393 805.5q-4.18 0-6.82 1.87-2.64 1.815-4.125 4.675-1.43 2.86-1.98 6.38-.495 3.52-.495 6.93 0 3.355.495 6.875.55 3.52 1.98 6.38 1.485 2.86 4.125 4.675t6.82 1.815q4.235 0 6.82-1.815 2.64-1.815 4.07-4.675 1.485-2.86 1.98-6.38.55-3.52.55-6.93 0-3.355-.55-6.875-.495-3.52-1.98-6.38-1.43-2.86-4.07-4.675-2.585-1.87-6.82-1.87zm0 2.915q3.3 0 5.28 1.705t2.97 4.235q1.045 2.53 1.375 5.5t.33 5.445q0 2.53-.33 5.5-.33 2.915-1.375 5.5-.99 2.53-2.97 4.235t-5.28 1.705-5.28-1.705-3.025-4.235q-.99-2.585-1.32-5.5-.33-2.97-.33-5.5 0-2.475.33-5.445t1.32-5.5q1.045-2.53 3.025-4.235t5.28-1.705z"/>
<path d="m186.9 878.2v-8.43h7.62q2.34 0 3.48 1.14t1.14 3.12q0 .99-.39 1.77-.36.75-.99 1.29t-1.47.84q-.84.27-1.77.27zm-2.04-10.17v21.42h2.04v-9.51h7.74q1.44-.06 2.25.48.84.54 1.26 1.44.45.87.57 2.01.15 1.11.21 2.25.03.33.06.78t.06.93q.06.45.15.9.12.42.3.72h2.25q-.33-.39-.54-1.08-.18-.72-.27-1.5-.09-.81-.12-1.59t-.06-1.32q-.06-.96-.27-1.77-.18-.84-.63-1.47-.42-.63-1.11-1.02-.69-.42-1.74-.57v-.06q2.07-.42 3.12-1.92t1.05-3.54q0-1.44-.54-2.49-.51-1.08-1.41-1.74-.87-.69-2.07-1.02-1.17-.33-2.49-.33z"/>
<path d="m204.9 868.1v21.42h2.04v-10.2h10.26v-1.74h-10.26v-7.74h11.55v-1.74z"/>
<path d="m236.6 874.6h2.04q-.21-1.68-1.02-2.97-.78-1.29-1.98-2.16-1.17-.9-2.64-1.35-1.44-.45-2.97-.45-2.52 0-4.44.93-1.89.9-3.15 2.46-1.26 1.53-1.89 3.54t-.63 4.23.63 4.23 1.89 3.54 3.15 2.46q1.92.9 4.44.9 1.89 0 3.42-.6 1.56-.6 2.7-1.71t1.86-2.7.93-3.57h-2.04q-.15 1.44-.69 2.7-.54 1.23-1.41 2.16t-2.07 1.47-2.7.54q-2.13 0-3.66-.81t-2.52-2.13q-.96-1.35-1.44-3.03-.45-1.71-.45-3.45 0-1.77.45-3.45.48-1.68 1.44-3 .99-1.35 2.52-2.16t3.66-.81q1.17 0 2.22.36 1.08.33 1.95.99.9.66 1.5 1.65.63.96.9 2.19z"/>
<path d="m251.1 872.5v1.35h5.55v15.6h1.89v-21h-1.53q-.21 1.44-.72 2.25-.48.78-1.23 1.17-.72.39-1.74.51-.99.09-2.22.12z"/>
<path d="m268.3 884.5h-1.89q.33 2.79 1.98 4.14 1.65 1.32 4.47 1.32 1.71 0 2.94-.6t2.04-1.53q.84-.96 1.32-2.13.51-1.2.78-2.34.27-1.17.33-2.19.09-1.02.09-1.65 0-3.06-.45-5.19-.42-2.13-1.32-3.45-.9-1.35-2.28-1.92-1.38-.6-3.3-.6-1.56 0-2.88.54-1.29.54-2.25 1.5-.93.93-1.47 2.25-.51 1.29-.51 2.82t.48 2.82q.51 1.29 1.41 2.22t2.19 1.47q1.29.51 2.85.51 1.8 0 3.3-.96 1.53-.96 2.28-2.52h.06q0 1.44-.21 3.09-.21 1.62-.84 3.03t-1.77 2.34q-1.11.93-2.97.93-1.83 0-3-1.08-1.14-1.08-1.38-2.82zm4.56-3.6q-1.2 0-2.16-.42-.93-.45-1.59-1.2-.63-.75-.99-1.77-.33-1.02-.33-2.16 0-1.08.36-2.07t1.02-1.71q.69-.75 1.62-1.17.93-.45 2.04-.45 1.38 0 2.37.42t1.62 1.17q.66.72.96 1.71.3.96.3 2.1 0 1.17-.36 2.19-.33.99-1.02 1.74-.66.75-1.65 1.2-.96.42-2.19.42z"/>
<path d="m292.2 882.7h-7.98l7.92-11.43h.06zm-9.69-.24v1.83h9.69v5.22h1.74v-5.22h3.15v-1.59h-3.15v-14.19h-1.71z"/>
<path d="m301.3 883.5h-1.89q.03 1.5.57 2.7t1.44 2.04q.93.81 2.16 1.26 1.26.42 2.73.42 1.5 0 2.82-.51 1.35-.54 2.34-1.47.99-.96 1.56-2.25.57-1.32.57-2.85 0-1.59-.51-2.91-.48-1.35-1.41-2.31-.9-.96-2.22-1.5-1.29-.54-2.91-.54-1.26 0-2.46.51t-1.98 1.44l-.06-.06 1.35-6.96h9.18v-1.74h-10.5l-2.04 10.89h1.62q.78-1.2 2.01-1.83 1.23-.66 2.67-.66 1.17 0 2.16.42t1.68 1.17q.72.72 1.11 1.71.42.99.42 2.16 0 1.14-.36 2.19-.36 1.02-1.05 1.83-.69.78-1.65 1.26-.96.45-2.19.45-1.08 0-2.01-.33-.93-.36-1.62-.99-.69-.66-1.11-1.56-.39-.9-.42-1.98z"/>
<path d="m329.1 895.2h1.5q-.87-1.38-1.59-2.97-.69-1.59-1.2-3.27-.51-1.71-.78-3.42t-.27-3.33q0-4.02.9-7.68.93-3.66 2.94-6.9h-1.5q-1.98 3.09-3.12 6.57-1.11 3.45-1.11 7.32 0 1.98.27 3.75.3 1.74.84 3.39t1.32 3.27q.81 1.62 1.8 3.27z"/>
<path d="m333.5 872.5v1.35h5.55v15.6h1.89v-21h-1.53q-.21 1.44-.72 2.25-.48.78-1.23 1.17-.72.39-1.74.51-.99.09-2.22.12z"/>
<path d="m350.7 884.5h-1.89q.33 2.79 1.98 4.14 1.65 1.32 4.47 1.32 1.71 0 2.94-.6t2.04-1.53q.84-.96 1.32-2.13.51-1.2.78-2.34.27-1.17.33-2.19.09-1.02.09-1.65 0-3.06-.45-5.19-.42-2.13-1.32-3.45-.9-1.35-2.28-1.92-1.38-.6-3.3-.6-1.56 0-2.88.54-1.29.54-2.25 1.5-.93.93-1.47 2.25-.51 1.29-.51 2.82t.48 2.82q.51 1.29 1.41 2.22t2.19 1.47q1.29.51 2.85.51 1.8 0 3.3-.96 1.53-.96 2.28-2.52h.06q0 1.44-.21 3.09-.21 1.62-.84 3.03t-1.77 2.34q-1.11.93-2.97.93-1.83 0-3-1.08-1.14-1.08-1.38-2.82zm4.56-3.6q-1.2 0-2.16-.42-.93-.45-1.59-1.2-.63-.75-.99-1.77-.33-1.02-.33-2.16 0-1.08.36-2.07t1.02-1.71q.69-.75 1.62-1.17.93-.45 2.04-.45 1.38 0 2.37.42t1.62 1.17q.66.72.96 1.71.3.96.3 2.1 0 1.17-.36 2.19-.33.99-1.02 1.74-.66.75-1.65 1.2-.96.42-2.19.42z"/>
<path d="m367.4 884.5h-1.89q.33 2.79 1.98 4.14 1.65 1.32 4.47 1.32 1.71 0 2.94-.6t2.04-1.53q.84-.96 1.32-2.13.51-1.2.78-2.34.27-1.17.33-2.19.09-1.02.09-1.65 0-3.06-.45-5.19-.42-2.13-1.32-3.45-.9-1.35-2.28-1.92-1.38-.6-3.3-.6-1.56 0-2.88.54-1.29.54-2.25 1.5-.93.93-1.47 2.25-.51 1.29-.51 2.82t.48 2.82q.51 1.29 1.41 2.22t2.19 1.47q1.29.51 2.85.51 1.8 0 3.3-.96 1.53-.96 2.28-2.52h.06q0 1.44-.21 3.09-.21 1.62-.84 3.03t-1.77 2.34q-1.11.93-2.97.93-1.83 0-3-1.08-1.14-1.08-1.38-2.82zm4.56-3.6q-1.2 0-2.16-.42-.93-.45-1.59-1.2-.63-.75-.99-1.77-.33-1.02-.33-2.16 0-1.08.36-2.07t1.02-1.71q.69-.75 1.62-1.17.93-.45 2.04-.45 1.38 0 2.37.42t1.62 1.17q.66.72.96 1.71.3.96.3 2.1 0 1.17-.36 2.19-.33.99-1.02 1.74-.66.75-1.65 1.2-.96.42-2.19.42z"/>
<path d="m393.9 873.8h1.89q-.33-2.79-1.98-4.14t-4.47-1.35q-1.71 0-2.94.6t-2.07 1.56q-.81.96-1.32 2.16-.48 1.17-.75 2.34-.27 1.14-.36 2.16-.06 1.02-.06 1.65 0 3.09.42 5.22.45 2.1 1.35 3.42t2.28 1.92q1.38.57 3.3.57 1.56 0 2.85-.51 1.32-.54 2.25-1.47.96-.96 1.47-2.25.54-1.32.54-2.85t-.51-2.82q-.48-1.29-1.38-2.22t-2.19-1.44q-1.26-.54-2.85-.54-1.8 0-3.33.96-1.5.96-2.25 2.52h-.06q0-1.44.21-3.06.21-1.65.84-3.06t1.77-2.34 2.97-.93 2.97 1.08q1.17 1.08 1.41 2.82zm-4.56 3.6q1.2 0 2.13.45.96.42 1.59 1.17.66.75.99 1.77.36 1.02.36 2.16 0 1.08-.36 2.07t-1.05 1.74q-.66.72-1.59 1.17-.9.42-2.04.42-1.38 0-2.37-.42t-1.65-1.14q-.63-.75-.93-1.74t-.3-2.1q0-1.17.33-2.16.36-1.02 1.02-1.77.69-.75 1.65-1.17.99-.45 2.22-.45z"/>
<path d="m398.8 867.6h-1.47q.81 1.44 1.5 3.03.72 1.59 1.23 3.27.51 1.65.78 3.36.3 1.71.3 3.36 0 4.02-.93 7.68-.9 3.63-2.88 6.87h1.47q1.98-3.09 3.09-6.54 1.14-3.45 1.14-7.32 0-1.95-.3-3.72-.27-1.77-.81-3.42-.54-1.68-1.35-3.3-.78-1.62-1.77-3.27z"/>
</g>
<rect x="285.6" y="887.2" width="147.5" height="147.5" rx="7.372" ry="7.372" fill="none" stroke="#000" stroke-width="2.24"/>
<g transform="matrix(.5758 0 0 .5758 -55.25 459.9)" stroke-width="3.766" aria-label="HTTP/1.1 RFC 2068 (1997) RFC 2616 (1999)">
<path d="m609.3 805.1v39.27h3.74v-19.03h23.32v19.03h3.74v-39.27h-3.74v17.05h-23.32v-17.05z"/>
<path d="m643.8 805.1v3.19h13.64v36.08h3.74v-36.08h13.7v-3.19z"/>
<path d="m674.4 805.1v3.19h13.64v36.08h3.74v-36.08h13.7v-3.19z"/>
<path d="m712.9 824.3v-16.06h12.87q3.905 0 6.325 1.98t2.42 6.05-2.42 6.05-6.325 1.98zm-3.74-19.25v39.27h3.74v-16.83h13.7q2.64 0 4.785-.715 2.145-.77 3.685-2.2 1.54-1.485 2.365-3.575t.825-4.73-.825-4.73-2.365-3.52q-1.54-1.485-3.685-2.2-2.145-.77-4.785-.77z"/>
<path d="m739.3 845.1h2.915l16.78-40.86h-2.805z"/>
<path d="m763.6 813.3v2.475h10.18v28.6h3.465v-38.5h-2.805q-.385 2.64-1.32 4.125-.88 1.43-2.255 2.145-1.32.715-3.19.935-1.815.165-4.07.22z"/>
<path d="m794.2 844.4h4.62v-5.83h-4.62z"/>
<path d="m809.5 813.3v2.475h10.18v28.6h3.465v-38.5h-2.805q-.385 2.64-1.32 4.125-.88 1.43-2.255 2.145-1.32.715-3.19.935-1.815.165-4.07.22z"/>
<path d="m613.3 878.2v-8.43h7.62q2.34 0 3.48 1.14t1.14 3.12q0 .99-.39 1.77-.36.75-.99 1.29t-1.47.84q-.84.27-1.77.27zm-2.04-10.17v21.42h2.04v-9.51h7.74q1.44-.06 2.25.48.84.54 1.26 1.44.45.87.57 2.01.15 1.11.21 2.25.03.33.06.78t.06.93q.06.45.15.9.12.42.3.72h2.25q-.33-.39-.54-1.08-.18-.72-.27-1.5-.09-.81-.12-1.59t-.06-1.32q-.06-.96-.27-1.77-.18-.84-.63-1.47-.42-.63-1.11-1.02-.69-.42-1.74-.57v-.06q2.07-.42 3.12-1.92t1.05-3.54q0-1.44-.54-2.49-.51-1.08-1.41-1.74-.87-.69-2.07-1.02-1.17-.33-2.49-.33z"/>
<path d="m631.3 868.1v21.42h2.04v-10.2h10.26v-1.74h-10.26v-7.74h11.55v-1.74z"/>
<path d="m663.1 874.6h2.04q-.21-1.68-1.02-2.97-.78-1.29-1.98-2.16-1.17-.9-2.64-1.35-1.44-.45-2.97-.45-2.52 0-4.44.93-1.89.9-3.15 2.46-1.26 1.53-1.89 3.54t-.63 4.23.63 4.23 1.89 3.54 3.15 2.46q1.92.9 4.44.9 1.89 0 3.42-.6 1.56-.6 2.7-1.71t1.86-2.7.93-3.57h-2.04q-.15 1.44-.69 2.7-.54 1.23-1.41 2.16t-2.07 1.47-2.7.54q-2.13 0-3.66-.81t-2.52-2.13q-.96-1.35-1.44-3.03-.45-1.71-.45-3.45 0-1.77.45-3.45.48-1.68 1.44-3 .99-1.35 2.52-2.16t3.66-.81q1.17 0 2.22.36 1.08.33 1.95.99.9.66 1.5 1.65.63.96.9 2.19z"/>
<path d="m689.6 889.5v-1.74h-11.67q.18-1.05.9-1.92.72-.9 1.65-1.65.96-.75 1.98-1.35 1.02-.63 1.77-1.14 1.05-.66 1.98-1.41.96-.78 1.68-1.68.75-.9 1.17-1.98.45-1.08.45-2.4 0-1.47-.51-2.58-.48-1.11-1.38-1.83-.87-.75-2.07-1.11-1.17-.39-2.55-.39-1.71 0-3 .57-1.26.54-2.1 1.53t-1.26 2.37q-.39 1.35-.36 2.97h1.89q-.03-1.17.21-2.22.27-1.05.84-1.86t1.47-1.29q.93-.48 2.22-.48.96 0 1.8.3.87.27 1.5.84.66.54 1.02 1.35.39.78.39 1.8 0 1.26-.45 2.19-.42.9-1.29 1.77t-1.98 1.65q-1.08.75-2.19 1.5-1.11.72-2.16 1.53-1.05.78-1.89 1.74t-1.35 2.16-.54 2.76z"/>
<path d="m699.7 868.3q-2.28 0-3.72 1.02-1.44.99-2.25 2.55-.78 1.56-1.08 3.48-.27 1.92-.27 3.78 0 1.83.27 3.75.3 1.92 1.08 3.48.81 1.56 2.25 2.55t3.72.99q2.31 0 3.72-.99 1.44-.99 2.22-2.55.81-1.56 1.08-3.48.3-1.92.3-3.78 0-1.83-.3-3.75-.27-1.92-1.08-3.48-.78-1.56-2.22-2.55-1.41-1.02-3.72-1.02zm0 1.59q1.8 0 2.88.93t1.62 2.31q.57 1.38.75 3t.18 2.97q0 1.38-.18 3-.18 1.59-.75 3-.54 1.38-1.62 2.31t-2.88.93-2.88-.93-1.65-2.31q-.54-1.41-.72-3-.18-1.62-.18-3 0-1.35.18-2.97t.72-3q.57-1.38 1.65-2.31t2.88-.93z"/>
<path d="m721.3 873.8h1.89q-.33-2.79-1.98-4.14t-4.47-1.35q-1.71 0-2.94.6t-2.07 1.56q-.81.96-1.32 2.16-.48 1.17-.75 2.34-.27 1.14-.36 2.16-.06 1.02-.06 1.65 0 3.09.42 5.22.45 2.1 1.35 3.42t2.28 1.92q1.38.57 3.3.57 1.56 0 2.85-.51 1.32-.54 2.25-1.47.96-.96 1.47-2.25.54-1.32.54-2.85t-.51-2.82q-.48-1.29-1.38-2.22t-2.19-1.44q-1.26-.54-2.85-.54-1.8 0-3.33.96-1.5.96-2.25 2.52h-.06q0-1.44.21-3.06.21-1.65.84-3.06t1.77-2.34 2.97-.93 2.97 1.08q1.17 1.08 1.41 2.82zm-4.56 3.6q1.2 0 2.13.45.96.42 1.59 1.17.66.75.99 1.77.36 1.02.36 2.16 0 1.08-.36 2.07t-1.05 1.74q-.66.72-1.59 1.17-.9.42-2.04.42-1.38 0-2.37-.42t-1.65-1.14q-.63-.75-.93-1.74t-.3-2.1q0-1.17.33-2.16.36-1.02 1.02-1.77.69-.75 1.65-1.17.99-.45 2.22-.45z"/>
<path d="m733.1 877.5q-.84.03-1.65-.18t-1.44-.69-1.02-1.23-.39-1.8q0-.9.36-1.59.39-.69 1.02-1.14t1.44-.69 1.68-.24q.96 0 1.77.24t1.41.69.93 1.14q.36.69.36 1.59 0 1.02-.39 1.77-.36.75-.99 1.23-.6.48-1.41.72-.81.21-1.68.18zm6.36-3.9q0-1.35-.57-2.34-.54-.99-1.47-1.62-.9-.66-2.04-.96-1.14-.33-2.31-.33t-2.31.33q-1.14.3-2.04.96-.9.63-1.47 1.62-.54.99-.54 2.34 0 1.74.87 2.94.9 1.17 2.55 1.68v.06q-1.98.36-3.09 1.83t-1.17 3.54q0 1.59.57 2.79.57 1.17 1.56 1.95t2.31 1.17 2.79.39q1.5 0 2.79-.39 1.32-.39 2.31-1.17t1.56-1.95q.57-1.2.57-2.79 0-2.16-1.11-3.54-1.11-1.41-3.18-1.83v-.06q1.62-.48 2.52-1.68.9-1.23.9-2.94zm-6.36 14.79q-1.11 0-2.1-.3-.96-.3-1.68-.87-.72-.6-1.14-1.5t-.42-2.07q0-1.14.42-2.01.45-.87 1.17-1.44.72-.6 1.68-.87.99-.27 2.07-.24 1.05-.03 2.01.27.99.27 1.71.87.75.57 1.17 1.44.45.84.45 1.98 0 1.2-.42 2.1t-1.14 1.5q-.72.57-1.71.87-.96.27-2.07.27z"/>
<path d="m755.5 895.2h1.5q-.87-1.38-1.59-2.97-.69-1.59-1.2-3.27-.51-1.71-.78-3.42t-.27-3.33q0-4.02.9-7.68.93-3.66 2.94-6.9h-1.5q-1.98 3.09-3.12 6.57-1.11 3.45-1.11 7.32 0 1.98.27 3.75.3 1.74.84 3.39t1.32 3.27q.81 1.62 1.8 3.27z"/>
<path d="m759.9 872.5v1.35h5.55v15.6h1.89v-21h-1.53q-.21 1.44-.72 2.25-.48.78-1.23 1.17-.72.39-1.74.51-.99.09-2.22.12z"/>
<path d="m777.1 884.5h-1.89q.33 2.79 1.98 4.14 1.65 1.32 4.47 1.32 1.71 0 2.94-.6t2.04-1.53q.84-.96 1.32-2.13.51-1.2.78-2.34.27-1.17.33-2.19.09-1.02.09-1.65 0-3.06-.45-5.19-.42-2.13-1.32-3.45-.9-1.35-2.28-1.92-1.38-.6-3.3-.6-1.56 0-2.88.54-1.29.54-2.25 1.5-.93.93-1.47 2.25-.51 1.29-.51 2.82t.48 2.82q.51 1.29 1.41 2.22t2.19 1.47q1.29.51 2.85.51 1.8 0 3.3-.96 1.53-.96 2.28-2.52h.06q0 1.44-.21 3.09-.21 1.62-.84 3.03t-1.77 2.34q-1.11.93-2.97.93-1.83 0-3-1.08-1.14-1.08-1.38-2.82zm4.56-3.6q-1.2 0-2.16-.42-.93-.45-1.59-1.2-.63-.75-.99-1.77-.33-1.02-.33-2.16 0-1.08.36-2.07t1.02-1.71q.69-.75 1.62-1.17.93-.45 2.04-.45 1.38 0 2.37.42t1.62 1.17q.66.72.96 1.71.3.96.3 2.1 0 1.17-.36 2.19-.33.99-1.02 1.74-.66.75-1.65 1.2-.96.42-2.19.42z"/>
<path d="m793.8 884.5h-1.89q.33 2.79 1.98 4.14 1.65 1.32 4.47 1.32 1.71 0 2.94-.6t2.04-1.53q.84-.96 1.32-2.13.51-1.2.78-2.34.27-1.17.33-2.19.09-1.02.09-1.65 0-3.06-.45-5.19-.42-2.13-1.32-3.45-.9-1.35-2.28-1.92-1.38-.6-3.3-.6-1.56 0-2.88.54-1.29.54-2.25 1.5-.93.93-1.47 2.25-.51 1.29-.51 2.82t.48 2.82q.51 1.29 1.41 2.22t2.19 1.47q1.29.51 2.85.51 1.8 0 3.3-.96 1.53-.96 2.28-2.52h.06q0 1.44-.21 3.09-.21 1.62-.84 3.03t-1.77 2.34q-1.11.93-2.97.93-1.83 0-3-1.08-1.14-1.08-1.38-2.82zm4.56-3.6q-1.2 0-2.16-.42-.93-.45-1.59-1.2-.63-.75-.99-1.77-.33-1.02-.33-2.16 0-1.08.36-2.07t1.02-1.71q.69-.75 1.62-1.17.93-.45 2.04-.45 1.38 0 2.37.42t1.62 1.17q.66.72.96 1.71.3.96.3 2.1 0 1.17-.36 2.19-.33.99-1.02 1.74-.66.75-1.65 1.2-.96.42-2.19.42z"/>
<path d="m808.6 868.8v1.74h11.61q-2.19 2.49-3.75 4.77-1.53 2.28-2.58 4.56-1.02 2.25-1.59 4.62-.54 2.37-.72 5.04h2.04q.18-3.66 1.14-6.69.99-3.06 2.28-5.43 1.32-2.4 2.7-4.11 1.38-1.74 2.37-2.76v-1.74z"/>
<path d="m825.3 867.6h-1.47q.81 1.44 1.5 3.03.72 1.59 1.23 3.27.51 1.65.78 3.36.3 1.71.3 3.36 0 4.02-.93 7.68-.9 3.63-2.88 6.87h1.47q1.98-3.09 3.09-6.54 1.14-3.45 1.14-7.32 0-1.95-.3-3.72-.27-1.77-.81-3.42-.54-1.68-1.35-3.3-.78-1.62-1.77-3.27z"/>
<path d="m613.3 915.7v-8.43h7.62q2.34 0 3.48 1.14t1.14 3.12q0 .99-.39 1.77-.36.75-.99 1.29t-1.47.84q-.84.27-1.77.27zm-2.04-10.17v21.42h2.04v-9.51h7.74q1.44-.06 2.25.48.84.54 1.26 1.44.45.87.57 2.01.15 1.11.21 2.25.03.33.06.78t.06.93q.06.45.15.9.12.42.3.72h2.25q-.33-.39-.54-1.08-.18-.72-.27-1.5-.09-.81-.12-1.59t-.06-1.32q-.06-.96-.27-1.77-.18-.84-.63-1.47-.42-.63-1.11-1.02-.69-.42-1.74-.57v-.06q2.07-.42 3.12-1.92t1.05-3.54q0-1.44-.54-2.49-.51-1.08-1.41-1.74-.87-.69-2.07-1.02-1.17-.33-2.49-.33z"/>
<path d="m631.3 905.6v21.42h2.04v-10.2h10.26v-1.74h-10.26v-7.74h11.55v-1.74z"/>
<path d="m663.1 912.1h2.04q-.21-1.68-1.02-2.97-.78-1.29-1.98-2.16-1.17-.9-2.64-1.35-1.44-.45-2.97-.45-2.52 0-4.44.93-1.89.9-3.15 2.46-1.26 1.53-1.89 3.54t-.63 4.23.63 4.23 1.89 3.54 3.15 2.46q1.92.9 4.44.9 1.89 0 3.42-.6 1.56-.6 2.7-1.71t1.86-2.7.93-3.57h-2.04q-.15 1.44-.69 2.7-.54 1.23-1.41 2.16t-2.07 1.47-2.7.54q-2.13 0-3.66-.81t-2.52-2.13q-.96-1.35-1.44-3.03-.45-1.71-.45-3.45 0-1.77.45-3.45.48-1.68 1.44-3 .99-1.35 2.52-2.16t3.66-.81q1.17 0 2.22.36 1.08.33 1.95.99.9.66 1.5 1.65.63.96.9 2.19z"/>
<path d="m689.6 927v-1.74h-11.67q.18-1.05.9-1.92.72-.9 1.65-1.65.96-.75 1.98-1.35 1.02-.63 1.77-1.14 1.05-.66 1.98-1.41.96-.78 1.68-1.68.75-.9 1.17-1.98.45-1.08.45-2.4 0-1.47-.51-2.58-.48-1.11-1.38-1.83-.87-.75-2.07-1.11-1.17-.39-2.55-.39-1.71 0-3 .57-1.26.54-2.1 1.53t-1.26 2.37q-.39 1.35-.36 2.97h1.89q-.03-1.17.21-2.22.27-1.05.84-1.86t1.47-1.29q.93-.48 2.22-.48.96 0 1.8.3.87.27 1.5.84.66.54 1.02 1.35.39.78.39 1.8 0 1.26-.45 2.19-.42.9-1.29 1.77t-1.98 1.65q-1.08.75-2.19 1.5-1.11.72-2.16 1.53-1.05.78-1.89 1.74t-1.35 2.16-.54 2.76z"/>
<path d="m704.6 911.3h1.89q-.33-2.79-1.98-4.14t-4.47-1.35q-1.71 0-2.94.6t-2.07 1.56q-.81.96-1.32 2.16-.48 1.17-.75 2.34-.27 1.14-.36 2.16-.06 1.02-.06 1.65 0 3.09.42 5.22.45 2.1 1.35 3.42t2.28 1.92q1.38.57 3.3.57 1.56 0 2.85-.51 1.32-.54 2.25-1.47.96-.96 1.47-2.25.54-1.32.54-2.85t-.51-2.82q-.48-1.29-1.38-2.22t-2.19-1.44q-1.26-.54-2.85-.54-1.8 0-3.33.96-1.5.96-2.25 2.52h-.06q0-1.44.21-3.06.21-1.65.84-3.06t1.77-2.34 2.97-.93 2.97 1.08q1.17 1.08 1.41 2.82zm-4.56 3.6q1.2 0 2.13.45.96.42 1.59 1.17.66.75.99 1.77.36 1.02.36 2.16 0 1.08-.36 2.07t-1.05 1.74q-.66.72-1.59 1.17-.9.42-2.04.42-1.38 0-2.37-.42t-1.65-1.14q-.63-.75-.93-1.74t-.3-2.1q0-1.17.33-2.16.36-1.02 1.02-1.77.69-.75 1.65-1.17.99-.45 2.22-.45z"/>
<path d="m711 910v1.35h5.55v15.6h1.89v-21h-1.53q-.21 1.44-.72 2.25-.48.78-1.23 1.17-.72.39-1.74.51-.99.09-2.22.12z"/>
<path d="m738 911.3h1.89q-.33-2.79-1.98-4.14t-4.47-1.35q-1.71 0-2.94.6t-2.07 1.56q-.81.96-1.32 2.16-.48 1.17-.75 2.34-.27 1.14-.36 2.16-.06 1.02-.06 1.65 0 3.09.42 5.22.45 2.1 1.35 3.42t2.28 1.92q1.38.57 3.3.57 1.56 0 2.85-.51 1.32-.54 2.25-1.47.96-.96 1.47-2.25.54-1.32.54-2.85t-.51-2.82q-.48-1.29-1.38-2.22t-2.19-1.44q-1.26-.54-2.85-.54-1.8 0-3.33.96-1.5.96-2.25 2.52h-.06q0-1.44.21-3.06.21-1.65.84-3.06t1.77-2.34 2.97-.93 2.97 1.08q1.17 1.08 1.41 2.82zm-4.56 3.6q1.2 0 2.13.45.96.42 1.59 1.17.66.75.99 1.77.36 1.02.36 2.16 0 1.08-.36 2.07t-1.05 1.74q-.66.72-1.59 1.17-.9.42-2.04.42-1.38 0-2.37-.42t-1.65-1.14q-.63-.75-.93-1.74t-.3-2.1q0-1.17.33-2.16.36-1.02 1.02-1.77.69-.75 1.65-1.17.99-.45 2.22-.45z"/>
<path d="m755.5 932.7h1.5q-.87-1.38-1.59-2.97-.69-1.59-1.2-3.27-.51-1.71-.78-3.42t-.27-3.33q0-4.02.9-7.68.93-3.66 2.94-6.9h-1.5q-1.98 3.09-3.12 6.57-1.11 3.45-1.11 7.32 0 1.98.27 3.75.3 1.74.84 3.39t1.32 3.27q.81 1.62 1.8 3.27z"/>
<path d="m759.9 910v1.35h5.55v15.6h1.89v-21h-1.53q-.21 1.44-.72 2.25-.48.78-1.23 1.17-.72.39-1.74.51-.99.09-2.22.12z"/>
<path d="m777.1 922h-1.89q.33 2.79 1.98 4.14 1.65 1.32 4.47 1.32 1.71 0 2.94-.6t2.04-1.53q.84-.96 1.32-2.13.51-1.2.78-2.34.27-1.17.33-2.19.09-1.02.09-1.65 0-3.06-.45-5.19-.42-2.13-1.32-3.45-.9-1.35-2.28-1.92-1.38-.6-3.3-.6-1.56 0-2.88.54-1.29.54-2.25 1.5-.93.93-1.47 2.25-.51 1.29-.51 2.82t.48 2.82q.51 1.29 1.41 2.22t2.19 1.47q1.29.51 2.85.51 1.8 0 3.3-.96 1.53-.96 2.28-2.52h.06q0 1.44-.21 3.09-.21 1.62-.84 3.03t-1.77 2.34q-1.11.93-2.97.93-1.83 0-3-1.08-1.14-1.08-1.38-2.82zm4.56-3.6q-1.2 0-2.16-.42-.93-.45-1.59-1.2-.63-.75-.99-1.77-.33-1.02-.33-2.16 0-1.08.36-2.07t1.02-1.71q.69-.75 1.62-1.17.93-.45 2.04-.45 1.38 0 2.37.42t1.62 1.17q.66.72.96 1.71.3.96.3 2.1 0 1.17-.36 2.19-.33.99-1.02 1.74-.66.75-1.65 1.2-.96.42-2.19.42z"/>
<path d="m793.8 922h-1.89q.33 2.79 1.98 4.14 1.65 1.32 4.47 1.32 1.71 0 2.94-.6t2.04-1.53q.84-.96 1.32-2.13.51-1.2.78-2.34.27-1.17.33-2.19.09-1.02.09-1.65 0-3.06-.45-5.19-.42-2.13-1.32-3.45-.9-1.35-2.28-1.92-1.38-.6-3.3-.6-1.56 0-2.88.54-1.29.54-2.25 1.5-.93.93-1.47 2.25-.51 1.29-.51 2.82t.48 2.82q.51 1.29 1.41 2.22t2.19 1.47q1.29.51 2.85.51 1.8 0 3.3-.96 1.53-.96 2.28-2.52h.06q0 1.44-.21 3.09-.21 1.62-.84 3.03t-1.77 2.34q-1.11.93-2.97.93-1.83 0-3-1.08-1.14-1.08-1.38-2.82zm4.56-3.6q-1.2 0-2.16-.42-.93-.45-1.59-1.2-.63-.75-.99-1.77-.33-1.02-.33-2.16 0-1.08.36-2.07t1.02-1.71q.69-.75 1.62-1.17.93-.45 2.04-.45 1.38 0 2.37.42t1.62 1.17q.66.72.96 1.71.3.96.3 2.1 0 1.17-.36 2.19-.33.99-1.02 1.74-.66.75-1.65 1.2-.96.42-2.19.42z"/>
<path d="m810.5 922h-1.89q.33 2.79 1.98 4.14 1.65 1.32 4.47 1.32 1.71 0 2.94-.6t2.04-1.53q.84-.96 1.32-2.13.51-1.2.78-2.34.27-1.17.33-2.19.09-1.02.09-1.65 0-3.06-.45-5.19-.42-2.13-1.32-3.45-.9-1.35-2.28-1.92-1.38-.6-3.3-.6-1.56 0-2.88.54-1.29.54-2.25 1.5-.93.93-1.47 2.25-.51 1.29-.51 2.82t.48 2.82q.51 1.29 1.41 2.22t2.19 1.47q1.29.51 2.85.51 1.8 0 3.3-.96 1.53-.96 2.28-2.52h.06q0 1.44-.21 3.09-.21 1.62-.84 3.03t-1.77 2.34q-1.11.93-2.97.93-1.83 0-3-1.08-1.14-1.08-1.38-2.82zm4.56-3.6q-1.2 0-2.16-.42-.93-.45-1.59-1.2-.63-.75-.99-1.77-.33-1.02-.33-2.16 0-1.08.36-2.07t1.02-1.71q.69-.75 1.62-1.17.93-.45 2.04-.45 1.38 0 2.37.42t1.62 1.17q.66.72.96 1.71.3.96.3 2.1 0 1.17-.36 2.19-.33.99-1.02 1.74-.66.75-1.65 1.2-.96.42-2.19.42z"/>
<path d="m825.3 905.1h-1.47q.81 1.44 1.5 3.03.72 1.59 1.23 3.27.51 1.65.78 3.36.3 1.71.3 3.36 0 4.02-.93 7.68-.9 3.63-2.88 6.87h1.47q1.98-3.09 3.09-6.54 1.14-3.45 1.14-7.32 0-1.95-.3-3.72-.27-1.77-.81-3.42-.54-1.68-1.35-3.3-.78-1.62-1.77-3.27z"/>
</g>
<rect x="530.9" y="887.2" width="147.5" height="147.5" rx="7.372" ry="7.372" fill="none" stroke="#000" stroke-width="2.24"/>
<g transform="matrix(.5758 0 0 .5758 -55.25 459.9)" stroke-width="3.766" aria-label="HTTP/2 RFC 2616 (2015)">
<path d="m1058 805.1v39.27h3.74v-19.03h23.32v19.03h3.74v-39.27h-3.74v17.05h-23.32v-17.05z"/>
<path d="m1093 805.1v3.19h13.64v36.08h3.74v-36.08h13.7v-3.19z"/>
<path d="m1123 805.1v3.19h13.64v36.08h3.74v-36.08h13.7v-3.19z"/>
<path d="m1162 824.3v-16.06h12.87q3.905 0 6.325 1.98t2.42 6.05-2.42 6.05-6.325 1.98zm-3.74-19.25v39.27h3.74v-16.83h13.7q2.64 0 4.785-.715 2.145-.77 3.685-2.2 1.54-1.485 2.365-3.575t.825-4.73-.825-4.73-2.365-3.52q-1.54-1.485-3.685-2.2-2.145-.77-4.785-.77z"/>
<path d="m1188 845.1h2.915l16.78-40.86h-2.805z"/>
<path d="m1235 844.4v-3.19h-21.4q.33-1.925 1.65-3.52 1.32-1.65 3.025-3.025 1.76-1.375 3.63-2.475 1.87-1.155 3.245-2.09 1.925-1.21 3.63-2.585 1.76-1.43 3.08-3.08 1.375-1.65 2.145-3.63.825-1.98.825-4.4 0-2.695-.935-4.73-.88-2.035-2.53-3.355-1.595-1.375-3.795-2.035-2.145-.715-4.675-.715-3.135 0-5.5 1.045-2.31.99-3.85 2.805t-2.31 4.345q-.715 2.475-.66 5.445h3.465q-.055-2.145.385-4.07.495-1.925 1.54-3.41t2.695-2.365q1.705-.88 4.07-.88 1.76 0 3.3.55 1.595.495 2.75 1.54 1.21.99 1.87 2.475.715 1.43.715 3.3 0 2.31-.825 4.015-.77 1.65-2.365 3.245t-3.63 3.025q-1.98 1.375-4.015 2.75-2.035 1.32-3.96 2.805-1.925 1.43-3.465 3.19t-2.475 3.96-.99 5.06z"/>
<path d="m1039 878.2v-8.43h7.62q2.34 0 3.48 1.14t1.14 3.12q0 .99-.39 1.77-.36.75-.99 1.29t-1.47.84q-.84.27-1.77.27zm-2.04-10.17v21.42h2.04v-9.51h7.74q1.44-.06 2.25.48.84.54 1.26 1.44.45.87.57 2.01.15 1.11.21 2.25.03.33.06.78t.06.93q.06.45.15.9.12.42.3.72h2.25q-.33-.39-.54-1.08-.18-.72-.27-1.5-.09-.81-.12-1.59t-.06-1.32q-.06-.96-.27-1.77-.18-.84-.63-1.47-.42-.63-1.11-1.02-.69-.42-1.74-.57v-.06q2.07-.42 3.12-1.92t1.05-3.54q0-1.44-.54-2.49-.51-1.08-1.41-1.74-.87-.69-2.07-1.02-1.17-.33-2.49-.33z"/>
<path d="m1057 868.1v21.42h2.04v-10.2h10.26v-1.74h-10.26v-7.74h11.55v-1.74z"/>
<path d="m1089 874.6h2.04q-.21-1.68-1.02-2.97-.78-1.29-1.98-2.16-1.17-.9-2.64-1.35-1.44-.45-2.97-.45-2.52 0-4.44.93-1.89.9-3.15 2.46-1.26 1.53-1.89 3.54t-.63 4.23.63 4.23 1.89 3.54 3.15 2.46q1.92.9 4.44.9 1.89 0 3.42-.6 1.56-.6 2.7-1.71t1.86-2.7.93-3.57h-2.04q-.15 1.44-.69 2.7-.54 1.23-1.41 2.16t-2.07 1.47-2.7.54q-2.13 0-3.66-.81t-2.52-2.13q-.96-1.35-1.44-3.03-.45-1.71-.45-3.45 0-1.77.45-3.45.48-1.68 1.44-3 .99-1.35 2.52-2.16t3.66-.81q1.17 0 2.22.36 1.08.33 1.95.99.9.66 1.5 1.65.63.96.9 2.19z"/>
<path d="m1116 889.5v-1.74h-11.67q.18-1.05.9-1.92.72-.9 1.65-1.65.96-.75 1.98-1.35 1.02-.63 1.77-1.14 1.05-.66 1.98-1.41.96-.78 1.68-1.68.75-.9 1.17-1.98.45-1.08.45-2.4 0-1.47-.51-2.58-.48-1.11-1.38-1.83-.87-.75-2.07-1.11-1.17-.39-2.55-.39-1.71 0-3 .57-1.26.54-2.1 1.53t-1.26 2.37q-.39 1.35-.36 2.97h1.89q-.03-1.17.21-2.22.27-1.05.84-1.86t1.47-1.29q.93-.48 2.22-.48.96 0 1.8.3.87.27 1.5.84.66.54 1.02 1.35.39.78.39 1.8 0 1.26-.45 2.19-.42.9-1.29 1.77t-1.98 1.65q-1.08.75-2.19 1.5-1.11.72-2.16 1.53-1.05.78-1.89 1.74t-1.35 2.16-.54 2.76z"/>
<path d="m1131 873.8h1.89q-.33-2.79-1.98-4.14t-4.47-1.35q-1.71 0-2.94.6t-2.07 1.56q-.81.96-1.32 2.16-.48 1.17-.75 2.34-.27 1.14-.36 2.16-.06 1.02-.06 1.65 0 3.09.42 5.22.45 2.1 1.35 3.42t2.28 1.92q1.38.57 3.3.57 1.56 0 2.85-.51 1.32-.54 2.25-1.47.96-.96 1.47-2.25.54-1.32.54-2.85t-.51-2.82q-.48-1.29-1.38-2.22t-2.19-1.44q-1.26-.54-2.85-.54-1.8 0-3.33.96-1.5.96-2.25 2.52h-.06q0-1.44.21-3.06.21-1.65.84-3.06t1.77-2.34 2.97-.93 2.97 1.08q1.17 1.08 1.41 2.82zm-4.56 3.6q1.2 0 2.13.45.96.42 1.59 1.17.66.75.99 1.77.36 1.02.36 2.16 0 1.08-.36 2.07t-1.05 1.74q-.66.72-1.59 1.17-.9.42-2.04.42-1.38 0-2.37-.42t-1.65-1.14q-.63-.75-.93-1.74t-.3-2.1q0-1.17.33-2.16.36-1.02 1.02-1.77.69-.75 1.65-1.17.99-.45 2.22-.45z"/>
<path d="m1137 872.5v1.35h5.55v15.6h1.89v-21h-1.53q-.21 1.44-.72 2.25-.48.78-1.23 1.17-.72.39-1.74.51-.99.09-2.22.12z"/>
<path d="m1164 873.8h1.89q-.33-2.79-1.98-4.14t-4.47-1.35q-1.71 0-2.94.6t-2.07 1.56q-.81.96-1.32 2.16-.48 1.17-.75 2.34-.27 1.14-.36 2.16-.06 1.02-.06 1.65 0 3.09.42 5.22.45 2.1 1.35 3.42t2.28 1.92q1.38.57 3.3.57 1.56 0 2.85-.51 1.32-.54 2.25-1.47.96-.96 1.47-2.25.54-1.32.54-2.85t-.51-2.82q-.48-1.29-1.38-2.22t-2.19-1.44q-1.26-.54-2.85-.54-1.8 0-3.33.96-1.5.96-2.25 2.52h-.06q0-1.44.21-3.06.21-1.65.84-3.06t1.77-2.34 2.97-.93 2.97 1.08q1.17 1.08 1.41 2.82zm-4.56 3.6q1.2 0 2.13.45.96.42 1.59 1.17.66.75.99 1.77.36 1.02.36 2.16 0 1.08-.36 2.07t-1.05 1.74q-.66.72-1.59 1.17-.9.42-2.04.42-1.38 0-2.37-.42t-1.65-1.14q-.63-.75-.93-1.74t-.3-2.1q0-1.17.33-2.16.36-1.02 1.02-1.77.69-.75 1.65-1.17.99-.45 2.22-.45z"/>
<path d="m1182 895.2h1.5q-.87-1.38-1.59-2.97-.69-1.59-1.2-3.27-.51-1.71-.78-3.42t-.27-3.33q0-4.02.9-7.68.93-3.66 2.94-6.9h-1.5q-1.98 3.09-3.12 6.57-1.11 3.45-1.11 7.32 0 1.98.27 3.75.3 1.74.84 3.39t1.32 3.27q.81 1.62 1.8 3.27z"/>
<path d="m1198 889.5v-1.74h-11.67q.18-1.05.9-1.92.72-.9 1.65-1.65.96-.75 1.98-1.35 1.02-.63 1.77-1.14 1.05-.66 1.98-1.41.96-.78 1.68-1.68.75-.9 1.17-1.98.45-1.08.45-2.4 0-1.47-.51-2.58-.48-1.11-1.38-1.83-.87-.75-2.07-1.11-1.17-.39-2.55-.39-1.71 0-3 .57-1.26.54-2.1 1.53t-1.26 2.37q-.39 1.35-.36 2.97h1.89q-.03-1.17.21-2.22.27-1.05.84-1.86t1.47-1.29q.93-.48 2.22-.48.96 0 1.8.3.87.27 1.5.84.66.54 1.02 1.35.39.78.39 1.8 0 1.26-.45 2.19-.42.9-1.29 1.77t-1.98 1.65q-1.08.75-2.19 1.5-1.11.72-2.16 1.53-1.05.78-1.89 1.74t-1.35 2.16-.54 2.76z"/>
<path d="m1208 868.3q-2.28 0-3.72 1.02-1.44.99-2.25 2.55-.78 1.56-1.08 3.48-.27 1.92-.27 3.78 0 1.83.27 3.75.3 1.92 1.08 3.48.81 1.56 2.25 2.55t3.72.99q2.31 0 3.72-.99 1.44-.99 2.22-2.55.81-1.56 1.08-3.48.3-1.92.3-3.78 0-1.83-.3-3.75-.27-1.92-1.08-3.48-.78-1.56-2.22-2.55-1.41-1.02-3.72-1.02zm0 1.59q1.8 0 2.88.93t1.62 2.31q.57 1.38.75 3t.18 2.97q0 1.38-.18 3-.18 1.59-.75 3-.54 1.38-1.62 2.31t-2.88.93-2.88-.93-1.65-2.31q-.54-1.41-.72-3-.18-1.62-.18-3 0-1.35.18-2.97t.72-3q.57-1.38 1.65-2.31t2.88-.93z"/>
<path d="m1219 872.5v1.35h5.55v15.6h1.89v-21h-1.53q-.21 1.44-.72 2.25-.48.78-1.23 1.17-.72.39-1.74.51-.99.09-2.22.12z"/>
<path d="m1236 883.5h-1.89q.03 1.5.57 2.7t1.44 2.04q.93.81 2.16 1.26 1.26.42 2.73.42 1.5 0 2.82-.51 1.35-.54 2.34-1.47.99-.96 1.56-2.25.57-1.32.57-2.85 0-1.59-.51-2.91-.48-1.35-1.41-2.31-.9-.96-2.22-1.5-1.29-.54-2.91-.54-1.26 0-2.46.51t-1.98 1.44l-.06-.06 1.35-6.96h9.18v-1.74h-10.5l-2.04 10.89h1.62q.78-1.2 2.01-1.83 1.23-.66 2.67-.66 1.17 0 2.16.42t1.68 1.17q.72.72 1.11 1.71.42.99.42 2.16 0 1.14-.36 2.19-.36 1.02-1.05 1.83-.69.78-1.65 1.26-.96.45-2.19.45-1.08 0-2.01-.33-.93-.36-1.62-.99-.69-.66-1.11-1.56-.39-.9-.42-1.98z"/>
<path d="m1251 867.6h-1.47q.81 1.44 1.5 3.03.72 1.59 1.23 3.27.51 1.65.78 3.36.3 1.71.3 3.36 0 4.02-.93 7.68-.9 3.63-2.88 6.87h1.47q1.98-3.09 3.09-6.54 1.14-3.45 1.14-7.32 0-1.95-.3-3.72-.27-1.77-.81-3.42-.54-1.68-1.35-3.3-.78-1.62-1.77-3.27z"/>
</g>
<rect x="285.6" y="489.9" width="147.5" height="147.5" rx="7.372" ry="7.372" fill="none" stroke="#000" stroke-width="2.24"/>
<g transform="matrix(.5758 0 0 .5758 -55.25 459.9)" stroke-width="3.766" aria-label="HTTP 0.9 (1991)">
<path d="m610.1 112.2v39.27h3.74v-19.03h23.32v19.03h3.74v-39.27h-3.74v17.05h-23.32v-17.05z"/>
<path d="m644.6 112.2v3.19h13.64v36.08h3.74v-36.08h13.7v-3.19z"/>
<path d="m675.2 112.2v3.19h13.64v36.08h3.74v-36.08h13.7v-3.19z"/>
<path d="m713.7 131.4v-16.06h12.87q3.905 0 6.325 1.98t2.42 6.05-2.42 6.05-6.325 1.98zm-3.74-19.25v39.27h3.74v-16.83h13.7q2.64 0 4.785-.715 2.145-.77 3.685-2.2 1.54-1.485 2.365-3.575t.825-4.73-.825-4.73-2.365-3.52q-1.54-1.485-3.685-2.2-2.145-.77-4.785-.77z"/>
<path d="m771.2 112.6q-4.18 0-6.82 1.87-2.64 1.815-4.125 4.675-1.43 2.86-1.98 6.38-.495 3.52-.495 6.93 0 3.355.495 6.875.55 3.52 1.98 6.38 1.485 2.86 4.125 4.675t6.82 1.815q4.235 0 6.82-1.815 2.64-1.815 4.07-4.675 1.485-2.86 1.98-6.38.55-3.52.55-6.93 0-3.355-.55-6.875-.495-3.52-1.98-6.38-1.43-2.86-4.07-4.675-2.585-1.87-6.82-1.87zm0 2.915q3.3 0 5.28 1.705t2.97 4.235q1.045 2.53 1.375 5.5t.33 5.445q0 2.53-.33 5.5-.33 2.915-1.375 5.5-.99 2.53-2.97 4.235t-5.28 1.705-5.28-1.705-3.025-4.235q-.99-2.585-1.32-5.5-.33-2.97-.33-5.5 0-2.475.33-5.445t1.32-5.5q1.045-2.53 3.025-4.235t5.28-1.705z"/>
<path d="m791.9 151.4h4.62v-5.83h-4.62z"/>
<path d="m808.1 142.2h-3.465q.605 5.115 3.63 7.59 3.025 2.42 8.195 2.42 3.135 0 5.39-1.1t3.74-2.805q1.54-1.76 2.42-3.905.935-2.2 1.43-4.29.495-2.145.605-4.015.165-1.87.165-3.025 0-5.61-.825-9.515-.77-3.905-2.42-6.325-1.65-2.475-4.18-3.52-2.53-1.1-6.05-1.1-2.86 0-5.28.99-2.365.99-4.125 2.75-1.705 1.705-2.695 4.125-.935 2.365-.935 5.17t.88 5.17q.935 2.365 2.585 4.07t4.015 2.695q2.365.935 5.225.935 3.3 0 6.05-1.76 2.805-1.76 4.18-4.62h.11q0 2.64-.385 5.665-.385 2.97-1.54 5.555t-3.245 4.29q-2.035 1.705-5.445 1.705-3.355 0-5.5-1.98-2.09-1.98-2.53-5.17zm8.36-6.6q-2.2 0-3.96-.77-1.705-.825-2.915-2.2-1.155-1.375-1.815-3.245-.605-1.87-.605-3.96 0-1.98.66-3.795t1.87-3.135q1.265-1.375 2.97-2.145 1.705-.825 3.74-.825 2.53 0 4.345.77t2.97 2.145q1.21 1.32 1.76 3.135.55 1.76.55 3.85 0 2.145-.66 4.015-.605 1.815-1.87 3.19-1.21 1.375-3.025 2.2-1.76.77-4.015.77z"/>
<path d="m678.6 207.9h1.75q-1.015-1.61-1.855-3.465-.805-1.855-1.4-3.815-.595-1.995-.91-3.99t-.315-3.885q0-4.69 1.05-8.96 1.085-4.27 3.43-8.05h-1.75q-2.31 3.605-3.64 7.665-1.295 4.025-1.295 8.54 0 2.31.315 4.375.35 2.03.98 3.955t1.54 3.815q.945 1.89 2.1 3.815z"/>
<path d="m683.7 181.5v1.575h6.475v18.2h2.205v-24.5h-1.785q-.245 1.68-.84 2.625-.56.91-1.435 1.365-.84.455-2.03.595-1.155.105-2.59.14z"/>
<path d="m703.8 195.4h-2.205q.385 3.255 2.31 4.83 1.925 1.54 5.215 1.54 1.995 0 3.43-.7t2.38-1.785q.98-1.12 1.54-2.485.595-1.4.91-2.73.315-1.365.385-2.555.105-1.19.105-1.925 0-3.57-.525-6.055-.49-2.485-1.54-4.025-1.05-1.575-2.66-2.24-1.61-.7-3.85-.7-1.82 0-3.36.63-1.505.63-2.625 1.75-1.085 1.085-1.715 2.625-.595 1.505-.595 3.29t.56 3.29q.595 1.505 1.645 2.59t2.555 1.715q1.505.595 3.325.595 2.1 0 3.85-1.12 1.785-1.12 2.66-2.94h.07q0 1.68-.245 3.605-.245 1.89-.98 3.535t-2.065 2.73q-1.295 1.085-3.465 1.085-2.135 0-3.5-1.26-1.33-1.26-1.61-3.29zm5.32-4.2q-1.4 0-2.52-.49-1.085-.525-1.855-1.4-.735-.875-1.155-2.065-.385-1.19-.385-2.52 0-1.26.42-2.415t1.19-1.995q.805-.875 1.89-1.365 1.085-.525 2.38-.525 1.61 0 2.765.49t1.89 1.365q.77.84 1.12 1.995.35 1.12.35 2.45 0 1.365-.42 2.555-.385 1.155-1.19 2.03-.77.875-1.925 1.4-1.12.49-2.555.49z"/>
<path d="m723.3 195.4h-2.205q.385 3.255 2.31 4.83 1.925 1.54 5.215 1.54 1.995 0 3.43-.7t2.38-1.785q.98-1.12 1.54-2.485.595-1.4.91-2.73.315-1.365.385-2.555.105-1.19.105-1.925 0-3.57-.525-6.055-.49-2.485-1.54-4.025-1.05-1.575-2.66-2.24-1.61-.7-3.85-.7-1.82 0-3.36.63-1.505.63-2.625 1.75-1.085 1.085-1.715 2.625-.595 1.505-.595 3.29t.56 3.29q.595 1.505 1.645 2.59t2.555 1.715q1.505.595 3.325.595 2.1 0 3.85-1.12 1.785-1.12 2.66-2.94h.07q0 1.68-.245 3.605-.245 1.89-.98 3.535t-2.065 2.73q-1.295 1.085-3.465 1.085-2.135 0-3.5-1.26-1.33-1.26-1.61-3.29zm5.32-4.2q-1.4 0-2.52-.49-1.085-.525-1.855-1.4-.735-.875-1.155-2.065-.385-1.19-.385-2.52 0-1.26.42-2.415t1.19-1.995q.805-.875 1.89-1.365 1.085-.525 2.38-.525 1.61 0 2.765.49t1.89 1.365q.77.84 1.12 1.995.35 1.12.35 2.45 0 1.365-.42 2.555-.385 1.155-1.19 2.03-.77.875-1.925 1.4-1.12.49-2.555.49z"/>
<path d="m742.2 181.5v1.575h6.475v18.2h2.205v-24.5h-1.785q-.245 1.68-.84 2.625-.56.91-1.435 1.365-.84.455-2.03.595-1.155.105-2.59.14z"/>
<path d="m760 175.8h-1.715q.945 1.68 1.75 3.535.84 1.855 1.435 3.815.595 1.925.91 3.92.35 1.995.35 3.92 0 4.69-1.085 8.96-1.05 4.235-3.36 8.015h1.715q2.31-3.605 3.605-7.63 1.33-4.025 1.33-8.54 0-2.275-.35-4.34-.315-2.065-.945-3.99-.63-1.96-1.575-3.85-.91-1.89-2.065-3.815z"/>
</g>
<g transform="matrix(.5758 0 0 .5758 -55.25 459.9)" stroke-width="6.569" aria-label="Tim Berners-Lee">
<path d="m397.9-104.6v5.22h22.32v59.04h6.12v-59.04h22.41v-5.22z"/>
<path d="m455.9-104.6v9.09h5.67v-9.09zm0 17.82v46.44h5.67v-46.44z"/>
<path d="m472.5-86.83v46.44h5.67v-25.92q0-3.69.81-6.75.81-3.15 2.43-5.4 1.71-2.34 4.32-3.6 2.7-1.35 6.3-1.35 2.7 0 4.59.9t2.97 2.52q1.17 1.53 1.62 3.69.54 2.07.54 4.41v31.5h5.67v-26.28q0-3.24.54-6.21.63-3.06 2.07-5.4t3.87-3.69q2.43-1.44 6.12-1.44 6.12 0 8.55 3.06 2.43 2.97 2.43 8.73v31.23h5.67v-31.5q0-16.29-15.39-16.29-4.59 0-8.64 2.25t-6.12 6.84q-1.26-4.59-5.04-6.84-3.69-2.25-8.28-2.25-5.67 0-9.36 2.43-3.6 2.43-5.85 6.75h-.27v-7.83z"/>
<path d="m579.7-76.48v-22.95h21.06q14.49 0 14.49 12.06 0 2.25-.9 4.23t-2.7 3.51q-1.8 1.44-4.5 2.34-2.7.81-6.39.81zm-6.12-28.17v64.26h27.18q5.22 0 8.91-.9 3.78-.99 6.3-2.43 2.61-1.53 4.14-3.51t2.34-3.96q.81-2.07 1.08-3.96.27-1.98.27-3.51 0-6.3-3.69-10.53-3.69-4.32-9.9-5.13v-.18q2.52-.54 4.5-1.89 2.07-1.35 3.51-3.24 1.53-1.98 2.34-4.32.81-2.43.81-4.95 0-4.5-1.71-7.47-1.71-3.06-4.59-4.86-2.79-1.89-6.57-2.61-3.69-.81-7.74-.81zm6.12 59.04v-25.65h21.06q8.19 0 12.51 3.15 4.41 3.06 4.41 9.27 0 3.87-1.35 6.48-1.35 2.52-3.69 4.05t-5.4 2.16q-3.06.54-6.48.54z"/>
<path d="m666-66.85h-30.06q.36-3.15 1.44-6.12 1.17-3.06 3.06-5.31 1.89-2.34 4.59-3.69 2.7-1.44 6.21-1.44 3.42 0 6.12 1.44 2.7 1.35 4.59 3.69 1.89 2.25 2.88 5.22 1.08 2.97 1.17 6.21zm-30.06 4.77h35.73q.18-4.86-.9-9.54-1.08-4.77-3.6-8.37-2.43-3.69-6.39-5.94t-9.54-2.25q-5.49 0-9.54 2.16-3.96 2.07-6.48 5.58-2.52 3.42-3.78 7.83-1.17 4.41-1.17 9 0 4.95 1.17 9.45 1.26 4.41 3.78 7.83 2.52 3.33 6.48 5.31 4.05 1.89 9.54 1.89 8.82 0 13.59-4.32 4.86-4.32 6.66-12.24h-5.67q-1.35 5.4-4.86 8.64t-9.72 3.24q-4.05 0-6.93-1.71t-4.77-4.32-2.79-5.85q-.81-3.33-.81-6.39z"/>
<path d="m679.4-86.83v46.44h5.67v-24.75q0-3.69 1.26-6.75 1.26-3.15 3.51-5.4 2.34-2.25 5.49-3.42 3.15-1.26 7.02-1.08v-5.67q-6.3-.27-10.89 2.79-4.5 3.06-6.66 8.73h-.18v-10.89z"/>
<path d="m709.3-86.83v46.44h5.67v-27.09q.09-3.42 1.08-6.3 1.08-2.97 2.88-5.04 1.89-2.16 4.5-3.33 2.7-1.26 6.12-1.26t5.67 1.08q2.34 1.08 3.69 2.97t1.89 4.5q.54 2.52.54 5.49v28.98h5.67v-29.88q0-4.14-.81-7.47t-2.79-5.58q-1.98-2.34-5.31-3.6-3.24-1.26-8.1-1.26-4.95 0-9.09 2.61-4.14 2.52-5.76 6.75h-.18v-8.01z"/>
<path d="m791.2-66.85h-30.06q.36-3.15 1.44-6.12 1.17-3.06 3.06-5.31 1.89-2.34 4.59-3.69 2.7-1.44 6.21-1.44 3.42 0 6.12 1.44 2.7 1.35 4.59 3.69 1.89 2.25 2.88 5.22 1.08 2.97 1.17 6.21zm-30.06 4.77h35.73q.18-4.86-.9-9.54-1.08-4.77-3.6-8.37-2.43-3.69-6.39-5.94t-9.54-2.25q-5.49 0-9.54 2.16-3.96 2.07-6.48 5.58-2.52 3.42-3.78 7.83-1.17 4.41-1.17 9 0 4.95 1.17 9.45 1.26 4.41 3.78 7.83 2.52 3.33 6.48 5.31 4.05 1.89 9.54 1.89 8.82 0 13.59-4.32 4.86-4.32 6.66-12.24h-5.67q-1.35 5.4-4.86 8.64t-9.72 3.24q-4.05 0-6.93-1.71t-4.77-4.32-2.79-5.85q-.81-3.33-.81-6.39z"/>
<path d="m804.6-86.83v46.44h5.67v-24.75q0-3.69 1.26-6.75 1.26-3.15 3.51-5.4 2.34-2.25 5.49-3.42 3.15-1.26 7.02-1.08v-5.67q-6.3-.27-10.89 2.79-4.5 3.06-6.66 8.73h-.18v-10.89z"/>
<path d="m860.7-73.24h5.67q-.18-3.78-1.53-6.57t-3.69-4.68q-2.25-1.89-5.31-2.79-2.97-.9-6.48-.9-3.06 0-6.21.72-3.06.72-5.58 2.25t-4.14 4.05q-1.53 2.52-1.53 6.03 0 2.97.99 5.04.99 1.98 2.7 3.42 1.8 1.35 4.14 2.34 2.34.9 5.13 1.62l7.29 1.62q1.89.45 3.69 1.08 1.89.63 3.33 1.62 1.44.9 2.25 2.34.9 1.35.9 3.42 0 2.43-1.26 4.14-1.17 1.62-3.06 2.7t-4.14 1.53q-2.16.45-4.23.45-5.67 0-9.54-2.88-3.78-2.97-4.14-8.73h-5.67q.72 8.55 5.76 12.42 5.13 3.87 13.32 3.87 3.24 0 6.57-.72t5.94-2.34q2.7-1.71 4.41-4.32 1.71-2.7 1.71-6.48 0-3.06-1.17-5.31t-3.06-3.78q-1.8-1.53-4.23-2.43-2.34-.99-4.77-1.35l-7.56-1.71q-1.44-.36-3.15-.9-1.71-.63-3.15-1.53t-2.43-2.16q-.9-1.35-.9-3.24 0-2.25.99-3.78t2.61-2.43q1.62-.99 3.51-1.35 1.98-.45 3.87-.45 2.43 0 4.59.63 2.16.54 3.78 1.8 1.71 1.26 2.7 3.24.99 1.89 1.08 4.5z"/>
<path d="m876.1-62.53h22.5v-5.22h-22.5z"/>
<path d="m910.4-104.6v64.26h42.12v-5.22h-36v-59.04z"/>
<path d="m991.1-66.85h-30.06q.36-3.15 1.44-6.12 1.17-3.06 3.06-5.31 1.89-2.34 4.59-3.69 2.7-1.44 6.21-1.44 3.42 0 6.12 1.44 2.7 1.35 4.59 3.69 1.89 2.25 2.88 5.22 1.08 2.97 1.17 6.21zm-30.06 4.77h35.73q.18-4.86-.9-9.54-1.08-4.77-3.6-8.37-2.43-3.69-6.39-5.94t-9.54-2.25q-5.49 0-9.54 2.16-3.96 2.07-6.48 5.58-2.52 3.42-3.78 7.83-1.17 4.41-1.17 9 0 4.95 1.17 9.45 1.26 4.41 3.78 7.83 2.52 3.33 6.48 5.31 4.05 1.89 9.54 1.89 8.82 0 13.59-4.32 4.86-4.32 6.66-12.24h-5.67q-1.35 5.4-4.86 8.64t-9.72 3.24q-4.05 0-6.93-1.71t-4.77-4.32-2.79-5.85q-.81-3.33-.81-6.39z"/>
<path d="m1038-66.85h-30.06q.36-3.15 1.44-6.12 1.17-3.06 3.06-5.31 1.89-2.34 4.59-3.69 2.7-1.44 6.21-1.44 3.42 0 6.12 1.44 2.7 1.35 4.59 3.69 1.89 2.25 2.88 5.22 1.08 2.97 1.17 6.21zm-30.06 4.77h35.73q.18-4.86-.9-9.54-1.08-4.77-3.6-8.37-2.43-3.69-6.39-5.94t-9.54-2.25q-5.49 0-9.54 2.16-3.96 2.07-6.48 5.58-2.52 3.42-3.78 7.83-1.17 4.41-1.17 9 0 4.95 1.17 9.45 1.26 4.41 3.78 7.83 2.52 3.33 6.48 5.31 4.05 1.89 9.54 1.89 8.82 0 13.59-4.32 4.86-4.32 6.66-12.24h-5.67q-1.35 5.4-4.86 8.64t-9.72 3.24q-4.05 0-6.93-1.71t-4.77-4.32-2.79-5.85q-.81-3.33-.81-6.39z"/>
</g>
</g>
</g>
</svg>
