<svg width="720" height="137" version="1.1" viewBox="0 0 720 137" xmlns="http://www.w3.org/2000/svg">
<g transform="translate(0 -915.36)">
<rect y="915.36" width="720" height="137" fill="#f2f2f2"/>
<rect x="511.74" y="921.24" width="207.41" height="125.27" ry="6.0226" fill="none" stroke="#000" stroke-width=".71107"/>
<g stroke-width=".14221px" aria-label="&amp;#167;">
<path d="m78.701 967.28q-.63872 3.0517-2.0581 6.1388-1.4194 3.0872-3.513 5.8549l5.5711 5.2162-3.3355 3.7968-5.5711-5.4646q-2.6259 2.342-5.8195 3.8323t-6.9195 1.4904q-2.6968 0-5.1098-.99356-2.3775-.99357-4.1517-2.6968-1.7742-1.7032-2.8388-3.9743-1.0645-2.3065-1.0645-5.0033 0-2.2355.49678-4.0807.4613-1.8807 1.2774-3.371.85163-1.4904 1.9871-2.6613 1.1355-1.2065 2.4484-2.2355-2.2-2.7678-3.4065-5.4646-1.2065-2.7323-1.2065-5.5001 0-5.4646 3.1581-8.6937 3.1936-3.2291 8.4808-3.2291 2.4129 0 4.5065.74518 2.1291.70969 3.6904 2.0581 1.5613 1.3484 2.4129 3.2646.88711 1.9162.88711 4.4001 0 2.7678-1.1 4.7194t-2.7678 3.442q-1.6678 1.4904-3.7968 2.6968-2.0936 1.2065-4.1162 2.5194l12.774 11.994q1.7033-2.342 2.7678-4.8969 1.1-2.5904 1.6678-5.0743zm-21.646 16.181q2.7678 0 5.1453-1.029 2.4129-1.0645 4.2936-2.8033l-12.207-11.923-1.0645-1.029q-1.8452 1.5968-2.9807 3.6904-1.1 2.0581-1.1 5.1098 0 3.4065 2.2 5.713 2.2355 2.271 5.713 2.271zm-6.5292-31.297q0 1.6678.60324 3.7968.63872 2.0936 2.6613 4.7549 1.8097-1.0645 3.5839-2.0936 1.8097-1.029 3.1581-2.1646 1.3839-1.171 2.2-2.5904.85163-1.4194.85163-3.3001 0-2.7678-1.8452-4.3646-1.8452-1.5968-4.613-1.5968-1.5258 0-2.7678.63872-1.2065.60324-2.0936 1.6678-.88711 1.029-1.3129 2.413-.42582 1.3839-.42582 2.8388z"/>
<path d="m131.81 979.45h-7.8421v7.8421h-4.1517v-7.8421h-9.084v7.8421h-4.1517v-7.8421h-7.8421v-3.9033h7.8421v-9.3679h-7.8421v-3.8678h7.8421v-8.0905h4.1517v8.0905h9.084v-8.0905h4.1517v8.0905h7.8421v3.8678h-7.8421v9.3679h7.8421zm-11.994-3.9033v-9.3679h-9.084v9.3679z"/>
<path d="m179.14 987.33h-19.836v-4.1517h7.4872v-31.617q-.63872 1.4549-2.0226 3.1226-1.3839 1.6323-3.2646 3.0162-1.8807 1.3484-4.1517 2.271-2.2355.92259-4.6485.92259v-5.0388q2.1646 0 4.6485-1.3484 2.4839-1.3484 4.5775-3.442t3.4775-4.7549q1.3839-2.6613 1.3839-5.2872h4.8969v42.156h7.4518z"/>
<path d="m240.66 971.57q0 3.8323-1.2774 6.884-1.242 3.0517-3.513 5.2162-2.2355 2.1291-5.3227 3.3001-3.0872 1.171-6.6711 1.171-4.9324 0-8.2679-1.9871-3.3355-2.0226-5.3936-5.3227-2.0226-3.3001-2.9452-7.6292-.88711-4.3291-.88711-8.9776 0-4.7194 1.2065-9.0486 1.242-4.3291 3.6904-7.6647 2.4484-3.371 6.1033-5.3227 3.6904-1.9516 8.6227-1.9516 6.884 0 11.462 4.7904l-3.1936 2.8388q-3.1936-3.4775-8.2679-3.4775-3.7259 0-6.6001 1.4194-2.8388 1.4194-4.7549 3.9743-1.8807 2.5194-2.8388 6.1033-.9226 3.5484-.9226 7.8066.49679-1.8097 1.8807-3.4065 1.3839-1.5968 3.1936-2.7323 1.8097-1.171 3.9033-1.8452 2.1291-.70969 4.2581-.70969 3.6194 0 6.6711 1.242 3.0517 1.2065 5.2162 3.4065 2.2 2.1646 3.4065 5.2162 1.242 3.0517 1.242 6.7066zm-4.8614 0q0-2.6258-.81614-4.8969-.78066-2.3065-2.271-3.9743-1.4904-1.6678-3.6904-2.6258-2.1646-.95808-4.8969-.95808-2.6968 0-4.9678.88711-2.2355.88711-3.8323 2.4839-1.5968 1.5968-2.4839 3.7968-.85163 2.1646-.85163 4.8259 0 2.6259.70969 4.9678.70969 2.3065 2.2 4.0807 1.4904 1.7742 3.6904 2.8033 2.2355 1.029 5.2872 1.029 2.6258 0 4.7904-.85162 2.2-.88712 3.7968-2.4839t2.4484-3.9388q.88711-2.342.88711-5.1453z"/>
<path d="m293.28 945.31q-4.3646 4.7194-6.9904 9.2969-2.6258 4.5775-4.0452 9.5808-1.4194 4.9678-1.9162 10.645-.49678 5.642-.56775 12.491h-5.1098q.071-6.4582.67421-12.171.63872-5.713 2.2-10.894 1.5613-5.2162 4.2581-9.9357 2.6968-4.7194 6.813-9.155h-22.071v9.084h-4.1517v-13.236h30.907z"/>
<path d="m334.43 960.89h-6.6001v-6.6356h6.6001zm1.8097 19.836-9.7228 19.836h-3.4065l6.6001-19.836z"/>
</g>
<g fill="none" stroke="#000" stroke-width=".71107">
<path d="m41.997 998.13v17.066h91.017v-17.066"/>
<path d="m151.5 998.13v17.066h143.64v-17.066"/>
<path d="m317.89 998.13v17.066h21.332v-17.066"/>
</g>
<g stroke-width=".14221px">
<g aria-label="BEGIN">
<path d="m65.813 1032q0 2.284-1.4779 3.42-1.4779 1.1359-4.2017 1.1359h-5.0811v-15.94h4.8002q1.0016 0 1.9665.171.96493.1588 1.7222.6107.7695.4519 1.2459 1.2581.47636.7939.47636 2.0886 0 2.4795-2.4795 3.3833 3.0291.9283 3.0291 3.872zm-2.223-7.2553q0-.8428-.35421-1.3802t-.90386-.8184q-.54964-.2931-1.2092-.3908-.65957-.11-1.2703-.11h-3.1269v5.411h3.1269q.684 0 1.3436-.098.65957-.1099 1.1848-.403.52521-.3054.86721-.8306.342-.5252.342-1.3802zm.54964 7.2553q0-1.649-1.0749-2.394-1.0626-.7573-2.9314-.7573h-3.4078v6.2781h3.4078q1.8688 0 2.9314-.7817 1.0749-.7939 1.0749-2.3451z"/>
<path d="m78.919 1036.6h-10.187v-15.94h10.187v1.429h-8.5133v5.7041h6.2781v1.4291h-6.2781v5.9483h8.5133z"/>
<path d="m93.82 1028.6q0 1.6245-.342 3.1025-.32978 1.4779-1.0749 2.6138-.73286 1.1359-1.9054 1.8199-1.1604.6718-2.8093.6718-1.6734 0-2.8337-.684-1.1604-.6962-1.9054-1.8321-.73286-1.1359-1.0626-2.6261-.31757-1.4901-.31757-3.0902t.31757-3.0902q.32979-1.4901 1.0626-2.6383.74507-1.1481 1.9054-1.8321 1.1604-.6962 2.8337-.6962 1.4779 0 2.5284.5252t1.5512 1.6v-1.8565h1.4291v5.2277h-1.4291q0-.8672-.32978-1.6123-.31757-.7573-.86721-1.2947t-1.3069-.8428q-.74507-.3176-1.5756-.3176-1.2947 0-2.1497.6107-.84278.6108-1.3558 1.6001-.513.9894-.73286 2.1986-.20764 1.2092-.20764 2.4184 0 1.197.20764 2.4184.21986 1.2092.73286 2.1864.513.9649 1.3558 1.5878.855.6108 2.1497.6108 1.9299 0 3.0414-1.4902 1.1115-1.4901 1.3191-4.1895h-3.5299v-1.4291h5.301z"/>
<path d="m104.59 1036.6h-6.8278v-1.4291h2.5772v-13.082h-2.5772v-1.429h6.8278v1.429h-2.565v13.082h2.565z"/>
<path d="m119.96 1036.6h-2.0764l-6.4369-13.485v13.485h-1.6734v-15.94h2.3574l6.1438 12.862v-12.862h1.6856z"/>
</g>
<g aria-label="NUMBER">
<path d="m193.84 1036.6h-2.0764l-6.4369-13.485v13.485h-1.6734v-15.94h2.3574l6.1438 12.862v-12.862h1.6856z"/>
<path d="m207.52 1030.9q0 1.3557-.30536 2.455-.29314 1.0993-.92828 1.881-.62293.7695-1.5879 1.197-.96492.4275-2.2841.4275-1.3314 0-2.2963-.4275-.95271-.4275-1.5756-1.197-.61071-.7817-.91607-1.8932-.29314-1.1115-.29314-2.4673v-10.236h1.6734v10.26q0 .7206.12215 1.5267.13435.8062.50078 1.4658.37864.6595 1.0382 1.0992.67178.4398 1.7466.4398 1.0748 0 1.7466-.4398.684-.4397 1.0504-1.0992.37865-.6596.50079-1.4658.12214-.8061.12214-1.5267v-10.26h1.6856z"/>
<path d="m221.2 1036.6h-1.6856v-13.277l-2.8215 8.2202h-1.197l-2.8093-8.2202v13.277h-1.6734v-15.94h2.1741l2.907 8.3301 2.9314-8.3301h2.1741z"/>
<path d="m235.45 1032q0 2.284-1.4779 3.42-1.4779 1.1359-4.2017 1.1359h-5.0811v-15.94h4.8002q1.0016 0 1.9665.171.96493.1588 1.7222.6107.7695.4519 1.2459 1.2581.47635.7939.47635 2.0886 0 2.4795-2.4795 3.3833 3.0291.9283 3.0291 3.872zm-2.223-7.2553q0-.8428-.35421-1.3802-.35422-.5374-.90386-.8184-.54964-.2931-1.2092-.3908-.65957-.11-1.2703-.11h-3.1268v5.411h3.1268q.684 0 1.3436-.098.65957-.1099 1.1848-.403.52521-.3054.86721-.8306t.342-1.3802zm.54964 7.2553q0-1.649-1.0748-2.394-1.0626-.7573-2.9314-.7573h-3.4078v6.2781h3.4078q1.8688 0 2.9314-.7817 1.0748-.7939 1.0748-2.3451z"/>
<path d="m248.56 1036.6h-10.187v-15.94h10.187v1.429h-8.5134v5.7041h6.2781v1.4291h-6.2781v5.9483h8.5134z"/>
<path d="m262.99 1036.6h-2.1253l-4.6536-6.8278h-2.4795v6.8278h-1.6734v-15.94h5.2521q2.6261 0 4.0674 1.1481 1.4413 1.1359 1.4413 3.4078 0 1.0016-.35422 1.8077-.35421.7939-.96492 1.3558-.61072.5618-1.4657.9038-.84278.342-1.8444.4153zm-1.9054-11.384q0-1.6245-1.0138-2.3696-1.0016-.7573-2.7604-.7573h-3.5788v6.2537h3.5788q1.7589 0 2.7604-.7328 1.0138-.7451 1.0138-2.394z"/>
</g>
<g aria-label="END">
<path d="m319.41 1036.6h-10.187v-15.94h10.187v1.429h-8.5133v5.7041h6.2781v1.4291h-6.2781v5.9483h8.5133z"/>
<path d="m333.09 1036.6h-2.0764l-6.4369-13.485v13.485h-1.6734v-15.94h2.3574l6.1438 12.862v-12.862h1.6856z"/>
<path d="m347.89 1028.6q0 1.6001-.342 3.0536-.32978 1.4413-1.0748 2.5405-.73286 1.0871-1.9054 1.7223-1.1604.6351-2.8093.6351h-5.1788v-15.94h5.1788q1.6245 0 2.7848.6595 1.1726.6474 1.9054 1.7467.74507 1.0993 1.0871 2.5405.35421 1.4413.35421 3.0414zm-1.6734 0q0-3.1269-1.1848-4.8368-1.1726-1.7223-3.2734-1.7223h-3.5055v13.082h3.5055q2.1008 0 3.2734-1.6978 1.1848-1.6977 1.1848-4.8246z"/>
</g>
</g>
<g>
<path d="m583.75 998.13v17.066h63.387v-17.066" fill="none" stroke="#000" stroke-width=".71107"/>
<g stroke-width=".14221px" aria-label="RESULT">
<path d="m586.78 1036.6h-2.1253l-4.6536-6.8278h-2.4795v6.8278h-1.6734v-15.94h5.2521q2.6261 0 4.0674 1.1481 1.4413 1.1359 1.4413 3.4078 0 1.0016-.35422 1.8077-.35421.7939-.96493 1.3558-.61071.5618-1.4657.9038-.84278.342-1.8444.4153zm-1.9054-11.384q0-1.6245-1.0138-2.3696-1.0016-.7573-2.7604-.7573h-3.5788v6.2537h3.5788q1.7588 0 2.7604-.7328 1.0138-.7451 1.0138-2.394z"/>
<path d="m599.72 1036.6h-10.187v-15.94h10.187v1.429h-8.5134v5.7041h6.2781v1.4291h-6.2781v5.9483h8.5134z"/>
<path d="m613.59 1032.4q0 1.0016-.41529 1.82-.41528.8061-1.1115 1.3924-.69622.5863-1.6001.9039-.90386.3175-1.881.3175-1.3436 0-2.4673-.5008-1.1237-.5007-1.7833-1.4779v1.6978h-1.4168v-4.8491h1.4168q0 .8184.37864 1.5024.37865.6718.96493 1.1603.58629.4886 1.3436.7695.7695.2688 1.5634.2688.70843 0 1.3069-.1955.59849-.2076 1.0504-.574.45193-.3787.70843-.9161.26871-.5374.26871-1.2214 0-.7695-.342-1.3192-.32978-.5496-.90385-.9405-.56186-.3908-1.2703-.6596-.70842-.2809-1.4413-.5496-.86721-.3054-1.7344-.6351-.86721-.342-1.5512-.855t-1.1115-1.2459q-.4275-.7451-.4275-1.8443 0-.9772.41529-1.7345.41528-.7695 1.0871-1.2947.67178-.5252 1.5634-.7939.89164-.2809 1.8321-.2809 1.1604 0 2.1375.4763.98936.4764 1.539 1.4535v-1.6611h1.4779v4.5559h-1.4779q0-.7206-.30535-1.3436-.29315-.6351-.80615-1.0748-.513-.452-1.1726-.7085-.65957-.2687-1.3924-.2687-.64736 0-1.2336.1466-.58629.1466-1.026.4764-.43972.3175-.70843.8305-.2565.513-.2565 1.2215 0 .6229.30536 1.0626.31757.4397.84278.7817.52521.3298 1.2092.6107.69622.2687 1.4169.5497.90385.3175 1.7955.7084.89164.3908 1.6001.9405.70842.5496 1.1604 1.3558.45193.7939.45193 1.942z"/>
<path d="m627.08 1030.9q0 1.3557-.30535 2.455-.29315 1.0993-.92829 1.881-.62293.7695-1.5878 1.197-.96493.4275-2.2841.4275-1.3314 0-2.2963-.4275-.95271-.4275-1.5756-1.197-.61071-.7817-.91607-1.8932-.29314-1.1115-.29314-2.4673v-10.236h1.6734v10.26q0 .7206.12214 1.5267.13436.8062.50078 1.4658.37865.6595 1.0382 1.0992.67178.4398 1.7466.4398 1.0748 0 1.7466-.4398.684-.4397 1.0504-1.0992.37864-.6596.50078-1.4658.12214-.8061.12214-1.5267v-10.26h1.6856z"/>
<path d="m640.76 1036.6h-10.187v-15.94h1.6734v14.51h8.5134z"/>
<path d="m655.03 1026h-1.4291v-3.9575h-3.42v13.082h2.565v1.4291h-6.8278v-1.4291h2.5772v-13.082h-3.42v3.9575h-1.4291v-5.3865h11.384z"/>
</g>
<g aria-label="ยง">
<path d="m601.14 957.91q0-2.6968 1.1-5.0033 1.1355-2.342 3.6904-4.2582-2.1291-1.4194-3.4775-3.5484-1.3129-2.1646-1.3129-5.4291 0-2.8388 1.1-5.0033 1.1355-2.2 3.0517-3.6904 1.9516-1.4904 4.5065-2.271 2.5904-.81614 5.5001-.81614 2.8388 0 5.4646.78066 2.6613.74517 4.8259 2.3065 2.2 1.5613 3.6549 3.9388 1.4549 2.342 1.8807 5.6066l-4.5775.74517q-.78066-4.684-3.6194-6.955-2.8388-2.3065-7.6292-2.3065-1.5968 0-3.2646.42582-1.6678.39033-3.0162 1.3129-1.3484.88711-2.2 2.342-.81615 1.4549-.81615 3.5839 0 2.5904 1.8807 4.1872 1.8807 1.5968 4.7194 2.8388 2.8388 1.242 6.1033 2.4129 3.2646 1.171 6.1033 2.8742t4.7194 4.2936q1.9162 2.5549 1.9162 6.6356 0 2.5549-.99356 4.9324-.99357 2.342-3.0872 4.2227 1.8097 1.5258 2.9452 3.7259 1.1355 2.1646 1.1355 5.2872 0 2.8388-1.171 5.2517-1.171 2.3775-3.1936 4.0452-1.9871 1.6678-4.6485 2.5904-2.6259.95808-5.5356.95808-3.0517 0-5.8549-.78066-2.8033-.74517-5.1453-2.3065-2.3065-1.5613-4.0098-3.9743-1.7033-2.4484-2.4484-5.8549l4.5065-1.171q1.029 4.9323 4.3291 7.4517 3.3001 2.5194 8.6227 2.5194 1.9516 0 3.7259-.56776 1.8097-.53226 3.0872-1.5968 1.3129-1.029 2.0581-2.5549.78066-1.5258.78066-3.5839 0-3.1226-1.8807-5.0388-1.8807-1.9162-4.7194-3.2291-2.8388-1.3129-6.1033-2.413-3.2646-1.1-6.1033-2.6613-2.8388-1.5613-4.7194-3.9388-1.8807-2.413-1.8807-6.3162zm4.8614-.071q0 2.5904 1.6678 4.2227 1.6678 1.6323 4.1872 2.8033 2.5549 1.171 5.6066 2.2 3.0517.99357 5.8904 2.3775 1.4549-1.171 2.3065-2.7323.88711-1.5613.88711-3.371 0-2.7678-1.4904-4.5775t-3.7968-3.0872q-2.271-1.2774-5.1098-2.271-2.8033-1.029-5.5001-2.2-2.4839 1.242-3.5839 2.9097-1.0645 1.6678-1.0645 3.7259z" stroke-width=".14221px"/>
</g>
</g>
<rect x=".85553" y="921.24" width="387.82" height="125.27" ry="6.0226" fill="none" stroke="#000" stroke-width=".71107"/>
</g>
</svg>
