<svg width="800" height="270" version="1.1" xmlns="http://www.w3.org/2000/svg">
<g transform="translate(0 -782.36)">
<rect y="782.36" width="800" height="270" fill="#0f070f"/>
<g transform="matrix(.5 0 0 .5 -320.24 690.81)" fill="#ccc">
<g transform="matrix(.93637 0 0 .93637 466.71 -205.37)">
<g aria-label="&amp;#60; =">
<path d="m595.69 549.97q-1.9019 9.087-6.1284 18.28-4.2265 9.1926-10.461 17.434l16.589 15.532-9.9323 11.306-16.589-16.272q-7.819 6.9737-17.329 11.412-9.5096 4.4378-20.604 4.4378-8.0303 0-15.215-2.9585-7.0794-2.9586-12.362-8.0303t-8.453-11.834q-3.1699-6.868-3.1699-14.898 0-6.6567 1.4793-12.151 1.3736-5.6001 3.8038-10.038 2.5359-4.4378 5.9171-7.9247 3.3812-3.5925 7.2907-6.6567-6.5511-8.2417-10.144-16.272-3.5925-8.136-3.5925-16.378 0-16.272 9.404-25.887 9.5096-9.6153 25.253-9.6153 7.185 0 13.419 2.2189 6.3397 2.1132 10.989 6.1284t7.185 9.7209q2.6416 5.7058 2.6416 13.102 0 8.2417-3.2755 14.053-3.2755 5.8114-8.2417 10.249t-11.306 8.0303q-6.2341 3.5925-12.257 7.502l38.038 35.714q5.0718-6.9737 8.2417-14.581 3.2755-7.7134 4.9661-15.11zm-64.454 48.182q8.2417 0 15.321-3.0642 7.185-3.1699 12.785-8.3473l-36.348-35.503-3.1699-3.0642q-5.4944 4.7548-8.8756 10.989-3.2755 6.1284-3.2755 15.215 0 10.144 6.5511 17.012 6.6567 6.7624 17.012 6.7624zm-19.442-93.194q0 4.9661 1.7963 11.306 1.9019 6.2341 7.9247 14.159 5.3888-3.1699 10.672-6.2341 5.3888-3.0642 9.404-6.4454 4.1208-3.4869 6.5511-7.7134 2.5359-4.2265 2.5359-9.8266 0-8.2417-5.4944-12.996-5.4944-4.7548-13.736-4.7548-4.5435 0-8.2417 1.9019-3.5925 1.7963-6.2341 4.9661-2.6416 3.0642-3.9095 7.185t-1.268 8.453z"/>
<path d="m711.49 586.21h-23.351v23.351h-12.362v-23.351h-27.05v23.351h-12.362v-23.351h-23.351v-11.623h23.351v-27.895h-23.351v-11.517h23.351v-24.091h12.362v24.091h27.05v-24.091h12.362v24.091h23.351v11.517h-23.351v27.895h23.351zm-35.714-11.623v-27.895h-27.05v27.895z"/>
<path d="m832.58 562.75q0 11.412-3.8038 20.498-3.6982 9.087-10.461 15.532-6.6567 6.3397-15.849 9.8266-9.1926 3.4868-19.865 3.4868-14.687 0-24.619-5.9171-9.9323-6.0228-16.061-15.849-6.0228-9.8266-8.77-22.717-2.6416-12.891-2.6416-26.733 0-14.053 3.5925-26.944 3.6982-12.891 10.989-22.823 7.2907-10.038 18.174-15.849 10.989-5.8114 25.676-5.8114 20.498 0 34.129 14.264l-9.5096 8.453q-9.5096-10.355-24.619-10.355-11.095 0-19.653 4.2265-8.453 4.2265-14.159 11.834-5.6001 7.502-8.453 18.174-2.7472 10.566-2.7472 23.246 1.4793-5.3888 5.6001-10.144 4.1208-4.7548 9.5096-8.136 5.3888-3.4868 11.623-5.4944 6.3397-2.1132 12.679-2.1132 10.778 0 19.865 3.6982 9.087 3.5925 15.532 10.144 6.5511 6.4454 10.144 15.532 3.6982 9.087 3.6982 19.97zm-14.476 0q0-7.819-2.4302-14.581-2.3246-6.8681-6.7624-11.834t-10.989-7.819q-6.4454-2.8529-14.581-2.8529-8.0303 0-14.793 2.6416-6.6567 2.6416-11.412 7.3964-4.7548 4.7548-7.3964 11.306-2.5359 6.4454-2.5359 14.37 0 7.819 2.1132 14.793 2.1132 6.868 6.5511 12.151 4.4378 5.2831 10.989 8.3473 6.6567 3.0642 15.744 3.0642 7.819 0 14.264-2.5359 6.5511-2.6416 11.306-7.3964 4.7548-4.7548 7.2907-11.729 2.6416-6.9737 2.6416-15.321z"/>
<path d="m860.69 540.88q0 15.321 3.6982 28.74l64.56-68.152q-5.0718-9.5096-12.574-14.581-7.3964-5.0718-17.329-5.0718-18.597 0-28.529 15.849-9.8266 15.744-9.8266 43.216zm8.6643 40.469q10.461 18.597 29.691 18.597 18.174 0 28.212-15.744 10.038-15.849 10.038-43.322 0-7.6077-.95096-14.37-.95096-6.868-2.6416-13.102zm-23.14-40.469q0-13.842 2.9585-26.733 2.9586-12.891 9.1926-22.823t16.272-15.849q10.144-6.0228 24.408-6.0228t24.302 6.0228q10.144 5.9171 16.483 15.849 6.3397 9.9323 9.1926 22.823t2.8529 26.733q0 13.842-2.8529 26.733-2.8529 12.891-9.087 22.717t-16.378 15.849q-10.038 5.9171-24.514 5.9171t-24.619-5.9171q-10.038-6.0228-16.378-15.849-6.2341-9.8266-8.9813-22.717-2.8529-12.891-2.8529-26.733z"/>
<path d="m1027.1 530.95h-19.653v-19.759h19.653zm5.3888 59.065-28.952 59.065h-10.144l19.653-59.065z"/>
<path d="m1303.2 542.15h-98.477v-12.574h98.477zm0 46.491h-98.477v-12.362h98.477z"/>
</g>
<g aria-label="&lt;">
<path d="m1584.3 639.52-14.972 15.36-99.551-99.551 99.551-99.551 14.972 15.555-83.996 83.996z" fill="#ccc"/>
</g>
</g>
<g transform="matrix(.93637 0 0 .93637 466.71 61.588)">
<g aria-label="&amp;#62; =">
<path d="m595.69 549.97q-1.9019 9.087-6.1284 18.28-4.2265 9.1926-10.461 17.434l16.589 15.532-9.9323 11.306-16.589-16.272q-7.819 6.9737-17.329 11.412-9.5096 4.4378-20.604 4.4378-8.0303 0-15.215-2.9585-7.0794-2.9586-12.362-8.0303t-8.453-11.834q-3.1699-6.868-3.1699-14.898 0-6.6567 1.4793-12.151 1.3736-5.6001 3.8038-10.038 2.5359-4.4378 5.9171-7.9247 3.3812-3.5925 7.2907-6.6567-6.5511-8.2417-10.144-16.272-3.5925-8.136-3.5925-16.378 0-16.272 9.404-25.887 9.5096-9.6153 25.253-9.6153 7.185 0 13.419 2.2189 6.3397 2.1132 10.989 6.1284t7.185 9.7209q2.6416 5.7058 2.6416 13.102 0 8.2417-3.2755 14.053-3.2755 5.8114-8.2417 10.249t-11.306 8.0303q-6.2341 3.5925-12.257 7.502l38.038 35.714q5.0718-6.9737 8.2417-14.581 3.2755-7.7134 4.9661-15.11zm-64.454 48.182q8.2417 0 15.321-3.0642 7.185-3.1699 12.785-8.3473l-36.348-35.503-3.1699-3.0642q-5.4944 4.7548-8.8756 10.989-3.2755 6.1284-3.2755 15.215 0 10.144 6.5511 17.012 6.6567 6.7624 17.012 6.7624zm-19.442-93.194q0 4.9661 1.7963 11.306 1.9019 6.2341 7.9247 14.159 5.3888-3.1699 10.672-6.2341 5.3888-3.0642 9.404-6.4454 4.1208-3.4869 6.5511-7.7134 2.5359-4.2265 2.5359-9.8266 0-8.2417-5.4944-12.996-5.4944-4.7548-13.736-4.7548-4.5435 0-8.2417 1.9019-3.5925 1.7963-6.2341 4.9661-2.6416 3.0642-3.9095 7.185t-1.268 8.453z"/>
<path d="m711.49 586.21h-23.351v23.351h-12.362v-23.351h-27.05v23.351h-12.362v-23.351h-23.351v-11.623h23.351v-27.895h-23.351v-11.517h23.351v-24.091h12.362v24.091h27.05v-24.091h12.362v24.091h23.351v11.517h-23.351v27.895h23.351zm-35.714-11.623v-27.895h-27.05v27.895z"/>
<path d="m832.58 562.75q0 11.412-3.8038 20.498-3.6982 9.087-10.461 15.532-6.6567 6.3397-15.849 9.8266-9.1926 3.4868-19.865 3.4868-14.687 0-24.619-5.9171-9.9323-6.0228-16.061-15.849-6.0228-9.8266-8.77-22.717-2.6416-12.891-2.6416-26.733 0-14.053 3.5925-26.944 3.6982-12.891 10.989-22.823 7.2907-10.038 18.174-15.849 10.989-5.8114 25.676-5.8114 20.498 0 34.129 14.264l-9.5096 8.453q-9.5096-10.355-24.619-10.355-11.095 0-19.653 4.2265-8.453 4.2265-14.159 11.834-5.6001 7.502-8.453 18.174-2.7472 10.566-2.7472 23.246 1.4793-5.3888 5.6001-10.144 4.1208-4.7548 9.5096-8.136 5.3888-3.4868 11.623-5.4944 6.3397-2.1132 12.679-2.1132 10.778 0 19.865 3.6982 9.087 3.5925 15.532 10.144 6.5511 6.4454 10.144 15.532 3.6982 9.087 3.6982 19.97zm-14.476 0q0-7.819-2.4302-14.581-2.3246-6.8681-6.7624-11.834t-10.989-7.819q-6.4454-2.8529-14.581-2.8529-8.0303 0-14.793 2.6416-6.6567 2.6416-11.412 7.3964-4.7548 4.7548-7.3964 11.306-2.5359 6.4454-2.5359 14.37 0 7.819 2.1132 14.793 2.1132 6.868 6.5511 12.151 4.4378 5.2831 10.989 8.3473 6.6567 3.0642 15.744 3.0642 7.819 0 14.264-2.5359 6.5511-2.6416 11.306-7.3964 4.7548-4.7548 7.2907-11.729 2.6416-6.9737 2.6416-15.321z"/>
<path d="m943 507.49q0 5.7058-1.0566 10.249-.95096 4.5435-3.5925 9.1926-2.5359 4.6492-6.7624 9.8266-4.2265 5.1775-10.672 11.834l-48.076 48.71h58.22v-27.05h12.362v39.412h-89.602v-12.785l53.676-54.522q4.1208-4.1208 7.819-8.2417 3.8038-4.1208 6.7624-8.3473 2.9586-4.2265 4.6491-8.77 1.6906-4.5435 1.6906-9.5096 0-12.679-8.453-19.125-8.3473-6.5511-20.71-6.5511-17.329 0-26.204 9.6153-8.8756 9.6153-8.8756 27.789h-13.419q0-23.351 12.468-36.559 12.468-13.208 36.031-13.208 8.8756 0 16.695 2.6416 7.9247 2.5359 13.947 7.3964 6.1284 4.8605 9.6153 11.94 3.4869 6.9737 3.4869 16.061z"/>
<path d="m1027.1 530.95h-19.653v-19.759h19.653zm5.3888 59.065-28.952 59.065h-10.144l19.653-59.065z"/>
<path d="m1303.2 542.15h-98.477v-12.574h98.477zm0 46.491h-98.477v-12.362h98.477z"/>
</g>
<g aria-label="&gt;">
<path d="m1587.9 555.33-99.551 99.551-15.166-15.36 83.996-84.191-83.996-83.996 15.166-15.555z" fill="#ccc"/>
</g>
</g>
</g>
</g>
</svg>
